<?xml version="1.0" encoding="UTF-8"?>
<svg width="460px" height="256px" viewBox="0 0 460 256" version="1.1" xmlns="http://www.w3.org/2000/svg" xmlns:xlink="http://www.w3.org/1999/xlink">
    <title>Map_Flatline 2@1x</title>
    <g id="Page-1" stroke="none" stroke-width="1" fill="none" fill-rule="evenodd">
        <g id="Ğ¨Ğ¤_404" transform="translate(-450.000000, -248.000000)" fill-rule="nonzero">
            <g id="Map_Flatline" transform="translate(450.000000, 248.000000)">
                <path d="M391.000958,223.041403 C391.000958,223.041403 372.477812,187.260479 366.822208,180.062445 C361.166604,172.864411 332.694042,94.0905788 332.304958,93.3372961 C331.915875,92.5840135 382.177104,97.8848912 388.221792,102.823077 C394.266479,107.761263 399.935979,152.497881 404.896792,157.436067 C409.857604,162.374253 428.269583,185.112228 428.269583,185.112228 L391.000958,223.041403 Z" id="Path" fill="#FFFFFF"></path>
                <path d="M391.000958,223.738887 L390.889792,223.738887 C390.671231,223.696139 390.482871,223.558155 390.375646,223.362246 C390.195,223.013504 371.838604,187.567372 366.266375,180.494885 C361.402833,174.301228 340.5035,117.539988 333.625062,98.889268 C332.541187,95.9458859 331.763021,93.8255349 331.679646,93.6302394 C331.553959,93.3271512 331.638285,92.9772525 331.888083,92.7653593 C332.888583,91.956278 354.482708,94.7601633 358.415229,95.3181504 C370.379542,96.9921118 385.345354,99.5030539 388.666458,102.292989 C391.987562,105.082925 395.03075,118.349069 398.185104,132.410344 C400.644667,143.416641 403.187604,154.729829 405.341458,156.947828 C410.218896,161.858115 428.04725,183.75911 428.811521,184.693738 C429.048277,184.954614 429.048277,185.353541 428.811521,185.614417 L391.529,223.543591 C391.391383,223.685379 391.197316,223.757154 391.000958,223.738887 Z M333.291562,94.0068807 L334.931271,98.456828 C353.315458,148.368776 364.223687,175.696196 367.364146,179.685804 C372.588979,186.32585 388.207896,216.331608 391.167708,221.925429 L427.296875,185.126178 C424.587187,181.806155 408.745937,162.430052 404.313167,157.980104 C401.881396,155.538911 399.519104,144.979004 396.781625,132.759086 C394.002458,120.204376 390.778625,105.892006 387.749333,103.464762 C382.496708,99.0427145 339.933771,94.1324278 333.291562,93.951082 L333.291562,94.0068807 Z" id="Shape" fill="#303337"></path>
                <polygon id="Path" fill="#303337" points="394.183104 255.181461 377.396938 206.859776 424.434333 176.100736 458.604188 228.732872"></polygon>
                <path d="M394.183104,255.864996 C394.086846,255.884918 393.98755,255.884918 393.891292,255.864996 C393.721343,255.784715 393.591011,255.638782 393.53,255.460455 L376.743833,207.15272 C376.634102,206.846882 376.749378,206.505498 377.02175,206.329689 L424.059146,175.570649 C424.381576,175.363209 424.810417,175.456796 425.017958,175.779894 L459.187812,228.412029 C459.299044,228.585902 459.329473,228.799733 459.271187,228.997916 C459.204255,229.193046 459.057697,229.350319 458.868208,229.430356 L394.447125,255.934744 C394.356026,255.925498 394.266936,255.901963 394.183104,255.864996 L394.183104,255.864996 Z M378.230687,207.15272 L394.641667,254.260783 L457.617583,228.398079 L424.267583,177.063264 L378.230687,207.15272 Z" id="Shape" fill="#303337"></path>
                <path d="M72.0221042,223.041403 C72.0221042,223.041403 90.54525,187.260479 96.2008542,180.062445 C101.856458,172.864411 130.329021,94.0905788 130.718104,93.3372961 C131.107187,92.5840135 80.8459583,97.8848912 74.8012708,102.823077 C68.7565833,107.761263 63.0870833,152.497881 58.1262708,157.436067 C53.1654583,162.374253 34.7395833,185.112228 34.7395833,185.112228 L72.0221042,223.041403 Z" id="Path" fill="#FFFFFF"></path>
                <path d="M72.0221042,223.738936 C71.8378401,223.741142 71.661202,223.665147 71.53575,223.529642 L34.2532292,185.600467 C34.0164727,185.339591 34.0164727,184.940664 34.2532292,184.679788 C34.9758125,183.74516 52.8041667,161.816266 57.6816042,156.933879 C59.8354583,154.771678 62.3783958,143.402691 64.8379583,132.396395 C67.9923125,118.335119 70.952125,105.055026 74.3566042,102.27904 C77.7610833,99.5030539 92.6435208,96.9921118 104.607833,95.3042008 C108.540354,94.7462136 130.120583,91.9423283 131.134979,92.7514097 C131.399691,92.9606791 131.481029,93.3281182 131.329521,93.6302394 L129.398,98.8753183 C122.450083,117.526038 101.606333,174.287278 96.7566875,180.480935 C91.1983542,187.553422 72.8280625,222.999554 72.6474167,223.348296 C72.5401912,223.544205 72.3518313,223.68219 72.1332708,223.724937 L72.0221042,223.738936 Z M35.6845,185.070379 L71.8136667,221.86963 C74.7178958,216.289759 90.3923958,186.270052 95.6172292,179.630005 C98.7576875,175.640397 109.665917,148.312978 128.050104,98.4010293 L129.689813,93.951082 C123.047604,94.1324278 80.4846667,99.0566642 75.1903542,103.367115 C72.1610625,105.836208 68.9789167,120.106728 66.1580625,132.661439 C63.3788958,144.881357 61.0582917,155.441263 58.6265208,157.882457 C54.19375,162.374253 38.3941875,181.750356 35.6845,185.070379 Z" id="Shape" fill="#303337"></path>
                <polygon id="Path" fill="#303337" points="62.6563125 254.651374 85.626125 206.859776 40.2979167 169.44674 0.847645833 219.302889"></polygon>
                <path d="M62.6563125,255.348957 C62.5378494,255.351046 62.4215284,255.316988 62.3228125,255.25121 L0.50025,219.902726 C0.323041318,219.803744 0.200314099,219.629207 0.16675,219.428436 C0.127082324,219.230926 0.178120112,219.025984 0.305708333,218.870449 L39.7559792,169.0143 C39.866988,168.867503 40.0323441,168.771929 40.2145417,168.749256 C40.3990446,168.733707 40.5826123,168.788493 40.7286875,168.902702 L86.0707917,206.329689 C86.3192226,206.531544 86.3943636,206.879692 86.2514375,207.166669 L63.281625,254.958267 C63.1924914,255.127048 63.0438414,255.256377 62.86475,255.320958 L62.6563125,255.348957 Z M1.88983333,219.079694 L62.3645,253.660946 L84.7645833,207.055072 L40.3951875,170.423217 L1.88983333,219.079694 Z" id="Shape" fill="#303337"></path>
                <path d="M135.248146,48.056641 C135.248146,48.056641 85.6956042,179.783451 88.4469792,181.429513 C91.1983542,183.075575 152.687417,164.954943 165.527167,161.662819 L233.45,183.898606 L306.861687,168.247068 L373.797917,188.836792 L338.043937,53.0087768 L286.629354,26.6578348 L236.229167,51.3487651 L188.469187,29.9360092 L135.248146,48.056641 Z" id="Path" fill="#FFFFFF"></path>
                <path d="M373.797917,189.534276 L373.589479,189.534276 L306.82,168.972451 L233.588958,184.582141 C233.470136,184.610082 233.346489,184.610082 233.227667,184.582141 L165.513271,162.416102 C162.067104,163.308881 155.24425,165.206038 147.379208,167.424037 C109.568646,178.025792 90.0311042,183.201122 88.0995833,182.057249 C87.1546667,181.499262 85.87625,180.662281 110.166167,113.913071 C122.074896,81.1452775 134.469979,48.1682385 134.595042,47.8334462 C134.674481,47.6399293 134.830542,47.4883165 135.025813,47.4149558 L188.246854,29.2803743 C188.412671,29.2183706 188.595183,29.2183706 188.761,29.2803743 L236.229167,50.5815328 L286.407021,26.0161496 C286.60419,25.9188449 286.835165,25.9188449 287.032333,26.0161496 L338.446917,52.3531419 C338.623476,52.4456037 338.754197,52.6071143 338.808208,52.7995316 L374.589979,188.641497 C374.646005,188.850363 374.602329,189.073503 374.471745,189.245559 C374.34116,189.417615 374.138446,189.519114 373.922979,189.520327 L373.797917,189.534276 Z M306.806104,167.549584 L307.014542,167.549584 L372.797417,187.762667 L337.418625,53.4272671 L286.657146,27.4250671 L236.493188,51.9765006 C236.306013,52.0525098 236.096737,52.0525098 235.909563,51.9765006 L188.441396,30.6892918 L135.790083,48.6146282 C116.836167,98.9729661 89.1834583,174.63602 89.0306042,180.871526 C92.9492292,181.206318 127.938938,171.385745 147.004021,166.056968 C155.035813,163.81107 161.969833,161.872065 165.360417,160.993235 C165.486811,160.951699 165.623106,160.951699 165.7495,160.993235 L233.45,183.173223 L306.681042,167.563533 L306.806104,167.549584 Z" id="Shape" fill="#303337"></path>
                <path d="M131.7325,94.8578111 C131.42895,94.8552669 131.160724,94.6589279 131.0655,94.3695723 C130.839422,93.6764881 130.90466,92.9208254 131.246146,92.2771206 C132.17386,90.9194334 133.570034,89.9552235 135.164771,89.5708831 C146.385939,86.2975599 158.178571,85.4934291 169.737604,87.2133875 C171.127187,87.4365823 172.641833,87.7016262 174.087,87.9527204 C178.811583,88.8036508 183.702917,89.6685308 188.455292,89.0407953 C193.360626,88.2426921 198.032448,86.3762446 202.142687,83.5725215 C213.578958,76.4023869 220.318437,66.260971 220.207271,56.4403976 C220.213914,56.0609631 220.510765,55.7507992 220.888167,55.728964 C221.075955,55.7212204 221.25858,55.7917431 221.392788,55.9238291 C221.526995,56.0559151 221.600848,56.2378155 221.596854,56.4264479 C221.749708,66.73526 214.760104,77.350965 202.920854,84.7582441 C198.636478,87.6693641 193.770934,89.6069366 188.663729,90.4357631 C183.716812,91.0774483 178.714312,90.1846689 173.892458,89.3337385 C172.502875,89.0686946 171.016021,88.8176004 169.58475,88.5944056 C158.221015,86.9022301 146.627332,87.6920947 135.595542,90.9100522 C134.364819,91.1877361 133.274742,91.9007644 132.524562,92.9188058 C132.347864,93.2284408 132.312427,93.5994308 132.427292,93.9371323 C132.547209,94.2990378 132.355315,94.6905256 131.996521,94.815962 L131.7325,94.8578111 Z" id="Path" fill="#E4E9EC"></path>
                <path d="M126.452083,156.361942 C126.225713,156.361942 126.013583,156.251048 125.883583,156.06501 C125.753582,155.878973 125.722013,155.641022 125.798979,155.427313 C131.829771,138.534253 138.4025,122.715318 152.353917,114.638455 C161.900354,109.058583 174.406604,107.761263 189.525271,110.634897 C195.250354,111.722972 200.947646,113.285336 206.464292,114.8198 C212.941759,116.711252 219.514419,118.257179 226.154688,119.451094 C235.478792,120.943709 242.232167,120.190426 247.429208,117.065699 C252.62625,113.940971 255.919563,108.556395 259.282354,102.920725 C261.323578,99.2025681 263.735272,95.7018773 266.480396,92.4724161 C275.387625,82.7076414 289.1445,79.7503097 303.637854,77.4207134 C315.977354,75.4398591 327.858292,74.1704384 337.390833,80.3361962 C337.71316,80.5480615 337.80337,80.9821226 337.592323,81.3056987 C337.381275,81.6292749 336.94889,81.7198344 336.626563,81.5079691 C327.510896,75.6072553 315.921771,76.8627263 303.846292,78.8017316 C289.616958,81.0894788 276.124104,83.9352131 267.508688,93.4070445 C264.830924,96.5713503 262.475417,99.9967987 260.477396,103.632159 C257.170188,109.21203 253.765708,114.889549 248.151792,118.265371 C242.537875,121.641193 235.645542,122.450274 225.918458,120.832112 C219.232005,119.628486 212.613111,118.073281 206.089104,116.172919 C200.60025,114.666354 194.972438,113.11794 189.247354,111.988016 C174.476083,109.19808 162.289438,110.467501 153.034813,115.810228 C139.486375,123.663896 133.038708,139.231737 127.091292,155.859753 C127.011762,156.150279 126.752119,156.354265 126.452083,156.361942 L126.452083,156.361942 Z" id="Path" fill="#E4E9EC"></path>
                <path d="M233.45,182.67918 L233.45,182.67918 C233.069497,182.664377 232.768811,182.357049 232.769104,181.983104 L235.548271,52.3478256 C235.576381,51.9801219 235.881693,51.6920605 236.256958,51.6791803 C236.442463,51.6791803 236.62,51.753209 236.748523,51.8845706 C236.877046,52.0159323 236.945426,52.1931018 236.937854,52.3751173 L234.158688,182.010396 C234.155039,182.191362 234.078315,182.363489 233.945402,182.488892 C233.812489,182.614295 233.634281,182.682696 233.45,182.67918 Z" id="Path" fill="#E4E9EC"></path>
                <path d="M165.527167,160.360329 L165.360417,160.360329 C164.983895,160.291703 164.731562,159.944465 164.790687,159.576293 L187.732708,31.9311093 C187.797941,31.5578355 188.161892,31.306679 188.545615,31.3701355 C188.929337,31.4335921 189.187525,31.787632 189.122292,32.1609058 L166.221958,159.833124 C166.144461,160.144575 165.85657,160.363015 165.527167,160.360329 L165.527167,160.360329 Z" id="Path" fill="#E4E9EC"></path>
                <path d="M306.847792,166.939512 C306.502034,166.94203 306.209225,166.691304 306.166896,166.356456 L285.97625,28.7190712 C285.922529,28.3446498 286.190048,27.9986273 286.573771,27.9462083 C286.957494,27.8937893 287.312112,28.1548238 287.365833,28.5292452 L307.556479,166.16663 C307.606157,166.540018 307.340553,166.883564 306.958958,166.939512 L306.847792,166.939512 Z" id="Path" fill="#E4E9EC"></path>
                <path d="M355.733333,175.542749 C355.645801,175.555731 355.556844,175.555731 355.469312,175.542749 L304.31875,153.613855 L231.824187,170.576664 C231.693074,170.618373 231.552322,170.618373 231.421208,170.576664 L168.209062,145.955482 L107.206354,161.816266 C106.956636,161.880206 106.691896,161.805792 106.511562,161.62097 C106.342051,161.425733 106.289089,161.15458 106.372604,160.909537 L144.099792,54.4037446 C144.166948,54.2119597 144.314112,54.0591315 144.502771,53.9852542 L186.59325,37.5246341 C186.774032,37.4410405 186.982198,37.4410405 187.162979,37.5246341 L236.062417,61.5180804 L287.1435,36.4086598 C287.340669,36.311355 287.571644,36.311355 287.768812,36.4086598 L332.110417,59.5093268 C332.295574,59.6050699 332.428179,59.7791489 332.471708,59.9836158 L356.525396,174.691819 C356.576554,174.94585 356.486055,175.207712 356.289167,175.375353 C356.140113,175.515257 355.934487,175.577184 355.733333,175.542749 Z M304.31875,152.190988 C304.405543,152.170235 304.495978,152.170235 304.582771,152.190988 L354.760625,173.617694 L331.040437,60.5416029 L287.365833,37.8036276 L236.28475,62.9130482 C236.089481,62.9967914 235.868603,62.9967914 235.673333,62.9130482 L186.815583,38.9335516 L145.294833,55.1709769 L108.123479,160.114405 L168.139583,144.518665 C168.280088,144.4764 168.42985,144.4764 168.570354,144.518665 L231.796396,169.139847 L304.31875,152.204938 L304.31875,152.190988 Z" id="Shape" fill="#E4E9EC"></path>
                <path d="M384.789521,123.677846 C373.255979,115.740479 360.360646,109.979262 347.1735,105.29217 C343.907979,104.134347 340.434021,103.018373 337.043438,103.743756 C333.652854,104.469139 330.526292,107.691515 331.207188,111.095236 C331.749125,113.773575 334.264271,115.503335 336.570979,116.954101 L366.766625,135.925663 C363.397949,148.866922 368.025718,162.579146 378.536396,170.799859" id="Path" fill="#FFFFFF"></path>
                <path d="M378.536396,171.581056 C378.385899,171.58207 378.239303,171.533015 378.119521,171.441544 C367.446945,163.199516 362.669541,149.381797 365.960667,136.274405 L336.195792,117.581837 C333.652854,115.977624 331.109917,114.164166 330.526292,111.262632 C329.762021,107.384622 333.305458,103.841404 336.890583,103.088121 C340.475708,102.334839 343.8385,103.408964 347.409729,104.664435 C362.834104,110.160608 374.840104,116.019473 385.178604,123.119859 C385.332597,123.22446 385.438401,123.386658 385.47235,123.570173 C385.5063,123.753687 385.465563,123.943206 385.35925,124.096336 C385.257664,124.250023 385.098519,124.355974 384.917964,124.390124 C384.737409,124.424273 384.550769,124.383722 384.400437,124.277682 C374.159208,117.302843 362.250479,111.430029 346.951167,105.989654 C343.602271,104.789982 340.33675,103.785605 337.224083,104.44124 C334.111417,105.096875 331.318354,107.91471 331.929771,110.983639 C332.416125,113.355084 334.708937,114.959297 336.973958,116.396114 L367.141812,135.311878 C367.404462,135.475573 367.524291,135.796357 367.433625,136.09306 C364.155608,148.771546 368.679929,162.194389 378.953271,170.269771 C379.260249,170.500897 379.322463,170.938081 379.092229,171.246248 C378.971626,171.441352 378.764636,171.566028 378.536396,171.581056 L378.536396,171.581056 Z" id="Path" fill="#303337"></path>
                <path d="M78.2335417,123.677846 C89.7670833,115.740479 102.662417,109.979262 115.849563,105.29217 C119.115083,104.134347 122.589042,103.018373 125.979625,103.743756 C129.370208,104.469139 132.496771,107.691515 131.815875,111.095236 C131.273938,113.773575 128.758792,115.503335 126.452083,116.954101 L96.2564375,135.925663 C99.648073,148.867732 95.016066,162.592512 84.4866667,170.799859" id="Path" fill="#FFFFFF"></path>
                <path d="M84.4866667,171.581041 C84.2684852,171.578898 84.0634494,171.475983 83.9308333,171.302047 C83.7005996,170.993879 83.7628134,170.556695 84.0697917,170.32557 C94.3431332,162.250188 98.8674541,148.827344 95.5894375,136.148858 C95.4687802,135.835782 95.5924443,135.481087 95.88125,135.311878 L126.090792,116.340315 C128.383604,114.945348 130.648625,113.299285 131.134979,110.92784 C131.746396,107.858911 128.842167,105.027126 125.840667,104.385441 C122.839167,103.743756 119.420792,104.734183 116.113583,105.933855 C100.828167,111.37423 88.8916458,117.191246 78.5948333,124.221883 C78.4445019,124.327924 78.2578622,124.368474 78.0773069,124.334325 C77.8967516,124.300175 77.737607,124.194224 77.6360208,124.040538 C77.5297083,123.887407 77.4889708,123.697889 77.5229206,123.514374 C77.5568703,123.330859 77.6626743,123.168661 77.8166667,123.06406 C88.1829583,115.991573 100.188958,110.202457 115.613333,104.622586 C119.156771,103.367115 122.56125,102.306939 126.132479,103.046272 C129.703708,103.785605 133.261042,107.342773 132.496771,111.220783 C131.913146,114.122317 129.370208,115.935775 126.827271,117.539988 L97.0623958,136.232556 C100.353521,149.339948 95.5761171,163.157667 84.9035417,171.399695 C84.7893636,171.506273 84.6422088,171.570287 84.4866667,171.581041 Z" id="Path" fill="#303337"></path>
                <path d="M92.7546875,62.3133616 C92.6038502,62.316446 92.4565495,62.2671556 92.3378125,62.1737153 L67.7005,43.2440021 C67.4672411,43.1089583 67.332713,42.8507743 67.3552532,42.5814102 C67.3777933,42.312046 67.5533426,42.0800105 67.805775,41.9859246 C68.0582073,41.8918387 68.3420632,41.9526459 68.53425,42.1419775 L93.1715625,61.0019423 C93.4108101,61.1820733 93.5083957,61.4956811 93.4138247,61.7804932 C93.3192538,62.0653053 93.053747,62.2574133 92.7546875,62.2574133 L92.7546875,62.3133616 Z" id="Path" fill="#E4E9EC"></path>
                <path d="M223.167083,16.8791448 C222.818345,16.8825561 222.5211,16.6259352 222.472292,16.2792743 L220.721417,2.1622001 C220.671533,1.77699038 220.942163,1.42412056 221.325885,1.37404329 C221.709608,1.32396603 222.061116,1.59564457 222.111,1.98085429 L223.847979,16.0979285 C223.875569,16.2816558 223.827466,16.4687416 223.714744,16.6161115 C223.602021,16.7634813 223.434395,16.8584351 223.250458,16.8791448 L223.167083,16.8791448 Z" id="Path" fill="#D1D3D4"></path>
                <path d="M384.011354,74.5749791 C383.793173,74.5728369 383.588137,74.4699218 383.455521,74.2959855 C383.22221,73.9914634 383.278125,73.5548787 383.580583,73.3195081 L409.399042,52.8971793 C409.59514,52.7426834 409.858446,52.7049456 410.089776,52.7981814 C410.321106,52.8914173 410.485315,53.101462 410.520547,53.3491937 C410.555779,53.5969255 410.456681,53.844708 410.260583,53.9992039 L384.442125,74.4215326 C384.317074,74.5148178 384.167008,74.5682732 384.011354,74.5749791 Z" id="Path" fill="#E4E9EC"></path>
                <path d="M329.66475,25.5697687 C329.543928,25.5703443 329.424752,25.5416312 329.317354,25.4860619 C328.987266,25.2867715 328.876182,24.8592995 329.067229,24.5235341 L335.320354,13.5311878 C335.444467,13.314395 335.674363,13.1805401 335.923442,13.1800435 C336.172522,13.1795497 336.402944,13.3124894 336.527911,13.5287869 C336.652878,13.7450844 336.653404,14.011879 336.529292,14.2286717 L330.262271,25.221018 C330.138909,25.4355254 329.911478,25.5682649 329.66475,25.5697687 Z" id="Path" fill="#E4E9EC"></path>
                <path d="M111.958729,237.284024 C111.809018,237.280328 111.663833,237.231745 111.541854,237.144528 C111.233164,236.908296 111.171212,236.466736 111.402896,236.1541 L134.094792,206.315739 C134.325025,206.007571 134.760522,205.945116 135.0675,206.176242 C135.367559,206.411435 135.428915,206.842592 135.206458,207.15272 L112.55625,237.005031 C112.41488,237.190989 112.191481,237.295298 111.958729,237.284024 Z" id="Path" fill="#E4E9EC"></path>
                <path d="M334.194792,230.992759 C333.988725,230.994867 333.791549,230.908585 333.652854,230.755575 L308.640354,200.903264 C308.390934,200.606652 308.428263,200.163223 308.723729,199.912837 C309.019196,199.66245 309.460913,199.699923 309.710333,199.996535 L334.722833,229.848846 C334.967475,230.14697 334.930467,230.586591 334.639458,230.839273 C334.510544,230.935229 334.35523,230.988825 334.194792,230.992759 L334.194792,230.992759 Z" id="Path" fill="#E4E9EC"></path>
                <path d="M216.775,227.854042 L216.775,227.854042 C216.393406,227.796502 216.127801,227.443057 216.177479,227.05891 L218.525875,209.775259 C218.583118,209.399859 218.929021,209.139427 219.304042,209.189373 C219.487978,209.210048 219.655605,209.305002 219.768327,209.452372 C219.881049,209.599742 219.929153,209.786827 219.901562,209.970555 L217.553167,227.254206 C217.502744,227.635251 217.154724,227.903516 216.775,227.854042 L216.775,227.854042 Z" id="Path" fill="#E4E9EC"></path>
                <path d="M73.6479167,215.285518 C73.4928411,215.288456 73.3412003,215.23935 73.2171458,215.145885 L34.3088125,185.670215 C34.0018342,185.43909 33.9396205,185.001906 34.1698542,184.693738 C34.4041395,184.392516 34.833632,184.330922 35.1425625,184.554241 L74.0508958,214.029911 C74.2901434,214.210042 74.387729,214.52365 74.2931581,214.808462 C74.1985872,215.093274 73.9330803,215.285518 73.6340208,215.285518 L73.6479167,215.285518 Z" id="Path" fill="#FFFFFF"></path>
                <path d="M389.750333,216.861696 C389.442631,216.860898 389.172102,216.657021 389.085452,216.360627 C388.998803,216.064232 389.116674,215.745926 389.375146,215.578325 L426.671562,191.738325 C426.998902,191.541457 427.422749,191.640121 427.630375,191.96152 C427.837014,192.2852 427.743788,192.715703 427.421937,192.924048 L390.125521,216.750098 C390.011969,216.818772 389.882823,216.857186 389.750333,216.861696 L389.750333,216.861696 Z" id="Path" fill="#FFFFFF"></path>
                <path d="M219.577714,76.825069 C218.771756,66.4046595 222.857131,59.5553676 234.376777,51.2692588 C244.756964,43.9317281 247.716777,40.1095163 247.27211,34.2925005 C246.730173,27.3176615 240.449256,23.4815 231.083464,24.2068833 C219.508235,25.1136123 212.949402,33.1765263 213.130048,46.5263682 L187.797943,46.6100663 C186.686277,21.0961051 203.264006,3.12891967 229.485443,1.09226667 C252.802652,-0.721191486 270.908923,12.126462 272.395777,31.4328165 C273.312902,43.2202945 268.227027,52.0364911 255.206631,61.4664735 C244.687485,69.3340919 242.366881,72.4309204 242.825443,78.4153324 L243.284006,84.3997443 L220.300298,86.2271521 L219.577714,76.825069 Z M219.577714,98.1401772 L246.702381,96.0198261 L248.745068,122.524214 L221.550923,124.616666 L219.577714,98.1401772 Z" id="Shape" fill="#F0AA3B"></path>
            </g>
        </g>
    </g>
</svg>