<svg width="12" height="12" viewBox="0 0 12 12" fill="none" xmlns="http://www.w3.org/2000/svg">
<path d="M11.6189 1.73783C11.613 1.62151 11.517 1.5293 11.3994 1.5293H0.588867C0.471313 1.5293 0.37532 1.62151 0.369415 1.73783C0.369141 1.74161 0.369141 1.74532 0.369141 1.74909V10.0985C0.369141 10.2199 0.467606 10.3184 0.588867 10.3184H11.3994C11.5207 10.3184 11.6191 10.2199 11.6191 10.0985V1.74909C11.6191 1.74532 11.6191 1.74161 11.6189 1.73783ZM0.808594 1.96621H11.1797V2.9799H0.808594V1.96621ZM11.1797 9.8787H0.808594V3.4195H11.1797V9.8787Z" fill="white"/>
<path d="M4.12647 2.70802H2.36865C2.24725 2.70802 2.14893 2.60962 2.14893 2.48829C2.14893 2.36682 2.24725 2.26849 2.36865 2.26849H4.12647C4.24786 2.26849 4.34619 2.36682 4.34619 2.48829C4.34619 2.60962 4.24786 2.70802 4.12647 2.70802Z" fill="white"/>
<path d="M1.49018 2.70802C1.36885 2.70802 1.27039 2.60962 1.27039 2.48829C1.27039 2.36682 1.36864 2.26849 1.49004 2.26849H1.49018C1.61158 2.26849 1.70991 2.36682 1.70991 2.48829C1.70991 2.60962 1.61158 2.70802 1.49018 2.70802Z" fill="white"/>
<path d="M3.74536 7.24403H1.89966C1.77826 7.24403 1.67993 7.14571 1.67993 7.02424C1.67993 6.90284 1.77826 6.80444 1.89966 6.80444H3.74536C3.86676 6.80444 3.96509 6.90284 3.96509 7.02424C3.96509 7.14571 3.86676 7.24403 3.74536 7.24403V7.24403Z" fill="white"/>
<path d="M3.74536 8.1274H1.89966C1.77826 8.1274 1.67993 8.02894 1.67993 7.90761C1.67993 7.78621 1.77826 7.68774 1.89966 7.68774H3.74536C3.86676 7.68774 3.96509 7.78621 3.96509 7.90761C3.96509 8.02894 3.86676 8.1274 3.74536 8.1274Z" fill="white"/>
<path d="M3.74536 9.01057H1.89966C1.77826 9.01057 1.67993 8.91224 1.67993 8.79084C1.67993 8.66944 1.77826 8.57104 1.89966 8.57104H3.74536C3.86676 8.57104 3.96509 8.66944 3.96509 8.79084C3.96509 8.91224 3.86676 9.01057 3.74536 9.01057Z" fill="white"/>
<path d="M2.82251 6.39886C2.24092 6.39886 1.76782 5.9257 1.76782 5.34397C1.76782 4.76218 2.24092 4.28894 2.82251 4.28894C3.4041 4.28894 3.8772 4.76218 3.8772 5.34397C3.8772 5.9257 3.4041 6.39886 2.82251 6.39886ZM2.82251 4.72853C2.48331 4.72853 2.20728 5.00456 2.20728 5.34397C2.20728 5.68324 2.48331 5.95934 2.82251 5.95934C3.16171 5.95934 3.43774 5.68324 3.43774 5.34397C3.43774 5.00456 3.16178 4.72853 2.82251 4.72853Z" fill="white"/>
<path d="M6.91699 7.24403H5.07129C4.94989 7.24403 4.85156 7.14571 4.85156 7.02424C4.85156 6.90284 4.94989 6.80444 5.07129 6.80444H6.91699C7.03839 6.80444 7.13672 6.90284 7.13672 7.02424C7.13672 7.14571 7.03839 7.24403 6.91699 7.24403V7.24403Z" fill="white"/>
<path d="M6.91699 8.1274H5.07129C4.94989 8.1274 4.85156 8.02894 4.85156 7.90761C4.85156 7.78621 4.94989 7.68774 5.07129 7.68774H6.91699C7.03839 7.68774 7.13672 7.78621 7.13672 7.90761C7.13672 8.02894 7.03839 8.1274 6.91699 8.1274Z" fill="white"/>
<path d="M6.91699 9.01057H5.07129C4.94989 9.01057 4.85156 8.91224 4.85156 8.79084C4.85156 8.66944 4.94989 8.57104 5.07129 8.57104H6.91699C7.03839 8.57104 7.13672 8.66944 7.13672 8.79084C7.13672 8.91224 7.03839 9.01057 6.91699 9.01057Z" fill="white"/>
<path d="M5.99414 6.39886C5.41255 6.39886 4.93945 5.9257 4.93945 5.34397C4.93945 4.76218 5.41255 4.28894 5.99414 4.28894C6.57573 4.28894 7.04883 4.76218 7.04883 5.34397C7.04883 5.9257 6.57573 6.39886 5.99414 6.39886ZM5.99414 4.72853C5.65494 4.72853 5.37891 5.00456 5.37891 5.34397C5.37891 5.68324 5.65494 5.95934 5.99414 5.95934C6.33334 5.95934 6.60937 5.68324 6.60937 5.34397C6.60937 5.00456 6.33334 4.72853 5.99414 4.72853Z" fill="white"/>
<path d="M10.0906 7.24403H8.24487C8.12347 7.24403 8.02515 7.14571 8.02515 7.02424C8.02515 6.90284 8.12347 6.80444 8.24487 6.80444H10.0906C10.2119 6.80444 10.3103 6.90284 10.3103 7.02424C10.3103 7.14571 10.2119 7.24403 10.0906 7.24403V7.24403Z" fill="white"/>
<path d="M10.0906 8.1274H8.24487C8.12347 8.1274 8.02515 8.02894 8.02515 7.90761C8.02515 7.78621 8.12347 7.68774 8.24487 7.68774H10.0906C10.2119 7.68774 10.3103 7.78621 10.3103 7.90761C10.3103 8.02894 10.2119 8.1274 10.0906 8.1274Z" fill="white"/>
<path d="M10.0906 9.01057H8.24487C8.12347 9.01057 8.02515 8.91224 8.02515 8.79084C8.02515 8.66944 8.12347 8.57104 8.24487 8.57104H10.0906C10.2119 8.57104 10.3103 8.66944 10.3103 8.79084C10.3103 8.91224 10.2119 9.01057 10.0906 9.01057Z" fill="white"/>
<path d="M9.16773 6.39886C8.58614 6.39886 8.11304 5.9257 8.11304 5.34397C8.11304 4.76218 8.58614 4.28894 9.16773 4.28894C9.74931 4.28894 10.2224 4.76218 10.2224 5.34397C10.2224 5.9257 9.74931 6.39886 9.16773 6.39886V6.39886ZM9.16773 4.72853C8.82852 4.72853 8.55249 5.00456 8.55249 5.34397C8.55249 5.68324 8.82852 5.95934 9.16773 5.95934C9.50693 5.95934 9.78296 5.68324 9.78296 5.34397C9.78296 5.00456 9.50693 4.72853 9.16773 4.72853V4.72853Z" fill="white"/>
</svg>
