<svg xmlns="http://www.w3.org/2000/svg" width="72" height="66" viewBox="0 0 72 66">
    <g fill="none" fill-rule="evenodd">
        <g fill-rule="nonzero">
            <g>
                <g>
                    <g>
                        <g fill="#303337" stroke="#FFF" stroke-width=".5">
                            <g>
                                <path d="M11.567 0c2.278 0 4.257 1.32 5.196 3.28 1.777-.967 3.717-1.643 5.766-1.99 4.794-.812 9.613.27 13.608 3.048l.004-.006 13.142 9.494-.001.001 15.935 11.508c1.892 1.367 2.391 3.985 1.184 5.957l-.16.243-2.988 4.242c-1.843 2.62-4.081 2.519-5.745 2.242l-.197-.034-19.698-3.668c-3.024 2.58-6.835 4.135-10.808 4.398-.4.026-.8.04-1.2.04-3.86 0-7.66-1.226-10.817-3.506-7.663-5.536-9.941-15.907-5.682-24.117-1.958-.948-3.313-2.984-3.313-5.282 0-.495.062-.975.177-1.434l.096-.34h-.134c-1.647 0-3.05 1.054-3.187 2.345l-.01.206V23.97c4.138 13.868 9.276 17.47 14.781 19.773l1.145.46 2.422.922.96.372c3.368 1.332 6.807 3.015 10.19 6.701 2.293 2.499 1.86 4.693 1.227 5.974l-.071.138-.15.263C31.205 61.923 24.978 64 18.55 64c-2.512 0-5.053-.317-7.388-.998-3.321-.97-5.973-2.563-7.882-4.739C1.183 55.874.083 52.891.004 49.387L0 48.8V6.627c0-2.836 2.487-5.16 5.607-5.312l.325-.008h2.003C8.928.49 10.192 0 11.567 0zM2.734 32.055l.003 17.238c.136 6.309 4.185 9.276 8.025 10.671l.588.203.568.175c3.534 1.031 7.809 1.18 11.728.407 3.547-.699 6.33-2.088 7.264-3.626.36-.594.682-1.555-.68-3.04-2.962-3.228-5.954-4.724-9.071-5.963l-.493-.194-3.128-1.193c-2.916-1.142-5.874-2.523-8.657-5.255-2.228-2.188-4.135-5.023-5.814-8.68l-.333-.743zM22.98 4.021c-2.241.38-4.332 1.22-6.17 2.456-.058.048-.12.09-.187.128-1.518 1.054-2.858 2.38-3.958 3.941l-.163.237-.158.238-.268.424c-4.355 7.14-2.545 16.605 4.3 21.55 6.048 4.369 14.423 3.87 19.915-1.185.27-.249.626-.376.986-.358l.18.021 20.253 3.771.513.084c1.137.162 1.861.054 2.637-.933l.167-.225 2.988-4.243c.493-.698.378-1.653-.236-2.216l-.15-.122-5.03-3.633-2.856 4.052c-.445.632-1.109 1.05-1.868 1.179-.16.027-.32.04-.48.04-.508 0-1.004-.137-1.443-.4l-.215-.141-6.121-4.425c-.62-.443-1.034-1.112-1.163-1.879-.112-.673.007-1.348.337-1.93l.154-.244 2.854-4.052-2.968-2.144-.004-.002-9.995-7.218c-3.454-2.497-7.663-3.48-11.85-2.771zm9.157 6.596c5.052 3.648 6.231 10.777 2.63 15.892-1.746 2.477-4.34 4.119-7.304 4.622-.63.106-1.259.16-1.884.16-2.156 0-4.257-.628-6.09-1.833l-.419-.288-.324-.243c-4.776-3.718-5.828-10.65-2.304-15.653 1.745-2.477 4.339-4.118 7.303-4.62 2.965-.502 5.945.195 8.392 1.963zm17.887 7.146l-2.853 4.052c-.026.037-.026.077-.022.104l.017.05.033.035 6.129 4.43c.023.017.048.023.07.024l.058-.01.031-.017.03-.03 2.855-4.053-6.348-4.585zm19.956-1.892c.115.696-.304 1.357-.955 1.554l-.167.04-6.88 1.165c-.076.013-.152.019-.227.019-.656 0-1.235-.48-1.346-1.156-.115-.696.304-1.357.955-1.554l.167-.04 6.88-1.165c.744-.127 1.449.383 1.573 1.137zm-6.837-9.932c.564.407.731 1.167.418 1.77l-.098.16-3.782 5.373c-.267.379-.688.58-1.115.58-.274 0-.551-.083-.792-.257-.564-.407-.73-1.167-.417-1.77l.097-.16 3.783-5.372c.438-.623 1.292-.768 1.906-.324zm-9.741-1.012l.038.17.93 5.634c.125.754-.378 1.467-1.123 1.593-.076.013-.152.02-.227.02-.596 0-1.129-.397-1.305-.977l-.042-.18-.93-5.635c-.124-.754.379-1.467 1.123-1.593.688-.117 1.341.308 1.536.968zM11.567 2.769l-.237.01c-1.565.122-2.802 1.453-2.802 3.07 0 1.325.854 2.482 2.044 2.905 1.102-1.525 2.4-2.854 3.854-3.96-.396-1.114-1.4-1.913-2.6-2.014l-.259-.011z" transform="translate(-523.000000, -999.000000) translate(72.000000, 960.000000) translate(420.000000, 0.000000) translate(32.000000, 40.000000)"/>
                            </g>
                        </g>
                        <path fill="#F0AA3B" d="M30.55 12.87c-1.853-1.337-4.11-1.865-6.354-1.485-2.244.38-4.207 1.622-5.528 3.497-2.727 3.871-1.834 9.27 1.99 12.035 1.853 1.337 4.109 1.864 6.353 1.483 2.244-.38 4.207-1.623 5.529-3.499 2.727-3.872 1.834-9.269-1.99-12.03z" transform="translate(-523.000000, -999.000000) translate(72.000000, 960.000000) translate(420.000000, 0.000000) translate(32.000000, 40.000000)"/>
                    </g>
                </g>
            </g>
        </g>
    </g>
</svg>
