<?xml version="1.0" encoding="UTF-8"?>
<svg width="654px" height="426px" viewBox="0 0 654 426" version="1.1" xmlns="http://www.w3.org/2000/svg" xmlns:xlink="http://www.w3.org/1999/xlink">
    <title>Group 18@1x</title>
    <g id="Page-1" stroke="none" stroke-width="1" fill="none" fill-rule="evenodd">
        <g id="ШФ_Чемпионат" transform="translate(-552.000000, -2112.000000)">
            <g id="Group-18" transform="translate(553.834770, 2114.172190)">
                <path id="Path-9" d="M139.609728,297.20421 L143.601697,297.457558 C143.557862,298.148254 143.512997,298.84028 143.466597,299.54051 L143.395783,300.597865 L142.429,312.792 L150.967077,300.082143 L154.287568,302.312465 L141.492799,321.361254 L139.510291,324.312803 L138.017392,321.085849 L128.382476,300.259642 L132.012798,298.580131 L138.441,312.477 L139.40658,300.305085 C139.476604,299.268458 139.54432,298.234833 139.609728,297.20421 Z M140.913838,265.31762 L144.913271,265.384981 C144.796124,272.340405 144.560304,279.448898 144.205834,286.710483 L144.067346,289.440754 L140.072873,289.230557 C140.502548,281.065218 140.78286,273.094227 140.913838,265.31762 Z M144.569094,233.297964 C144.852739,240.322831 144.996338,247.52811 144.999931,254.913834 L144.995943,257.382425 L140.995971,257.367601 C141.023296,249.993947 140.911637,242.801339 140.661032,235.789811 L140.572351,233.459342 L144.569094,233.297964 Z M142.162644,201.23582 C142.963943,208.338662 143.595461,215.659856 144.057274,223.199443 L144.179016,225.261109 L140.185466,225.488182 C139.758305,217.975669 139.163166,210.682301 138.400123,203.608119 L138.187857,201.684231 L142.162644,201.23582 Z M137.144285,169.451374 C138.607037,176.491476 139.865348,183.793945 140.919357,191.358809 L141.178603,193.255492 L137.214066,193.786952 C136.20563,186.264314 134.995849,179.004874 133.584864,172.008662 L133.227926,170.265093 L137.144285,169.451374 Z M128.773963,138.325802 C131.092668,145.182652 133.162491,152.358156 134.983669,159.852261 L135.399528,161.587326 L131.50679,162.507431 C129.750186,155.075678 127.750097,147.962977 125.506761,141.169273 L124.984751,139.607158 L128.773963,138.325802 Z M115.936345,108.660471 C119.555011,115.324457 122.690907,122.064052 125.343622,128.879084 L125.700548,129.802396 L125.700548,129.802396 L126.05275,130.726055 L122.311999,132.142664 C122.082656,131.537052 121.851525,130.935048 121.61602,130.329939 C119.197735,124.117177 116.366733,117.965156 113.122652,111.873669 L112.421169,110.569276 L115.936345,108.660471 Z M98.3029909,81.6409543 C103.016689,87.7969506 107.292017,94.0218892 111.128643,100.315797 L111.944062,101.665548 L108.512097,103.720205 C104.812078,97.5399383 100.678921,91.4228757 96.1122944,85.3690451 L95.1270967,84.0727635 L98.3029909,81.6409543 Z M77.0772159,57.350229 C82.4898364,62.8440054 87.5317164,68.3959004 92.2026977,74.0060304 L93.2740324,75.3017096 L90.182652,77.8400884 C85.6409207,72.3089127 80.7309109,66.8315556 75.4524644,61.4081333 L74.227821,60.1575318 L77.0772159,57.350229 Z M53.3546762,35.6054629 C59.1906173,40.4698669 64.7187567,45.3822579 69.9390365,50.3427389 L71.3551162,51.6967897 L68.5816527,54.5791325 C63.4810992,49.6712503 58.0737697,44.8084495 52.3596063,39.9908331 L50.7935907,38.678058 L53.3546762,35.6054629 Z M27.8422025,16.0289283 C33.969274,20.3758055 39.8367783,24.7629345 45.4447006,29.1903877 L47.1192898,30.5198334 L44.6236965,33.6458556 C39.1221503,29.2538133 33.3614098,24.9000872 27.3414599,20.5847499 L25.5276986,19.2913004 L27.8422025,16.0289283 Z M1.05282868,-1.70045634 C7.35721926,2.20287421 13.4411532,6.14024037 19.3046315,10.1116895 L21.2509592,11.4367682 L18.9919569,14.7378148 C13.2233776,10.7902079 7.2344272,6.87534284 1.02510668,2.9932671 L-1.05282868,1.70045634 L1.05282868,-1.70045634 Z" fill="#CAD2D6" fill-rule="nonzero"></path>
                <path id="Oval-Copy" d="M136.16523,290.82781 C179.725068,290.82781 215.16523,320.514698 215.16523,357.32781 C215.16523,394.140921 179.725068,423.82781 136.16523,423.82781 C92.6053917,423.82781 57.1652299,394.140921 57.1652299,357.32781 C57.1652299,320.514698 92.6053917,290.82781 136.16523,290.82781 Z M136.16523,294.82781 C94.6732167,294.82781 61.1652299,322.896188 61.1652299,357.32781 C61.1652299,391.759431 94.6732167,419.82781 136.16523,419.82781 C177.657243,419.82781 211.16523,391.759431 211.16523,357.32781 C211.16523,322.896188 177.657243,294.82781 136.16523,294.82781 Z" fill="#CAD2D6" fill-rule="nonzero"></path>
                <g id="Group-3" transform="translate(525.594020, 197.810218)" stroke="#CAD2D6" stroke-width="4">
                    <path d="M15.3451883,17.4241567 C35.9021967,32.5544818 51.5541858,44.9978908 62.3011557,54.7543839 C73.0481256,64.510877 88.6988465,80.4852152 109.253318,102.677398" id="Path-7" transform="translate(62.299253, 60.050778) rotate(29.000000) translate(-62.299253, -60.050778) "></path>
                    <path d="M28.8215649,94.7194469 C42.8753495,79.1375294 54.7837194,66.9792762 64.5466746,58.2446873 C74.3096298,49.5100984 89.9110101,37.0562997 111.350816,20.8832911" id="Path-8" transform="translate(70.086190, 57.801369) rotate(29.000000) translate(-70.086190, -57.801369) "></path>
                </g>
            </g>
        </g>
    </g>
</svg>