<?xml version="1.0" encoding="UTF-8"?>
<svg width="195px" height="183px" viewBox="0 0 195 183" version="1.1" xmlns="http://www.w3.org/2000/svg" xmlns:xlink="http://www.w3.org/1999/xlink">
    <title>Path 10@1x</title>
    <g id="Page-1" stroke="none" stroke-width="1" fill="none" fill-rule="evenodd">
        <g id="ШФ_Чемпионат" transform="translate(-466.000000, -726.000000)" fill="#CAD2D6" fill-rule="nonzero">
            <path id="Path-10" d="M470.175797,881.990189 L474.138729,882.533486 L471.729,900.106 L473.021,901.086 L489.29092,894.019644 L490.884521,897.688491 L469.83731,906.83056 L466.576113,908.247094 L467.059044,904.724488 L470.175797,881.990189 Z M490.44854,874.076211 L493.556408,876.594377 C490.61712,880.221985 487.69325,883.895054 484.791583,887.604738 L482.6196,890.393727 L478.801835,895.430007 L475.614198,893.013611 L479.44521,887.960052 C483.088594,883.26096 486.75637,878.633012 490.44854,874.076211 Z M511.154402,849.557539 L514.156022,852.201452 C509.676684,857.286819 505.231474,862.472827 500.820393,867.75948 L498.617697,870.411194 L495.535203,867.862031 C500.694534,861.623274 505.900932,855.521774 511.154402,849.557539 Z M532.885283,825.948246 L535.766946,828.722416 C530.96872,833.706564 526.207816,838.800791 521.484239,844.005102 L519.462134,846.24226 L516.489162,843.566174 C521.905101,837.54939 527.370473,831.676744 532.885283,825.948246 Z M555.705201,803.361546 L558.436836,806.283561 C556.544023,808.05305 554.682146,809.823134 552.851227,811.593787 C549.758839,814.584479 546.684101,817.616503 543.624521,820.692314 L541.33264,823.00742 L538.483273,820.20009 C542.321002,816.304896 546.18178,812.479287 550.070496,808.718456 C551.917733,806.932021 553.795968,805.146386 555.705201,803.361546 Z M579.857461,782.184757 L582.403698,785.269668 C576.731669,789.951273 571.277325,794.637178 566.040662,799.327339 L564.303169,800.890883 L561.620479,797.923869 C567.430409,792.670695 573.509405,787.424344 579.857461,782.184757 Z M605.142957,762.404977 L607.529167,765.615273 C601.707023,769.942867 596.071806,774.274248 590.623517,778.609386 L588.589171,780.235239 L586.085172,777.115946 C592.201074,772.206432 598.553668,767.302789 605.142957,762.404977 Z M631.30063,743.835477 L633.548286,747.144259 C627.555191,751.215369 621.72831,755.289911 616.067648,759.367865 L613.952691,760.897258 L611.602951,757.660173 C617.958464,753.046822 624.524355,748.4386 631.30063,743.835477 Z M658.161755,726.306166 L660.288656,729.693834 C654.257191,733.480608 648.370198,737.27041 642.627681,741.063227 L640.175447,742.688905 L637.959538,739.358778 C644.504945,735.003379 651.239016,730.652515 658.161755,726.306166 Z"></path>
        </g>
    </g>
</svg>