<?xml version="1.0" encoding="UTF-8"?>
<svg width="475px" height="365px" viewBox="0 0 475 365" version="1.1" xmlns="http://www.w3.org/2000/svg" xmlns:xlink="http://www.w3.org/1999/xlink">
    <title>Group 17@1x</title>
    <g id="Page-1" stroke="none" stroke-width="1" fill="none" fill-rule="evenodd">
        <g id="ШФ_Чемпионат" transform="translate(-188.000000, -1686.000000)">
            <g id="Group-17" transform="translate(190.000000, 1687.000000)">
                <path id="Oval-Copy-3" d="M71.5,240 C112.02289,240 145,267.673099 145,302 C145,336.326901 112.02289,364 71.5,364 C30.97711,364 -2,336.326901 -2,302 C-2,267.673099 30.97711,240 71.5,240 Z M71.5,244 C33.0461708,244 2,270.052731 2,302 C2,333.947269 33.0461708,360 71.5,360 C109.953829,360 141,333.947269 141,302 C141,270.052731 109.953829,244 71.5,244 Z" fill="#CAD2D6" fill-rule="nonzero"></path>
                <path id="Path-6" d="M468.434396,-0.758162536 L472.13585,0.758162536 C440.340711,78.3722785 392.639839,143.160299 329.049223,195.095986 C269.652972,243.606053 190.617063,278.451078 91.9422543,299.659844 L88.9460973,300.29836 L76.938,302.705 L91.4995342,307.442651 L90.2621037,311.246434 L68.4407989,304.147621 L65.0596584,303.047682 L67.75545,300.729346 L85.1536302,285.7672 L87.7617584,288.799965 L76.151,298.784 L88.1394681,296.38059 C187.604662,275.364018 267.057475,240.561304 326.518986,191.997937 C389.590623,140.48611 436.89043,76.2428228 468.434396,-0.758162536 Z" fill="#CAD2D6" fill-rule="nonzero"></path>
                <g id="Group-2" transform="translate(202.182321, 87.038513)" stroke="#CAD2D6" stroke-width="4">
                    <path d="M0.817679481,0.961487261 C20.0801771,14.9833228 34.7468437,26.5146725 44.8176795,35.5555364 C54.8885152,44.5964003 69.5551819,59.3983839 88.8176795,79.9614873" id="Path-7"></path>
                    <path d="M11.8176795,68.9614873 C24.9288876,54.6100735 36.0389226,43.4122718 45.1477845,35.3680821 C54.2566464,27.3238923 68.813278,15.8550274 88.8176795,0.961487261" id="Path-8"></path>
                </g>
            </g>
        </g>
    </g>
</svg>