<?xml version="1.0" encoding="UTF-8"?>
<svg width="756px" height="432px" viewBox="0 0 756 432" version="1.1" xmlns="http://www.w3.org/2000/svg" xmlns:xlink="http://www.w3.org/1999/xlink">
    <title>Group 9@1x</title>
    <g id="Page-1" stroke="none" stroke-width="1" fill="none" fill-rule="evenodd">
        <g id="ШФ_Чемпионат" transform="translate(-259.000000, -1064.000000)" fill="#CAD2D6" fill-rule="nonzero">
            <g id="Group-9" transform="translate(261.000000, 1066.000000)">
                <path id="Oval" d="M668.5,290 C715.640223,290 754,321.2391 754,360 C754,398.7609 715.640223,430 668.5,430 C621.359777,430 583,398.7609 583,360 C583,321.2391 621.359777,290 668.5,290 Z M668.5,294 C623.40867,294 587,323.650174 587,360 C587,396.349826 623.40867,426 668.5,426 C713.59133,426 750,396.349826 750,360 C750,323.650174 713.59133,294 668.5,294 Z"></path>
                <path id="Oval-Copy-2" d="M59,-2 C92.6089218,-2 120,20.284267 120,48 C120,75.715733 92.6089218,98 59,98 C25.3910782,98 -2,75.715733 -2,48 C-2,20.284267 25.3910782,-2 59,-2 Z M59,2 C27.4393213,2 2,22.696397 2,48 C2,73.303603 27.4393213,94 59,94 C90.5606787,94 116,73.303603 116,48 C116,22.696397 90.5606787,2 59,2 Z"></path>
                <path id="Path-4" d="M131.299354,56.0225301 C256.879622,75.0331782 363.794395,111.116914 452.032235,164.286964 C533.683514,213.488108 602.014385,272.697483 657.029627,341.932198 L658.69268,344.033289 L666.121,353.716 L663.954313,338.558828 L667.914053,337.99274 L671.161549,360.708732 L671.664738,364.228501 L668.395445,362.830753 L647.295987,353.809922 L648.868454,350.131968 L662.946,356.15 L655.535277,346.488915 C600.557022,276.757674 532.038302,217.166814 449.967765,167.713036 C363.083227,115.358453 257.91355,79.6333769 134.447637,60.5506405 L130.700646,59.9774699 L131.299354,56.0225301 Z"></path>
            </g>
        </g>
    </g>
</svg>