<?xml version="1.0" encoding="UTF-8"?>
<svg width="265px" height="256px" viewBox="0 0 265 256" version="1.1" xmlns="http://www.w3.org/2000/svg" xmlns:xlink="http://www.w3.org/1999/xlink">
    <title>winner__flatline 2 copy@1x</title>
    <g id="Page-1" stroke="none" stroke-width="1" fill="none" fill-rule="evenodd">
        <g id="ШФ_Чемпионат" transform="translate(-548.000000, -360.000000)" fill-rule="nonzero">
            <g id="winner__flatline" transform="translate(548.000000, 360.000000)">
                <g id="team-sport-(1)" transform="translate(114.018913, 0.000000)" fill="#303337">
                    <path d="M15.3486998,0 C6.87194064,0 0,6.88261846 0,15.372549 C0,23.8624796 6.87194064,30.745098 15.3486998,30.745098 C23.8254589,30.745098 30.6973995,23.8624796 30.6973995,15.372549 C30.6879065,6.88662173 23.8214618,0.00950779346 15.3486998,0 Z M15.8965464,4.43186784 L21.232368,2.29562399 C21.8379222,2.57009804 22.4237409,2.88635621 22.9855772,3.24214668 L22.9995669,3.25090378 C23.5516605,3.60118973 24.079272,3.98875616 24.5789042,4.41085068 L24.6218725,4.44838135 C24.8459575,4.63953739 25.0637972,4.83744897 25.2756412,5.04161564 C25.3023715,5.06788707 25.3303509,5.09290749 25.3570813,5.11967936 C25.5791677,5.33685659 25.7942594,5.5607894 26.0023562,5.7912275 C26.0195935,5.81074346 26.0360813,5.83126018 26.0533186,5.85077614 C26.2359342,6.05569344 26.4115549,6.26786664 26.5819295,6.48354267 C26.6228993,6.53483459 26.6638692,6.58612645 26.7035899,6.6374183 C26.8884538,6.877114 27.0673221,7.1210631 27.2361978,7.3727686 L26.1724809,11.9014655 L20.9390839,13.648892 L15.8977955,9.60884395 L15.8965464,4.43186784 Z M3.99330997,6.64042075 C4.03303075,6.5891289 4.07350092,6.53783698 4.11447082,6.48679538 C4.28284682,6.27287073 4.45696861,6.06420035 4.63683619,5.86053413 C4.65632187,5.83901653 4.67430863,5.81699855 4.69354445,5.79548102 C4.90039216,5.56454248 5.11448453,5.34085985 5.3363212,5.12418301 C5.36180247,5.09916258 5.38728368,5.07289115 5.41401402,5.04987236 C5.62410932,4.8469567 5.84020021,4.65029613 6.06228675,4.4601409 L6.11349903,4.41710583 C6.60863453,3.9980137 7.1312497,3.61294935 7.67784734,3.26416466 L7.69783262,3.25140422 C8.25642131,2.89636438 8.8384928,2.58060659 9.44054958,2.30588235 L14.8008531,4.43186784 L14.8008531,9.60734276 L9.75931483,13.6466401 L4.52591785,11.9024663 L3.46220103,7.37376942 C3.63257556,7.12256435 3.80944534,6.87911564 3.99330997,6.64042075 Z M3.3767639,23.2357179 C3.22637465,23.0060304 3.08248059,22.7720895 2.94533158,22.5336448 L2.91210599,22.4760979 C2.77570645,22.2389042 2.64655149,21.9977073 2.52489111,21.7527574 L2.52064418,21.745001 C2.26433292,21.2295803 2.03924865,20.6991472 1.84689024,20.1564542 L1.84689024,20.1514502 C1.75595719,19.895241 1.67301825,19.6327768 1.59632476,19.3688113 L1.56859516,19.2714818 C1.49839686,19.0235294 1.43469375,18.7728248 1.37773568,18.5193678 C1.37273936,18.4945977 1.36649397,18.4710784 1.36149759,18.4465584 C1.23584015,17.8740911 1.1456565,17.294618 1.09119662,16.7108915 L4.21464705,12.9570772 L9.41182071,14.6919935 L10.9202102,20.7344261 L8.44178487,24.0371222 L3.3767639,23.2357179 Z M18.7556915,29.3066738 C18.4998798,29.3702257 18.2373231,29.4250204 17.9747664,29.4743106 C17.9380434,29.4815666 17.900571,29.4875715 17.863848,29.494327 C17.6402626,29.5343597 17.4141791,29.5686376 17.1875959,29.5966605 C17.1271404,29.6044169 17.0671846,29.6126736 17.0069789,29.6199296 C16.7966337,29.6444495 16.58429,29.6629647 16.3714468,29.6782271 C16.304496,29.6827308 16.2382948,29.6894863 16.1713441,29.6937398 C15.8992944,29.7105035 15.6249963,29.7202614 15.3486998,29.7202614 C15.0956361,29.7202614 14.8440713,29.7135059 14.5940054,29.7002451 C14.5637776,29.7002451 14.534799,29.695241 14.5045712,29.6929892 C14.2819851,29.6802288 14.0603983,29.6634651 13.8393111,29.6419475 L13.8138298,29.6371936 C13.3294364,29.5846507 12.847791,29.5075879 12.3711419,29.4067555 L9.34487,24.6611315 L11.784324,21.403222 L18.9130755,21.403222 L21.3925001,24.6826491 L18.7556915,29.3066738 Z M29.3396491,18.4470588 C29.334403,18.4715788 29.3284074,18.4953482 29.3231613,18.5198683 C29.2659534,18.773075 29.2022503,19.0237796 29.1323018,19.2719822 L29.104822,19.3693117 C29.0278787,19.6332771 28.9451895,19.8947406 28.8540067,20.1519506 L28.8540067,20.1569546 C28.6616483,20.6996477 28.4368139,21.2300807 28.1802527,21.7455014 L28.1760059,21.7532578 C28.053596,21.9984579 27.9246909,22.2396549 27.7887909,22.4765982 L27.7555654,22.5341452 C27.6191659,22.7733405 27.4755216,23.006781 27.3248825,23.2352175 L22.2770989,24.0323683 L19.7814362,20.7324245 L21.2890763,14.6914931 L26.4862499,12.9565768 L29.6097004,16.7103912 C29.5554902,17.2943678 29.4653066,17.8743413 29.3396491,18.4470588 L29.3396491,18.4470588 Z" id="Shape"></path>
                </g>
                <rect id="Rectangle" fill="#FFFFFF" x="88.4876955" y="192.341333" width="84.5312511" height="63.0964706"></rect>
                <path d="M173.018947,255.939765 L88.4576667,255.939765 C88.1812586,255.939765 87.9571856,255.715029 87.9571856,255.437804 L87.9571856,192.341333 C87.9571856,192.064108 88.1812586,191.839373 88.4576667,191.839373 L172.988918,191.839373 C173.265326,191.839373 173.4894,192.064108 173.4894,192.341333 L173.4894,255.437804 C173.4894,255.703681 173.283563,255.923812 173.018947,255.939765 Z M88.9881766,254.935843 L172.538485,254.935843 L172.538485,192.843294 L88.9881766,192.843294 L88.9881766,254.935843 Z" id="Shape" fill="#303337"></path>
                <rect id="Rectangle" fill="#FFFFFF" x="3.95644443" y="206.928314" width="84.5312511" height="48.5094902"></rect>
                <path d="M88.4576667,255.939765 L3.95644443,255.939765 C3.68003637,255.939765 3.45596337,255.715029 3.45596337,255.437804 L3.45596337,206.928314 C3.45596337,206.651088 3.68003637,206.426353 3.95644443,206.426353 L88.4576667,206.426353 C88.7340747,206.426353 88.9581477,206.651088 88.9581477,206.928314 L88.9581477,255.437804 C88.9581477,255.715029 88.7340747,255.939765 88.4576667,255.939765 Z M4.42689663,254.935843 L87.9571856,254.935843 L87.9571856,207.430275 L4.45692549,207.430275 L4.42689663,254.935843 Z" id="Shape" fill="#303337"></path>
                <rect id="Rectangle" fill="#FFFFFF" x="173.018947" y="218.37302" width="84.5312511" height="37.0647843"></rect>
                <path d="M257.560207,255.939765 L173.018947,255.939765 C172.744775,255.934424 172.523791,255.712787 172.518466,255.437804 L172.518466,218.37302 C172.523791,218.098037 172.744775,217.8764 173.018947,217.871059 L257.560207,217.871059 C257.834379,217.8764 258.055363,218.098037 258.060688,218.37302 L258.060688,255.437804 C258.055363,255.712787 257.834379,255.934424 257.560207,255.939765 Z M173.479389,254.935843 L257.019688,254.935843 L257.019688,218.854902 L173.539447,218.854902 L173.479389,254.935843 Z" id="Shape" fill="#303337"></path>
                <polygon id="Path" fill="#F0AA3B" points="131.70924 236.865255 131.70924 217.85098 126.884603 221.585569 123.701543 217.228549 132.209721 210.954039 137.805099 210.954039 137.805099 236.905412"></polygon>
                <path d="M38.4095606,242.597647 L38.4095606,238.21051 L47.0478637,230.369882 C47.5537971,229.895964 47.9977624,229.359607 48.3691337,228.773647 C48.7017335,228.226646 48.8750958,227.597219 48.8696148,226.956549 C48.8984952,226.237125 48.6263308,225.538325 48.1188932,225.02902 C46.9098462,223.962571 45.0773416,224.042288 43.9649004,225.209725 C43.3784511,225.89384 43.0274467,226.749302 42.9639383,227.649255 L37.9591277,226.956549 C38.1492794,224.895136 39.1507169,222.994728 40.7418024,221.675922 C41.5120551,221.046141 42.3906813,220.562999 43.3342943,220.250353 C44.3294906,219.924767 45.3704734,219.762056 46.4172576,219.768471 C47.4319602,219.761751 48.4426449,219.896908 49.420144,220.170039 C50.3467291,220.427586 51.2185551,220.852879 51.9926166,221.424941 C52.7422274,221.993901 53.3545911,222.724734 53.7843388,223.563294 C54.2523612,224.496649 54.4860157,225.530526 54.4649931,226.575059 C54.4728949,227.303722 54.364765,228.028979 54.1446852,228.723451 C53.947892,229.355582 53.6577249,229.954552 53.2838577,230.500392 C52.9202557,231.047792 52.5009375,231.555826 52.0326551,232.016314 C51.5622029,232.488157 51.031693,232.96 50.58126,233.421804 L45.4162955,238.019765 L54.4249546,238.019765 L54.4249546,242.597647 L38.4095606,242.597647 Z" id="Path" fill="#E4E9EC"></path>
                <path d="M223.917871,241.563608 C223.948273,242.659881 223.696621,243.745527 223.187168,244.715922 C222.715182,245.584411 222.055036,246.335703 221.255311,246.91451 C220.446701,247.497094 219.54199,247.932095 218.582742,248.199529 C217.6058,248.477548 216.595362,248.619427 215.579856,248.621249 C214.592207,248.624551 213.60767,248.509967 212.647037,248.279843 C211.731545,248.061967 210.854137,247.706582 210.044536,247.225725 C209.257085,246.744682 208.562082,246.12583 207.992563,245.398588 C207.383284,244.600708 206.93762,243.689686 206.681303,242.718118 L211.565998,241.433098 C211.792734,242.191516 212.242848,242.863435 212.857239,243.360627 C213.552,243.932339 214.431612,244.228791 215.329616,244.193882 C215.715547,244.193379 216.099553,244.139324 216.470712,244.033255 C216.831331,243.936428 217.170787,243.773007 217.471674,243.551373 C217.779759,243.319833 218.035588,243.025616 218.222396,242.688 C218.433904,242.279324 218.537298,241.823043 218.522685,241.362824 C218.539976,240.862041 218.403725,240.367986 218.132309,239.947294 C217.873544,239.574491 217.530561,239.268333 217.131347,239.053804 C216.669494,238.826549 216.177245,238.667617 215.669943,238.581961 C215.130902,238.489907 214.585171,238.442896 214.038374,238.441412 L212.57697,238.441412 L212.57697,234.616471 L214.108442,234.616471 C214.590994,234.616201 215.072833,234.579285 215.549827,234.506039 C215.980335,234.439066 216.396539,234.299921 216.781011,234.094431 C217.573884,233.687778 218.049896,232.847362 217.992175,231.956078 C218.034109,231.239255 217.714526,230.549177 217.141357,230.118902 C216.578594,229.705514 215.896984,229.487036 215.19949,229.496471 C214.473004,229.470253 213.761699,229.709245 213.197566,230.169098 C212.641822,230.629772 212.260279,231.267557 212.116527,231.976157 L207.231832,230.841725 C207.478779,229.948183 207.893229,229.110019 208.453006,228.372078 C208.988632,227.680443 209.638693,227.086188 210.374853,226.615216 C211.127616,226.139748 211.947636,225.780986 212.807191,225.551059 C213.684397,225.309521 214.590117,225.187951 215.499779,225.189604 C216.466147,225.186928 217.428668,225.311818 218.362531,225.561098 C219.25469,225.800519 220.098205,226.194643 220.854926,226.725647 C221.582625,227.259313 222.186944,227.944179 222.626629,228.73349 C223.091616,229.588213 223.322985,230.551058 223.297274,231.524392 C223.33245,232.657988 222.959342,233.766365 222.246264,234.646588 C221.560834,235.490142 220.624348,236.091688 219.573695,236.363294 L219.573695,236.463686 C220.182241,236.601272 220.763954,236.838715 221.29535,237.166431 C221.803671,237.477425 222.25694,237.870967 222.636639,238.33098 C223.41054,239.244289 223.833056,240.405193 223.827784,241.603765 L223.917871,241.563608 Z" id="Path" fill="#E4E9EC"></path>
                <path d="M124.882678,92.5214118 C124.882678,92.5214118 122.490379,83.3756863 123.271129,82.7432157 C124.03802,82.300704 124.899649,82.0493698 125.783544,82.0103529 C125.783544,82.0103529 127.605295,74.5411765 135.032434,73.2762353 C136.243598,73.0654118 138.715975,75.2840784 138.715975,77.4224314 C138.715975,79.5607843 135.422809,82.0103529 135.422809,82.0103529 C135.422809,82.0103529 126.644372,92.8326275 124.882678,92.5214118 Z" id="Path" fill="#FFFFFF"></path>
                <path d="M124.922717,92.9832157 L124.802601,92.9832157 C124.63022,92.9489532 124.491249,92.8211868 124.442255,92.6519216 C122.800677,86.387451 122.310206,82.944 122.98085,82.4018824 C123.715286,81.9244629 124.559769,81.6444409 125.433207,81.5887059 C125.89365,80.1129412 128.215882,73.9789804 134.952357,72.8345098 C135.806876,72.8062203 136.634292,73.137437 137.234551,73.7480784 C138.368544,74.6485872 139.073162,75.9854922 139.176417,77.4324706 C139.176417,79.6712157 136.173531,82.0304314 135.743117,82.3617255 C133.641097,84.9317647 126.94466,92.9832157 124.922717,92.9832157 Z M135.202598,73.7179608 L135.112511,73.7179608 C128.055728,74.9226667 126.243987,82.0404706 126.223968,82.1107451 C126.175959,82.3077466 126.005421,82.4502818 125.803563,82.4621176 C125.013518,82.4826405 124.240414,82.6963035 123.551399,83.084549 C123.331187,83.6467451 124.212034,88.1041569 125.223005,91.9993725 C126.644372,91.3970196 131.228778,86.4075294 135.072473,81.7192157 C135.093845,81.687593 135.12102,81.6603372 135.15255,81.638902 C136.023387,80.9963922 138.265542,78.988549 138.265542,77.4123922 C138.156151,76.2289922 137.570595,75.1414229 136.643983,74.4006275 C136.24616,74.0280292 135.742234,73.789361 135.202598,73.7179608 Z" id="Shape" fill="#303337"></path>
                <polyline id="Path" fill="#FFFFFF" points="138.886138 158.027294 149.506346 188.175059 154.531176 182.101333 148.325211 154.844863"></polyline>
                <path d="M149.516356,188.636863 L149.436279,188.636863 C149.274153,188.606635 149.140523,188.491756 149.085942,188.335686 L138.465734,158.218039 C138.424086,158.102241 138.43026,157.974557 138.482883,157.863344 C138.535507,157.75213 138.630225,157.666592 138.746004,157.625725 C138.983181,157.550819 139.237521,157.673967 139.326562,157.906824 L149.67651,187.301647 L154.050714,182.02102 L147.894797,154.985412 C147.864866,154.866802 147.884181,154.741088 147.948326,154.637018 C148.01247,154.532948 148.115958,154.459423 148.235125,154.433255 C148.482964,154.382957 148.726116,154.538147 148.785654,154.784627 L154.991619,182.031059 C155.022967,182.171691 154.989917,182.319014 154.901532,182.432627 L149.896722,188.456157 C149.809945,188.578698 149.665865,188.647148 149.516356,188.636863 L149.516356,188.636863 Z" id="Path" fill="#303337"></path>
                <path d="M121.40934,161.219765 C121.40934,161.219765 106.825322,180.003137 101.470174,183.928471 L97.1760468,180.063373 C97.1760468,180.063373 109.76815,160.376471 113.261508,154.212392 L121.40934,161.219765 Z" id="Path" fill="#FFFFFF"></path>
                <path d="M101.470174,184.390275 C101.355563,184.389369 101.245224,184.34653 101.159876,184.269804 L96.8757581,180.404706 C96.709611,180.256945 96.6756206,180.009786 96.7956811,179.822431 C96.9157966,179.621647 109.417813,160.075294 112.811075,153.98149 C112.88296,153.866767 112.998842,153.786863 113.131383,153.760627 C113.26676,153.735363 113.406306,153.772194 113.511749,153.86102 L121.619542,160.888471 C121.802633,161.046282 121.829122,161.320807 121.679599,161.510902 C121.079022,162.283922 106.995485,180.394667 101.660357,184.309961 C101.603838,184.350818 101.53881,184.378279 101.470174,184.390275 Z M97.776624,179.983059 L101.490193,183.336157 C106.495004,179.320471 118.7668,163.799843 120.738695,161.249882 L113.381623,154.895059 C109.898275,161.02902 99.46825,177.453176 97.8166625,179.983059 L97.776624,179.983059 Z" id="Shape" fill="#303337"></path>
                <path d="M118.826857,127.628549 C114.722913,138.069333 109.688073,156.220235 109.688073,156.220235 L122.100004,163.699451 C122.100004,163.699451 128.566219,149.584314 131.499038,139.484863 L136.714051,161.761882 L152.30904,157.836549 L143.300381,127.628549 L118.826857,127.628549 Z" id="Path" fill="#303337"></path>
                <path d="M122.100004,164.141406 C122.019327,164.141406 121.939936,164.120902 121.869782,164.080941 L109.477871,156.611765 C109.307668,156.507374 109.226209,156.303126 109.277679,156.109804 C109.327727,155.929098 114.362566,137.818353 118.426473,127.467922 C118.492464,127.29837 118.655391,127.186824 118.836867,127.186824 L143.260343,127.186824 C143.454974,127.191533 143.62456,127.321124 143.680747,127.508078 L152.739454,157.716078 C152.784557,157.828835 152.784557,157.954695 152.739454,158.067451 C152.677378,158.172019 152.576656,158.247784 152.459185,158.278275 L136.864195,162.203608 C136.747442,162.234748 136.622941,162.212712 136.523868,162.143373 C136.424745,162.082333 136.353009,161.985202 136.323675,161.872314 L131.489028,141.201569 C128.879503,148.914251 125.875981,156.48714 122.490379,163.890196 C122.439864,164.004285 122.340455,164.089216 122.220119,164.121098 C122.181868,164.135948 122.140989,164.142782 122.100004,164.141406 Z M110.208574,156.019451 L121.899811,163.046902 C123.030898,160.557176 128.476132,148.279216 131.068624,139.344314 C131.123004,139.151826 131.299585,139.020028 131.499038,139.023059 C131.699268,139.030393 131.870598,139.169498 131.919442,139.364392 L137.034358,161.199686 L151.748502,157.495216 L142.920016,128.050196 L119.127146,128.050196 C115.393557,137.637647 110.899237,153.6 110.208574,156.019451 L110.208574,156.019451 Z" id="Shape" fill="#303337"></path>
                <path d="M148.995856,186.438275 L154.531176,182.101333 C154.531176,182.101333 162.809133,179.752157 163.179489,181.097412 C163.549845,182.442667 150.817607,192.612392 150.817607,192.612392 L148.995856,186.438275 Z" id="Path" fill="#303337"></path>
                <path d="M150.807597,193.024 C150.764679,193.03293 150.72039,193.03293 150.677472,193.024 C150.536836,192.984153 150.426923,192.873914 150.387193,192.732863 L148.575452,186.588863 C148.525778,186.412585 148.584686,186.223525 148.725596,186.10698 L154.260917,181.770039 C154.306512,181.735625 154.357165,181.70853 154.411061,181.689725 C158.414909,180.565333 163.199508,179.531294 163.609903,180.956863 C164.020297,182.382431 157.003553,188.205176 151.087867,193.003922 C150.998664,193.039093 150.900878,193.046098 150.807597,193.024 L150.807597,193.024 Z M149.506346,186.598902 L151.047828,191.829333 C156.613177,187.341804 162.288633,182.322196 162.729056,181.187765 C162.078431,180.856471 158.515006,181.438745 154.721359,182.502902 L149.506346,186.598902 Z" id="Shape" fill="#303337"></path>
                <path d="M97.2160852,180.063373 C97.2160852,180.063373 94.633603,182.593255 94.7236896,182.964706 C94.8137761,183.336157 105.163724,193.716706 105.253811,191.568314 C105.343898,189.419922 101.510213,183.928471 101.510213,183.928471 L97.2160852,180.063373 Z" id="Path" fill="#303337"></path>
                <path d="M104.993561,192.301176 C102.831483,192.301176 94.3233047,183.175529 94.3032855,183.075137 C94.2832662,182.974745 94.1431315,182.452706 96.9157966,179.752157 C97.0829134,179.588931 97.3492571,179.588931 97.5163739,179.752157 L101.800492,183.607216 C102.270944,184.259765 105.80434,189.359686 105.694234,191.638588 C105.711487,192.008366 105.43175,192.324558 105.063628,192.351373 L104.993561,192.301176 Z M95.2241706,182.894431 C96.2851905,184.209569 103.231868,190.925804 104.813388,191.387608 C104.713292,189.630745 102.160838,185.625098 101.149866,184.179451 L97.2361045,180.705882 C96.5127531,181.384825 95.8402864,182.116323 95.2241706,182.894431 L95.2241706,182.894431 Z" id="Shape" fill="#303337"></path>
                <path d="M121.639561,44.0119216 C110.729074,40.2974118 111.62994,28.953098 111.689998,28.8527059 L111.780084,27.8487843 L118.48653,27.8487843 L118.48653,29.9971765 L113.842066,29.9971765 C113.753271,35.4333668 117.220058,40.2881738 122.380273,41.9538824 L121.639561,44.0119216 Z" id="Path"></path>
                <path d="M121.639561,44.4536471 C121.593355,44.463397 121.545632,44.463397 121.499426,44.4536471 C110.278641,40.6287059 111.239565,28.9430588 111.249574,28.8225882 L111.339661,27.8186667 C111.360425,27.5905138 111.55166,27.4161496 111.780084,27.4170942 L118.48653,27.4170942 C118.729769,27.4170942 118.926954,27.6148653 118.926954,27.8588235 L118.926954,30.0072157 C118.926954,30.2511739 118.729769,30.4489412 118.48653,30.4489412 L114.292499,30.4489412 C114.381955,35.5215901 117.695348,39.9686802 122.520408,41.4920784 C122.631884,41.5313366 122.722368,41.6148283 122.770648,41.7229804 C122.815716,41.8287865 122.815716,41.9484684 122.770648,42.0542745 L122.079984,44.0621176 C122.054425,44.2862897 121.864524,44.4551081 121.639561,44.4536471 L121.639561,44.4536471 Z M112.180469,28.3206275 L112.180469,28.8928627 C112.180469,28.9932549 111.319642,39.7151373 121.419349,43.4497255 L121.819734,42.2550588 C116.684866,40.4175974 113.295454,35.4942801 113.401643,30.0272941 C113.396075,29.9111993 113.439705,29.798155 113.521758,29.7160784 C113.606328,29.6306061 113.722024,29.5834659 113.842066,29.5855686 L118.046107,29.5855686 L118.046107,28.3206275 L112.180469,28.3206275 Z" id="Shape" fill="#231F20"></path>
                <path d="M136.894224,44.0119216 L136.20356,42.0040784 C141.361749,40.3355859 144.827282,35.4825354 144.741767,30.0473725 L140.097302,30.0473725 L140.097302,27.878902 L146.753701,27.878902 L146.843787,28.8828235 C146.853797,28.9631373 147.804711,40.2974118 136.894224,44.0119216 Z" id="Path"></path>
                <path d="M136.894224,44.4536471 C136.719203,44.4483121 136.56485,44.3371667 136.503848,44.172549 L135.813185,42.1647059 C135.768117,42.0588998 135.768117,41.9392178 135.813185,41.8334118 C135.868935,41.7271716 135.961498,41.6450468 136.073435,41.6025098 C140.894733,40.0737967 144.20574,35.6299093 144.301343,30.5593725 L140.107312,30.5593725 C139.864073,30.5593725 139.666889,30.3616053 139.666889,30.1176471 L139.666889,27.878902 C139.666889,27.6349437 139.864073,27.4371726 140.107312,27.4371726 L146.76371,27.4371726 C146.992134,27.436228 147.18337,27.6105922 147.204134,27.8387451 L147.29422,28.8426667 C147.29422,28.9631373 148.295182,40.6287059 137.044368,44.4737255 C136.993467,44.4777775 136.942288,44.4709335 136.894224,44.4536471 L136.894224,44.4536471 Z M136.764099,42.2550588 L137.164483,43.4497255 C147.274201,39.705098 146.413373,29.0032941 146.403364,28.8928627 L146.403364,28.3206275 L140.507697,28.3206275 L140.507697,29.5855686 L144.711738,29.5855686 C144.83178,29.5834659 144.947476,29.6306061 145.032046,29.7160784 C145.11022,29.8006393 145.153193,29.9119821 145.152161,30.0272941 C145.259682,35.4855115 141.885131,40.40479 136.764099,42.2550588 L136.764099,42.2550588 Z" id="Shape" fill="#303337"></path>
                <path d="M140.577764,25.8610196 L117.95602,25.6602353 C117.95602,25.6602353 117.755828,35.3982745 120.238214,41.5723922 C122.290186,46.7024314 124.782582,48.7203137 126.894612,49.5435294 C127.221038,50.3452652 127.37126,51.208169 127.335035,52.0734118 C127.187719,53.5585804 126.781143,55.0061951 126.133881,56.3501176 L132.399904,56.3501176 C131.64877,55.0632404 131.219473,53.6130901 131.148701,52.1236078 C131.179312,51.2546714 131.310313,50.3922286 131.539076,49.5535686 C134.806937,47.7273926 137.298271,44.7682184 138.545811,41.2310588 C140.647832,35.5287843 140.577764,25.8610196 140.577764,25.8610196 Z" id="Path" fill="#FFFFFF"></path>
                <path d="M132.399904,56.8521085 L126.133881,56.8521085 C125.958188,56.8531046 125.794826,56.7616559 125.703467,56.6111373 C125.617641,56.4620423 125.617641,56.2783498 125.703467,56.1292549 C126.322971,54.845459 126.712605,53.4624191 126.854574,52.0432941 C126.882986,51.3256461 126.770762,50.6093777 126.524256,49.9350588 C123.761601,48.7705098 121.519446,46.0197647 119.787781,41.753098 C117.285376,35.558902 117.485568,26.1019608 117.485568,25.6501961 C117.496127,25.3791408 117.715635,25.1633866 117.986049,25.1582745 L117.986049,25.1582745 L140.597784,25.3590588 C140.874192,25.3590588 141.098265,25.5837943 141.098265,25.8610196 C141.098265,26.2625882 141.098265,35.6793725 138.986235,41.4117647 C137.722693,44.9831552 135.240868,47.9914864 131.9795,49.9049412 C131.800256,50.6352278 131.696278,51.3820489 131.669201,52.1336471 C131.741665,53.5279278 132.146721,54.8844013 132.850337,56.089098 C132.939512,56.2480471 132.939512,56.442149 132.850337,56.601098 C132.754909,56.7586568 132.5837,56.8540539 132.399904,56.8521085 Z M126.904622,55.8481569 L131.579115,55.8481569 C130.990246,54.6902835 130.671905,53.4131557 130.64822,52.1135686 C130.682231,51.2079581 130.816518,50.3089466 131.048605,49.433098 C131.084876,49.2877459 131.183993,49.1662449 131.318865,49.1018039 C134.453806,47.3291033 136.840468,44.4751926 138.035321,41.0704314 C139.847062,36.2415686 140.037245,28.4009412 140.037245,26.3730196 L118.48653,26.1722353 C118.48653,28.1800784 118.636675,36.211451 120.728685,41.3816471 C122.370263,45.4876863 124.522332,48.0677647 127.104814,49.0817255 C127.234712,49.1334208 127.339026,49.234435 127.395093,49.3628235 C127.741476,50.2297795 127.901778,51.160225 127.865545,52.0934902 C127.744655,53.3880376 127.420338,54.6552548 126.904622,55.8481569 L126.904622,55.8481569 Z" id="Shape" fill="#303337"></path>
                <path d="M120.848801,52.2039216 L137.674974,52.2039216 C138.365994,52.2039216 138.926177,52.7657603 138.926177,53.4588235 L138.926177,58.4784314 L119.607608,58.4784314 L119.607608,53.4588235 C119.607608,52.769662 120.161693,52.2094349 120.848801,52.2039216 Z" id="Path" fill="#FFFFFF"></path>
                <path d="M138.926177,58.9402353 L119.607608,58.9402353 C119.3312,58.9402353 119.107127,58.7154998 119.107127,58.4382745 L119.107127,53.4186667 C119.107127,52.4522852 119.885284,51.6673261 120.848801,51.6618039 L137.674974,51.6618039 C138.642402,51.6618039 139.426658,52.4483782 139.426658,53.4186667 L139.426658,58.4382745 C139.426658,58.7154998 139.202585,58.9402353 138.926177,58.9402353 Z M120.108089,57.9363137 L138.425696,57.9363137 L138.425696,53.4588235 C138.425696,53.0429856 138.089586,52.7058824 137.674974,52.7058824 L120.848801,52.7058824 C120.438103,52.711375 120.108089,53.0468748 120.108089,53.4588235 L120.108089,57.9363137 Z" id="Shape" fill="#303337"></path>
                <rect id="Rectangle" fill="#FFFFFF" x="111.659969" y="58.2776471" width="35.2138474" height="4.91921569" rx="1.53"></rect>
                <path d="M145.332334,63.6988235 L113.191441,63.6988235 C112.085808,63.6988235 111.189516,62.7998815 111.189516,61.6909804 L111.189516,59.8136471 C111.189516,58.7047459 112.085808,57.8058039 113.191441,57.8058039 L145.332334,57.8058039 C146.437967,57.8058039 147.334484,58.7047459 147.334484,59.8136471 L147.334484,61.6608627 C147.342301,62.1985749 147.134941,62.7170491 146.758632,63.1001319 C146.382323,63.4832147 145.868522,63.698884 145.332334,63.6988235 Z M113.191441,58.7796078 C112.638625,58.7796078 112.190479,59.2290788 112.190479,59.7835294 L112.190479,61.6307451 C112.190479,62.1851957 112.638625,62.6346667 113.191441,62.6346667 L145.332334,62.6346667 C145.885151,62.6346667 146.333297,62.1851957 146.333297,61.6307451 L146.333297,59.8136471 C146.333297,59.2591965 145.885151,58.8097255 145.332334,58.8097255 L113.191441,58.7796078 Z" id="Shape" fill="#303337"></path>
                <path d="M145.922902,130.329098 C145.922902,130.329098 143.180266,110.511686 143.480554,108.654431 L137.334647,97.792 L125.713477,98.5951373 L118.356405,109.889255 C118.356405,109.889255 117.665741,113.975216 115.793942,133.340863 L145.922902,130.329098 Z" id="Path" fill="#F0AA3B"></path>
                <path d="M134.101539,95.6436078 C134.471895,98.022902 136.043406,103.122824 131.398942,102.128941 C130.91461,101.997395 130.452456,101.794393 130.027624,101.526588 C127.274978,99.9705098 127.124833,98.2839216 126.914631,95.3323922 C126.824545,94.0574118 126.504237,85.9457255 126.504237,85.9457255 L135.422809,82.0103529 C135.422809,82.0103529 136.774108,90.8850196 136.623964,93.5755294 C136.579476,94.1920693 136.283906,94.7630562 135.806724,95.1542867 C135.329543,95.5455173 134.712831,95.7224893 134.101539,95.6436078 L134.101539,95.6436078 Z" id="Path" fill="#FFFFFF"></path>
                <path d="M132.5,102.711216 C132.109144,102.704955 131.720002,102.657851 131.338884,102.570667 C130.807984,102.436557 130.301345,102.219752 129.837441,101.928157 C126.834554,100.231529 126.704429,98.2939608 126.484218,95.372549 C126.394131,94.0975686 126.093842,86.3372549 126.073823,85.9658039 C126.07487,85.7767847 126.183812,85.605085 126.354093,85.5240784 L135.272665,81.5987451 C135.399467,81.5389427 135.546248,81.5389427 135.67305,81.5987451 C135.796456,81.6698893 135.883819,81.7903697 135.913281,81.9300392 C135.963329,82.3014902 137.26458,90.8850196 137.104426,93.5855686 C137.099909,94.291327 136.798141,94.9622836 136.273627,95.4327843 C135.813919,95.7994334 135.257096,96.0228209 134.672088,96.0752941 C134.672088,96.2158431 134.702117,96.3664314 134.762174,96.5270588 C135.102502,98.3441569 135.572954,100.843922 134.35178,102.048627 C133.845769,102.50573 133.180221,102.743871 132.5,102.711216 Z M126.974689,86.2368627 C127.034747,87.7427451 127.284987,94.1879216 127.365064,95.2721569 C127.585276,98.1835294 127.685372,99.6492549 130.247835,101.104941 C130.636972,101.344606 131.058313,101.527164 131.499038,101.647059 C132.228172,101.919515 133.044317,101.814379 133.681135,101.365961 C134.551972,100.512627 134.131568,98.2939608 133.83128,96.6776471 C133.761212,96.3162353 133.701155,95.974902 133.651106,95.6737255 C133.632754,95.5349887 133.676755,95.3952395 133.771222,95.2922353 C133.865531,95.1892273 134.002903,95.1370948 134.141578,95.1516863 C134.682218,95.1800313 135.216059,95.0204693 135.653031,94.6999216 C135.982374,94.3908872 136.167531,93.9575771 136.163521,93.5052549 C136.293646,91.2966275 135.352742,84.6607059 135.062463,82.6327843 L126.974689,86.2368627 Z" id="Shape" fill="#303337"></path>
                <path d="M132.219731,92.3607843 L131.879403,92.3607843 C131.639685,92.3344367 131.46567,92.1196316 131.489028,91.878902 C131.515327,91.6329414 131.733964,91.4539346 131.9795,91.4773333 C132.269506,91.5174112 132.564877,91.4864089 132.840327,91.3869804 C132.4598,90.6534687 131.977918,89.9775163 131.408951,89.3791373 C131.289966,89.2648835 131.244497,89.0935854 131.291092,88.9351199 C131.337687,88.7766545 131.468557,88.657514 131.630316,88.626299 C131.792074,88.595084 131.95768,88.657013 132.059577,88.7868235 C134.131568,91.0757647 133.771222,91.6078431 133.641097,91.7985882 C133.279807,92.1968265 132.754793,92.4044867 132.219731,92.3607843 L132.219731,92.3607843 Z" id="Shape" fill="#303337"></path>
                <path d="M132.369875,94.1477647 L132.269779,94.1477647 C131.268817,94.1477647 130.458037,93.4249412 129.717325,92.1399216 C129.595706,91.9264581 129.66965,91.6545281 129.882484,91.532549 C130.095318,91.4105699 130.366447,91.4847326 130.488066,91.6981961 C131.058615,92.7021176 131.679211,93.2241569 132.309817,93.2643137 C133.260731,93.3546667 134.041482,92.2603922 134.051491,92.2603922 C134.195223,92.06079 134.473074,92.0158429 134.672088,92.16 C134.871102,92.3041571 134.915916,92.5828292 134.772184,92.7824314 C134.198888,93.5565812 133.326636,94.0523187 132.369875,94.1477647 L132.369875,94.1477647 Z" id="Path" fill="#303337"></path>
                <path d="M129.266892,88.6161569 C129.18156,88.6177321 129.09777,88.5932212 129.026661,88.5458824 C128.928219,88.4821645 128.859147,88.3817324 128.834726,88.2668046 C128.810306,88.1518768 128.832549,88.0319266 128.896536,87.9334902 C128.996633,87.7728627 129.547162,86.9295686 130.277864,87.0098824 C130.705188,87.0521861 131.072655,87.3315106 131.228778,87.7327059 C131.332699,87.8764069 131.343075,88.0678306 131.255301,88.2219847 C131.167527,88.3761388 130.997873,88.4644474 130.821666,88.4477014 C130.645458,88.4309554 130.495361,88.3122591 130.438018,88.1443137 C130.357941,87.9836863 130.267854,87.9033725 130.227816,87.9033725 C130.187778,87.9033725 129.797402,88.1744314 129.637248,88.4153725 C129.554495,88.539606 129.415853,88.6147695 129.266892,88.6161569 L129.266892,88.6161569 Z" id="Path" fill="#303337"></path>
                <path d="M134.501924,88.4053333 C134.338662,88.4088718 134.187465,88.3194404 134.111549,88.1744314 C134.031472,88.0238431 133.791241,87.7126275 133.56102,87.6724706 C133.510972,87.6724706 133.410876,87.8431373 133.380847,87.9836863 C133.31717,88.2199297 133.077517,88.3623662 132.840327,88.3049412 C132.726368,88.2789076 132.627864,88.2075117 132.567453,88.1071605 C132.507042,88.0068093 132.489919,87.8861327 132.520019,87.7728627 C132.578208,87.1687129 133.107774,86.7223838 133.711164,86.7689412 C134.226613,86.9248907 134.654372,87.2884705 134.892299,87.7728627 C134.998885,87.9899797 134.920272,88.2527972 134.712126,88.3752157 C134.645906,88.4035757 134.573413,88.4139626 134.501924,88.4053333 L134.501924,88.4053333 Z" id="Path" fill="#303337"></path>
                <path d="M127.605295,91.6078431 C127.069925,90.8643037 126.044356,90.6780914 125.283063,91.1861961 C125.114619,91.3029197 124.979943,91.4622387 124.892688,91.648 C124.792673,91.9304969 124.792673,92.2389149 124.892688,92.5214118 C125.254156,93.6393672 126.380922,94.3199939 127.535228,94.1176471" id="Path" fill="#FFFFFF"></path>
                <path d="M127.104814,94.6196078 C125.877245,94.5997395 124.802171,93.7890232 124.442255,92.6117647 C124.305603,92.225335 124.305603,91.8035277 124.442255,91.417098 C124.559587,91.1598059 124.742596,90.9381608 124.972765,90.7745882 C125.435592,90.4500213 126.009595,90.3269157 126.564295,90.4332549 C127.124083,90.5304159 127.621653,90.8486445 127.945622,91.3167059 C128.013309,91.4174918 128.037659,91.541377 128.013174,91.6603869 C127.988689,91.7793969 127.917433,91.8834955 127.815497,91.9491765 C127.713433,92.0175529 127.588374,92.0422287 127.468091,92.017724 C127.347808,91.9932193 127.242258,91.9215626 127.174882,91.8186667 C126.787701,91.2931659 126.059364,91.1611497 125.513284,91.5174902 C125.41211,91.5865512 125.329574,91.679679 125.273053,91.788549 C125.207276,91.9701414 125.207276,92.1691527 125.273053,92.3507451 C125.569984,93.23776 126.464573,93.7778009 127.385084,93.6257255 C127.503556,93.5960056 127.629014,93.6169567 127.731494,93.6835749 C127.833973,93.7501932 127.904273,93.8564972 127.925603,93.977098 C127.975253,94.2232901 127.819608,94.4641371 127.575266,94.5192157 C127.422492,94.5695016 127.264767,94.6031592 127.104814,94.6196078 L127.104814,94.6196078 Z" id="Path" fill="#303337"></path>
                <path d="M119.02705,110.893176 C119.02705,110.893176 109.758141,62.5643922 109.567958,61.0083137 C109.377775,59.4522353 112.961219,57.2938039 113.491729,58.9000784 C114.022239,60.5063529 114.752942,63.5783529 114.752942,63.5783529 C114.752942,63.5783529 117.245337,61.7110588 117.315405,63.2269804 C117.385472,64.742902 115.693846,65.2950588 115.713865,65.7970196 C115.733884,66.2989804 125.783544,99.9303529 125.783544,99.9303529" id="Path" fill="#FFFFFF"></path>
                <path d="M119.02705,111.344941 C118.810241,111.343572 118.625167,111.187482 118.586627,110.97349 C118.206261,108.965647 109.297698,62.6145882 109.107515,61.068549 C108.937352,59.673098 110.789132,58.2374902 112.110402,57.9363137 C112.457827,57.8005457 112.845222,57.8114139 113.184538,57.9664479 C113.523853,58.121482 113.786266,58.4075126 113.912133,58.7595294 C114.292499,59.9341176 114.78297,61.8415686 115.033211,62.7752157 C115.663817,62.3836863 116.604722,61.9319216 117.225318,62.2230588 C117.571206,62.4023517 117.782047,62.7665414 117.765838,63.1567059 C117.757849,64.1109278 117.277701,64.9988183 116.484606,65.5259608 L116.164298,65.817098 C116.604722,67.6141176 123.51136,90.7745882 126.173919,99.7496471 C126.245076,99.9935296 126.106412,100.249248 125.863621,100.321882 C125.748152,100.359381 125.622481,100.348557 125.515077,100.291862 C125.407674,100.235166 125.327628,100.137398 125.293073,100.020706 C122.290186,89.9011765 115.283452,66.3190588 115.203375,65.817098 C115.123298,65.3151373 115.513673,65.1243922 115.86401,64.8131765 C116.419544,64.4712351 116.774318,63.8794461 116.814924,63.2269804 C116.819626,63.1768951 116.819626,63.1264775 116.814924,63.0763922 C116.143042,63.1779789 115.514287,63.4706397 115.003182,63.9196863 C114.885258,64.0159382 114.725452,64.0426513 114.582778,63.9899608 C114.436673,63.9411407 114.326604,63.8193263 114.292499,63.6687059 C114.292499,63.6687059 113.541777,60.5967059 113.031287,59.0305882 C113.031287,58.9301961 112.921181,58.6691765 112.290575,58.8097255 C111.199526,59.0506667 109.918295,60.2453333 109.998372,60.928 C110.188554,62.4539608 119.367377,110.300863 119.457464,110.782745 C119.506581,111.032121 119.345523,111.274422 119.097117,111.324863 L119.02705,111.344941 Z" id="Path" fill="#303337"></path>
                <path d="M136.653993,98.6955294 L144.301343,65.5661176 C144.301343,65.5661176 141.568717,64.2007843 142.7999,62.8153725 C143.210295,62.3535686 145.802787,63.6787451 145.802787,63.6787451 C145.802787,63.6787451 146.163133,59.2916078 147.274201,59.0105098 C147.822572,58.8290879 148.424777,58.9287142 148.886006,59.2771602 C149.347234,59.6256062 149.608925,60.1786307 149.586423,60.7573333 C149.586423,62.1527843 143.34042,110.953412 143.34042,110.953412" id="Path" fill="#FFFFFF"></path>
                <path d="M143.320401,111.345101 L143.260343,111.345101 C143.140415,111.329991 143.031508,111.267333 142.958098,111.171051 C142.884687,111.074769 142.852931,110.952938 142.869968,110.832941 C145.022036,93.977098 149.105962,61.8214902 149.105962,60.7372549 C149.129969,60.3235139 148.9596,59.9223342 148.645519,59.6530196 C148.27288,59.3908944 147.802804,59.3098613 147.364287,59.4321569 C146.953893,59.532549 146.413373,61.6106667 146.24321,63.6988235 C146.232009,63.8504782 146.145487,63.9863054 146.012989,64.0602353 C145.874435,64.1300606 145.711119,64.1300606 145.572565,64.0602353 C144.801306,63.5987803 143.948042,63.2919245 143.06015,63.1567059 C142.949797,63.2909616 142.908995,63.4695333 142.950045,63.6385882 C143.050141,64.2007843 143.951007,64.8533333 144.501536,65.1243922 C144.693025,65.2210906 144.792633,65.4375459 144.741767,65.6464314 L137.104426,98.7758431 C137.045047,99.0216068 136.799634,99.1737652 136.553897,99.1171765 C136.43473,99.0910088 136.331242,99.0174831 136.267098,98.9134131 C136.202953,98.8093431 136.183638,98.6836293 136.213569,98.5650196 L143.780843,65.766902 C142.964041,65.3504906 142.3424,64.6297065 142.049179,63.7590588 C141.962849,63.2736253 142.115717,62.7762708 142.459573,62.4238431 C142.609717,62.2531765 143.040131,61.7712941 145.392392,62.8856471 C145.572565,61.2894118 146.022998,58.7494902 147.144076,58.4683922 C147.856577,58.2823541 148.61475,58.4300076 149.206058,58.8699608 C149.747835,59.3048967 150.052278,59.971438 150.026847,60.6669804 C150.026847,62.0825098 144.021074,108.855216 143.770833,110.863059 C143.782321,110.988766 143.739636,111.113397 143.653554,111.20549 C143.567471,111.297582 143.446217,111.348337 143.320401,111.345101 L143.320401,111.345101 Z" id="Path" fill="#303337"></path>
                <path d="M132.119634,110.973579 C132.022975,110.973904 131.927368,110.953356 131.839365,110.913255 C130.718287,110.361098 128.53619,103.152941 127.655343,100.080941 C127.594687,99.919044 127.629309,99.7367244 127.745056,99.6085248 C127.860802,99.4803251 128.038268,99.4277369 128.204896,99.4722611 C128.371524,99.5167853 128.49938,99.6509579 128.53619,99.8199216 C129.787393,104.166902 131.378922,108.855216 132.099615,109.919373 C132.570067,108.915451 133.400866,104.468078 133.961405,100.402196 C133.976311,100.281914 134.038784,100.172685 134.134782,100.099057 C134.230781,100.02543 134.352252,99.9935801 134.471895,100.010667 C134.591823,100.025617 134.70073,100.088275 134.774141,100.184557 C134.847551,100.280839 134.879307,100.402669 134.862271,100.522667 C133.961405,107.118431 133.110587,110.622118 132.339846,110.933333 C132.269806,110.96117 132.194962,110.974818 132.119634,110.973579 L132.119634,110.973579 Z" id="Path" fill="#303337"></path>
                <ellipse id="Oval" fill="#FFFFFF" cx="131.96949" cy="114.55749" rx="3.66352136" ry="3.67435294"></ellipse>
                <path d="M131.96949,118.693647 C129.691888,118.693647 127.845526,116.841827 127.845526,114.55749 C127.845526,112.273154 129.691888,110.421333 131.96949,110.421333 C134.247092,110.421333 136.093454,112.273154 136.093454,114.55749 C136.093454,116.841827 134.247092,118.693647 131.96949,118.693647 L131.96949,118.693647 Z M131.96949,111.344941 C130.673966,111.344941 129.506007,112.127654 129.010231,113.328101 C128.514455,114.528548 128.788497,115.910323 129.704571,116.829105 C130.620645,117.747888 131.998347,118.02274 133.195255,117.525498 C134.392164,117.028257 135.172569,115.856845 135.172569,114.55749 C135.167074,112.785536 133.73622,111.350453 131.96949,111.344941 L131.96949,111.344941 Z" id="Shape" fill="#303337"></path>
                <path d="M129.717325,30.8505098 L131.258807,33.9827451 L134.702117,34.4847059 C134.889915,34.5120765 135.046125,34.6436224 135.1055,34.8243991 C135.164874,35.0051757 135.117198,35.2040825 134.982386,35.3380392 L132.5,37.7775686 L133.090568,41.2210196 C133.125415,41.4111275 133.04833,41.604414 132.892375,41.7179766 C132.73642,41.8315392 132.529305,41.8451994 132.359865,41.753098 L129.266892,40.1568627 L126.183929,41.7832157 C126.014489,41.875317 125.807375,41.8616569 125.651419,41.7480943 C125.495464,41.6345317 125.418379,41.4412451 125.453227,41.2511373 L126.043794,37.8076863 L123.551399,35.3681569 C123.408195,35.2375494 123.354971,35.0346875 123.415531,34.8503028 C123.47609,34.6659181 123.639106,34.5344989 123.831668,34.5148235 L127.274978,34.0128627 L128.816459,30.8806275 C128.894167,30.7044781 129.065523,30.5884633 129.257469,30.5820461 C129.449416,30.575629 129.628095,30.6799415 129.717325,30.8505098 L129.717325,30.8505098 Z" id="Path" fill="#F0AA3B"></path>
                <polygon id="Path" fill="#FFFFFF" points="43.7947368 170.506039 50.7013755 200.473098 58.1585433 198.495373 52.5231265 170.506039"></polygon>
                <path d="M50.7013755,200.934902 C50.6167256,200.93183 50.5341683,200.907679 50.4611446,200.864627 C50.3562606,200.798405 50.2809483,200.694095 50.2509425,200.57349 L43.3443039,170.666667 C43.3116256,170.529209 43.3449599,170.384333 43.4343905,170.275137 C43.5215178,170.165153 43.6546984,170.102076 43.7947368,170.104378 L52.5231265,170.104378 C52.7405779,170.100072 52.9301046,170.252142 52.9735595,170.465882 L58.6089762,198.455216 C58.6593983,198.692798 58.5134818,198.927842 58.2786587,198.987294 L50.8114813,200.995137 L50.7013755,200.934902 Z M44.4153334,170.967843 L51.0917507,199.910902 L57.6780815,198.154039 L52.2028187,170.967843 L44.4153334,170.967843 Z" id="Shape" fill="#303337"></path>
                <polygon id="Path" fill="#FFFFFF" points="25.6673128 165.888 28.2898336 201.748078 36.4276556 201.748078 36.4076364 164.442353"></polygon>
                <path d="M36.4076364,202.199847 L28.2898336,202.199847 C28.0503875,202.200753 27.8502108,202.017442 27.829391,201.778196 L25.2068703,165.918118 C25.1944038,165.677277 25.3688126,165.467367 25.6072551,165.436235 L36.3475787,163.980549 C36.4772296,163.970933 36.6057751,164.010327 36.707925,164.09098 C36.8099406,164.179004 36.8684553,164.307383 36.8680808,164.442353 L36.8680808,201.748078 C36.8659519,201.867648 36.8195716,201.982152 36.7379539,202.069333 C36.6469628,202.151072 36.5297645,202.197378 36.4076364,202.199847 L36.4076364,202.199847 Z M28.6902184,201.286275 L35.9471938,201.286275 L35.9471938,164.964392 L26.1577843,166.279529 L28.6902184,201.286275 Z" id="Shape" fill="#303337"></path>
                <path d="M23.865581,138.260078 C23.9256387,153.690353 23.495225,173.397333 23.495225,173.397333 L37.8690411,172.614275 L36.5377615,150.106353 L41.8128318,172.905412 L55.4859744,172.473725 L48.2890568,138.250039 L23.865581,138.260078 Z" id="Path" fill="#303337"></path>
                <path d="M23.495225,173.849226 C23.37579,173.852016 23.2605189,173.805014 23.176995,173.719339 C23.093471,173.633664 23.0492095,173.517026 23.0548017,173.397333 C23.0548017,173.206588 23.4752058,153.509647 23.4251577,138.260078 C23.4257553,138.143155 23.4725493,138.03124 23.5552828,137.948863 C23.636774,137.864933 23.7487764,137.817825 23.865581,137.818287 L48.2890568,137.818287 C48.4987118,137.814687 48.6804908,137.963084 48.7194705,138.169725 L55.9163881,172.393412 C55.9454446,172.523015 55.9161559,172.658876 55.8363112,172.764863 C55.7525149,172.86674 55.627664,172.925667 55.495984,172.92549 L41.8328511,173.357176 C41.6212142,173.371112 41.4323707,173.224756 41.3924278,173.015843 L37.2884831,155.316706 L38.2894452,172.604235 C38.2980609,172.721912 38.2582742,172.837998 38.1793393,172.92549 C38.1013031,173.009761 37.9935732,173.060184 37.8790507,173.066039 L23.495225,173.849226 L23.495225,173.849226 Z M24.316014,138.711843 C24.316014,152.576 24.0057157,169.833412 23.945658,172.955608 L37.4085985,172.222745 L36.0973381,150.136471 C36.0792938,149.908432 36.241745,149.705869 36.4676941,149.674667 C36.6917853,149.642239 36.9038831,149.785503 36.9581656,150.005961 L42.1631686,172.443608 L54.9454549,172.052078 L47.93872,138.691765 L24.316014,138.711843 Z" id="Shape" fill="#303337"></path>
                <path d="M30.0515269,102.520471 C29.0134633,100.588177 28.3350794,98.482371 28.0496027,96.3061961 C27.909468,93.5454118 28.9704878,89.1984314 33.7050387,88.5358431 C38.0592239,87.923451 40.7117735,90.2826667 41.2723123,93.6558431 C41.7822343,96.2289618 41.3561019,98.9001639 40.0711578,101.185255 C39.7708691,101.466353 30.0515269,102.520471 30.0515269,102.520471 Z" id="Path" fill="#FFFFFF"></path>
                <path d="M30.0515269,102.982275 C29.8837385,102.983023 29.7294425,102.890172 29.6511421,102.741333 C28.5734686,100.765882 27.8677003,98.6082857 27.5691409,96.3764706 C27.3989773,92.9932549 28.8804012,88.7968627 33.5749136,88.1342745 C37.818993,87.5419608 40.9820333,89.6903529 41.6626875,93.6257255 C42.2101252,96.3423875 41.7397036,99.1661134 40.3414175,101.556706 C40.2012828,101.697255 39.9410327,101.958275 30.0615365,103.032471 L30.0515269,102.982275 Z M34.9962798,88.9273725 C34.5776352,88.9285525 34.1595722,88.9587421 33.7450771,89.0177255 C29.6211132,89.6 28.3298721,93.3145098 28.490026,96.3162353 C28.748852,98.3244973 29.3659384,100.269646 30.3117771,102.058667 C33.7350675,101.687216 38.9600898,101.054745 39.7708691,100.833882 C40.8724003,98.6675756 41.2245233,96.1954264 40.7718312,93.8064314 C40.4519751,90.8913969 37.9158276,88.7356901 34.9962798,88.8972549 L34.9962798,88.9273725 Z" id="Shape" fill="#303337"></path>
                <path d="M38.4095606,112.097882 L62.8330364,80.1832157 C62.8330364,80.1832157 60.6809678,78.0047059 62.2925168,77.1011765 C62.8330364,76.7899608 64.8449702,78.8781176 64.8449702,78.8781176 C64.8449702,78.8781176 66.5866443,74.8624314 67.7377508,74.9327059 C68.3060284,74.9438634 68.8340274,75.2293252 69.1556976,75.6993166 C69.4773677,76.169308 69.5531864,76.7660825 69.3593094,77.3019608 C68.9088765,78.6271373 44.4954103,122.127059 44.4954103,122.127059" id="Path" fill="#FFFFFF"></path>
                <path d="M44.4954103,122.61898 C44.4149038,122.618158 44.3358371,122.59747 44.265189,122.558745 C44.0537353,122.428701 43.9792757,122.15634 44.0950255,121.936314 C50.8615294,109.889255 68.498482,78.3661176 68.9288957,77.1814902 C69.0870741,76.8001937 69.0497076,76.3654612 68.8287995,76.0169412 C68.5684744,75.6432505 68.151517,75.4101002 67.6977123,75.3844706 L67.6977123,75.3844706 C67.2672986,75.3844706 66.0961729,77.1513725 65.275384,79.0588235 C65.2128406,79.1994631 65.0858044,79.3006431 64.9350568,79.3298824 C64.7850426,79.3590095 64.6305345,79.3098743 64.5246624,79.1993725 C63.9387065,78.5134907 63.2289481,77.9446864 62.4326515,77.5228235 C62.2871082,77.6216006 62.1920022,77.7793563 62.1724014,77.9545098 C62.0823148,78.5970196 62.8830845,79.5708235 63.1733635,79.8619608 C63.3218904,80.0351149 63.3218904,80.2911596 63.1733635,80.4643137 L38.7999359,112.37898 C38.7101883,112.532102 38.5408341,112.620029 38.3643632,112.605125 C38.1878923,112.590221 38.0355832,112.475128 37.9726297,112.309111 C37.9096762,112.143093 37.9472365,111.955576 38.0692335,111.826824 L62.2324591,80.2133333 C61.6039632,79.5762283 61.2453203,78.7201344 61.231497,77.824 C61.307938,77.3411463 61.609001,76.9236309 62.0422763,76.6996078 C62.2424687,76.5891765 62.8130171,76.2679216 64.6748067,78.0850196 C65.3554609,76.6293333 66.6767309,74.3905882 67.75777,74.470902 C68.4849992,74.512523 69.1545377,74.8814889 69.5795211,75.4748235 C69.9666202,76.0720582 70.0412317,76.8203785 69.7797135,77.4826667 C69.3292805,78.8078431 47.3781812,117.920627 44.8757759,122.378039 C44.7979716,122.517889 44.6547514,122.608612 44.4954103,122.61898 L44.4954103,122.61898 Z" id="Path" fill="#303337"></path>
                <path d="M50.7013755,146.381804 C50.7013755,146.381804 47.3181235,121.815843 47.6184121,119.948549 L41.4725047,109.086118 L29.8513345,109.889255 L22.3941667,119.065098 C22.2222502,127.390061 22.5029361,135.718233 23.2349749,144.012549 L50.7013755,146.381804 Z" id="Path" fill="#E4E9EC"></path>
                <path d="M38.1493105,107.279059 C38.5096568,109.658353 40.091177,114.758275 35.4467128,113.764392 C34.9592039,113.632937 34.4937353,113.429961 34.065385,113.162039 C31.3127392,111.605961 31.1726045,109.919373 30.9523928,106.967843 C30.8623062,105.692863 30.3317963,95.6837647 30.3317963,95.6837647 C30.3317963,95.6837647 34.1654812,96.8583529 36.5577807,96.2258824 C37.8891541,95.8981437 38.9767906,94.9384936 39.4705805,93.6558431 C39.4705805,93.6558431 40.8218793,102.520471 40.6617254,105.21098 C40.6198707,105.826671 40.3264726,106.397727 39.8508478,106.789235 C39.375223,107.180742 38.7595594,107.357974 38.1493105,107.279059 L38.1493105,107.279059 Z" id="Path" fill="#FFFFFF"></path>
                <path d="M36.5177422,114.346667 C35.5687686,114.360205 34.6376408,114.087386 33.8451734,113.563608 C30.842287,111.86698 30.7121619,109.939451 30.5019599,107.008 C30.4018637,105.73302 29.891373,96.115451 29.8713537,95.7038431 C29.8630247,95.5542639 29.930854,95.4106453 30.0515269,95.3223529 C30.1652993,95.2262591 30.3204764,95.1958912 30.4619214,95.2420392 C30.4619214,95.2420392 34.2055197,96.3764706 36.4676941,95.7741176 C37.6449319,95.4898669 38.6092799,94.6463792 39.0501764,93.5152941 C39.1143304,93.3121864 39.3086986,93.1794593 39.5206286,93.1940392 C39.7330715,93.2138378 39.9056316,93.3745459 39.9410327,93.5855686 C39.9410327,93.9469804 41.2923315,102.53051 41.1421872,105.241098 C41.1274329,105.943791 40.8230194,106.608938 40.301379,107.078275 C39.8465815,107.446762 39.2923535,107.670507 38.7098493,107.720784 C38.7098493,107.871373 38.7098493,108.011922 38.7899262,108.172549 C39.1302534,109.989647 39.6007056,112.489412 38.3795318,113.694118 C37.8723503,114.155022 37.20076,114.390412 36.5177422,114.346667 L36.5177422,114.346667 Z M30.8222678,96.2760784 C30.9423832,98.4947451 31.3327584,105.843451 31.4128354,106.917647 C31.6230375,109.82902 31.7331433,111.294745 34.2956063,112.750431 C34.6815646,112.989346 35.0994957,113.171887 35.5367993,113.292549 C36.2657276,113.566795 37.0827292,113.461549 37.7188968,113.011451 C38.5997434,112.158118 38.1793393,109.939451 37.8690411,108.323137 C37.7989737,107.961725 37.738916,107.630431 37.6988775,107.319216 C37.6804927,107.182184 37.7204567,107.043718 37.8089834,106.937725 C37.9065517,106.839659 38.0414829,106.788453 38.1793393,106.797176 C38.7200781,106.826354 39.254192,106.66671 39.6907921,106.345412 C40.0201354,106.036377 40.2052923,105.603067 40.2013466,105.150745 C40.0786887,101.749925 39.7443836,98.3601069 39.2003207,95.001098 C38.5573264,95.8096576 37.6677485,96.3844794 36.6678865,96.6374902 C34.7560489,97.1796078 32.0334319,96.5973333 30.8222678,96.2961569 L30.8222678,96.2760784 Z" id="Shape" fill="#303337"></path>
                <path d="M36.2675017,104.016314 L35.9271746,104.016314 C35.8108884,104.00627 35.7036551,103.949291 35.6300545,103.858438 C35.5564538,103.767584 35.5227972,103.650648 35.5367993,103.534431 C35.5469483,103.417086 35.6034042,103.308667 35.6936228,103.233262 C35.7838414,103.157858 35.9003501,103.121714 36.0172612,103.132863 C36.3105743,103.172598 36.6091065,103.141624 36.8880982,103.04251 C36.4992847,102.311616 36.0145027,101.636317 35.4467128,101.034667 C35.283632,100.851698 35.2993171,100.570779 35.4817464,100.407216 C35.6641757,100.243653 35.944267,100.259384 36.1073478,100.442353 C38.1693297,102.731294 37.8089834,103.263373 37.6788583,103.454118 C37.3215761,103.852029 36.799629,104.05994 36.2675017,104.016314 Z" id="Shape" fill="#303337"></path>
                <g id="Group-40" transform="translate(34.715130, 98.254902) scale(-1, 1) translate(-34.715130, -98.254902) translate(31.215130, 97.254902)" fill="#303337">
                    <path d="M5.70328981,1.87067201 C5.55339901,1.87299702 5.41309964,1.7969353 5.33293383,1.6698877 C5.17277989,1.42894652 4.88250087,1.1578877 4.74236618,1.1578877 L4.74236618,1.1578877 C4.74236618,1.1578877 4.62225072,1.23820142 4.53216413,1.39882887 C4.42094464,1.61428832 4.15727605,1.69944959 3.94159648,1.58957397 C3.83574132,1.53601389 3.75588788,1.44191077 3.72009479,1.32854578 C3.6843017,1.21518078 3.69559246,1.09213 3.75141368,0.987221031 C3.91127329,0.5888733 4.27672747,0.311078592 4.70232769,0.264397502 C5.45304928,0.264397502 5.97354959,1.02737789 6.08365542,1.18800535 C6.21123056,1.39407133 6.15378847,1.66440419 5.95353034,1.8003975 C5.87960961,1.84973983 5.79200976,1.8743403 5.70328981,1.87067201 Z" id="Path"></path>
                    <path d="M0.448238678,1.65984848 C0.374806431,1.66384875 0.3017925,1.64641309 0.238036632,1.6096524 C0.131835063,1.55643221 0.0522672246,1.46157965 0.0181532237,1.34753011 C-0.0159607772,1.23348056 -0.00159108486,1.11036342 0.0578634507,1.00729946 C0.290579498,0.522735536 0.715507775,0.158475177 1.22898913,0.00337789406 C1.83437268,-0.0434343603 2.36688526,0.40163814 2.43014368,1.00729946 C2.48818937,1.24571321 2.34254192,1.48618019 2.10483099,1.5443975 C1.86712006,1.60261481 1.62736195,1.45653674 1.56931625,1.21812299 C1.54169119,1.09862749 1.4789226,0.990206416 1.38914307,0.906907306 C1.15892178,0.906907306 0.908681253,1.26831907 0.838613905,1.40886809 C0.764714324,1.55843849 0.614602382,1.65494859 0.448238678,1.65984848 L0.448238678,1.65984848 Z" id="Path"></path>
                </g>
                <path d="M36.4076364,105.783216 L36.2975306,105.783216 C35.2965684,105.783216 34.4857891,105.060392 33.7450771,103.775373 C33.6239954,103.56461 33.6955919,103.295329 33.9052311,103.17302 C34.1183855,103.050652 34.3899888,103.122103 34.515818,103.333647 C35.096376,104.337569 35.7069629,104.869647 36.337569,104.899765 C37.2784734,104.899765 38.0792431,103.895843 38.0792431,103.895843 C38.2276109,103.703925 38.4988341,103.66005 38.6998396,103.795451 C38.7963235,103.86398 38.8612853,103.968537 38.8801109,104.085601 C38.8989365,104.202665 38.8700449,104.322404 38.7999359,104.417882 C38.2340722,105.195403 37.3631426,105.69246 36.4076364,105.783216 Z" id="Path" fill="#303337"></path>
                <path d="M31.7431529,101.717333 C31.3025432,100.91325 30.3018787,100.609933 29.4909881,101.034667 C29.3103755,101.130257 29.1583695,101.272318 29.0505648,101.446275 C28.9140215,101.712201 28.875047,102.017812 28.940459,102.309647 C29.1696387,103.471303 30.2250595,104.280269 31.4028258,104.19702" id="Path" fill="#FFFFFF"></path>
                <path d="M31.2026334,104.668863 C29.8800686,104.643485 28.752469,103.700345 28.490026,102.4 C28.4032224,101.997436 28.4636166,101.57699 28.6601896,101.215373 C28.808662,100.976554 29.0153559,100.779614 29.2607668,100.643137 C29.7612444,100.3714 30.3508161,100.316984 30.8923351,100.492549 C31.4343033,100.635402 31.8917649,100.99954 32.1535474,101.496471 C32.242356,101.719437 32.1459957,101.973463 31.931877,102.080839 C31.7177583,102.188215 31.4573209,102.113115 31.3327584,101.908078 C31.0119532,101.333594 30.2956852,101.116305 29.7111998,101.416157 C29.6026203,101.468918 29.5120596,101.55276 29.4509496,101.657098 C29.367022,101.831981 29.3458097,102.030547 29.3908919,102.219294 C29.5805622,103.158004 30.4412032,103.805393 31.3928162,103.725176 C31.6421901,103.707201 31.8620233,103.887998 31.8932972,104.136784 C31.9108482,104.390364 31.7249603,104.612314 31.4728931,104.638745 L31.2026334,104.668863 Z" id="Path" fill="#303337"></path>
                <path d="M36.1573959,122.61898 C36.0602011,122.614768 35.9648629,122.590863 35.8771265,122.548706 C34.7560489,122.006588 32.5839611,114.788392 31.7031144,111.716392 C31.6319573,111.47251 31.7706223,111.216791 32.0134127,111.144157 C32.1302669,111.110477 32.2557337,111.125606 32.3612978,111.186107 C32.466862,111.246608 32.5435568,111.347341 32.5739515,111.465412 C33.8251541,115.792314 35.4166839,120.500706 36.1373766,121.504627 C36.6178384,120.410353 37.5687524,115.240157 38.2193778,110.46149 C38.2642265,110.217867 38.4927555,110.05314 38.7372837,110.088175 C38.9818119,110.123211 39.155212,110.345527 39.1302534,110.592 C38.1292912,118.171608 37.1283291,122.177255 36.3776075,122.488471 C36.3156716,122.549018 36.2401533,122.593774 36.1573959,122.61898 Z" id="Path" fill="#303337"></path>
                <ellipse id="Oval" fill="#FFFFFF" cx="36.0172612" cy="126.20298" rx="3.66352136" ry="3.67435294"></ellipse>
                <path d="M36.0172612,130.32911 C34.3474586,130.333158 32.8400106,129.326907 32.1991335,127.780423 C31.5582564,126.233939 31.9104486,124.452472 33.0911808,123.268249 C34.271913,122.084026 36.0481282,121.730792 37.5900534,122.373564 C39.1319787,123.016336 40.1352635,124.528241 40.1312277,126.20298 C40.1257129,128.479482 38.2870523,130.323579 36.0172612,130.32911 Z M36.0172612,122.990431 C34.2482496,122.990431 32.8141824,124.428739 32.8141824,126.20298 C32.8141824,127.977222 34.2482496,129.415529 36.0172612,129.415529 C37.7862727,129.415529 39.2203399,127.977222 39.2203399,126.20298 C39.2203399,125.350959 38.8828737,124.533835 38.2821799,123.931365 C37.6814861,123.328895 36.8667705,122.990431 36.0172612,122.990431 Z" id="Shape" fill="#303337"></path>
                <path d="M29.7512383,110.230588 C29.7512383,110.230588 2.59513594,124.887843 0.723336778,129.867294 C-1.14846239,134.846745 19.9317999,148.650667 22.334109,150.457725 C24.7364181,152.264784 26.1778035,151.712627 26.0877169,149.825255 C25.9976303,147.937882 23.0848306,146.341647 23.0848306,146.341647 C23.0848306,146.341647 23.5152443,144.333804 22.9747247,143.550745 C22.1639454,142.406275 20.72256,144.153098 20.72256,144.153098 L9.92217867,130.509804 L25.1468125,123.683137" id="Path" fill="#FFFFFF"></path>
                <path d="M24.7964758,152.033882 C23.7778385,151.934872 22.8171564,151.512892 22.0538396,150.829176 C21.7435413,150.598275 21.1329544,150.176627 20.3121655,149.594353 C10.1624096,142.566902 -1.27858746,133.852863 0.292923066,129.706667 C2.20476072,124.616784 28.4199587,110.431373 29.5410362,109.82902 C29.68408,109.751906 29.857276,109.757189 29.9953832,109.842878 C30.1334903,109.928567 30.2155267,110.081644 30.2108009,110.244447 C30.2056534,110.407249 30.1144937,110.555044 29.97145,110.632157 C20.6324734,115.651765 2.58512632,126.21302 1.14374087,130.027922 C0.142778748,132.688314 6.76914799,139.063216 20.8326658,148.841412 C21.673474,149.433725 22.2940705,149.845333 22.5943591,150.096314 C23.7254463,150.939608 24.6963796,151.29098 25.2068703,151.019922 C25.7173609,150.748863 25.637284,150.196706 25.6272743,149.845333 C25.5672166,148.520157 23.6253501,147.154824 22.8846381,146.743216 C22.7118697,146.640246 22.623396,146.438575 22.6644265,146.241255 C22.8940964,145.447805 22.8940964,144.605215 22.6644265,143.811765 C22.544311,143.651137 22.4442148,143.62102 22.3641378,143.62102 L22.3641378,143.62102 C21.9737626,143.62102 21.3631757,144.173176 21.1529737,144.444235 C21.0628871,144.554667 20.9127428,144.564706 20.7926273,144.604863 C20.656427,144.602749 20.52815,144.540259 20.4422906,144.434196 L9.56183231,130.841098 C9.47729575,130.729532 9.4478386,130.585504 9.48175534,130.449569 C9.51090761,130.31174 9.60386846,130.196127 9.73199587,130.138353 L24.9566297,123.311686 C25.1860484,123.209113 25.454936,123.312491 25.5572069,123.542588 C25.6594779,123.772685 25.5564044,124.042368 25.3269857,124.144941 L10.652881,130.730667 L20.7826177,143.460392 C21.1947496,143.01061 21.7659631,142.740373 22.3741475,142.707451 C22.7826195,142.725846 23.1563595,142.943256 23.3751096,143.289725 C23.7691126,144.176239 23.8537436,145.170058 23.6153405,146.110745 C24.3960909,146.602667 26.4580729,148.048314 26.5381499,149.805176 C26.6631335,150.594643 26.3093006,151.383263 25.637284,151.81302 C25.3788867,151.953601 25.0904073,152.029379 24.7964758,152.033882 L24.7964758,152.033882 Z" id="Path" fill="#303337"></path>
                <path d="M37.0282329,206.928314 L36.4076364,201.788235 L28.2898336,201.788235 C28.2898336,201.788235 17.7196736,206.968471 18.2802124,206.968471 L37.0282329,206.928314 Z" id="Path" fill="#303337"></path>
                <path d="M37.0282329,207.370039 L18.2802124,207.370039 C18.0694693,207.364708 17.8868068,207.222217 17.8297794,207.018667 C17.7296832,206.576941 17.6996543,206.446431 28.0996508,201.34651 C28.158052,201.314566 28.22332,201.297339 28.2898336,201.296304 L36.4076364,201.296304 C36.6325996,201.294853 36.8224999,201.463671 36.8480597,201.687843 L37.448637,206.878118 C37.4604821,207.002261 37.4206337,207.125793 37.3385312,207.219451 C37.259794,207.309846 37.1477692,207.364212 37.0282329,207.370039 L37.0282329,207.370039 Z M19.8617325,206.486588 L36.5277518,206.486588 L36.0372804,202.189804 L28.3999394,202.189804 C25.7173609,203.494902 21.8536472,205.422431 19.8617325,206.486588 Z" id="Shape" fill="#303337"></path>
                <path d="M50.7013755,200.473098 C50.7013755,200.473098 51.7023376,206.928314 52.2428571,206.928314 C52.7833767,206.928314 67.6076257,199.338667 66.7568079,198.354824 C65.9059901,197.37098 58.1585433,198.495373 58.1585433,198.495373 L50.7013755,200.473098 Z" id="Path" fill="#303337"></path>
                <path d="M52.2428571,207.370039 C51.8725012,207.370039 51.3019527,207.370039 50.2409329,200.533333 C50.2132877,200.309679 50.3542196,200.099797 50.5712504,200.041412 L58.0284182,198.033569 C60.4807754,197.672157 66.1662402,196.969412 67.0370773,198.033569 C67.1939606,198.230666 67.2213647,198.501592 67.1071446,198.726275 C66.4365,200.45302 53.0035884,207.370039 52.2428571,207.370039 Z M51.241895,200.794353 C51.5010023,202.703358 51.9059144,204.589585 52.4530592,206.436392 C54.2648006,205.783843 65.0151338,200.031373 66.3063749,198.545569 C65.3654705,198.204235 61.5818337,198.445176 58.298678,198.927059 L51.241895,200.794353 Z" id="Shape" fill="#303337"></path>
                <ellipse id="Oval" fill="#231F20" transform="translate(33.693122, 99.214896) rotate(-5.120000) translate(-33.693122, -99.214896) " cx="33.6931216" cy="99.2148965" rx="1" ry="1"></ellipse>
                <ellipse id="Oval" fill="#231F20" transform="translate(38.065083, 98.824942) rotate(-5.120000) translate(-38.065083, -98.824942) " cx="38.0650832" cy="98.8249419" rx="1" ry="1"></ellipse>
                <path d="M224.328265,121.133176 C224.328265,121.133176 215.950212,121.805804 214.318644,124.79749 C212.687076,127.789176 201.566386,172.252863 203.448195,172.252863 C205.330004,172.252863 206.841457,166.741333 206.841457,166.741333 C206.841457,166.741333 209.564074,170.36549 209.514026,168.106667 C209.463977,165.847843 209.514026,160.757961 209.514026,160.757961 L221.115177,133.431216" id="Path" fill="#FFFFFF"></path>
                <path d="M203.448195,172.67451 C203.235596,172.667045 203.042195,172.54914 202.937704,172.363294 C201.4763,169.883608 212.677066,126.755137 213.89824,124.526431 C215.639914,121.364078 223.907861,120.661333 224.288226,120.641255 C224.40837,120.62724 224.528974,120.663399 224.621738,120.741247 C224.714501,120.819095 224.771261,120.931781 224.778698,121.052863 C224.792655,121.176029 224.755539,121.299536 224.676045,121.394452 C224.596551,121.489367 224.481663,121.547353 224.358294,121.554824 C222.096119,121.735529 215.950212,122.699294 214.699009,124.978196 C213.447807,127.257098 203.167926,167.715137 203.688426,171.710745 C204.689388,171.309176 205.850504,168.568471 206.401033,166.570667 C206.445359,166.404225 206.582121,166.278815 206.75137,166.249412 C206.921975,166.211662 207.098699,166.278622 207.201803,166.420078 C207.706096,167.148139 208.32867,167.786129 209.043573,168.307451 C209.055253,168.230929 209.055253,168.153071 209.043573,168.076549 C208.993525,165.837804 209.043573,160.757961 209.043573,160.707765 C209.03323,160.651349 209.03323,160.593514 209.043573,160.537098 L220.644724,133.210353 C220.760933,133.006874 221.010742,132.923049 221.225641,133.015421 C221.440541,133.107794 221.552301,133.347035 221.485533,133.571765 L209.974468,160.848314 C209.974468,161.551059 209.974468,166.028549 209.974468,168.096627 C209.974468,168.739137 209.794295,169.100549 209.40392,169.261176 C208.753294,169.492078 207.8224,168.658824 207.02163,167.705098 C206.471101,169.431843 205.189869,172.67451 203.448195,172.67451 Z" id="Shape" fill="#303337"></path>
                <path d="M224.328265,111.74651 C224.328265,111.74651 218.90305,104.929882 222.146168,100.271686 C225.389285,95.6134902 235.779272,96.1656471 234.668204,96.7378824 C233.946637,97.1233864 233.274409,97.5953367 232.666279,98.1433725 C232.666279,98.1433725 240.593899,99.980549 241.524794,103.514353 C242.455689,107.048157 236.680138,116.244078 236.680138,116.244078 C236.680138,116.244078 239.352706,117.248 238.371764,117.790118 C237.390821,118.332235 227.501315,120.470588 224.328265,111.74651 Z" id="Path" fill="#FFFFFF"></path>
                <path d="M234.347896,118.884392 C232.841705,118.902225 231.344129,118.654157 229.923643,118.151529 C227.084545,117.11912 224.87218,114.841043 223.917871,111.967373 C223.347322,111.224471 218.502665,104.70902 221.765802,100.000627 C224.658582,95.8443922 232.91652,95.6335686 234.608146,96.0652549 C234.748281,96.0652549 235.168685,96.2058039 235.208723,96.5973333 C235.226791,96.830596 235.093614,97.0491672 234.878406,97.139451 C234.441095,97.3702367 234.022717,97.6354336 233.627203,97.932549 C235.789281,98.5449412 241.144429,100.341961 241.945198,103.403922 C242.806026,106.646588 238.521908,114.065569 237.330763,116.023216 C238.161561,116.374588 238.972341,116.86651 239.022389,117.438745 C239.050423,117.758182 238.873658,118.060377 238.581966,118.191686 C237.229545,118.698787 235.790885,118.934156 234.347896,118.884392 Z M232.746356,96.7981176 C229.943662,96.7981176 224.608534,97.5209412 222.516524,100.522667 C219.513637,104.849569 224.628554,111.385098 224.688611,111.445333 C224.717815,111.485414 224.741391,111.529328 224.758679,111.575843 C225.614299,114.222209 227.637738,116.325697 230.243951,117.278118 C232.753308,118.141311 235.468717,118.197464 238.011417,117.438745 C237.545922,117.111781 237.037195,116.851597 236.499964,116.665725 C236.371232,116.619219 236.271364,116.515345 236.229705,116.384627 C236.170388,116.260897 236.170388,116.116828 236.229705,115.993098 C237.811225,113.483294 241.745006,106.36549 241.024313,103.624784 C240.30362,100.884078 234.638175,99.0770196 232.506126,98.6051765 C232.34034,98.5663409 232.20945,98.438925 232.165798,98.2738824 C232.121455,98.1107365 232.171666,97.9364126 232.295923,97.8221176 C232.689185,97.4545396 233.110913,97.1188451 233.557136,96.8181961 C233.346934,96.8181961 233.066664,96.8081569 232.746356,96.8081569 L232.746356,96.7981176 Z" id="Shape" fill="#303337"></path>
                <polygon id="Path" fill="#FFFFFF" points="224.218159 181.408627 221.0351 212.650667 212.897278 212.650667 215.47976 181.408627"></polygon>
                <path d="M221.0351,213.102455 L212.897278,213.102455 C212.767502,213.103753 212.643465,213.048869 212.55695,212.951843 C212.471412,212.86018 212.431049,212.735054 212.446845,212.61051 L215.019317,181.37851 C215.040137,181.139264 215.240314,180.955953 215.47976,180.95665 L224.20815,180.95665 C224.338478,180.952764 224.463634,181.008143 224.548477,181.107451 C224.638056,181.201179 224.681986,181.329686 224.668592,181.458824 L221.495542,212.690824 C221.469897,212.926091 221.271067,213.103833 221.0351,213.102455 Z M213.397759,212.188863 L220.584667,212.188863 L223.66763,181.870431 L215.860125,181.870431 L213.397759,212.188863 Z" id="Shape" fill="#303337"></path>
                <polygon id="Path" fill="#FFFFFF" points="239.332687 176.790588 236.710166 212.650667 228.572344 212.650667 228.592364 175.344941"></polygon>
                <path d="M236.710166,213.102435 L228.592364,213.102435 C228.472745,213.102435 228.357869,213.055503 228.272056,212.971922 C228.184123,212.888128 228.133601,212.772307 228.131919,212.650667 L228.131919,175.344941 C228.131545,175.209972 228.190059,175.081592 228.292075,174.993569 C228.394225,174.912915 228.52277,174.873521 228.652421,174.883137 L239.392745,176.338824 C239.633762,176.365201 239.810724,176.578182 239.79313,176.820706 L237.170609,212.680784 C237.149789,212.920031 236.949613,213.103341 236.710166,213.102435 Z M229.032787,212.188863 L236.289762,212.188863 L238.842216,177.182118 L229.052806,175.86698 L229.032787,212.188863 Z" id="Shape" fill="#303337"></path>
                <path d="M241.134419,149.162667 C241.074361,164.592941 241.504775,184.299922 241.504775,184.299922 L227.130959,183.516863 L228.462239,161.008941 L225.329227,183.858196 L212.31672,183.456627 L216.720953,149.142588 L241.134419,149.162667 Z" id="Path" fill="#303337"></path>
                <path d="M241.504775,184.721569 L241.504775,184.721569 L227.120949,183.93851 C227.005524,183.928008 226.898293,183.874234 226.820661,183.787922 C226.74067,183.701058 226.700721,183.584499 226.710555,183.466667 L227.37119,172.423529 L225.77966,183.948549 C225.749027,184.172612 225.554604,184.337276 225.329227,184.330039 L212.31672,183.928471 C212.191069,183.927222 212.072236,183.870963 211.991414,183.774463 C211.910593,183.677962 211.875853,183.550856 211.896315,183.42651 L216.300549,149.112471 C216.330758,148.892287 216.519379,148.728906 216.740972,148.730961 L241.164448,148.730961 C241.281252,148.730453 241.393255,148.77756 241.474746,148.86149 C241.55748,148.943867 241.604274,149.055783 241.604871,149.172706 C241.554823,164.422275 241.975227,184.119216 241.975227,184.309961 C241.979793,184.430807 241.932404,184.547801 241.845102,184.631216 C241.748071,184.705358 241.625672,184.737854 241.504775,184.721569 L241.504775,184.721569 Z M227.591401,183.115294 L241.054342,183.848157 C240.994284,180.766118 240.653957,163.468549 240.683986,149.604392 L217.101318,149.604392 L212.807191,183.04502 L224.938852,183.42651 L228.031825,160.958745 C228.07938,160.738731 228.2843,160.589784 228.50757,160.612949 C228.730839,160.636115 228.901019,160.82398 228.902662,161.049098 L227.591401,183.115294 Z" id="Shape" fill="#303337"></path>
                <path d="M214.298625,157.294431 C214.298625,157.294431 217.381588,135.288471 217.081299,133.431216 L223.527495,119.988706 L237.93134,121.133176 L242.575804,129.967686 C242.7478,138.292649 242.467114,146.620826 241.734996,154.915137 L214.298625,157.294431 Z" id="Path" fill="#E4E9EC"></path>
                <path d="M226.85069,118.181647 C226.490343,120.57098 224.908823,125.660863 229.553287,124.66698 C230.038889,124.534745 230.503788,124.335397 230.934615,124.074667 C233.687261,122.508549 233.827396,120.821961 234.047607,117.870431 C234.137694,116.595451 234.668204,106.586353 234.668204,106.586353 C234.668204,106.586353 230.834519,107.760941 228.442219,107.128471 C227.110846,106.800732 226.023209,105.841082 225.52942,104.558431 C225.52942,104.558431 224.178121,113.433098 224.338275,116.113569 C224.380129,116.729259 224.673527,117.300315 225.149152,117.691823 C225.624777,118.08333 226.240441,118.260562 226.85069,118.181647 L226.85069,118.181647 Z" id="Path" fill="#FFFFFF"></path>
                <path d="M228.482258,125.249255 C227.806031,125.28751 227.142704,125.05249 226.640487,124.596706 C225.419314,123.392 225.889766,120.892235 226.230093,119.075137 C226.230093,118.924549 226.290151,118.773961 226.31017,118.623373 C225.727666,118.573095 225.173438,118.34935 224.71864,117.980863 C224.197,117.511527 223.892586,116.846379 223.877832,116.143686 C223.727688,113.443137 225.028938,104.849569 225.078987,104.488157 C225.114388,104.277134 225.286948,104.116426 225.499391,104.096627 C225.711321,104.082048 225.905689,104.214775 225.969843,104.417882 C226.410739,105.548967 227.375087,106.392455 228.552325,106.676706 C230.80449,107.279059 234.49804,106.154667 234.558098,106.144627 C234.699543,106.098479 234.85472,106.128847 234.968492,106.224941 C235.089165,106.313234 235.156995,106.456852 235.148666,106.606431 C235.148666,107.018039 234.618156,116.645647 234.518059,117.910588 C234.307857,120.842039 234.167723,122.769569 231.174846,124.466196 C230.382378,124.989974 229.451251,125.262793 228.502277,125.249255 L228.482258,125.249255 Z M226.85069,117.729882 C226.984522,117.724571 227.113493,117.780629 227.201138,117.882208 C227.288784,117.983786 227.325579,118.119847 227.301122,118.251922 C227.301122,118.553098 227.201026,118.884392 227.130959,119.255843 C226.820661,120.872157 226.400257,123.090824 227.281103,123.954196 C227.920913,124.395937 228.735272,124.497096 229.463201,124.225255 C229.901159,124.106456 230.31935,123.923802 230.704394,123.683137 C233.266857,122.227451 233.376963,120.761725 233.587165,117.850353 C233.667242,116.776157 234.057617,109.427451 234.177732,107.208784 C232.277455,107.766491 230.277298,107.893371 228.322104,107.580235 C227.322242,107.327225 226.432664,106.752403 225.78967,105.943843 C225.245607,109.302852 224.911302,112.69267 224.788692,116.09349 C224.786747,116.548321 224.971344,116.983951 225.299198,117.298196 C225.735114,117.612232 226.26466,117.768025 226.800641,117.739922 L226.85069,117.729882 Z" id="Shape" fill="#303337"></path>
                <path d="M228.732498,114.918902 C228.203669,114.96757 227.682271,114.767295 227.321142,114.376784 C227.191017,114.176 226.83067,113.643922 228.892652,111.36502 C229.055733,111.182051 229.335824,111.166319 229.518254,111.329882 C229.700683,111.493445 229.716368,111.774365 229.553287,111.957333 C228.985497,112.558983 228.500715,113.234282 228.111902,113.965176 C228.390978,114.063914 228.68942,114.094878 228.982739,114.055529 C229.228275,114.032131 229.446912,114.211137 229.47321,114.457098 C229.484326,114.574355 229.448289,114.691208 229.373107,114.781693 C229.297925,114.872179 229.189824,114.928801 229.072825,114.93898 L228.732498,114.918902 Z" id="Path" fill="#303337"></path>
                <path d="M228.592364,116.685804 C227.630115,116.585367 226.758007,116.072998 226.200064,115.280314 C226.129955,115.184836 226.101064,115.065096 226.119889,114.948032 C226.138715,114.830968 226.203677,114.726411 226.30016,114.657882 C226.501166,114.522481 226.772389,114.566356 226.920757,114.758275 C227.339301,115.318511 227.969086,115.681527 228.662431,115.762196 C229.293037,115.762196 229.903624,115.2 230.484182,114.196078 C230.610011,113.984534 230.881614,113.913083 231.094769,114.035451 C231.304408,114.157761 231.376005,114.427041 231.254923,114.637804 C230.514211,115.922824 229.653383,116.645647 228.702469,116.645647 L228.592364,116.685804 Z" id="Path" fill="#303337"></path>
                <path d="M231.695346,111.154196 C231.545455,111.156521 231.405156,111.080459 231.32499,110.953412 C231.164836,110.712471 230.874557,110.441412 230.734423,110.441412 L230.734423,110.441412 C230.734423,110.441412 230.614307,110.521725 230.524221,110.682353 C230.413001,110.897812 230.149332,110.982974 229.933653,110.873098 C229.827798,110.819538 229.747944,110.725435 229.712151,110.61207 C229.676358,110.498705 229.687649,110.375654 229.74347,110.270745 C229.90333,109.872397 230.268784,109.594603 230.694384,109.547922 C231.445106,109.547922 231.965606,110.310902 232.075712,110.471529 C232.203287,110.677595 232.145845,110.947928 231.945587,111.083922 C231.871666,111.133264 231.784066,111.157864 231.695346,111.154196 Z" id="Path" fill="#303337"></path>
                <path d="M226.440295,110.943373 C226.366863,110.947373 226.293849,110.929937 226.230093,110.893176 C226.123891,110.839956 226.044324,110.745104 226.01021,110.631054 C225.976096,110.517005 225.990465,110.393887 226.04992,110.290824 C226.282636,109.80626 226.707564,109.441999 227.221046,109.286902 C227.826429,109.24009 228.358942,109.685162 228.4222,110.290824 C228.480246,110.529237 228.334598,110.769704 228.096887,110.827922 C227.859176,110.886139 227.619418,110.740061 227.561373,110.501647 C227.533748,110.382152 227.470979,110.27373 227.381199,110.190431 C227.150978,110.190431 226.900738,110.551843 226.83067,110.692392 C226.756771,110.841963 226.606659,110.938473 226.440295,110.943373 L226.440295,110.943373 Z" id="Path" fill="#303337"></path>
                <path d="M233.256847,112.619922 C233.697457,111.815839 234.698121,111.512521 235.509012,111.937255 C235.689624,112.032845 235.84163,112.174906 235.949435,112.348863 C236.085978,112.61479 236.124953,112.920401 236.059541,113.212235 C235.831268,114.365845 234.787589,115.172368 233.617193,115.099608" id="Path" fill="#FFFFFF"></path>
                <path d="M233.797367,115.571451 L233.597174,115.571451 C233.345107,115.54502 233.159219,115.32307 233.17677,115.06949 C233.208044,114.820703 233.427877,114.639907 233.677251,114.657882 C234.610488,114.711824 235.44173,114.070517 235.629127,113.152 C235.675051,112.963308 235.653808,112.764455 235.56907,112.589804 C235.505668,112.484779 235.41594,112.398246 235.308819,112.338824 C235.026883,112.193811 234.698677,112.16849 234.397944,112.268549 C234.092088,112.352016 233.834629,112.559319 233.687261,112.840784 C233.562698,113.045821 233.302261,113.12092 233.088142,113.013545 C232.874024,112.906169 232.777663,112.652143 232.866472,112.429176 C233.128254,111.932246 233.585716,111.568108 234.127684,111.425255 C234.669334,111.250875 235.258431,111.305247 235.759252,111.575843 C236.007275,111.713234 236.214517,111.91416 236.35983,112.158118 C236.55746,112.515737 236.617977,112.933464 236.529993,113.332706 C236.253668,114.628346 235.118346,115.558475 233.797367,115.571451 Z" id="Path" fill="#303337"></path>
                <path d="M228.842604,133.521569 C228.76951,133.531136 228.695486,133.531136 228.622392,133.521569 C227.841642,133.200314 226.990824,129.696627 226.089958,123.100863 C226.074669,122.858467 226.2492,122.645619 226.489286,122.613866 C226.729372,122.582112 226.95295,122.742307 227.000834,122.980392 C227.541353,126.996078 228.362142,131.343059 228.882643,132.467451 C229.603335,131.373176 231.184856,126.704941 232.426049,122.428235 C232.494214,122.185703 232.743645,122.042749 232.986587,122.10698 C233.229378,122.179615 233.368043,122.435333 233.296886,122.679216 C232.416039,125.751216 230.243951,132.969412 229.122874,133.511529 C229.031672,133.537797 228.935441,133.541244 228.842604,133.521569 Z" id="Path" fill="#303337"></path>
                <ellipse id="Oval" fill="#FFFFFF" cx="228.982739" cy="137.105569" rx="3.66352136" ry="3.67435294"></ellipse>
                <path d="M228.982739,141.231686 C227.313841,141.231686 225.809465,140.222849 225.171745,138.676041 C224.534024,137.129232 224.888692,135.349412 226.070214,134.167273 C227.251735,132.985134 229.027165,132.633745 230.56786,133.277108 C232.108554,133.92047 233.110753,135.431742 233.106715,137.105569 C233.101184,139.385983 231.256438,141.231686 228.982739,141.231686 L228.982739,141.231686 Z M228.982739,133.89302 C227.213727,133.89302 225.77966,135.331327 225.77966,137.105569 C225.77966,138.87981 227.213727,140.318118 228.982739,140.318118 C230.75175,140.318118 232.185818,138.87981 232.185818,137.105569 C232.185818,135.331327 230.75175,133.89302 228.982739,133.89302 L228.982739,133.89302 Z" id="Shape" fill="#303337"></path>
                <path d="M237.93134,121.133176 C237.93134,121.133176 262.404864,135.790431 264.286673,140.769882 C266.168482,145.749333 245.028162,160.627451 242.605833,162.474667 C240.183505,164.321882 238.812187,162.615216 238.902273,160.727843 C238.99236,158.840471 241.90516,157.244235 241.90516,157.244235 C241.90516,157.244235 241.474746,155.236392 242.015266,154.453333 C242.826045,153.308863 244.26743,155.055686 244.26743,155.055686 L255.097841,141.452549 L241.524794,135.368784" id="Path" fill="#FFFFFF"></path>
                <path d="M240.724025,163.709895 C240.37651,163.716304 240.032689,163.636992 239.723062,163.478588 C238.793352,162.883495 238.287174,161.805663 238.421812,160.707765 C238.501889,158.950902 240.563871,157.505255 241.344621,157.013333 C241.106218,156.072646 241.190849,155.078828 241.584852,154.192314 C241.803602,153.845845 242.177342,153.628434 242.585814,153.610039 C243.190683,153.655841 243.757411,153.923956 244.177344,154.36298 L254.30708,141.633255 L241.294573,135.790431 C241.06239,135.685086 240.959317,135.410908 241.064352,135.178039 C241.169387,134.94517 241.442756,134.841792 241.674939,134.947137 L255.247985,141.040941 C255.376112,141.098716 255.469073,141.214328 255.498225,141.352157 C255.532142,141.488092 255.502685,141.632121 255.418148,141.743686 L244.607758,155.336784 C244.522411,155.446669 244.391296,155.510923 244.252416,155.510923 C244.113536,155.510923 243.982421,155.446669 243.897074,155.336784 C243.666853,155.065725 243.076286,154.513569 242.665891,154.513569 C242.585814,154.513569 242.485718,154.513569 242.365602,154.704314 C242.135932,155.497764 242.135932,156.340354 242.365602,157.133804 C242.406633,157.331124 242.318159,157.532795 242.145391,157.635765 C241.404679,158.047373 239.462812,159.412706 239.402755,160.737882 C239.29551,161.478656 239.608028,162.217759 240.213534,162.655373 C240.754053,162.936471 241.524794,162.735686 242.375612,162.093176 L243.376574,161.380392 C262.635085,147.32549 264.516894,142.506667 263.916317,140.920471 C262.474931,137.095529 246.169258,126.554353 237.751167,121.514667 C237.585129,121.444322 237.475283,121.283277 237.469893,121.102575 C237.464889,120.921873 237.565297,120.754745 237.727016,120.674918 C237.888736,120.595091 238.082026,120.617246 238.221619,120.731608 C239.222581,121.333961 262.855297,135.519373 264.767135,140.599216 C266.018337,143.892078 259.191776,150.939608 243.917094,162.123294 L242.916132,162.826039 C242.304761,163.358542 241.53278,163.669661 240.724025,163.709895 L240.724025,163.709895 Z" id="Path" fill="#303337"></path>
                <path d="M227.971767,217.85098 L228.572344,212.670745 L236.710166,212.670745 C236.710166,212.670745 247.280326,217.85098 246.719788,217.85098 L227.971767,217.85098 Z" id="Path" fill="#303337"></path>
                <path d="M246.719788,218.272627 L227.971767,218.272627 C227.847472,218.271384 227.728719,218.220855 227.64145,218.132078 C227.560765,218.033674 227.521293,217.907711 227.531344,217.780706 L228.131921,212.590431 C228.157793,212.367914 228.34908,212.202223 228.572344,212.208941 L236.710166,212.208941 C236.772686,212.194006 236.837829,212.194006 236.900349,212.208941 C247.300346,217.308863 247.270317,217.439373 247.170221,217.881098 C247.12869,218.100534 246.942258,218.262586 246.719788,218.272627 Z M228.472248,217.389176 L245.138267,217.389176 C243.136343,216.385255 239.282639,214.377412 236.61007,213.092392 L228.96272,213.092392 L228.472248,217.389176 Z" id="Shape" fill="#303337"></path>
                <path d="M221.635677,217.85098 L221.0351,212.670745 L212.897278,212.670745 C212.897278,212.670745 211.836258,213.182745 210.414891,213.895529 C207.331928,215.431529 202.507291,217.85098 202.887656,217.85098 L221.635677,217.85098 Z" id="Path" fill="#303337"></path>
                <path d="M221.635677,218.272627 L202.887656,218.272627 C202.676913,218.267296 202.494251,218.124805 202.437223,217.921255 C202.337127,217.46949 202.317108,217.399216 210.214699,213.473882 L212.707095,212.249098 C212.769614,212.234162 212.834758,212.234162 212.897278,212.249098 L221.0351,212.249098 C221.258364,212.24238 221.449651,212.408071 221.475523,212.630588 L222.0761,217.820863 C222.086151,217.947868 222.046679,218.073831 221.965994,218.172235 C221.872546,218.246463 221.754488,218.282344 221.635677,218.272627 Z M204.469176,217.389176 L221.135196,217.389176 L220.644724,213.092392 L212.997374,213.092392 L210.575045,214.26698 C207.321919,215.903373 205.490158,216.847059 204.469176,217.389176 L204.469176,217.389176 Z" id="Shape" fill="#303337"></path>
            </g>
        </g>
    </g>
</svg>