<svg width="12" height="13" viewBox="0 0 12 13" fill="none" xmlns="http://www.w3.org/2000/svg">
<path d="M11.0665 5.54648L10.5156 3.60629C10.4873 3.50672 10.4729 3.40307 10.4729 3.29829C10.4729 2.97584 10.6118 2.66841 10.8539 2.45481L11.1419 2.20061L10.0269 0.998053L9.76067 1.17789C9.4275 1.40299 9.04498 1.51711 8.62373 1.51711C7.79827 1.51711 7.05103 1.01142 6.72001 0.228792L6.62323 0H5.37682L5.28004 0.228817C4.94904 1.01142 4.2018 1.51713 3.37631 1.51713C2.95506 1.51713 2.57254 1.40301 2.23937 1.17792L1.97313 0.998078L0.858153 2.20063L1.14619 2.45484C1.38828 2.66844 1.52711 2.97587 1.52711 3.29831C1.52711 3.40309 1.51277 3.50674 1.48448 3.60632L0.933517 5.5465C0.829966 5.91115 0.777466 6.28972 0.777466 6.67172C0.777466 7.93195 1.34272 9.10649 2.32998 9.89544L6.00002 12.7939L9.67174 9.89409C10.6573 9.10644 11.2226 7.93192 11.2226 6.67169C11.2226 6.2897 11.1701 5.91113 11.0665 5.54648ZM8.62373 2.26678C9.08411 2.26678 9.51239 2.1654 9.90103 1.96487L10.0967 2.1759C9.85638 2.49734 9.72329 2.89061 9.72329 3.29829C9.72329 3.47236 9.74723 3.64488 9.79443 3.81107L9.8617 4.04794H6.3745L6.37135 1.11982C6.89815 1.83216 7.72623 2.26678 8.62373 2.26678ZM2.09902 1.96487C2.48768 2.1654 2.91593 2.26678 3.37631 2.26678C4.26987 2.26678 5.0946 1.83601 5.62173 1.12924L5.62485 4.04794H2.13837L2.20564 3.81107C2.25284 3.64488 2.27678 3.47233 2.27678 3.29829C2.27678 2.89061 2.1437 2.49734 1.90336 2.1759L2.09902 1.96487ZM1.9255 4.79758H10.0746L10.3454 5.75125C10.396 5.92955 10.4314 6.11208 10.4519 6.29687H1.54815C1.56867 6.11208 1.60403 5.92955 1.65468 5.75125L1.9255 4.79758ZM3.20132 9.6284L2.79631 9.3085C2.0884 8.74274 1.64556 7.9332 1.54778 7.04652H3.20132V9.6284ZM5.6252 11.543L3.95097 10.2205V7.04652H5.62525V7.84954C5.06307 8.01241 4.65071 8.53156 4.65071 9.14552C4.65071 9.75948 5.06304 10.2786 5.6252 10.4415V11.543ZM5.40036 9.14552C5.40036 8.81486 5.6694 8.54581 6.00007 8.54581C6.33074 8.54581 6.59979 8.81486 6.59979 9.14552C6.59979 9.47619 6.33074 9.74524 6.00007 9.74524C5.6694 9.74524 5.40036 9.47619 5.40036 9.14552ZM8.04908 10.2205L6.37485 11.543V10.4415C6.93705 10.2787 7.34944 9.75951 7.34944 9.14552C7.34944 8.53156 6.93708 8.01241 6.3749 7.84954V7.04652H8.04908V10.2205ZM9.20538 9.30717L8.79872 9.6284V7.04652H10.4523C10.3545 7.93317 9.91185 8.74256 9.20538 9.30717Z" fill="white"/>
</svg>
