<svg width="12" height="12" viewBox="0 0 12 12" fill="none" xmlns="http://www.w3.org/2000/svg">
<path d="M11.0565 1.69867H0.943549C0.423259 1.69867 0 2.12193 0 2.64219V9.35775C0 9.87804 0.423259 10.3013 0.943549 10.3013H11.0565C11.5767 10.3013 12 9.87802 12 9.35775V2.64219C12 2.12193 11.5768 1.69867 11.0565 1.69867ZM2.3619 9.5978H0.943549C0.81122 9.59778 0.703525 9.49011 0.703525 9.35775V2.64219C0.703525 2.50984 0.81122 2.40217 0.943549 2.40217H2.3619V9.5978ZM11.2965 9.35778C11.2965 9.49013 11.1888 9.5978 11.0565 9.5978H3.06544V3.80732H11.2965V9.35778ZM11.2965 3.1038H3.06544V2.40217H11.0565C11.1888 2.40217 11.2965 2.50984 11.2965 2.64219V3.1038V3.1038Z" fill="white"/>
<path d="M5.83658 6.91117C5.69748 6.91117 5.6241 6.95596 5.61653 7.04549C5.61269 7.08552 5.6084 7.11695 5.60369 7.1398C5.5989 7.16268 5.58892 7.19174 5.57366 7.22697C5.5584 7.26227 5.53316 7.2884 5.49793 7.30558C5.46266 7.32271 5.41834 7.33131 5.36504 7.33131C5.19163 7.33131 5.10496 7.23606 5.10496 7.04549V6.28813C5.10493 6.09763 5.19067 6.00234 5.36216 6.00234C5.52601 6.00234 5.61081 6.08807 5.61653 6.25956C5.62225 6.34914 5.69657 6.39388 5.83944 6.39388C5.91946 6.39388 5.97662 6.37916 6.01094 6.34959C6.04523 6.32005 6.06236 6.26434 6.06236 6.18238C6.06236 6.00519 5.99519 5.86614 5.86087 5.76512C5.72654 5.66416 5.55456 5.61365 5.345 5.61365C5.1411 5.61365 4.97582 5.66793 4.84914 5.77654C4.72241 5.88515 4.65906 6.05568 4.65906 6.28811V7.04547C4.65906 7.27797 4.72241 7.44848 4.84914 7.55704C4.97582 7.66567 5.1411 7.71995 5.345 7.71995C5.55458 7.71995 5.72654 7.66666 5.86087 7.5599C5.99519 7.45321 6.06236 7.30745 6.06236 7.12262C6.06236 7.04073 6.04523 6.985 6.01094 6.95542C5.97662 6.92596 5.9185 6.91117 5.83658 6.91117Z" fill="white"/>
<path d="M7.72279 7.43713L7.37416 6.80548C7.60469 6.71598 7.71998 6.52255 7.71998 6.22531C7.71998 5.81759 7.4856 5.61371 7.0169 5.61371H6.42529C6.38526 5.61371 6.3524 5.62704 6.32669 5.65372C6.30095 5.68044 6.28809 5.71184 6.28809 5.74801V7.56573C6.28809 7.60958 6.30998 7.6434 6.35383 7.66716C6.39763 7.69102 6.45002 7.70288 6.51102 7.70288C6.57196 7.70288 6.62437 7.691 6.66822 7.66716C6.71202 7.64335 6.73396 7.60958 6.73396 7.56573V6.87692H6.92261L7.31416 7.63716C7.34275 7.69243 7.39035 7.72004 7.45706 7.72004C7.52374 7.72004 7.58709 7.69529 7.64711 7.64572C7.70714 7.59622 7.73714 7.54379 7.73714 7.48852C7.73707 7.46762 7.73228 7.45048 7.72279 7.43713ZM7.20836 6.47253C7.16451 6.51352 7.10069 6.53398 7.01685 6.53398H6.73391V6.00237H7.01685C7.10067 6.00237 7.16449 6.02286 7.20836 6.0638C7.25217 6.1048 7.2741 6.1729 7.2741 6.26815C7.27413 6.36348 7.25217 6.43158 7.20836 6.47253Z" fill="white"/>
<path d="M9.61911 5.66799C9.57624 5.6318 9.52337 5.61371 9.46048 5.61371C9.37475 5.61371 9.30945 5.62655 9.26471 5.65229C9.21992 5.67802 9.1699 5.73947 9.11466 5.83662L8.82029 6.35105L8.52591 5.83662C8.47065 5.73945 8.42061 5.67797 8.37586 5.65229C8.33108 5.62655 8.26583 5.61371 8.18009 5.61371C8.11723 5.61371 8.06433 5.6318 8.02147 5.66799C7.9786 5.7042 7.95715 5.7604 7.95715 5.8366V7.5657C7.95715 7.60956 7.97904 7.64338 8.0229 7.66714C8.0667 7.691 8.11908 7.70286 8.18009 7.70286C8.24103 7.70286 8.29343 7.69098 8.33729 7.66714C8.38109 7.64333 8.40303 7.60956 8.40303 7.5657V6.46534L8.67455 6.96263C8.70315 7.0179 8.74979 7.04551 8.81459 7.04551C8.88127 7.04551 8.93079 7.0179 8.96321 6.96263L9.23759 6.49393V7.5657C9.23759 7.60956 9.25948 7.64338 9.30334 7.66714C9.34714 7.691 9.39952 7.70286 9.46053 7.70286C9.52147 7.70286 9.57387 7.69098 9.61773 7.66714C9.66153 7.64333 9.68347 7.60956 9.68347 7.5657V5.8366C9.68342 5.76045 9.662 5.7042 9.61911 5.66799Z" fill="white"/>
</svg>
