<?xml version="1.0" encoding="UTF-8"?>
<svg width="455px" height="372px" viewBox="0 0 455 372" version="1.1" xmlns="http://www.w3.org/2000/svg" xmlns:xlink="http://www.w3.org/1999/xlink">
    <title>Question_Flatline 2@1x</title>
    <g id="Page-1" stroke="none" stroke-width="1" fill="none" fill-rule="evenodd">
        <g id="ШФ_Страница-клуба" transform="translate(-73.000000, -5736.000000)" fill-rule="nonzero">
            <g id="Group-28" transform="translate(0.000000, 3316.000000)">
                <g id="Group-24" transform="translate(73.000000, 2418.000000)">
                    <g id="Question_Flatline" transform="translate(227.500000, 188.000000) scale(-1, 1) translate(-227.500000, -188.000000) translate(0.000000, 2.000000)">
                        <path d="M453.794433,315.050023 L20.2739775,315.050023 C19.8450049,315.050023 19.497254,314.702603 19.497254,314.274038 C19.497254,313.845473 19.8450049,313.498053 20.2739775,313.498053 L453.794433,313.498053 C454.223406,313.498053 454.571157,313.845473 454.571157,314.274038 C454.571157,314.702603 454.223406,315.050023 453.794433,315.050023 Z" id="Path" fill="#E4E9EC"></path>
                        <ellipse id="Oval" fill="#FFFFFF" cx="112.269109" cy="86.5844375" rx="111.537495" ry="85.2497428"></ellipse>
                        <path d="M112.315713,172.610166 C50.3953149,172.610166 0.0170285195,134.028177 0.0170285195,86.5844375 C0.0170285195,39.1406975 50.3487115,0.574229107 112.315713,0.574229107 C174.282714,0.574229107 224.629931,39.1562172 224.629931,86.5844375 C224.629931,134.012658 174.205041,172.610166 112.315713,172.610166 Z M112.315713,2.12619967 C51.2497108,2.12619967 1.57047552,40.009801 1.57047552,86.5844375 C1.57047552,133.159074 51.2807797,171.058195 112.315713,171.058195 C173.350645,171.058195 223.076484,133.174594 223.076484,86.5844375 C223.076484,39.9942813 173.350645,2.12619967 112.315713,2.12619967 Z" id="Shape" fill="#E4E9EC"></path>
                        <path d="M236.218646,49.9113732 C235.69445,49.9270019 235.173537,49.9998603 234.665199,50.128649 C228.839772,51.6806196 227.208653,59.6577483 233.748665,61.7994676 C235.575526,62.2942124 237.526858,61.9876122 239.113518,60.9565227 C240.700178,59.9254332 241.771744,58.2676058 242.059606,56.3986101 C242.272535,54.7360599 241.749753,53.0633395 240.627762,51.8172045 C239.50577,50.5710696 237.895954,49.87523 236.218646,49.9113732 Z" id="Path" fill="#FFFFFF"></path>
                        <path d="M235.472991,62.8548076 C234.798166,62.853961 234.127498,62.7492687 233.484579,62.5444135 C230.614205,61.8187938 228.632306,59.2002706 228.715497,56.243413 C228.902451,52.9406747 231.23009,50.1489018 234.447716,49.3681835 C235.026153,49.2196344 235.62142,49.1466009 236.218646,49.1509076 L236.218646,49.1509076 C238.110981,49.1131063 239.926065,49.9000912 241.190904,51.3067817 C242.455743,52.7134722 243.045052,54.6005309 242.805261,56.4762086 C242.544825,58.5991731 241.333255,60.4890246 239.511953,61.6132312 C238.313641,62.4075416 236.910984,62.8387183 235.472991,62.8548076 Z M236.218646,50.7028782 C235.752256,50.6983657 235.287333,50.7557735 234.836078,50.8735949 C232.285766,51.4770276 230.431055,53.6766153 230.268944,56.2899722 C230.215729,58.5560251 231.757872,60.5498429 233.966148,61.0700415 C235.568962,61.4892881 237.27447,61.2125437 238.662079,60.3080553 C240.049689,59.403567 240.99025,57.9555196 241.251814,56.3210116 C241.442094,54.8869787 240.997068,53.4413322 240.033063,52.3619579 C239.069059,51.2825835 237.681898,50.6767714 236.23418,50.7028782 L236.218646,50.7028782 Z" id="Shape" fill="#303337"></path>
                        <path d="M371.927776,208.879717 L404.037526,200.747392 C402.825837,198.450475 383.314543,139.956705 365.418833,128.580761 C350.055242,115.823563 319.203785,114.613026 284.266762,113.216252 C273.084069,112.56244 261.867758,113.656823 251.022996,116.459871 C210.276081,127.711657 181.646052,185.444962 181.646052,185.444962 L221.787123,193.375532 C221.787123,193.375532 215.402456,253.00224 209.810047,325.696541 C209.810047,325.696541 273.780994,340.083309 373.729775,334.480695 C373.729775,334.480695 370.980173,219.215841 371.927776,208.879717 Z" id="Path" fill="#F0AA3B"></path>
                        <polygon id="Path" fill="#303337" points="274.215959 133.500507 241.003262 332.758007 308.500535 337.631195 323.134006 122.093524"></polygon>
                        <path d="M308.500535,338.408457 L308.500535,338.408457 L241.018797,333.533993 C240.80002,333.515708 240.598116,333.409249 240.459556,333.239118 C240.331611,333.064912 240.275957,332.848069 240.304211,332.63385 L273.516908,133.37635 C273.560979,133.070303 273.789703,132.823269 274.091684,132.755562 L323.025264,121.333058 C323.262496,121.271783 323.51461,121.336216 323.693247,121.503775 C323.88368,121.658441 323.987787,121.895348 323.972867,122.140083 L309.339396,337.677754 C309.326027,337.881981 309.230826,338.072203 309.07531,338.205424 C308.918293,338.346524 308.711385,338.419152 308.500535,338.408457 L308.500535,338.408457 Z M241.919796,332.1217 L307.785949,336.886249 L322.295144,123.148864 L274.883942,134.214414 L241.919796,332.1217 Z" id="Shape" fill="#303337"></path>
                        <path d="M278.658818,104.38554 L272.44503,130.412086 C272.44503,130.412086 277.773353,147.964873 295.436046,146.614659 C306.016425,145.717147 315.630084,140.108334 321.611628,131.343268 L329.207983,83.3873781 C329.207983,83.3873781 317.696941,74.6187445 325.852538,47.8782917 C310.973915,51.5881315 295.370113,51.2289633 280.678299,46.8384715 C280.678299,46.8384715 268.141982,75.2395327 268.04817,88.7416765 C267.955568,102.24382 278.658818,104.38554 278.658818,104.38554 Z" id="Path" fill="#FFFFFF"></path>
                        <path d="M293.587444,147.437203 C277.043233,147.437203 271.839186,130.784559 271.730444,130.598323 C271.699329,130.465615 271.699329,130.327518 271.730444,130.19481 L277.757819,104.88217 C275.194631,104.059626 267.240982,100.490094 267.31809,88.6951174 C267.411862,75.1929736 279.497679,47.6610159 280.025851,46.4970379 C280.176136,46.1402561 280.570698,45.9531844 280.942385,46.0624862 C295.498133,50.3741006 310.940966,50.7330194 325.681659,47.1023065 C325.95806,47.0272233 326.25359,47.1039882 326.458382,47.3040626 C326.662288,47.5067583 326.734408,47.8069749 326.644796,48.0800479 C322.528161,61.5977115 323.537902,70.319786 325.215625,75.2550524 C326.034119,78.1317649 327.617832,80.7330228 329.798293,82.7821096 C330.02191,82.9537051 330.134881,83.2328947 330.093448,83.5115358 L322.481558,131.467426 C322.471456,131.568701 322.433856,131.665296 322.372817,131.746781 C316.233883,140.734996 306.379984,146.494732 295.529252,147.437203 C294.86127,147.437203 294.208822,147.437203 293.587444,147.437203 Z M273.283891,130.365527 C273.936339,132.33653 279.357869,147.033691 295.420511,145.885233 C305.683372,144.971447 315.013185,139.560751 320.897042,131.110473 L328.415725,83.7443313 C326.458382,81.9750849 317.976562,72.6167024 324.749591,49.0267499 C310.346308,52.2644341 295.360877,51.8482713 281.159868,47.8162129 C279.3268,52.0530925 268.93424,76.698385 268.856567,88.7882357 C268.76336,101.436796 278.410266,103.578515 278.814163,103.671633 C279.024797,103.699956 279.209369,103.826729 279.311266,104.013067 C279.43046,104.184986 279.470059,104.399749 279.420007,104.602816 L273.283891,130.365527 Z" id="Shape" fill="#303337"></path>
                        <path d="M319.421267,80.9352646 C320.361662,78.7065561 321.99586,76.839899 324.081608,75.6120056 C326.099504,74.5767471 328.279952,73.8943645 330.528413,73.5944439 C331.745001,73.3155032 333.00903,73.3155032 334.225617,73.5944439 C335.058959,73.8634198 335.830076,74.2961017 336.49365,74.8670598 C338.187458,76.0609905 339.394962,77.8237024 339.895699,79.8333655 C340.107211,81.4802715 339.909816,83.1538726 339.320923,84.7065531 C338.829516,86.449488 338.10863,88.1195177 337.177167,89.6728589 C335.223155,92.7536611 332.114469,94.9232779 328.546702,95.69624 C324.978935,96.4692021 321.249916,95.7809843 318.194044,93.7855809" id="Path" fill="#FFFFFF"></path>
                        <path d="M325.743797,96.7034631 C322.938263,96.7073574 320.191717,95.898732 317.836751,94.3753297 C317.482352,94.1385125 317.385283,93.6605562 317.619269,93.30447 C317.727817,93.1284521 317.903419,93.0041735 318.105635,92.9602552 C318.307852,92.9163369 318.519251,92.9565648 318.691147,93.0716744 C321.572669,94.9512712 325.087931,95.5989011 328.450983,94.8697656 C331.814036,94.1406301 334.744385,92.0955425 336.586857,89.191748 C337.482203,87.7012078 338.176887,86.0992138 338.652941,84.4271984 C339.191683,82.9865488 339.378094,81.4381519 339.196648,79.9109641 C338.721555,78.0930599 337.621792,76.499919 336.089754,75.4102494 C335.501529,74.906493 334.820936,74.5217172 334.085807,74.2773109 C332.986175,74.0308045 331.845528,74.0308045 330.745896,74.2773109 C328.5794,74.566779 326.478085,75.2228156 324.532108,76.2172741 C322.563171,77.3415587 321.018539,79.0810263 320.135853,81.1680602 C319.964264,81.5623399 319.505233,81.7429985 319.110578,81.5715726 C318.715923,81.4001466 318.535093,80.9415516 318.706682,80.547272 C319.733315,78.1551716 321.510781,76.1615087 323.770919,74.8670598 C325.862234,73.7783495 328.128256,73.0639966 330.466276,72.7563798 C331.793745,72.4380608 333.177768,72.4380608 334.505238,72.7563798 C335.435478,73.0528705 336.296573,73.5331476 337.037356,74.168673 C338.869102,75.4850365 340.160679,77.4205613 340.672422,79.6160897 C340.909069,81.3916583 340.706383,83.1981135 340.082112,84.8772699 C339.589721,86.6813299 338.852778,88.4096723 337.891752,90.0142924 C335.820684,93.265953 332.539875,95.5608949 328.773018,96.3928914 C327.777298,96.604308 326.761744,96.7083684 325.743797,96.7034631 Z" id="Path" fill="#303337"></path>
                        <path d="M276.204372,117.406573 C282.435974,119.157223 289.121028,118.127118 294.535046,114.581986 C303.203281,108.59138 303.23435,104.292422 303.23435,104.292422 C303.23435,104.292422 290.076653,108.948333 279.295731,104.89769 L276.204372,117.406573 Z" id="Path" fill="#303337"></path>
                        <path d="M282.41816,119.036142 C280.232621,119.054102 278.055972,118.756143 275.95582,118.151519 C275.573009,118.025425 275.350358,117.62773 275.443183,117.235856 L278.550077,104.711454 C278.615156,104.49985 278.759975,104.321781 278.953973,104.214823 C279.152457,104.130289 279.376867,104.130289 279.575352,104.214823 C289.967912,108.110269 302.877057,103.640594 302.985798,103.594035 C303.227614,103.513258 303.493564,103.553691 303.700384,103.702673 C303.909338,103.844921 304.027489,104.0869 304.011073,104.338981 C304.011073,104.525217 303.871263,109.088011 294.985546,115.202775 C291.292244,117.744554 286.902708,119.083472 282.41816,119.036142 L282.41816,119.036142 Z M277.13644,116.863383 C282.941739,118.26905 289.070461,117.21299 294.069012,113.945678 C299.599284,110.127831 301.478954,107.039409 302.115868,105.456399 C298.54294,106.49622 288.631948,108.855215 279.823903,105.921991 L277.13644,116.863383 Z" id="Shape" fill="#303337"></path>
                        <path d="M297.377854,66.734734 C297.377854,66.734734 285.897881,78.172757 287.544535,80.8887055 C289.191189,83.604654 295.31177,83.2477008 295.31177,83.2477008" id="Path" fill="#FFFFFF"></path>
                        <path d="M294.58165,83.9616072 C292.701979,83.9616072 288.367862,83.6822525 286.814415,81.2146193 C284.996882,78.2037965 293.975805,68.8919731 296.77201,66.0984261 C297.07658,65.7941451 297.570387,65.7941451 297.874957,66.0984261 C298.179528,66.4027072 298.179528,66.8960442 297.874957,67.2003252 C291.878652,73.1754118 287.420259,79.2125773 288.150379,80.4075946 C289.29993,82.3009987 293.68065,82.4872352 295.265166,82.394117 C295.471258,82.3813913 295.673939,82.4511722 295.828428,82.5880417 C295.982917,82.7249112 296.076497,82.9176034 296.088493,83.1235431 C296.105604,83.3304616 296.037287,83.5353725 295.899401,83.6907137 C295.761514,83.846055 295.566049,83.938318 295.358373,83.9460875 L294.58165,83.9616072 Z" id="Path" fill="#303337"></path>
                        <ellipse id="Oval" fill="#303337" transform="translate(308.195275, 67.832958) rotate(-83.610000) translate(-308.195275, -67.832958) " cx="308.195275" cy="67.8329581" rx="3.13501747" ry="2.23693731"></ellipse>
                        <ellipse id="Oval" fill="#303337" transform="translate(287.514527, 63.857372) rotate(-66.470000) translate(-287.514527, -63.857372) " cx="287.514527" cy="63.8573723" rx="3.13545581" ry="2.23662463"></ellipse>
                        <path d="M306.046089,97.308554 C305.844031,97.3066166 305.650037,97.2290929 305.502382,97.0912782 C298.605077,90.4798836 279.963713,86.4137207 279.7773,86.3671616 C279.576147,86.3263418 279.400021,86.2060913 279.288877,86.0336896 C279.177733,85.861288 279.140992,85.6513491 279.18699,85.451499 C279.228152,85.2497904 279.347853,85.072688 279.519747,84.9591711 C279.691641,84.8456543 279.90164,84.8050268 280.103524,84.8462304 C280.880247,85.0169472 299.350732,89.0520707 306.512123,95.9738594 C306.73882,96.192094 306.811241,96.5254536 306.695497,96.8179413 C306.579752,97.110429 306.298736,97.3041904 305.983951,97.308554 L306.046089,97.308554 Z" id="Path" fill="#303337" transform="translate(292.958776, 91.069539) scale(-1, -1) translate(-292.958776, -91.069539) "></path>
                        <line x1="379.58627" y1="245.816617" x2="402.515148" y2="263.384924" id="Path" fill="#FFFFFF"></line>
                        <path d="M402.499613,264.160926 C402.331369,264.162054 402.167487,264.107478 402.033579,264.005712 L379.120236,246.437405 C378.782745,246.170188 378.714408,245.685458 378.964891,245.335506 C379.231385,245.005444 379.710905,244.94385 380.052304,245.195829 L402.981182,262.779655 C403.23769,262.98524 403.336811,263.329927 403.228642,263.640183 C403.120472,263.950439 402.828458,264.159017 402.499613,264.160926 L402.499613,264.160926 Z" id="Path" fill="#231F20"></path>
                        <path d="M339.383061,71.1888895 L339.181113,71.1888895 C338.770823,71.0754955 338.528343,70.6532884 338.637407,70.2421875 C340.952043,61.6442706 343.204541,52.8911566 345.332763,44.2001215 L345.56578,43.2844589 C346.637185,39.6306807 347.232405,35.8541036 347.33671,32.048192 C347.243503,29.3167239 346.000746,28.9442509 342.086059,28.9442509 C341.87773,28.9513818 341.67559,28.8728462 341.526818,28.726975 C341.381862,28.5827583 341.298364,28.3881136 341.293801,28.1837853 C341.228481,24.3073559 339.369897,20.6796846 336.260633,18.3598117 C331.07212,14.5574838 323.475764,13.7039 315.39784,16.233612 L314.993943,16.3577697 C306.947088,18.8098832 300.00318,20.9205631 291.21067,21.2464769 C289.517412,21.2464769 287.762017,21.2464769 286.06876,21.2464769 C282.246382,21.0778447 278.41707,21.3328895 274.650925,22.0069425 C272.300667,22.588954 269.991378,23.3251502 267.738085,24.2107407 C265.803946,24.7898819 263.988956,25.709654 262.378693,26.9266892 C260.773316,28.4865891 259.527538,30.3773125 258.728093,32.4672241 C257.819239,34.2937471 257.165861,36.2363519 256.786284,38.2405546 C255.885285,44.4484368 259.893178,49.8958535 262.425297,52.6428414 C263.978744,54.350009 266.339983,56.2589328 268.639085,55.6381445 C269.068057,55.522432 269.509701,55.7760489 269.625524,56.2046138 C269.741346,56.6331786 269.487488,57.0744026 269.058515,57.1901151 C266.635138,57.8574624 263.947675,56.6624451 261.29128,53.7447404 C258.634886,50.8270358 254.2697,44.8519491 255.27944,38.0698378 C255.672217,35.9137006 256.367778,33.823775 257.345525,31.8619556 C258.259342,29.5587937 259.657956,27.4787446 261.446625,25.7627113 C263.197256,24.4301813 265.169212,23.4162457 267.272051,22.7674081 C269.588257,21.852561 271.965649,21.1006088 274.386839,20.5170508 C278.26908,19.807028 282.219042,19.5363119 286.161967,19.7100261 C287.83969,19.7100261 289.564016,19.7100261 291.241739,19.7100261 C299.816766,19.3841123 306.683002,17.3044717 314.621116,14.8833977 L315.025012,14.75924 C323.568971,12.1674492 331.66243,13.0365527 337.254839,17.1182353 C340.530963,19.5759175 342.58631,23.3263303 342.893852,27.4078001 C345.690056,27.4078001 348.828019,27.7181942 348.967829,32.0637117 C348.871611,36.0112183 348.260617,39.9293432 347.150296,43.7190106 L346.917279,44.6346733 C344.789057,53.3257084 342.521024,62.0943421 340.206388,70.7077787 C340.07443,71.0374367 339.735355,71.2355753 339.383061,71.1888895 Z" id="Path" fill="#303337"></path>
                        <path d="M313.813324,135.812944 C313.813324,135.812944 305.036348,127.401263 302.706178,117.111698 C300.376007,106.822134 301.277006,104.602816 299.676956,104.245862 C298.076905,103.888909 295.373908,104.975289 293.369961,108.482742 C291.366014,111.990196 291.909721,124.328361 295.17196,129.294667 C298.434198,134.260973 313.813324,135.812944 313.813324,135.812944 Z" id="Path" fill="#FFFFFF"></path>
                        <path d="M313.813324,136.573409 L313.735651,136.573409 C313.098738,136.495811 297.95263,134.912801 294.519512,129.69818 C291.086394,124.483559 290.496084,111.897077 292.701979,108.07923 C294.907874,104.261382 297.828354,103.035325 299.832301,103.423318 C301.277006,103.733712 301.385748,104.975289 301.805178,107.598119 C302.069264,109.522562 302.457626,112.440267 303.467367,116.909942 C305.719865,126.842554 314.263823,135.145596 314.341496,135.223195 C314.569406,135.457917 314.636494,135.805225 314.512375,136.107818 C314.387693,136.383835 314.116305,136.564588 313.813324,136.573409 Z M299.086646,104.959769 C297.828354,104.959769 295.715666,105.921991 294.037943,108.839695 C292.36022,111.7574 292.639841,124.017967 295.824407,128.844596 C297.968164,132.119254 306.698536,134.012658 311.747239,134.757604 C309.07531,131.80886 303.731453,125.119866 301.960523,117.266895 C300.935248,112.766181 300.531352,109.801917 300.267266,107.846434 C299.956576,105.596077 299.847835,105.068407 299.506077,104.990808 C299.367377,104.969043 299.226578,104.963833 299.086646,104.975289 L299.086646,104.959769 Z" id="Shape" fill="#303337"></path>
                        <path d="M184.084964,186.531341 C184.084964,186.531341 145.062375,282.458642 159.695846,311.635688 C174.329317,340.812735 318.256182,353.849287 318.256182,353.849287 C318.256182,353.849287 336.555788,361.60914 342.241404,362.788638 C347.92702,363.968135 369.488864,365.225232 369.488864,365.225232 C369.488864,365.225232 361.348802,366.777202 364.19161,369.275875 C367.034418,371.774547 382.832974,371.712469 384.526231,366.032256 C386.219489,360.352044 381.683423,337.600156 376.758996,333.937505 C371.834569,330.274855 316.578459,316.865829 312.523963,316.477836 C308.469466,316.089844 217.390868,284.522763 217.390868,284.522763 L229.181531,195.439652" id="Path" fill="#FFFFFF"></path>
                        <path d="M371.97438,371.634954 C368.354848,371.634954 365.014937,371.029601 363.694507,369.896663 C363.027126,369.445797 362.701197,368.634822 362.87118,367.848062 C363.326859,366.862924 364.170334,366.110136 365.201351,365.768421 C358.599201,365.349389 346.264832,364.464766 342.086059,363.564623 C336.555788,362.385125 319.747491,355.339179 318.069768,354.640792 C310.644292,353.957925 173.599197,341.107609 158.996795,311.977122 C152.783007,299.669995 155.082109,274.729828 165.661083,237.901567 C173.428318,210.555846 183.277172,186.484782 183.370379,186.236467 C183.533388,185.837902 183.988942,185.646821 184.387886,185.809675 C184.786831,185.97253 184.978094,186.427651 184.815084,186.826216 C184.426723,187.788438 146.08765,282.691437 160.394897,311.294255 C174.702144,339.897072 316.889149,352.980184 318.333854,353.104342 C318.405514,353.088802 318.479677,353.088802 318.551337,353.104342 C318.737751,353.18194 336.850943,360.864194 342.412283,361.997133 C347.973623,363.130071 369.317985,364.402687 369.535468,364.418207 C369.923288,364.440298 370.235142,364.745226 370.265588,365.132113 C370.283452,365.51992 370.022404,365.86548 369.644209,365.954658 C367.298504,366.420249 364.564437,367.506628 364.378024,368.189495 C364.378024,368.298133 364.517834,368.499889 364.704248,368.655087 C366.257695,369.989781 373.71424,370.734727 379.27558,369.074119 C381.04651,368.530929 383.283474,367.522148 383.780577,365.783941 C385.427231,360.04165 380.673683,337.848471 376.339566,334.527254 C372.005448,331.206037 317.417321,317.703893 312.492894,317.222782 C308.376259,316.80375 220.83952,286.509285 217.173385,285.221149 C216.827151,285.105294 216.612037,284.760136 216.660748,284.398605 L228.451411,195.299975 C228.487485,195.022742 228.668862,194.785796 228.927219,194.678391 C229.185575,194.570987 229.48166,194.609441 229.703942,194.779269 C229.926224,194.949097 230.040932,195.224498 230.004858,195.501731 L218.291867,283.964053 C249.935583,294.920965 309.541344,315.360418 312.663773,315.670812 C315.786201,315.981206 371.958845,329.297113 377.287168,333.285677 C382.615492,337.274242 386.949609,360.398603 385.28742,366.218493 C384.743714,368.127417 382.81744,369.632828 379.741615,370.56401 C377.215138,371.280836 374.600758,371.641277 371.97438,371.634954 Z" id="Path" fill="#303337"></path>
                        <path d="M349.154243,214.55993 C349.154243,214.55993 322.947592,147.514802 315.584253,136.480291 C308.220914,125.44578 275.909217,98.5035714 271.885789,101.18848 C267.862361,103.873389 269.042981,106.868693 270.720704,108.948333 C272.398426,111.027974 281.765712,117.468652 281.765712,117.468652 C281.765712,117.468652 271.217807,112.626503 270.891583,119.020622 C270.565359,125.414741 278.658818,129.232588 278.658818,129.232588 C278.658818,129.232588 269.788635,122.698792 269.446877,129.729219 C269.356361,133.922563 271.811327,137.754801 275.660665,139.429035 C275.660665,139.429035 266.215707,131.420867 267.116707,139.770469 C268.670154,153.489888 296.259372,169.878697 296.259372,169.878697 L307.972363,283.901974 C307.972363,283.901974 312.16667,350.03144 354.404894,348.029398 C408.60466,345.453127 424.310009,267.326929 397.217893,201.259542" id="Path" fill="#FFFFFF"></path>
                        <path d="M352.447551,348.743304 C311.685101,348.743304 307.149036,284.491723 307.102433,283.839895 L295.436046,170.235651 C292.111669,168.218089 267.722551,153.008777 266.262311,139.739429 C266.013759,137.473552 266.479793,136.0147 267.644879,135.393912 C268.352513,135.056304 269.159596,134.990031 269.912911,135.207675 C268.934549,133.503381 268.475623,131.550757 268.592481,129.589542 C268.479632,128.092799 269.234158,126.663579 270.53429,125.911371 C271.223376,125.613553 271.982773,125.5167 272.72465,125.632017 C270.99137,123.816407 270.047564,121.389394 270.099325,118.880945 C270.090014,117.534193 270.769556,116.275893 271.901323,115.544208 C273.567369,114.782943 275.449136,114.634523 277.214112,115.125176 C274.703423,113.396296 272.329965,111.476504 270.114859,109.382885 C268.802619,108.164465 268.177562,106.377084 268.444829,104.607351 C268.712095,102.837618 269.837175,101.314043 271.450824,100.536653 C274.402373,98.5656502 286.20857,107.55156 292.966065,113.092095 C301.680903,120.215639 312.244342,130.086172 316.26777,136.045739 C323.584505,147.033691 348.890157,211.533587 349.915432,214.280575 C350.062673,214.679041 349.86189,215.121726 349.464932,215.273836 C349.275947,215.354223 349.06214,215.353167 348.873959,215.270916 C348.685779,215.188665 348.539894,215.032506 348.470726,214.839284 C348.20664,214.171937 322.201937,147.763117 314.962874,136.914843 C311.591894,131.855419 302.379954,122.760871 292.018462,114.287112 C279.482145,104.028587 273.377098,101.18848 272.351823,101.871347 C271.171831,102.497545 270.317624,103.599611 270.006118,104.89769 C269.951761,106.204916 270.434373,107.477575 271.342082,108.420663 C272.662512,109.972634 279.653024,115.001018 282.216212,116.801304 C282.543105,117.035064 282.637446,117.479391 282.433694,117.825605 C282.24141,118.180656 281.804947,118.323734 281.439488,118.151519 C279.730696,117.360014 274.837338,115.621807 272.709116,116.909942 C272.017047,117.370763 271.616427,118.15947 271.652772,118.989583 C271.466358,122.590154 274.293632,125.352662 276.483992,126.951192 C277.3766,127.40273 278.233476,127.921555 279.04718,128.503162 C279.35172,128.745554 279.42956,129.175761 279.22923,129.509327 C279.028899,129.842894 278.612313,129.976728 278.254922,129.822337 C277.339874,129.375625 276.461977,128.856653 275.629596,128.270367 C274.076149,127.447822 272.227547,126.889113 271.202272,127.370224 C270.565359,127.665098 270.208066,128.456603 270.145928,129.713699 C269.997025,132.186905 270.906123,134.606983 272.646978,136.371653 C273.856382,137.07663 275.004745,137.881277 276.080096,138.777207 C276.368567,139.025499 276.434348,139.446097 276.235441,139.770469 C276.035172,140.097357 275.626022,140.229215 275.272303,140.080863 C273.990943,139.499865 272.823212,138.695842 271.823651,137.706348 C270.410014,136.914843 269.07405,136.433732 268.374999,136.806205 C267.675948,137.178678 267.629344,138.09434 267.800223,139.615271 C269.244929,152.791502 296.290441,168.978554 296.554527,169.102712 C296.76942,169.227541 296.913211,169.445896 296.942889,169.692461 L308.65588,283.715738 C308.65588,284.398605 313.223014,349.131297 354.265084,347.144775 C371.275328,346.33775 385.411696,337.832951 395.182878,322.499482 C413.699966,293.462113 414.197069,244.807836 396.410101,201.445779 C396.258032,201.051575 396.442651,200.607543 396.829532,200.436998 C397.228434,200.283708 397.67782,200.467374 397.854807,200.85603 C415.812654,244.668159 415.268948,293.881145 396.487773,323.337546 C386.452506,339.090047 371.865638,347.858681 354.342756,348.696745 L352.447551,348.743304 Z" id="Path" fill="#303337"></path>
                        <path d="M347.802744,211.983659 C347.802744,211.983659 368.945158,269.406569 374.366688,288.34061" id="Path" fill="#FFFFFF"></path>
                        <path d="M374.366688,289.116686 C374.01972,289.121933 373.713056,288.892153 373.621033,288.557886 C368.261641,269.856641 347.290107,212.821723 347.072624,212.247494 C346.968973,211.984691 347.01645,211.686378 347.196576,211.468653 C347.376703,211.250928 347.661024,211.148186 347.938885,211.200413 C348.216747,211.252641 348.444254,211.451586 348.532864,211.719824 C348.734812,212.294053 369.737416,269.37553 375.112342,288.138854 C375.223549,288.54926 374.990339,288.974122 374.58417,289.101076 L374.366688,289.116686 Z" id="Path" fill="#303337"></path>
                        <path d="M232.614649,156.749026 C232.614649,158.378596 229.35241,188.7041 229.35241,188.7041" id="Path" fill="#231F20"></path>
                        <path d="M229.35241,189.464857 L229.274738,189.464857 C228.850925,189.415848 228.545764,189.034759 228.591221,188.610982 C229.49222,180.199302 231.837925,158.052682 231.837925,156.749026 C231.837925,156.320462 232.185676,155.973041 232.614649,155.973041 C233.043621,155.973041 233.391372,156.320462 233.391372,156.749026 C233.391372,158.394115 230.284478,187.540122 230.144668,188.781699 C230.096683,189.179546 229.753368,189.475458 229.35241,189.464857 L229.35241,189.464857 Z" id="Path" fill="#303337"></path>
                        <path d="M92.866556,99.2329975 C91.9655568,87.6397775 96.532691,80.019602 109.410767,70.8008969 C121.015016,62.6375317 124.323858,58.3851324 123.826755,51.9134152 C123.220911,44.1535624 116.19933,39.8856434 105.729097,40.692668 C92.7888837,41.7014489 85.4566138,50.6718387 85.6585619,65.524197 L57.339223,65.6173152 C56.0964654,37.2317737 74.6290882,17.2423929 103.942633,14.9765159 C130.009474,12.9589542 150.250888,27.252603 151.913077,48.7318755 C152.938352,61.8460268 147.252736,71.6544807 132.696937,82.1458017 C120.937343,90.8989156 118.343087,94.3442903 118.855724,101.002244 L119.368362,107.660198 L93.6743485,109.693279 L92.866556,99.2329975 Z M92.866556,122.947108 L123.189842,120.588112 L125.473409,150.075553 L95.0724508,152.403509 L92.866556,122.947108 Z" id="Shape" fill="#303337" transform="translate(104.654989, 83.595321) scale(-1, 1) translate(-104.654989, -83.595321) "></path>
                        <path d="M251.892926,69.0161307 C256.351319,69.9162737 256.832887,62.2960982 252.125943,63.149682 C250.689049,63.3415813 249.598348,64.5378812 249.540867,65.9850405 C249.483385,67.4321997 250.475771,68.7110832 251.892926,69.0161307 L251.892926,69.0161307 Z" id="Path" fill="#FFFFFF"></path>
                        <path d="M252.607512,69.8386751 C252.315103,69.8375711 252.023587,69.8063669 251.737581,69.7455569 L251.737581,69.7455569 C249.981988,69.4667659 248.701863,67.9360518 248.739429,66.1605049 C248.751643,64.2727385 250.122109,62.6677378 251.986133,62.358177 C253.364695,62.0051332 254.817113,62.5508226 255.621199,63.7239111 C256.509817,65.1625893 256.461026,66.9905036 255.496923,68.3798228 C254.84388,69.3243324 253.756006,69.8735957 252.607512,69.8386751 L252.607512,69.8386751 Z M252.125943,68.2867046 C252.946096,68.5252388 253.826363,68.2048749 254.300769,67.4951996 C254.863159,66.6297173 254.899051,65.5241239 254.393976,64.6240541 C253.925784,63.9833663 253.102757,63.7092846 252.343426,63.941187 C251.219299,64.1346566 250.391267,65.098691 250.370548,66.2381034 C250.338558,67.2713165 251.09918,68.158987 252.125943,68.2867046 Z" id="Shape" fill="#303337"></path>
                        <path d="M99.7638607,266.938936 C99.9615865,264.318479 99.3313172,261.70209 97.9618622,259.458438 C96.6185377,257.94072 95.3534299,256.355659 94.1714515,254.709408 C92.6180045,251.605467 93.689883,248.082494 93.3170557,244.745757 C92.9433231,241.869641 91.5353967,239.227462 89.3557658,237.311818 C87.3828881,235.542572 84.8507695,234.332035 82.9555641,232.48519 C79.8486701,229.474367 78.9787398,225.221967 77.2233447,221.450679 C74.5552811,215.947275 70.2025002,211.435557 64.7957686,208.569323 C68.1667487,214.575449 60.4927204,222.211145 63.9724417,228.170712 C65.0753891,230.048596 67.1725426,231.42985 67.980335,233.431892 C69.9376782,238.25852 63.4442698,243.488661 65.5103543,248.28425 C66.5511638,250.674285 69.4561097,252.055538 70.7920741,254.321415 C72.6096071,257.425357 71.1804358,261.088007 71.3357805,264.548901 C71.5377287,269.313451 74.8155018,273.56585 78.6991193,276.871548 C81.1224967,278.920149 83.80996,280.704915 86.4663544,282.55176 C89.5732484,284.771078 90.9247473,287.114553 93.6743485,283.545021 C97.42534,278.800361 99.5591197,272.981549 99.7638607,266.938936 L99.7638607,266.938936 Z" id="Path" fill="#E4E9EC"></path>
                        <path d="M106.754372,269.189293 C105.744632,265.495603 105.030046,261.507039 106.754372,258.030625 C108.680647,254.08862 113.449729,251.310593 114.00897,247.058193 C114.381797,244.264646 112.781747,241.44006 113.403125,238.693072 C114.024504,235.946084 116.510019,234.03716 118.669311,232.035118 C123.395072,227.542391 126.289155,221.461193 126.793839,214.963442 C129.986476,218.289462 132.610496,222.11689 134.561074,226.292827 C136.443335,230.461099 136.013501,235.308309 133.427057,239.081065 C132.638518,239.926578 131.978987,240.883558 131.469714,241.921171 C130.522111,244.637119 133.147437,247.166831 134.576608,249.681023 C136.218241,252.655526 135.840617,256.335409 133.629005,258.915248 C130.879404,262.019189 125.58215,263.136608 124.308323,266.830298 C123.968693,268.205949 123.806853,269.619399 123.826755,271.036138 C123.00266,276.291112 119.026702,280.497674 113.822556,281.620578 C110.560317,282.303445 110.715662,281.170506 110.04768,278.749432 C109.053474,275.583412 107.655372,272.432912 106.754372,269.189293 Z" id="Path" fill="#E4E9EC"></path>
                        <path d="M96.4084152,242.681636 C94.0937792,235.604651 93.161711,228.201751 90.7383336,221.155805 C88.645775,215.615028 86.1160599,210.249034 83.1730467,205.108429 L93.0840386,208.802119 C96.1909326,209.997136 99.7017229,211.39391 101.208566,214.140898 C103.818357,218.936487 99.1269475,225.08229 101.861014,229.8158 C103.057628,231.367671 104.37155,232.82562 105.791235,234.176838 C108.711715,237.808449 108.261216,242.805794 106.661165,247.027154 C105.977649,248.842959 102.963962,258.247901 100.276498,255.64059 C99.2046198,254.58525 99.111413,250.689804 98.7230512,249.261991 C97.9773967,247.058193 97.1230008,244.885434 96.4084152,242.681636 Z" id="Path" fill="#E4E9EC"></path>
                        <path d="M94.979244,308.174794 C93.2393833,295.371037 91.7325397,284.258928 91.7170053,284.072691 L90.1635582,284.274447 C90.1635582,284.460684 91.7170053,295.448635 93.394728,308.174794 L94.979244,308.174794 Z" id="Path" fill="#E4E9EC"></path>
                        <path d="M108.369957,308.174794 C110.49818,291.630788 112.704074,279.354701 113.946832,277.988966 L112.797281,276.949146 C111.072955,278.84255 108.742784,293.198278 106.81651,308.174794 L108.369957,308.174794 Z" id="Path" fill="#E4E9EC"></path>
                        <path d="M106.474752,308.174794 C104.781495,278.268321 101.814411,248.594644 101.814411,248.206651 L100.260964,248.361849 C100.260964,248.749841 103.367858,278.34592 104.921305,308.174794 L106.474752,308.174794 Z" id="Path" fill="#E4E9EC"></path>
                        <path d="M79.5690497,290.404731 L123.500531,290.404731 L120.393637,323.399625 C119.865465,329.110877 113.465263,333.549512 105.760166,333.549512 L97.2628111,333.549512 C89.495576,333.549512 83.1575123,329.110877 82.6138058,323.399625 L79.5690497,290.404731 Z" id="Path" fill="#E4E9EC"></path>
                    </g>
                </g>
            </g>
        </g>
    </g>
</svg>