<?xml version="1.0" encoding="UTF-8"?>
<svg width="32px" height="32px" viewBox="0 0 32 32" version="1.1" xmlns="http://www.w3.org/2000/svg" xmlns:xlink="http://www.w3.org/1999/xlink">
    <title>facebook 2</title>
    <g id="Symbols" stroke="none" stroke-width="1" fill="none" fill-rule="evenodd">
        <g id="Footer" transform="translate(-116.000000, -328.000000)" fill="#43609C" fill-rule="nonzero">
            <g id="facebook" transform="translate(116.000000, 328.000000)">
                <path d="M15.8861593,3.73034936e-13 C24.6598428,3.73034936e-13 31.7723186,7.11247578 31.7723186,15.8861593 C31.7723186,24.6598428 24.6598428,31.7723186 15.8861593,31.7723186 C7.11247578,31.7723186 2.59348099e-13,24.6598428 2.59348099e-13,15.8861593 C2.59348099e-13,7.11247578 7.11247578,3.73034936e-13 15.8861593,3.73034936e-13 Z M17.083469,6.16297345 C13.552708,6.16297345 12.7504425,8.80764602 12.7504425,10.4965664 L12.7504425,10.4965664 L12.7504425,12.8583363 L10.707823,12.8583363 L10.707823,16.5080354 L12.7504425,16.5080354 L12.7504425,26.8930265 L17.0452389,26.8930265 L17.0452389,16.5080354 L19.8799292,16.5080354 L20.2551504,12.8617345 L17.0455221,12.8617345 L17.0455221,10.7137699 C17.0455221,9.90810619 17.5779115,9.71893805 17.956531,9.71893805 L17.956531,9.71893805 L20.2647788,9.71893805 L20.2647788,6.17628319 Z" id="Combined-Shape"></path>
            </g>
        </g>
    </g>
</svg>