<?xml version="1.0" encoding="UTF-8"?>
<svg width="135px" height="121px" viewBox="0 0 135 121" version="1.1" xmlns="http://www.w3.org/2000/svg" xmlns:xlink="http://www.w3.org/1999/xlink">
    <title>winner__flatline (1) 2</title>
    <g id="Page-1" stroke="none" stroke-width="1" fill="none" fill-rule="evenodd">
        <g id="ШФ_Стартовая" transform="translate(-289.000000, -6723.000000)" fill-rule="nonzero">
            <g id="Group-10" transform="translate(0.000000, 5912.000000)">
                <g id="Group-25" transform="translate(72.000000, 380.000000)">
                    <g id="winner__flatline-(1)" transform="translate(218.000000, 432.000000)">
                        <path d="M113.605606,60.9140426 C113.605606,60.9140426 128.497879,73.6034043 128.325303,82.8051064 C128.152727,92.0068085 124.264697,95.8059574 114.331439,91.4297872 C104.398182,87.053617 84.0037879,64.452766 84.0037879,64.452766 L113.605606,60.9140426 Z" id="Path" fill="#FFFFFF"></path>
                        <path d="M121.310606,93.5131915 C119.361515,93.5131915 117.011439,92.9004255 114.204545,91.6697872 C104.357576,87.3242553 83.9936364,64.8612766 83.7855303,64.6059574 C83.7209298,64.5325323 83.7018101,64.4292667 83.7358005,64.3373664 C83.7697908,64.2454662 83.851358,64.1798915 83.9479545,64.1668085 L113.565,60.6229787 C113.63624,60.6181297 113.706747,60.6399548 113.762955,60.6842553 C116.41672,63.0168204 118.906435,65.5317944 121.214167,68.2110638 C126.168106,74.0017021 128.64,78.9038298 128.558788,82.7897872 C128.457273,87.8297872 127.269545,91.0110638 124.929621,92.4919149 C123.846256,93.1759479 122.589546,93.5305881 121.310606,93.5131915 L121.310606,93.5131915 Z M84.5468939,64.6570213 C87.2675,67.6289362 105.39303,87.1965957 114.43803,91.2102128 C119.006212,93.252766 122.462803,93.533617 124.670758,92.1140426 C126.878712,90.6944681 127.959848,87.6765957 128.061364,82.8204255 C128.239015,74.2110638 114.747652,62.2621277 113.534545,61.2051064 L84.5468939,64.6570213 Z" id="Shape" stroke="#303337" stroke-width="0.8" fill="#303337"></path>
                        <path d="M27.8557576,56.2621277 C27.8557576,56.2621277 0.416212121,82.3353191 0.609090909,91.5370213 C0.801969697,100.738723 11.2681818,98.946383 21.1862121,94.5702128 C31.1042424,90.1940426 41.4892424,68.5991489 41.4892424,68.5991489 L27.8557576,56.2621277 Z" id="Path" fill="#FFFFFF"></path>
                        <path d="M7.78621212,98.4153191 C6.12920439,98.4901578 4.48515159,98.089946 3.04545455,97.2612766 C1.29939394,96.1378723 0.385757576,94.1974468 0.329924242,91.5421277 C0.248712121,87.6561702 4.83212121,80.5021277 13.9481818,70.2740426 C20.7141667,62.6859574 27.5918182,56.1395745 27.6527273,56.0731915 C27.752467,55.9785156 27.9082906,55.9785156 28.0080303,56.0731915 L41.6567424,68.4255319 C41.7435368,68.5043772 41.7680706,68.6310677 41.7176515,68.7370213 C39.7767554,72.6431389 37.6247994,76.4394552 35.2714394,80.1089362 C30.15,88.0442553 25.4498485,92.9974468 21.292803,94.8306383 C17.8057576,96.347234 12.2884091,98.4153191 7.78621212,98.4153191 Z M27.8608333,56.6246809 C25.5158333,58.8714894 0.69030303,82.932766 0.867954545,91.5319149 C0.918712121,94.013617 1.75113636,95.7957447 3.34492424,96.8170213 C7.63393939,99.5693617 16.2982576,96.4391489 21.0796212,94.3302128 C30.3175,90.2451064 40.1340152,70.7387234 41.1593182,68.6655319 L27.8608333,56.6246809 Z" id="Shape" stroke="#303337" stroke-width="0.8" fill="#303337"></path>
                        <path d="M103.586061,50.8697872 C92.3432576,43.0468085 74.2684848,40.5446809 74.2684848,40.5446809 L62.9393939,40.5446809 C62.9393939,40.5446809 42.357197,41.7702128 31.1143939,49.5931915 C19.8715909,57.4161702 17.5875,62.0119149 17.5875,62.0119149 L38.545303,85.2102128 L42.5500758,82.907234 L47.7882576,109.174468 L89.4094697,109.174468 L96.1145455,82.253617 L101.464394,84.4902128 L120.473106,63.252766 C120.473106,63.252766 114.828864,58.6876596 103.586061,50.8697872 Z" id="Path" fill="#F0AA3B"></path>
                        <path d="M64.2184848,65.5148936 C71.0555303,69.4570213 78.4306061,54.0255319 81.6080303,55.0314894 C84.7854545,56.0374468 83.9885606,68.5991489 83.9885606,68.5991489 L87.2522727,68.532766 C87.2522727,68.532766 89.8510606,57.0382979 87.1659848,53.1829787 C81.0293939,44.3795745 73.1518182,57.2068085 68.9186364,60.2910638 C64.6854545,63.3753191 59.3711364,40.8868085 59.3711364,40.8868085 L56.0566667,41.6068085 C56.0566667,41.6068085 59.0919697,62.5531915 64.2184848,65.5148936 Z" id="Path" fill="#303337"></path>
                        <path d="M83.9885606,68.8544681 C83.9212541,68.8552936 83.8567332,68.8274749 83.8109091,68.7778723 C83.7605194,68.726525 83.7346165,68.6557929 83.7398485,68.5838298 C83.9631818,65.147234 84.0037879,56.052766 81.5318939,55.2765957 C80.4558333,54.9344681 78.5321212,57.0689362 76.5018182,59.3259574 C72.9234091,63.3038298 68.4668939,68.2570213 64.0915909,65.7344681 L64.0915909,65.7344681 C58.9193939,62.747234 55.9297727,42.4953191 55.8079545,41.6323404 C55.7892534,41.5006725 55.8762139,41.3772959 56.0059091,41.3514894 L59.3203788,40.626383 C59.4545554,40.597573 59.5871988,40.681258 59.6198485,40.8153191 C59.6198485,40.8612766 60.7060606,45.4110638 62.2490909,50.052766 C64.7869697,57.7531915 66.6142424,59.8468085 67.6852273,60.2655319 C68.0500167,60.4127926 68.4654256,60.3503005 68.7714394,60.1021277 C69.9875894,59.1050296 71.1246201,58.0140646 72.172197,56.8391489 C75.2176515,53.6323404 79.0193939,49.6391489 82.7399242,49.9251064 C84.4555303,50.0578723 86.0137879,51.1097872 87.3690152,53.0553191 C90.094697,56.9617021 87.6025,68.1344681 87.4959091,68.6093617 C87.4706084,68.7225678 87.3726116,68.8043749 87.2573485,68.8085106 L83.9987121,68.8748936 L83.9885606,68.8544681 Z M81.2933333,54.7302128 C81.4259749,54.7302093 81.5578164,54.75088 81.6841667,54.7914894 C83.1206061,55.2408511 83.9834848,57.7276596 84.2525,62.1804255 C84.3612981,64.2317324 84.3612981,66.2874165 84.2525,68.3387234 L87.0441667,68.2825532 C87.3639394,66.7506383 89.3587121,56.7778723 86.952803,53.3259574 C85.6686364,51.4876596 84.2778788,50.532766 82.6942424,50.4102128 C79.2325758,50.1446809 75.5171212,54.0408511 72.5427273,57.1710638 C71.475063,58.3683834 70.3159475,59.479858 69.0759848,60.4953191 C68.631109,60.8427126 68.0377248,60.9299314 67.5126515,60.7251064 C63.7007576,59.3004255 59.7365909,43.4348936 59.1884091,41.1778723 L56.3459848,41.7957447 C56.7012879,44.1038298 59.6756818,62.5940426 64.3504545,65.2851064 L64.3504545,65.2851064 C68.3704545,67.6085106 72.674697,62.8238298 76.1312879,58.9787234 C78.242803,56.6348936 79.9533333,54.7302128 81.2933333,54.7302128 Z" id="Shape" fill="#303337"></path>
                        <path d="M82.1612879,25.5319149 C81.9785606,25.1540426 82.8211364,16.3404255 82.1612879,9.72765957 C81.0293939,-1.50638298 58.6300758,-2.20595745 55.1024242,6.99574468 C53.5086364,11.1625532 54.8080303,26.2621277 54.8080303,26.2621277 L82.1612879,25.5319149 Z" id="Path" fill="#FFFFFF"></path>
                        <path d="M54.8181818,26.5531927 C54.6799864,26.5536034 54.5648723,26.4467031 54.5542424,26.3080851 C54.5034848,25.6902128 53.2700758,11.1012766 54.8689394,6.9293617 C56.8992424,1.66978723 64.6905303,-0.255319149 71.02,0.597446809 C76.1363636,1.27148936 81.8516667,4.03404255 82.4201515,9.70212766 C82.8769697,14.2621277 82.6282576,19.7565957 82.4759848,23.04 C82.4201515,24.2451064 82.3744697,25.2817021 82.41,25.4451064 C82.4506886,25.5180542 82.4506886,25.6070522 82.41,25.68 C82.3602812,25.7542478 82.27554,25.7968741 82.1866667,25.7923404 L54.8181818,26.5531927 Z M68.0151515,0.903829787 C62.6043939,0.903829787 56.9550758,2.85957447 55.3257576,7.09276596 C53.8791667,10.8612766 54.8638636,24.0204255 55.0212121,25.986383 L81.8465909,25.266383 C81.8465909,24.9242553 81.8465909,24.2808511 81.927803,23.0144681 C82.075,19.7412766 82.3287879,14.2723404 81.8770455,9.73787234 C81.3390152,4.37617021 75.8622727,1.75148936 70.9134091,1.05702128 C69.9517461,0.941622433 68.98354,0.890446536 68.0151515,0.903829787 Z" id="Shape" stroke="#303337" stroke-width="0.8" fill="#303337"></path>
                        <path d="M77.3900758,24.4442553 C78.0600758,20.2365957 85.0037121,19.2 84.6636364,24.1582979 C84.6086092,25.8812945 83.9527677,27.5298874 82.8109848,28.8153191 C81.6232576,30.0357447 79.6893939,30.6382979 78.1666667,29.9131915" id="Path" fill="#FFFFFF"></path>
                        <path d="M79.6031061,30.4748936 C79.0669191,30.4797155 78.5358131,30.3700687 78.0448485,30.1531915 C77.959619,30.1148805 77.9011798,30.0337359 77.8915444,29.9403241 C77.881909,29.8469123 77.9225412,29.7554248 77.9981353,29.7003241 C78.0737294,29.6452233 78.1728008,29.6348805 78.2580303,29.6731915 C79.7840351,30.2589087 81.5106694,29.854943 82.6231818,28.6519149 C83.9276515,27.3191489 84.3083333,25.4706383 84.399697,24.1582979 C84.5722727,21.6970213 82.9074242,21.2323404 82.1815909,21.1506383 C80.3289394,20.9361702 78.0042424,22.2434043 77.6590909,24.5106383 C77.6126706,24.6248311 77.4941846,24.6918153 77.3730916,24.6723235 C77.2519985,24.6528317 77.1602022,24.5519994 77.1515152,24.4289362 C77.5575758,21.8757447 80.1563636,20.3897872 82.262803,20.6297872 C83.6637121,20.7931915 85.110303,21.8195745 84.942803,24.2042553 C84.8463636,25.6034043 84.4352273,27.5744681 83.0190909,29.0246809 C82.1167674,29.9448709 80.8879183,30.466563 79.6031061,30.4748936 L79.6031061,30.4748936 Z" id="Path" stroke="#303337" stroke-width="0.8" fill="#303337"></path>
                        <path d="M60.0868182,24.4442553 C59.4168182,20.2365957 52.4731818,19.2 52.8132576,24.1582979 C52.8682847,25.8812945 53.5241263,27.5298874 54.6659091,28.8153191 C55.8536364,30.0357447 57.7722727,30.612766 59.3254545,29.9131915" id="Path" fill="#FFFFFF"></path>
                        <path d="M57.8636364,30.4748936 C56.5817464,30.4566668 55.3598411,29.9256335 54.4679545,28.9991489 C53.0518182,27.5489362 52.6406818,25.5778723 52.5442424,24.1787234 C52.3767424,21.7940426 53.8182576,20.7676596 55.2242424,20.6042553 C57.3306818,20.3642553 59.9294697,21.8655319 60.3355303,24.4034043 C60.3767461,24.504794 60.3518442,24.6212404 60.2728292,24.6966077 C60.1938143,24.7719751 60.0769048,24.7907934 59.9784599,24.743991 C59.880015,24.6971885 59.8202415,24.5943719 59.8279545,24.4851064 C59.4726515,22.2382979 57.1479545,20.9106383 55.295303,21.1302128 C54.5694697,21.2119149 52.9046212,21.6765957 53.077197,24.1378723 C53.1685606,25.4502128 53.5492424,27.2987234 54.8537121,28.6314894 C55.9662245,29.8345175 57.6928588,30.2384831 59.2188636,29.652766 C59.3506559,29.5951061 59.5040806,29.6541224 59.5640152,29.7855319 C59.6213292,29.9181194 59.5626668,30.0724697 59.4320455,30.132766 C58.9394965,30.3580874 58.4047159,30.4747427 57.8636364,30.4748936 Z" id="Path" stroke="#303337" stroke-width="0.8" fill="#303337"></path>
                        <path d="M60.0868182,43.5982979 C60.0868182,43.5982979 62.5739394,49.5931915 68.0557576,49.5931915 C73.5375758,49.5931915 76.8266667,45.0485106 76.8266667,45.0485106 L76.8266667,26.2621277 L60.0766667,25.5319149 L60.0868182,43.5982979 Z" id="Path" fill="#FFFFFF"></path>
                        <path d="M68.0557576,49.853617 C62.4724242,49.853617 59.8685606,43.7617021 59.8431818,43.7259574 C59.8379447,43.6921187 59.8379447,43.6576685 59.8431818,43.6238298 L59.8431818,25.5319149 C59.8431097,25.4588578 59.8723996,25.3888745 59.9243939,25.3378723 C59.9770343,25.289773 60.0461959,25.2641387 60.1172727,25.2662471 L76.8672727,25.9965957 C77.00793,26.0045972 77.1186271,26.1204168 77.1210606,26.2621277 L77.1210606,45.0485106 C77.1207025,45.103695 77.1029286,45.1573384 77.070303,45.2017021 C77.0043182,45.252766 73.5984848,49.853617 68.0557576,49.853617 Z M60.3456818,43.5421277 C60.5943939,44.093617 63.0662879,49.3276596 68.0557576,49.3276596 C72.9690909,49.3276596 76.1312879,45.5131915 76.567803,44.9565957 L76.567803,26.5123404 L60.3253788,25.8025532 L60.3456818,43.5421277 Z" id="Shape" stroke="#303337" stroke-width="0.8" fill="#303337"></path>
                        <path d="M60.5791667,34.0442553 C60.7212879,34.8357447 62.9393939,41.0706383 76.8215909,41.933617 L76.8215909,33.1914894 C74.4816667,33.5285106 70.2992424,35.9693617 67.7715152,35.7446809 C65.66,35.5557447 63.4825,35.3514894 61.5486364,34.5344681 C61.2187121,34.3761702 60.9090909,34.212766 60.5791667,34.0442553 Z" id="Path" fill="#303337"></path>
                        <path d="M76.8266667,42.1889362 L76.8266667,42.1889362 C61.7770455,41.2544681 60.3609091,34.1565957 60.3456818,34.0851064 C60.3303669,33.9880128 60.3718232,33.8906976 60.4522727,33.8348936 C60.534904,33.784338 60.6386566,33.784338 60.7212879,33.8348936 C61.0004545,33.9931915 61.3151515,34.1514894 61.6704545,34.3097872 C63.6043182,35.1319149 65.8427273,35.3310638 67.8121212,35.4995745 C69.2536364,35.6374468 71.3651515,34.8204255 73.2127273,34.1055319 C74.3707466,33.6062461 75.5742914,33.2214559 76.8063636,32.9565957 C76.8797377,32.9455331 76.9541897,32.9680035 77.0093939,33.0178723 C77.0645994,33.0648495 77.096212,33.1340686 77.0956884,33.2068085 L77.0956884,41.9489362 C77.0960049,42.0190807 77.06644,42.0860032 77.0144697,42.132766 C76.9624398,42.1771032 76.8943226,42.1974764 76.8266667,42.1889362 L76.8266667,42.1889362 Z M61.0359848,34.5651064 C61.7668939,36.2042553 64.8631061,40.866383 76.5728788,41.6629787 L76.5728788,33.492766 C75.4838332,33.768389 74.4166726,34.1251176 73.3802273,34.56 C71.3803788,35.3310638 69.3196212,36.132766 67.7562879,35.9846809 C65.7259848,35.8110638 63.4672727,35.6068085 61.4572727,34.7591489 L61.0359848,34.5651064 Z" id="Shape" fill="#303337"></path>
                        <path d="M67.8628788,37.3021277 L68.9795455,37.3021277 C74.2749102,37.3021277 78.5676515,32.9834854 78.5676515,27.6561702 L78.5676515,12.3829787 C75.355841,13.7324356 71.9337403,14.5049801 68.4567424,14.6655319 C64.9322693,14.7138104 61.4454202,13.9321426 58.2747727,12.3829787 L58.2747727,27.6561702 C58.2747727,30.2144372 59.2849453,32.6679242 61.083064,34.4768921 C62.8811827,36.2858601 65.319955,37.3021277 67.8628788,37.3021277 L67.8628788,37.3021277 Z" id="Path" fill="#FFFFFF"></path>
                        <path d="M78.5676515,12.3829787 L78.5676515,27.6561702 C78.5676515,32.9834854 74.2749102,37.3021277 68.9795455,37.3021277 L67.8628788,37.3021277 C65.319955,37.3021277 62.8811827,36.2858601 61.083064,34.4768921 C59.2849453,32.6679242 58.2747727,30.2144372 58.2747727,27.6561702 L58.2747727,12.3829787 C61.2593709,13.8409071 64.5251574,14.6234989 67.8425758,14.6757447 L68.4567424,14.6757447 C71.9337403,14.5151928 75.355841,13.7426484 78.5676515,12.3931915 M58.2646212,11.8825532 C58.1678681,11.88128 58.0727692,11.9078557 57.9905303,11.9591489 C57.83127,12.0516288 57.734183,12.2235329 57.736693,12.4085106 L57.736693,27.6561702 C57.7423423,33.2736221 62.2689638,37.8252708 67.8527273,37.8280851 L68.9693939,37.8280851 C74.5511753,37.8224556 79.0747073,33.2716302 79.080303,27.6561702 L79.080303,12.3829787 C79.080303,12.100961 78.8530536,11.8723404 78.5727273,11.8723404 C78.4975982,11.8723076 78.4232795,11.8879565 78.3544697,11.9182979 C75.2034821,13.2346276 71.8494917,13.9913668 68.4415152,14.1548936 L67.8476515,14.1548936 C64.6157,14.0986708 61.4343968,13.3373112 58.5234848,11.9234043 C58.4486568,11.8827701 58.3648805,11.8616997 58.2798485,11.8621213 L58.2646212,11.8825532 Z" id="Shape" stroke="#303337" stroke-width="0.8" fill="#303337"></path>
                        <path d="M68.5734848,27.7634791 C68.1137284,27.7651053 67.6543179,27.7378178 67.1979545,27.6817021 C67.0021263,27.6579159 66.8289897,27.5424261 66.7309848,27.3702128 C66.0254545,26.1804255 67.8933333,21.12 68.2790909,20.1191489 C68.3030245,20.0539129 68.3518974,20.0010158 68.4148225,19.9722409 C68.4777475,19.943466 68.5494981,19.9412035 68.6140909,19.9659574 C68.7498592,20.0183328 68.8179476,20.1713145 68.7663636,20.3080851 C67.9187121,22.5344681 66.7360606,26.3489362 67.1827273,27.0995745 C67.1967886,27.1311647 67.2251421,27.1539844 67.2588636,27.1608511 C68.1631535,27.2581537 69.0751798,27.2581537 69.9794697,27.1608511 C70.1065408,27.1658803 70.2111617,27.2630214 70.2263134,27.3900468 C70.241465,27.5170723 70.1626595,27.6363574 70.0403788,27.6714894 C69.5536183,27.7309249 69.0638143,27.7616158 68.5734848,27.7634791 L68.5734848,27.7634791 Z" id="Path" stroke="#303337" stroke-width="0.8" fill="#303337"></path>
                        <path d="M69.0962879,34.0085106 C67.7106586,33.9495392 66.3595731,33.5554304 65.1575,32.8595745 C65.0288176,32.7916649 64.9789028,32.6318866 65.0458333,32.5021277 C65.1151248,32.3745664 65.2734914,32.3267697 65.4011364,32.3948936 C67.355303,33.4161702 69.0404545,33.7276596 70.4007576,33.2834043 C71.2095925,33.0322508 71.8957929,32.485807 72.3244697,31.7514894 C72.3549863,31.6887671 72.4092636,31.6410025 72.4751154,31.6189194 C72.5409673,31.5968363 72.612876,31.6022852 72.674697,31.6340426 C72.8042807,31.6981822 72.8585634,31.8551866 72.7965152,31.986383 C72.3031846,32.8456219 71.5055398,33.4857641 70.5631818,33.7787234 C70.0896276,33.9339533 69.5943367,34.01154 69.0962879,34.0085106 L69.0962879,34.0085106 Z" id="Path" stroke="#303337" stroke-width="0.8" fill="#303337"></path>
                        <ellipse id="Oval" stroke="#303337" stroke-width="0.8" fill="#303337" transform="translate(72.768552, 19.295262) rotate(-3.780000) translate(-72.768552, -19.295262) " cx="72.7685518" cy="19.2952624" rx="1" ry="1.33273124"></ellipse>
                        <ellipse id="Oval" stroke="#303337" stroke-width="0.8" fill="#303337" transform="translate(64.219497, 19.917318) rotate(-3.780000) translate(-64.219497, -19.917318) " cx="64.2194968" cy="19.9173181" rx="1" ry="1.33273124"></ellipse>
                        <path d="M30.6880303,73.4195745 C14.2781061,73.4195745 10.385,57.6817021 10.3240909,57.5234043 L10.0043182,56.1702128 L18.9782576,53.106383 L19.9629545,56.0068085 L13.7045455,58.1361702 C14.927803,61.5625532 19.1965152,70.3914894 30.6931061,70.3557447 L30.6880303,73.4195745 Z" id="Path" fill="#FFFFFF"></path>
                        <path d="M30.6626515,73.6748936 C14.1258333,73.6748936 10.1159848,57.7429787 10.0804545,57.5846809 L9.75560606,56.226383 C9.73008449,56.0981647 9.80115089,55.97034 9.92310606,55.9251064 L18.8970455,52.8612766 C19.0300696,52.8168699 19.1740629,52.8870375 19.2218939,53.0195745 L20.2015152,55.92 C20.2293119,55.9816583 20.2293119,56.0523843 20.2015152,56.1140426 C20.1709773,56.1754887 20.118355,56.2229521 20.0543182,56.2468085 L14.0344697,58.2893617 C15.430303,62.0323404 19.7142424,70.0953191 30.672803,70.0953191 L30.6981818,70.0953191 C30.8372111,70.0980358 30.9492693,70.2107702 30.9519697,70.3506383 L30.9519697,73.4144681 C30.949417,73.48814 30.917103,73.5575766 30.8624958,73.6067305 C30.8078885,73.6558844 30.7357137,73.6805019 30.6626515,73.6748936 L30.6626515,73.6748936 Z M10.3037879,56.3131915 L10.572803,57.4417021 C10.6083333,57.6 14.4862121,72.9957447 30.4342424,73.1438298 L30.4342424,70.5906383 C19.0797727,70.4731915 14.7806061,61.9097872 13.4609091,58.2025532 C13.4331123,58.1408949 13.4331123,58.0701689 13.4609091,58.0085106 C13.4885811,57.9449224 13.5422644,57.8965022 13.6081061,57.8757447 L19.6330303,55.8331915 L18.8107576,53.4178723 L10.3037879,56.3131915 Z" id="Shape" stroke="#303337" stroke-width="0.8" fill="#303337"></path>
                        <path d="M51.2651515,66.3829787 L49.4074242,63.9574468 C58.5133333,56.9004255 56.5439394,47.3106383 55.4323485,43.8382979 L49.1434848,45.9574468 L48.1587879,43.0570213 L57.1327273,39.9931915 L57.7062879,41.2646809 C57.7722727,41.412766 64.2387879,56.292766 51.2651515,66.3829787 Z" id="Path" fill="#FFFFFF"></path>
                        <path d="M51.2651515,66.6229843 C51.1866442,66.6219943 51.1124822,66.5865548 51.0621212,66.5259574 L49.2043939,64.0953191 C49.1191719,63.9838466 49.1395964,63.8240315 49.2500758,63.7378723 C57.9499242,56.9974468 56.4373485,47.9744681 55.2699242,44.1497872 L49.2348485,46.2178723 C49.1031648,46.2619389 48.9607173,46.1914227 48.9150758,46.0595745 L47.9303788,43.1591489 C47.9075292,43.094756 47.9075292,43.0243929 47.9303788,42.96 C47.9611021,42.8998293 48.013892,42.8540462 48.0775758,42.8323404 L57.0515152,39.7685106 C57.1759748,39.7278388 57.3110318,39.7870089 57.3662121,39.906383 L57.934697,41.172766 C58.0006818,41.3259574 64.5331818,56.3948936 51.3920455,66.587234 C51.3539223,66.6108983 51.3099464,66.6232859 51.2651515,66.6229843 Z M49.7424242,63.9880851 L51.2651515,66.0306383 C63.8276515,56.0885106 57.5184848,41.52 57.4525,41.3923404 L56.9804545,40.3302128 L48.4633333,43.2561702 L49.2805303,45.6714894 L55.3257576,43.5829787 C55.3893441,43.5576671 55.4601256,43.5576671 55.5237121,43.5829787 C55.5835219,43.6138874 55.6290304,43.6669958 55.6506061,43.7310638 C56.8484848,47.4893617 58.6554545,56.9157447 49.7424242,63.9880851 Z" id="Shape" stroke="#303337" stroke-width="0.8" fill="#303337"></path>
                        <path d="M47.8897727,40.1259574 L17.3184848,50.3387234 C17.3184848,50.3387234 21.5059848,63.5846809 27.6730303,70.7897872 C32.7995455,76.7744681 37.0834848,78.3574468 40.3065909,78.4902128 C41.112873,79.4210617 41.7086192,80.5169491 42.0526515,81.7021277 C42.8647727,84.5361702 42.3927273,88.0442553 42.3927273,88.0442553 L50.8438636,85.1438298 C50.8438636,85.1438298 48.092803,82.8204255 47.214697,80.0068085 C46.8625139,78.8179851 46.6429053,77.5934304 46.5599242,76.3557447 C49.2551515,73.6902128 51.9351515,68.3387234 52.1432576,61.8893617 C52.407197,53.1625532 47.8897727,40.1259574 47.8897727,40.1259574 Z" id="Path" fill="#FFFFFF"></path>
                        <path d="M42.3927273,88.2740639 C42.3328609,88.2748455 42.274883,88.2529727 42.230303,88.212766 C42.1633058,88.1565519 42.12896,88.0701692 42.1389394,87.9829787 C42.1389394,87.947234 42.5957576,84.4953191 41.8090152,81.7480851 C41.4867703,80.6328986 40.9331867,79.5991089 40.1847727,78.7148936 C35.992197,78.5004255 31.7184091,75.8808511 27.4953788,70.9276596 C21.3689394,63.7787234 17.1306818,50.5021277 17.0900758,50.3897872 C17.0694051,50.3261418 17.0749527,50.2568169 17.1054777,50.1973179 C17.1360027,50.1378188 17.1889582,50.0931101 17.2525,50.0731915 L47.8237879,39.8604255 C47.9554715,39.816359 48.0979191,39.8868751 48.1435606,40.0187234 C48.1892424,40.1514894 52.6762121,53.1931915 52.407197,61.8434043 C52.1940152,68.6604255 49.2957576,73.9251064 46.8238636,76.4068085 C46.9067888,77.5843336 47.1195858,78.7489338 47.4583333,79.8791489 C48.3059848,82.5855319 50.9809091,84.8731915 51.0113636,84.893617 C51.0825455,84.952697 51.1162415,85.045992 51.0993628,85.1372624 C51.0824841,85.2285328 51.0176909,85.3033937 50.9301515,85.332766 L42.4790152,88.2331915 L42.3927273,88.2740639 Z M17.6382576,50.4868085 C18.2422727,52.3097872 22.257197,64.0595745 27.8659091,70.6059574 C32.0483333,75.4876596 36.2358333,78.0510638 40.3167424,78.2195745 C40.387761,78.2231075 40.454049,78.2564515 40.4994697,78.3114894 C41.3302865,79.2680758 41.943503,80.3956038 42.2962879,81.6153191 C42.7749165,83.5907254 42.9071786,85.635013 42.6871212,87.6561702 L50.3515152,85.026383 C49.58,84.306383 47.6918182,82.3608511 46.9761364,80.0680851 C46.6116738,78.8624127 46.3868507,77.6184253 46.3061364,76.3608511 C46.3020786,76.2865753 46.3297868,76.2140991 46.3822727,76.1617021 C48.7881818,73.7821277 51.6712121,68.6093617 51.8843939,61.8638298 C52.1280303,53.9489362 48.3313636,42.2706383 47.7273485,40.4578723 L17.6382576,50.4868085 Z" id="Shape" stroke="#303337" stroke-width="0.8" fill="#303337"></path>
                        <path d="M37.6725647,86.0565863 L58.6232251,86.0179745 C59.0991397,86.0157571 59.5556028,86.2042714 59.8915049,86.54178 C60.2274071,86.8792885 60.4150218,87.3379322 60.4128108,87.8161186 L60.3976443,96.0781874 L35.8663256,96.1233753 L35.8814725,87.8613065 C35.880998,87.3840107 36.069598,86.9254507 36.4056396,86.5868523 C36.7416812,86.2482538 37.1975321,86.0574594 37.6725647,86.0565863 Z" id="Path" fill="#FFFFFF" transform="translate(48.139568, 91.070675) rotate(-18.830000) translate(-48.139568, -91.070675) "></path>
                        <path d="M38.1544697,100.054468 C38.0462964,100.05366 37.9505225,99.9839585 37.9159091,99.8808511 L35.2612879,92.0578723 C35.0860358,91.5426001 35.1225805,90.9782549 35.362803,90.4902128 C35.6039041,90.0071083 36.0255347,89.6398576 36.535303,89.4689362 L56.3307576,82.667234 C56.842889,82.4890925 57.4045553,82.5243023 57.8907428,82.7650265 C58.3769304,83.0057508 58.747292,83.4320126 58.9193939,83.9489362 L61.5740152,91.7719149 C61.6181555,91.9057416 61.5484087,92.0506037 61.4166667,92.0987234 L38.2204545,100.059574 L38.1544697,100.054468 Z M57.0109091,83.0551973 C56.8383375,83.0534192 56.6667006,83.0810468 56.5033333,83.1370213 L36.7078788,89.933617 C36.3232713,90.0657205 36.0071133,90.3470155 35.8297727,90.7148936 C35.648556,91.0820041 35.6211332,91.5068632 35.7536364,91.8944681 L38.3270455,99.4774468 L61.0410606,91.68 L58.4727273,84.0970213 C58.261488,83.4676631 57.6711425,83.0469787 57.0109091,83.0551973 L57.0109091,83.0551973 Z" id="Shape" stroke="#303337" stroke-width="0.8" fill="#303337"></path>
                        <path d="M35.8460597,95.4728998 L65.6656586,95.4179707 C66.2179424,95.4169534 66.6664816,95.8638431 66.6674989,96.4161269 C66.6675012,96.4173521 66.6675012,96.4185772 66.667499,96.4198023 L66.658919,101.099871 C66.6579091,101.65072 66.2116118,102.097022 65.6607627,102.098036 L35.8411638,102.152965 C35.28888,102.153983 34.8403408,101.707093 34.8393234,101.154809 C34.8393212,101.153584 34.8393212,101.152359 34.8393234,101.151134 L34.8479034,96.4710649 C34.8489133,95.9202158 35.2952106,95.4739145 35.8460597,95.4728998 Z" id="Rectangle" fill="#FFFFFF" transform="translate(50.753411, 98.785468) rotate(-18.830000) translate(-50.753411, -98.785468) "></path>
                        <path d="M37.8448485,106.902181 C37.0098949,106.903378 36.2668925,106.36946 35.9972727,105.574468 L34.9465909,102.48 C34.7789017,101.98706 34.8131086,101.447247 35.0416609,100.97972 C35.2702132,100.512193 35.6743179,100.155395 36.1647727,99.9880851 L36.1647727,99.9880851 L63.0662879,90.7608511 C63.5568248,90.5928695 64.093596,90.6277681 64.5585606,90.8578723 C65.0236818,91.086315 65.3783659,91.4928002 65.5432576,91.986383 L66.5939394,95.0808511 C66.7616286,95.5737911 66.7274217,96.1136039 66.4988694,96.581131 C66.2703171,97.048658 65.8662124,97.4054563 65.3757576,97.572766 L38.4742424,106.8 C38.2715969,106.86921 38.058847,106.903731 37.8448485,106.902181 L37.8448485,106.902181 Z M36.3221212,100.468085 C35.9592225,100.593348 35.6600949,100.857581 35.489697,101.203404 C35.3213855,101.549051 35.2976227,101.948099 35.4237121,102.311489 L36.4693182,105.411064 C36.7288101,106.168279 37.5477241,106.572219 38.3016667,106.314894 L65.2031818,97.0876596 C65.5655488,96.9634061 65.863902,96.6992406 66.0324405,96.3534241 C66.2009791,96.0076076 66.2258582,95.6085475 66.1015909,95.2442553 L65.0509091,92.1497872 C64.7914172,91.392572 63.9725032,90.988632 63.2185606,91.2459574 L36.3221212,100.468085 Z" id="Shape" stroke="#303337" stroke-width="0.8" fill="#303337"></path>
                        <path d="M13.1665152,79.9965957 C20.1558333,80.4051064 33.2360606,84.3370213 37.1291667,84.8170213 C37.1291667,84.8170213 40.4943939,78.8731915 41.2303788,78.4289362 C41.9663636,77.9846809 46.4381061,76.1668085 47.235,76.493617 C48.0318939,76.8204255 50.5190152,79.0468085 50.1586364,79.8331915 C49.7982576,80.6195745 48.9759848,80.2519149 48.6663636,79.7004255 C48.3567424,79.1489362 47.549697,78.3625532 47.3111364,78.4034043 C47.0725758,78.4442553 45.7224242,80.0068085 45.7224242,80.0068085 C46.6028559,80.0971711 47.4445023,80.4175534 48.1638636,80.9361702 C49.2145455,81.7582979 49.3820455,83.0195745 48.4684091,83.6680851 C48.7749294,84.0130642 48.8728266,84.4974705 48.7245454,84.9354763 C48.5762642,85.373482 48.2048281,85.6970785 47.7527273,85.7821277 C46.8340152,85.9659574 45.2503788,85.6493617 44.4991667,86.0680851 C44.072803,86.3029787 43.697197,87.0893617 43.4129545,87.467234 C42.5196212,88.6621277 41.5247727,90.1889362 40.1390909,90.8629787 C38.3828788,91.7157447 20.3436364,99.1097872 7.65424242,98.1497872" id="Path" fill="#FFFFFF"></path>
                        <path d="M10.0804545,98.5021277 C9.2480303,98.5021277 8.43590909,98.4714894 7.63393939,98.4102128 C7.52204989,98.3695485 7.45103022,98.2586054 7.46051724,98.1393021 C7.47000427,98.0199988 7.55765289,97.9218258 7.67454545,97.8995745 C19.952803,98.8340426 37.7636364,91.7412766 40.0274242,90.6382979 C41.184697,90.0765957 42.0577273,88.8561702 42.8698485,87.773617 C42.9865909,87.6204255 43.0931818,87.467234 43.2048485,87.3242553 C43.3165152,87.1812766 43.3672727,87.0791489 43.4586364,86.9310638 C43.6769087,86.5061041 43.9895338,86.1374269 44.3722727,85.853617 C45.0189612,85.6061603 45.7148567,85.5168983 46.4025758,85.5931915 C46.8314312,85.6159786 47.2614712,85.5971684 47.6867424,85.5370213 C48.07024,85.447481 48.3775662,85.1596904 48.4937879,84.7812766 C48.5969207,84.4592922 48.508224,84.1063307 48.2653788,83.8723404 C48.2128916,83.8157892 48.1854226,83.7402544 48.1892424,83.6629787 C48.199214,83.5858912 48.2394233,83.5160198 48.3009091,83.4689362 C48.6047588,83.2768917 48.7947238,82.9462694 48.8084848,82.5855319 C48.7746792,82.0100048 48.4787376,81.4823868 48.0065152,81.1557447 C47.3269614,80.6724086 46.5350524,80.373431 45.707197,80.2876596 C45.6081083,80.2798409 45.5217874,80.2166832 45.4838636,80.1242553 C45.4446092,80.0312103 45.4624171,79.9237182 45.5295455,79.8485106 C46.9456818,78.2093617 47.1842424,78.173617 47.2756061,78.1582979 C47.7375,78.0817021 48.6308333,79.1131915 48.8947727,79.5829787 C49.0304206,79.8382124 49.2835865,80.0086463 49.5698485,80.0374468 C49.6256818,80.0374468 49.7931818,80.0374468 49.9251515,79.7412766 C49.9474931,79.642526 49.9330449,79.5389608 49.8845455,79.4502128 C49.5292424,78.5412766 47.757803,77.0042553 47.1436364,76.7540426 C46.5294697,76.5038298 42.230303,78.1276596 41.3674242,78.6382979 C40.8598485,78.9344681 38.6417424,82.6519149 37.3575758,84.9293617 C37.3060199,85.0218757 37.2029806,85.0726899 37.0987121,85.0570213 C35.6267424,84.8782979 32.8452273,84.2042553 29.6322727,83.4280851 C24.2265909,82.1208511 17.5012121,80.4919149 13.1512879,80.2365957 C13.0816897,80.2339722 13.0160784,80.2032452 12.9692763,80.1513562 C12.9224741,80.0994671 12.89843,80.0307941 12.9025758,79.9608511 C12.9051229,79.8898825 12.9363673,79.8230384 12.9890732,79.7757989 C13.041779,79.7285594 13.1113746,79.7050223 13.1817424,79.7106383 C17.5773485,79.9710638 24.3484091,81.6051064 29.7540909,82.9174468 C32.83,83.6578723 35.5049242,84.306383 36.9870455,84.5106383 C37.7179545,83.2340426 40.3725758,78.6229787 41.0984091,78.1838298 C41.8242424,77.7446809 46.3721212,75.8348936 47.3365152,76.2280851 C48.0268182,76.5140426 49.9454545,78.1480851 50.3819697,79.2204255 C50.4871484,79.4413298 50.4981482,79.6958519 50.4124242,79.9251064 C50.2829157,80.2668664 49.9680396,80.501958 49.6053788,80.5276596 C49.1203395,80.5143025 48.680047,80.2391667 48.4531818,79.8076596 C48.1744845,79.3511888 47.802497,78.9595507 47.3618939,78.6587234 C46.9664362,79.0128287 46.5950699,79.3932596 46.250303,79.7974468 C47.0074523,79.9350245 47.7229825,80.2460265 48.3415152,80.706383 C48.9538673,81.1288315 49.3305821,81.8185892 49.3566667,82.5651064 C49.3441396,82.9914437 49.161129,83.3946552 48.8490909,83.6834043 C49.0902346,84.0379856 49.1539977,84.4851337 49.0216667,84.893617 C48.8549555,85.4611566 48.3936747,85.8919334 47.8187121,86.0170213 C47.3567322,86.085231 46.8891944,86.1074661 46.4228788,86.0834043 C45.8220548,86.018479 45.2143792,86.0846642 44.6412879,86.2774468 C44.3428862,86.5246948 44.097652,86.8304809 43.9205303,87.1761702 C43.8190152,87.3395745 43.7225758,87.4876596 43.6362879,87.6051064 L43.3063636,88.0493617 C42.4790152,89.1778723 41.5450758,90.4595745 40.2609091,91.0774468 C40.0984848,91.1795745 23.3941667,98.5021277 10.0804545,98.5021277 Z" id="Path" stroke="#303337" stroke-width="0.8" fill="#303337"></path>
                        <rect id="Rectangle" fill="#FFFFFF" x="80.0345455" y="66.9497872" width="9.59825758" height="3.73787234" rx="1.86893617"></rect>
                        <path d="M87.7750758,70.9787234 L81.8922727,70.9787234 C80.7621901,70.9230658 79.8743491,69.9850713 79.8743491,68.8468085 C79.8743491,67.7085457 80.7621901,66.7705512 81.8922727,66.7148936 L87.7750758,66.7148936 C88.5569117,66.6763875 89.2963081,67.0740967 89.6986952,67.7495769 C90.1010823,68.4250572 90.1010823,69.2685599 89.6986952,69.9440401 C89.2963081,70.6195204 88.5569117,71.0172295 87.7750758,70.9787234 L87.7750758,70.9787234 Z M81.8922727,67.2408511 C81.0455743,67.2889022 80.3834591,67.9936472 80.3834591,68.8468085 C80.3834591,69.6999698 81.0455743,70.4047148 81.8922727,70.452766 L87.7750758,70.452766 C88.3668678,70.4863508 88.9285669,70.1878141 89.2345226,69.6770863 C89.5404783,69.1663585 89.5404783,68.5272585 89.2345226,68.0165307 C88.9285669,67.5058029 88.3668678,67.2072662 87.7750758,67.2408511 L81.8922727,67.2408511 Z" id="Shape" stroke="#303337" stroke-width="0.8" fill="#303337"></path>
                        <rect id="Rectangle" fill="#FFFFFF" x="83.2424242" y="70.6876596" width="3.17742424" height="3.19659574"></rect>
                        <path d="M86.4249242,74.1497872 L83.2424242,74.1497872 C83.0994578,74.1497872 82.9835606,74.0331908 82.9835606,73.8893617 L82.9835606,70.6876596 C82.9835606,70.5438305 83.0994578,70.427234 83.2424242,70.427234 L86.4249242,70.427234 C86.5687345,70.427234 86.6860981,70.5430083 86.6888636,70.6876596 L86.6888636,73.8893617 C86.6860981,74.0340129 86.5687345,74.1497872 86.4249242,74.1497872 Z M83.5063636,73.6391489 L86.1609848,73.6391489 L86.1609848,70.9787234 L83.5063636,70.9787234 L83.5063636,73.6391489 Z" id="Shape" stroke="#303337" stroke-width="0.8" fill="#303337"></path>
                        <ellipse id="Oval" fill="#FFFFFF" cx="84.8362121" cy="84.0459574" rx="11.4306061" ry="11.4995745"></ellipse>
                        <path d="M84.8362121,95.8059574 C78.3887061,95.8059574 73.1619697,90.5476847 73.1619697,84.0612766 C73.1619697,77.5748685 78.3887061,72.3165957 84.8362121,72.3165957 C91.2837182,72.3165957 96.5104545,77.5748685 96.5104545,84.0612766 C96.4937185,90.5406978 91.2767731,95.7891204 84.8362121,95.8059574 Z M84.8362121,72.827234 C78.6690324,72.827234 73.6695455,77.8568862 73.6695455,84.0612766 C73.6695455,90.265667 78.6690324,95.2953191 84.8362121,95.2953191 C91.0033918,95.2953191 96.0028973,90.265667 96.0028973,84.0612766 C96.0082699,81.0782859 94.8341656,78.215613 92.7394247,76.1044016 C90.6446839,73.9931902 87.8013173,72.8068085 84.8362121,72.8068085 L84.8362121,72.827234 Z" id="Shape" stroke="#303337" stroke-width="0.8" fill="#303337"></path>
                        <path d="M84.8362121,92.1804271 C81.565398,92.1824912 78.6155076,90.2019018 77.3623982,87.1624235 C76.1092889,84.1229452 76.799812,80.6233282 79.1119011,78.2958277 C81.4239901,75.9683273 84.9021839,75.2714403 87.9242193,76.5302016 C90.9462548,77.7889629 92.9168182,80.7554077 92.9168182,84.0459574 C92.911232,88.5341775 89.2975098,92.1719873 84.8362121,92.1804271 Z M84.8362121,76.4221259 C81.7706933,76.420062 79.0058834,78.2762383 77.8313371,81.1249041 C76.6567909,83.9735699 77.303888,87.2535522 79.4708113,89.4350112 C81.6377347,91.6164702 84.8976111,92.2696691 87.7299784,91.089945 C90.5623458,89.9102208 92.4092424,87.1299733 92.4092424,84.0459574 C92.389817,79.8455439 89.0114198,76.4444846 84.8362121,76.4221259 L84.8362121,76.4221259 Z" id="Shape" fill="#F0AA3B"></path>
                        <path d="M87.2522727,68.532766 C87.2522727,68.532766 91.8712121,55.2255319 91.0743182,53.1829787 C90.2774242,51.1404255 89.1252273,48.3829787 88.1151515,46.9634043 C86.5166215,44.7368817 84.609031,42.7524357 82.4506061,41.0706383 L77.3748485,40.56 C77.3748485,40.56 83.4099242,46.3353191 85.6737121,48.4187234 C87.9375,50.5021277 87.2522727,51.4825532 87.1964394,54.4851064 C87.1406061,57.4876596 84.0596212,65.0961702 83.3439394,68.5480851 L87.2522727,68.532766 Z" id="Path" fill="#303337"></path>
                        <path d="M87.2522727,68.7880851 L83.3642424,68.7880851 C83.2889167,68.7865877 83.218146,68.7514984 83.1710812,68.6923124 C83.1240164,68.6331264 83.1055233,68.5559628 83.1206061,68.4817021 C83.4048485,67.0876596 84.0697727,65.0502128 84.7702273,62.8953191 C85.7853788,59.7702128 86.9325,56.226383 86.9629545,54.4646809 C86.9629545,53.8468085 87.0086364,53.3157447 87.0441667,52.8459574 C87.1710606,51.0076596 87.2319697,50.1702128 85.5214394,48.5923404 C83.2830303,46.5497872 77.2834848,40.7846809 77.2225758,40.7285106 C77.142687,40.6542157 77.1200752,40.5363112 77.1667424,40.4374468 C77.2115347,40.3389096 77.3132706,40.2795467 77.4205303,40.2893617 L82.4962879,40.8 C82.540662,40.802175 82.583252,40.8182426 82.6181061,40.8459574 C84.788562,42.5552253 86.7076196,44.564944 88.3181818,46.8153191 C89.1201515,47.9387234 90.094697,49.9914894 91.307803,53.0910638 C92.1148485,55.1591489 87.9628788,67.2459574 87.4857576,68.6144681 C87.4505509,68.7149355 87.3580722,68.7837018 87.2522727,68.7880851 Z M83.6992424,68.2774468 L87.0898485,68.2774468 C88.4044697,64.4731915 91.475303,54.852766 90.8611364,53.2748936 C89.6683333,50.2110638 88.7090152,48.2042553 87.9324242,47.1114894 C86.356987,44.9287032 84.4862692,42.977949 82.3744697,41.3157447 L78.1209848,40.8714894 C79.6437121,42.3370213 84.0393182,46.5191489 85.8767424,48.2144681 C87.7141667,49.9097872 87.6938636,51.0587234 87.5669697,52.8817021 C87.5365152,53.346383 87.4959091,53.8723404 87.4857576,54.4748936 C87.455303,56.3131915 86.3437121,59.7395745 85.2676515,63.0485106 C84.6027273,65.04 83.9885606,66.9293617 83.6789394,68.2774468 L83.6992424,68.2774468 Z" id="Shape" fill="#303337"></path>
                        <path d="M119.660985,74.9310638 C113.676667,71.2697872 97.2921212,63.9625532 93.8152273,62.1344681 C93.8152273,62.1344681 94.4090909,55.3225532 94.0487121,54.5361702 C93.4091667,53.1165957 92.0590152,50.6297872 90.4956818,50.1089362 C88.8409848,49.5523404 85.8970455,50.4357447 84.3540152,50.987234 C83.0495455,51.4519149 81.719697,52.2229787 81.2375,53.5404255 C80.9995479,54.3501251 80.9406443,55.2024094 81.0649242,56.0374468 C81.0620878,56.2505515 81.116447,56.4604795 81.2222727,56.6451064 C81.4456061,56.9514894 81.887197,56.9617021 82.262803,56.9617021 C85.1610606,56.9617021 87.0137121,57.7838298 87.1304545,60.7404255 C87.1913636,62.2365957 87.1304545,64.0595745 87.9019697,65.4076596 C88.8663636,67.1131915 101.799394,84.9497872 111.357045,90.5157447 C116.047045,93.2425532 120.493409,94.1923404 123.07697,93.0689362" id="Path" fill="#FFFFFF"></path>
                        <path d="M120.569545,93.7634043 C117.975833,93.7634043 114.651212,92.706383 111.245379,90.6995745 C101.794318,85.1948936 88.8105303,67.4706383 87.6938636,65.4893617 C86.9984848,64.2485106 86.9477273,62.6604255 86.9071212,61.2612766 L86.9071212,60.7046809 C86.8106818,58.2229787 85.4757576,57.2017021 82.3034091,57.1812766 C81.8442228,57.2441549 81.3822334,57.0873399 81.0547727,56.7574468 C80.9155363,56.5340048 80.8416562,56.2756339 80.8415909,56.0119149 C80.7152906,55.1387206 80.7793741,54.2483348 81.0293939,53.4025532 C81.4659091,52.2382979 82.5521212,51.36 84.3032576,50.7165957 C85.9224242,50.1344681 88.8714394,49.2561702 90.6175,49.8382979 C92.3635606,50.4204255 93.7746212,53.2187234 94.3075758,54.3982979 C94.6628788,55.1744681 94.2365152,60.4902128 94.114697,61.9557447 C95.2922727,62.5685106 97.6677273,63.6765957 100.601515,65.0604255 C106.99697,68.0731915 115.757727,72.2093617 119.818333,74.6757447 C119.943079,74.7518895 119.982847,74.9153532 119.907159,75.0408511 C119.831471,75.1663489 119.668988,75.2063575 119.544242,75.1302128 C115.514091,72.6638298 106.763485,68.5480851 100.378182,65.5404255 C97.2870455,64.0851064 94.8456061,62.9361702 93.7137121,62.3438298 C93.620942,62.2918421 93.5672522,62.1898161 93.5766667,62.0834043 C93.8,59.4791489 94.0842424,55.1438298 93.8304545,54.6178723 C93.4396212,53.7497872 92.0285606,50.8646809 90.45,50.333617 C88.8714394,49.8025532 85.7295455,50.7625532 84.4809091,51.2119149 C82.8972727,51.7787234 81.9024242,52.5753191 81.5217424,53.586383 C81.302643,54.3612055 81.2490186,55.1739045 81.3643939,55.9710638 C81.3629237,56.136114 81.4012397,56.2990635 81.4760606,56.4459574 C81.6131061,56.6348936 81.9328788,56.6502128 82.3034091,56.6553191 C84.7600758,56.6553191 87.2928788,57.1659574 87.4299242,60.6842553 L87.4299242,61.2408511 C87.4705303,62.5838298 87.5162121,64.1055319 88.1506818,65.2289362 C89.2622727,67.2 102.13947,84.786383 111.499167,90.2502128 C116.067348,92.9157447 120.478182,93.8859574 122.985606,92.8034043 C123.048791,92.7742812 123.120962,92.7719419 123.185878,92.7969128 C123.250795,92.8218837 123.303005,92.8720671 123.330758,92.9361702 C123.387428,93.0701394 123.326295,93.2250328 123.193712,93.2834043 C122.360588,93.6214438 121.467626,93.78478 120.569545,93.7634043 Z" id="Path" stroke="#303337" stroke-width="0.8" fill="#303337"></path>
                        <path d="M35.8297727,65.1574468 L35.7536364,65.1574468 C35.6630216,65.1266626 35.5966621,65.0481217 35.5810606,64.9531915 L34.8501515,60.2553191 L30.5763636,58.212766 C30.4900422,58.1688926 30.4352296,58.0802693 30.4341663,57.9829787 C30.4318671,57.8861544 30.4852493,57.7966474 30.5712879,57.7531915 L34.7993939,55.5982979 L35.4287879,50.8748936 C35.4426429,50.7780288 35.5093067,50.697155 35.6013636,50.6655319 C35.6922825,50.6363989 35.79176,50.6599466 35.8602273,50.7268085 L39.2051515,54.107234 L43.864697,53.2493617 C43.9592869,53.2304569 44.0562137,53.2682675 44.1134091,53.346383 C44.1636615,53.4295129 44.1636615,53.5338914 44.1134091,53.6170213 L41.9562121,57.8604255 L44.2047727,62.052766 C44.2550251,62.1358958 44.2550251,62.2402744 44.2047727,62.3234043 C44.1465768,62.4005186 44.0512723,62.4396531 43.9560606,62.4255319 L39.2812879,61.6697872 L36.0378788,65.0757447 C35.985739,65.1352533 35.9081961,65.1656965 35.8297727,65.1574468 L35.8297727,65.1574468 Z" id="Shape" fill="#F0AA3B"></path>
                        <polygon id="Path" fill="#F0AA3B" points="83.9276515 82.6008511 82.2577273 83.7446809 80.6842424 81.2885106 84.2068182 79.026383 87.3030303 79.026383 87.3030303 89.0348936 83.9327273 89.0348936"></polygon>
                        <polygon id="Path" fill="#303337" points="93.0589394 119.714043 44.2859848 119.714043 47.7679545 109.174468 89.5769697 109.174468"></polygon>
                        <path d="M93.0589394,119.969362 L44.2859848,119.969362 C44.2062893,119.968578 44.1313955,119.930905 44.0829545,119.867234 C44.034084,119.801164 44.0210179,119.715263 44.0474242,119.637447 L47.5243182,109.092766 C47.5608337,108.988861 47.6584077,108.919329 47.7679545,108.919149 L89.5769697,108.919149 C89.6865166,108.919329 89.7840905,108.988861 89.8206061,109.092766 L93.2975,119.637447 C93.3239063,119.715263 93.3108402,119.801164 93.2619697,119.867234 C93.2135288,119.930905 93.138635,119.968578 93.0589394,119.969362 Z M44.6362121,119.458723 L92.7087121,119.458723 L89.3942424,109.419574 L47.9506818,109.419574 L44.6362121,119.458723 Z" id="Shape" fill="#303337"></path>
                        <path d="M48.8186364,118.340426 C48.795206,118.345385 48.7710062,118.345385 48.7475758,118.340426 C48.6135169,118.303116 48.5342885,118.164199 48.5699242,118.028936 L50.5139394,110.93617 C50.5517835,110.795161 50.6960868,110.711715 50.83625,110.749787 C50.9764132,110.78786 51.0593592,110.933034 51.0215152,111.074043 L49.0825758,118.166809 C49.0469701,118.280569 48.9365021,118.353234 48.8186364,118.340426 Z" id="Path" fill="#FFFFFF"></path>
                        <path d="M17.3184848,40.626383 C17.458648,40.626383 17.5722727,40.7406933 17.5722727,40.8817021 L17.5722727,42.5106383 C17.5722727,42.6516472 17.458648,42.7659574 17.3184848,42.7659574 C17.1783217,42.7659574 17.064697,42.6516472 17.064697,42.5106383 L17.064697,40.8817021 C17.064697,40.7406933 17.1783217,40.626383 17.3184848,40.626383 Z M130.633012,35.1907879 L130.68553,35.2902128 L131.335227,36.72 C131.375207,36.8002339 131.447157,36.8596264 131.533182,36.8834043 L133.055909,37.266383 C133.388603,37.3433802 133.633146,37.6286781 133.659924,37.9710638 C133.690451,38.3124943 133.50318,38.6360521 133.192955,38.7778723 L131.771742,39.426383 C131.692182,39.465569 131.63439,39.5387137 131.614394,39.6255319 L131.233712,41.1574468 C131.153705,41.4920599 130.869145,41.7371466 130.528182,41.7651088 L130.44697,41.7651088 C130.135455,41.7658759 129.852827,41.58166 129.726212,41.2953191 L129.076515,39.8604255 C129.041119,39.7796383 128.969412,39.720787 128.883636,39.7021277 L127.360909,39.3191489 C127.030021,39.235851 126.787709,38.9511068 126.756894,38.6093617 C126.725458,38.2690132 126.913357,37.9464251 127.223864,37.8076596 L128.645076,37.1540426 C128.725405,37.1171428 128.785027,37.0459147 128.8075,36.96 L129.183106,35.4280851 C129.265904,35.0952004 129.548941,34.8514266 129.888636,34.8204255 C130.189354,34.7923139 130.476123,34.9385495 130.633012,35.1907879 Z M130.009503,35.3344684 L129.939394,35.3361702 C129.816388,35.3461763 129.713853,35.4348887 129.685606,35.5557447 L129.304924,37.0876596 C129.238629,37.3144248 129.077397,37.5008671 128.863333,37.5982979 L127.426894,38.2978723 C127.313105,38.346819 127.244929,38.4652893 127.259394,38.5889362 C127.268786,38.7139814 127.356731,38.8189177 127.477652,38.8493617 L129.000379,39.2323404 C129.237429,39.2881927 129.434724,39.4526517 129.533333,39.6765957 L130.18303,41.106383 C130.230316,41.2220683 130.349081,41.2912418 130.472348,41.2748936 C130.597944,41.2687073 130.703927,41.1788097 130.731212,41.0553191 L131.111894,39.5234043 C131.175677,39.2952649 131.337721,39.1078841 131.553485,39.012766 L132.984848,38.2978723 C133.099437,38.247049 133.167463,38.1267673 133.152348,38.0017021 C133.144004,37.8772877 133.055117,37.7733068 132.934091,37.746383 L131.411364,37.3634043 C131.175389,37.3022442 130.979517,37.1370942 130.878409,36.9140426 L130.228712,35.4842553 C130.184655,35.3990608 130.101437,35.3439374 130.009503,35.3344684 Z M112.844242,38.9259574 C112.984406,38.9259574 113.09803,39.0402677 113.09803,39.1812766 L113.09803,40.8102128 C113.09803,40.9512216 112.984406,41.0655319 112.844242,41.0655319 C112.704079,41.0655319 112.590455,40.9512216 112.590455,40.8102128 L112.590455,39.1812766 C112.590455,39.0402677 112.704079,38.9259574 112.844242,38.9259574 Z M19.7954545,39.7378723 C19.9356177,39.7378723 20.0492424,39.8521826 20.0492424,39.9931915 C20.0492424,40.0609063 20.0225041,40.1258478 19.9749097,40.1737294 C19.9273152,40.221611 19.8627633,40.2485106 19.7954545,40.2485106 L18.1762879,40.2485106 C18.0361247,40.2485106 17.9225,40.1342004 17.9225,39.9931915 C17.9252004,39.8533233 18.0372586,39.740589 18.1762879,39.7378723 L19.7954545,39.7378723 Z M16.435303,39.7378723 C16.5754662,39.7378723 16.6890909,39.8521826 16.6890909,39.9931915 C16.6890909,40.1342004 16.5754662,40.2485106 16.435303,40.2485106 L14.8161364,40.2485106 C14.6759732,40.2485106 14.5623485,40.1342004 14.5623485,39.9931915 C14.5623485,39.8521826 14.6759732,39.7378723 14.8161364,39.7378723 L16.435303,39.7378723 Z M17.3184848,37.2255319 C17.458648,37.2255319 17.5722727,37.3398422 17.5722727,37.4808511 L17.5722727,39.1097872 C17.5695724,39.2496554 17.4575141,39.3623897 17.3184848,39.3651064 C17.1783217,39.3651064 17.064697,39.2507961 17.064697,39.1097872 L17.064697,37.4808511 C17.064697,37.3398422 17.1783217,37.2255319 17.3184848,37.2255319 Z M115.346591,38.0374468 C115.48562,38.0401635 115.597678,38.1528978 115.600379,38.292766 C115.600379,38.4337748 115.486754,38.5480851 115.346591,38.5480851 L113.722348,38.5480851 C113.582185,38.5480851 113.468561,38.4337748 113.468561,38.292766 C113.471261,38.1528978 113.583319,38.0401635 113.722348,38.0374468 L115.346591,38.0374468 Z M111.961061,38.0374468 C112.101224,38.0374468 112.214848,38.1517571 112.214848,38.292766 C112.214848,38.4337748 112.101224,38.5480851 111.961061,38.5480851 L110.341894,38.5480851 C110.201731,38.5480851 110.088106,38.4337748 110.088106,38.292766 C110.088106,38.1517571 110.201731,38.0374468 110.341894,38.0374468 L111.961061,38.0374468 Z M112.844242,35.52 C112.983272,35.5227166 113.09533,35.635451 113.09803,35.7753191 L113.09803,37.4093617 C113.09533,37.5492298 112.983272,37.6619642 112.844242,37.6646809 C112.704079,37.6646809 112.590455,37.5503706 112.590455,37.4093617 L112.590455,35.7753191 C112.590455,35.6343103 112.704079,35.52 112.844242,35.52 Z M39.844697,30.8476596 C39.9848601,30.8476596 40.0984848,30.9619699 40.0984848,31.1029787 L40.0984848,32.7319149 C40.0984848,32.8729238 39.9848601,32.987234 39.844697,32.987234 C39.7045338,32.987234 39.5909091,32.8729238 39.5909091,32.7319149 L39.5909091,31.1029787 C39.5909091,30.9619699 39.7045338,30.8476596 39.844697,30.8476596 Z M42.3470455,29.9591489 C42.4872086,29.9591489 42.6008333,30.0734592 42.6008333,30.2144681 C42.6008333,30.355477 42.4872086,30.4697872 42.3470455,30.4697872 L40.7278788,30.4697872 C40.5877156,30.4697872 40.4740909,30.355477 40.4740909,30.2144681 C40.4740909,30.0734592 40.5877156,29.9591489 40.7278788,29.9591489 L42.3470455,29.9591489 Z M38.9665909,29.9591489 C39.1067541,29.9591489 39.2203788,30.0734592 39.2203788,30.2144681 C39.2203788,30.355477 39.1067541,30.4697872 38.9665909,30.4697872 L37.3423485,30.4697872 C37.2021853,30.4697872 37.0885606,30.355477 37.0885606,30.2144681 C37.0885606,30.0734592 37.2021853,29.9591489 37.3423485,29.9591489 L38.9665909,29.9591489 Z M39.844697,27.4417021 C39.9848601,27.4417021 40.0984848,27.5560124 40.0984848,27.6970213 L40.0984848,29.3259574 C40.0984848,29.3936723 40.0717466,29.4586137 40.0241521,29.5064953 C39.9765576,29.554377 39.9120057,29.5812766 39.844697,29.5812766 C39.7045338,29.5812766 39.5909091,29.4669663 39.5909091,29.3259574 L39.5909091,27.6970213 C39.5909091,27.5560124 39.7045338,27.4417021 39.844697,27.4417021 Z M102.937258,22.083022 C103.194961,22.1412019 103.395307,22.3391484 103.461209,22.590899 L103.47947,22.6876596 L103.631742,23.9642553 C103.635193,24.0233502 103.667506,24.0768919 103.71803,24.107234 L104.804242,24.7914894 C105.060602,24.9459126 105.18794,25.2496499 105.118939,25.5421277 C105.040931,25.8131152 104.80876,26.0104433 104.530152,26.0425532 L103.261212,26.1906383 C103.201758,26.1960803 103.148695,26.2303978 103.119091,26.2825532 L102.438939,27.3753191 C102.319307,27.5901225 102.094876,27.7244254 101.850152,27.7276596 C101.797942,27.7348041 101.745012,27.7348041 101.692803,27.7276596 C101.401558,27.6656366 101.182645,27.4227612 101.149697,27.1251064 L101.007576,25.8229787 C101.000594,25.7637215 100.966899,25.7109915 100.916212,25.68 L99.8249242,25.0212766 C99.573101,24.8626268 99.4481714,24.5614029 99.5132312,24.2697383 C99.5782909,23.9780737 99.8191821,23.7594388 100.114242,23.7242553 L101.388258,23.5710638 C101.440036,23.5628395 101.486041,23.5332185 101.515152,23.4893617 L102.190227,22.3965957 C102.347926,22.1432531 102.647343,22.0175697 102.937258,22.083022 Z M102.799318,22.5497872 C102.732548,22.548261 102.67027,22.583504 102.636894,22.6417021 L101.961818,23.7344681 C101.849191,23.9137584 101.663245,24.0334814 101.454242,24.0612766 L100.180227,24.2093617 C100.098549,24.2183608 100.031504,24.2784292 100.013196,24.3590135 C99.9948868,24.4395978 100.029334,24.5230041 100.099015,24.5668085 L101.185227,25.2459574 C101.365006,25.3576742 101.484538,25.5455694 101.510076,25.7565957 L101.662348,27.0331915 C101.669371,27.1157592 101.729056,27.1840861 101.809545,27.2017021 C101.890113,27.2191708 101.973009,27.1845918 102.017652,27.1148936 L102.687652,26.0425532 C102.798151,25.8611488 102.985207,25.7407103 103.195227,25.7157447 L104.469242,25.5676596 C104.549419,25.5540438 104.613165,25.4924887 104.629972,25.4124538 C104.64678,25.332419 104.61323,25.2501843 104.545379,25.2051064 L103.464242,24.5106383 C103.285514,24.3978513 103.166338,24.2105149 103.139394,24 L102.992197,22.7182979 C102.983094,22.6376845 102.92385,22.5719172 102.845,22.5548936 L102.799318,22.5497872 Z M26.6592679,18.300196 L26.7137121,18.4034043 L27.3786364,19.9148936 C27.4176962,20.0049629 27.4967132,20.0712077 27.5918182,20.093617 L29.1856061,20.4970213 C29.5302462,20.5765522 29.7832933,20.8725202 29.8099242,21.227234 C29.8476563,21.5808168 29.6551393,21.918724 29.332803,22.0646809 L27.8100758,22.7489362 C27.7219593,22.7901028 27.6567833,22.8687859 27.6324242,22.9634043 L27.2365152,24.5668085 C27.1511586,24.911689 26.8575472,25.1639952 26.5056061,25.1948936 L26.4548485,25.1897872 C26.1245198,25.1891141 25.8275092,24.9872204 25.7036364,24.6791489 L25.0184091,23.1778723 C24.9807281,23.0867715 24.9010922,23.0200078 24.8052273,22.9991489 L23.2114394,22.5957447 C22.8718716,22.5087706 22.6235897,22.2160284 22.5916603,21.8649806 C22.5597309,21.5139327 22.7510794,21.1807202 23.0693182,21.0331915 L24.5920455,20.3438298 C24.6801619,20.3026632 24.7453379,20.2239801 24.769697,20.1293617 L25.1656061,18.5259574 C25.2569589,18.1923787 25.5439192,17.9504469 25.8863636,17.9182979 C26.1983064,17.8873452 26.496517,18.0384358 26.6592679,18.300196 Z M26.0131353,18.4241055 L25.9168182,18.4238298 C25.7796341,18.4315204 25.6638966,18.5292433 25.6325758,18.6638298 L25.2366667,20.267234 C25.1767329,20.5147386 25.006138,20.7203105 24.7747727,20.8238298 L23.2825,21.5131915 C23.160427,21.5699768 23.0867185,21.6975361 23.0980754,21.8323553 C23.1094322,21.9671745 23.2034268,22.0804359 23.3332576,22.1157447 L24.9321212,22.5191489 C25.1755422,22.5790488 25.3778429,22.7486499 25.480303,22.9787234 L26.1655303,24.5106383 C26.2190432,24.6371599 26.3497855,24.7123205 26.485303,24.6944681 C26.6219155,24.6879842 26.7368051,24.5892134 26.7644697,24.4544681 L27.1654545,22.8510638 C27.2249959,22.6049574 27.3933291,22.3998571 27.6222727,22.2944681 L29.145,21.6102128 C29.2712295,21.5535591 29.3469888,21.4217253 29.332803,21.2834043 C29.3223784,21.145836 29.2232421,21.0315569 29.0891667,21.0025532 L27.4953788,20.5991489 C27.251433,20.5378788 27.0480853,20.368964 26.9421212,20.1395745 L26.2619697,18.6076596 C26.2167527,18.5048505 26.1209973,18.4361825 26.0131353,18.4241055 Z" id="Combined-Shape" fill="#E4E9EC"></path>
                    </g>
                </g>
            </g>
        </g>
    </g>
</svg>