<?xml version="1.0" encoding="UTF-8"?>
<svg width="12px" height="12px" viewBox="0 0 12 12" version="1.1" xmlns="http://www.w3.org/2000/svg" xmlns:xlink="http://www.w3.org/1999/xlink">
    <title>Group 6 Copy@1x</title>
    <g id="Page-1" stroke="none" stroke-width="1" fill="none" fill-rule="evenodd">
        <g id="ШФ_Стартовая" transform="translate(-96.000000, -2800.000000)">
            <g id="Group-82" transform="translate(72.000000, 2654.000000)">
                <g id="Group-10-Copy" transform="translate(0.000000, 126.000000)">
                    <g id="Group-6-Copy" transform="translate(24.000000, 20.000000)">
                        <polygon id="Rectangle" fill="#FEC311" points="1 1 3.300646 3.8393602 6.00033333 1 8.6960854 3.8393602 11 1 11 9 1 9"></polygon>
                        <g id="bx-crown" fill="#303337" fill-rule="nonzero">
                            <path d="M5.47933333,0.250148696 L3.33333333,2.93278141 L1.18733333,0.250148696 C1.01,0.0288181633 0.712,-0.0558474319 0.446,0.0374847203 C0.179333333,0.131483531 0,0.383480342 0,0.666810089 L0,10.6666835 C0,11.4020076 0.598,12 1.33333333,12 L10.6666667,12 C11.402,12 12,11.4020076 12,10.6666835 L12,0.666810089 C12,0.383480342 11.8206667,0.131483531 11.554,0.0374847203 C11.2873333,-0.0545141154 10.99,0.0294848216 10.8126667,0.250148696 L8.66666667,2.93278141 L6.52066667,0.250148696 C6.26666667,-0.0658473053 5.73333333,-0.0658473053 5.47933333,0.250148696 Z M1.33333333,10.6666835 L1.33333333,9.33336708 L10.6673333,9.33336708 L10.6673333,10.6666835 L1.33333333,10.6666835 Z M8.146,4.41676263 C8.4,4.73342529 8.934,4.73342529 9.188,4.41676263 L10.6666667,2.5674527 L10.6673333,8.00005062 L1.33333333,8.00005062 L1.33333333,2.5674527 L2.81266667,4.41676263 C3.06666667,4.73342529 3.60066667,4.73342529 3.85466667,4.41676263 L6,1.73412992 L8.146,4.41676263 Z" id="Shape"></path>
                        </g>
                    </g>
                </g>
            </g>
        </g>
    </g>
</svg>