<svg width="12" height="9" viewBox="0 0 12 9" fill="none" xmlns="http://www.w3.org/2000/svg">
<path d="M12 7.79995V7.5443C12 6.96769 11.6396 6.474 11.1324 6.27565C11.2916 6.08848 11.3881 5.84578 11.3881 5.5807C11.3881 4.99045 10.9109 4.51027 10.3242 4.51027C10.3208 4.51027 10.3175 4.5105 10.3141 4.51052C10.158 4.28578 9.94078 4.11579 9.69244 4.01892C9.85083 3.83196 9.94676 3.5899 9.94676 3.32559C9.94676 2.73534 9.46948 2.25516 8.88279 2.25516C8.87941 2.25516 8.87611 2.25539 8.87273 2.25541C8.71666 2.03063 8.4994 1.86061 8.25103 1.76374C8.40942 1.57678 8.50535 1.33472 8.50535 1.07039C8.50537 0.480187 8.02807 0 7.44141 0C6.85474 0 6.37744 0.480187 6.37744 1.07041C6.37744 1.33474 6.47337 1.57683 6.63176 1.76377C6.38334 1.86063 6.16613 2.03065 6.01003 2.25544C6.00668 2.25541 6.00335 2.25518 6 2.25518C5.99663 2.25518 5.9933 2.25541 5.98995 2.25544C5.83385 2.03065 5.61661 1.86063 5.36822 1.76377C5.52661 1.5768 5.62254 1.33474 5.62254 1.07041C5.62252 0.480187 5.14526 0 4.55859 0C3.97191 0 3.4946 0.480187 3.4946 1.07041C3.4946 1.33474 3.59053 1.57683 3.74892 1.76377C3.50053 1.86063 3.28329 2.03065 3.12722 2.25544C3.12387 2.25541 3.12054 2.25518 3.11719 2.25518C2.53052 2.25518 2.05322 2.73537 2.05322 3.32562C2.05322 3.58992 2.14915 3.83198 2.30754 4.01895C2.05917 4.11581 1.84193 4.28578 1.68586 4.51055C1.68248 4.51052 1.67916 4.51029 1.67578 4.51029C1.08912 4.51029 0.611813 4.99048 0.611813 5.58073C0.611813 5.8458 0.708305 6.0885 0.867539 6.27567C0.360352 6.47402 0 6.96771 0 7.54432V8.67188C0 8.8013 0.10493 8.90625 0.234375 8.90625H11.7656C11.895 8.90625 12 8.8013 12 8.67188V7.80089C12 7.80073 12 7.80059 12 7.80042C12 7.80026 12 7.80012 12 7.79995ZM10.3242 4.97902C10.6524 4.97904 10.9194 5.24894 10.9194 5.5807C10.9194 5.91246 10.6524 6.18237 10.3242 6.18237C9.996 6.18237 9.72898 5.91246 9.72898 5.5807C9.72898 5.24894 9.996 4.97902 10.3242 4.97902ZM8.88281 2.72393C9.21101 2.72393 9.47803 2.99384 9.47803 3.32562C9.47803 3.65738 9.21101 3.92728 8.88281 3.92728C8.55462 3.92728 8.28759 3.65738 8.28759 3.32562C8.28759 2.99386 8.55462 2.72393 8.88281 2.72393ZM7.44141 0.46875C7.7696 0.46875 8.03662 0.738656 8.03662 1.07041C8.03662 1.40217 7.7696 1.6721 7.44141 1.6721C7.11321 1.6721 6.84619 1.40217 6.84619 1.07041C6.84619 0.738656 7.11321 0.46875 7.44141 0.46875ZM7.11881 2.14085H7.76395C7.99331 2.14085 8.20943 2.23148 8.37162 2.38713C8.04246 2.56934 7.81884 2.92167 7.81884 3.32562C7.81884 3.58992 7.91477 3.83198 8.07316 4.01895C7.82477 4.11581 7.60758 4.28578 7.45151 4.51055C7.44813 4.51052 7.4448 4.51029 7.44141 4.51029C7.43801 4.51029 7.43468 4.51052 7.43128 4.51055C7.27521 4.2858 7.05799 4.11581 6.80963 4.01895C6.96802 3.83198 7.06395 3.58992 7.06395 3.32562C7.06395 2.92167 6.84033 2.56934 6.51115 2.38713C6.67334 2.23148 6.88945 2.14085 7.11881 2.14085ZM8.03662 5.5807C8.03662 5.91246 7.7696 6.18237 7.44141 6.18237C7.11319 6.18237 6.84616 5.91248 6.84616 5.5807C6.84616 5.24894 7.11319 4.97902 7.44141 4.97902C7.7696 4.97902 8.03662 5.24894 8.03662 5.5807ZM6 2.72393C6.3282 2.72393 6.5952 2.99386 6.5952 3.32562C6.5952 3.65738 6.32817 3.92728 6 3.92728C5.6718 3.92728 5.40478 3.65738 5.40478 3.32562C5.40478 2.99384 5.6718 2.72393 6 2.72393ZM4.55859 0.46875C4.88677 0.46875 5.15377 0.738656 5.15377 1.07041C5.15377 1.40217 4.88677 1.6721 4.55859 1.6721C4.2304 1.6721 3.96335 1.40217 3.96335 1.07041C3.96335 0.738656 4.2304 0.46875 4.55859 0.46875ZM4.236 2.14085H4.88114C5.1105 2.14085 5.32662 2.23148 5.4888 2.38716C5.15962 2.56934 4.93603 2.92167 4.93603 3.32562C4.93603 3.58992 5.03196 3.83198 5.19035 4.01895C4.94198 4.11581 4.72474 4.28578 4.56867 4.51055C4.5653 4.51052 4.56197 4.51029 4.55859 4.51029C4.5552 4.51029 4.55189 4.51052 4.54852 4.51055C4.39245 4.28578 4.1752 4.11581 3.92684 4.01895C4.08523 3.83198 4.18116 3.58992 4.18116 3.32562C4.18116 2.92167 3.95754 2.56934 3.62838 2.38713C3.79052 2.23148 4.00666 2.14085 4.236 2.14085ZM5.15377 5.5807C5.15377 5.91246 4.88677 6.18237 4.55859 6.18237C4.2304 6.18237 3.96335 5.91248 3.96335 5.5807C3.96335 5.24894 4.23038 4.97902 4.55859 4.97902C4.88677 4.97902 5.15377 5.24894 5.15377 5.5807ZM3.11719 2.72393C3.44538 2.72393 3.71238 2.99386 3.71238 3.32562C3.71238 3.65738 3.44536 3.92728 3.11719 3.92728C2.78899 3.92728 2.52197 3.65738 2.52197 3.32562C2.52197 2.99384 2.78899 2.72393 3.11719 2.72393ZM1.67578 4.97904C2.00398 4.97904 2.27098 5.24897 2.27098 5.58073C2.27098 5.91248 2.00395 6.18239 1.67578 6.18239C1.34759 6.18239 1.08056 5.91248 1.08056 5.58073C1.08056 5.24895 1.34759 4.97904 1.67578 4.97904ZM2.88279 8.4375H0.46875V8.0348H1.19613C1.32558 8.0348 1.43051 7.92987 1.43051 7.80042C1.43051 7.671 1.32558 7.56605 1.19613 7.56605H0.46875V7.5443C0.46875 7.05178 0.869438 6.65112 1.36193 6.65112H1.98961C2.48212 6.65112 2.88279 7.05181 2.88279 7.5443V8.4375ZM3.11714 6.78131C2.96323 6.55458 2.74266 6.37683 2.48398 6.27567C2.64321 6.0885 2.7397 5.8458 2.7397 5.58073C2.7397 5.1768 2.51611 4.82449 2.18695 4.64227C2.34916 4.48664 2.56526 4.39603 2.79459 4.39603H3.43973C3.66909 4.39603 3.88519 4.48664 4.04735 4.64227C3.7182 4.82447 3.49458 5.1768 3.49458 5.58073C3.49458 5.8458 3.59107 6.08852 3.7503 6.27567C3.49163 6.37683 3.27105 6.55458 3.11714 6.78131ZM5.7656 8.4375H3.35156V7.54432C3.35156 7.0518 3.75225 6.65114 4.24474 6.65114H4.87242C5.36494 6.65114 5.7656 7.05183 5.7656 7.54432V8.4375V8.4375ZM6 6.78131C5.84609 6.55458 5.62549 6.3768 5.36681 6.27567C5.52602 6.0885 5.62252 5.8458 5.62252 5.58073C5.62252 5.1768 5.39895 4.82449 5.06979 4.64229C5.23198 4.48664 5.44807 4.39603 5.67741 4.39603H6.32255C6.55188 4.39603 6.76798 4.48664 6.93016 4.64229C6.60101 4.82449 6.37741 5.1768 6.37741 5.58073C6.37741 5.8458 6.47391 6.0885 6.63314 6.27567C6.37446 6.37683 6.15389 6.55458 6 6.78131ZM8.64841 8.4375H6.23438V7.54432C6.23438 7.0518 6.63506 6.65114 7.12753 6.65114H7.75523C8.24775 6.65114 8.64841 7.05183 8.64841 7.54432V8.4375V8.4375ZM8.88279 6.78129C8.7289 6.55455 8.5083 6.3768 8.24963 6.27565C8.40884 6.08848 8.50533 5.84578 8.50533 5.5807C8.50533 5.17678 8.28173 4.82447 7.95258 4.64224C8.11477 4.48662 8.33086 4.39601 8.56019 4.39601H9.20534C9.43467 4.39601 9.65079 4.48662 9.81295 4.64224C9.48387 4.82449 9.26023 5.17678 9.26023 5.5807C9.26023 5.84578 9.35672 6.08848 9.51595 6.27565C9.25727 6.3768 9.0367 6.55455 8.88279 6.78129ZM11.5312 7.56607H10.8038C10.6744 7.56607 10.5695 7.67102 10.5695 7.80045C10.5695 7.92989 10.6744 8.03482 10.8038 8.03482H11.5312V8.4375H9.11719V7.54432C9.11719 7.0518 9.51788 6.65114 10.0104 6.65114H10.638C11.1305 6.65114 11.5312 7.05183 11.5312 7.54432V7.56607Z" fill="white"/>
</svg>
