<?xml version="1.0" encoding="UTF-8"?>
<svg width="82px" height="66px" viewBox="0 0 82 66" version="1.1" xmlns="http://www.w3.org/2000/svg" xmlns:xlink="http://www.w3.org/1999/xlink">
    <title>football-field</title>
    <g id="Page-1" stroke="none" stroke-width="1" fill="none" fill-rule="evenodd">
        <g id="ШФ_Стартовая" transform="translate(-523.000000, -1639.000000)" fill-rule="nonzero">
            <g id="Group-70" transform="translate(72.000000, 960.000000)">
                <g id="Group-62" transform="translate(420.000000, 640.000000)">
                    <g id="football-field" transform="translate(32.000000, 40.000000)">
                        <path d="M72.1875,0 C76.4953125,0 80,3.41790476 80,7.61904762 L80,7.61904762 L80,56.3809524 C80,60.5820952 76.4953125,64 72.1875,64 L72.1875,64 L7.8125,64 C3.5046875,64 0,60.5820952 0,56.3809524 L0,56.3809524 L0,7.61904762 C0,3.41790476 3.5046875,0 7.8125,0 L7.8125,0 Z M72.1875,3.04761905 L7.8125,3.04761905 C5.2278125,3.04761905 3.125,5.0983619 3.125,7.61904762 L3.125,7.61904762 L3.125,56.3809524 C3.125,58.9016381 5.2278125,60.952381 7.8125,60.952381 L7.8125,60.952381 L72.1875,60.952381 C74.7721875,60.952381 76.875,58.9016381 76.875,56.3809524 L76.875,56.3809524 L76.875,7.61904762 C76.875,5.0983619 74.7721875,3.04761905 72.1875,3.04761905 L72.1875,3.04761905 Z M69.0625,6.0952381 C71.6471875,6.0952381 73.75,8.14598095 73.75,10.6666667 L73.75,10.6666667 L73.75,53.3333333 C73.75,55.854019 71.6471875,57.9047619 69.0625,57.9047619 L69.0625,57.9047619 L10.9375,57.9047619 C8.3528125,57.9047619 6.25,55.854019 6.25,53.3333333 L6.25,53.3333333 L6.25,10.6666667 C6.25,8.14598095 8.3528125,6.0952381 10.9375,6.0952381 L10.9375,6.0952381 Z M38.4375,9.14285714 L10.9375,9.14285714 C10.0759375,9.14285714 9.375,9.8264381 9.375,10.6666667 L9.375,10.6666667 L9.375,18.2857143 L14.0625,18.2857143 C16.6471875,18.2857143 18.75,20.3364571 18.75,22.8571429 L18.75,22.8571429 L18.75,41.1428571 C18.75,43.6635429 16.6471875,45.7142857 14.0625,45.7142857 L14.0625,45.7142857 L9.375,45.7142857 L9.375,53.3333333 C9.375,54.1735619 10.0759375,54.8571429 10.9375,54.8571429 L10.9375,54.8571429 L38.4375,54.8571429 L38.4375,42.5560381 C33.1442188,41.8142476 29.0625,37.3639619 29.0625,32 C29.0625,26.6360381 33.1442188,22.1859048 38.4375,21.4439619 L38.4375,21.4439619 L38.4375,9.14285714 Z M69.0625,9.14285714 L41.5625,9.14285714 L41.5625,21.4439619 C46.855625,22.1857524 50.9375,26.6360381 50.9375,32 C50.9375,37.3639619 46.855625,41.8140952 41.5625,42.5560381 L41.5625,42.5560381 L41.5625,54.8571429 L69.0625,54.8571429 C69.9240625,54.8571429 70.625,54.1735619 70.625,53.3333333 L70.625,53.3333333 L70.625,45.7142857 L65.9375,45.7142857 C63.3528125,45.7142857 61.25,43.6635429 61.25,41.1428571 L61.25,41.1428571 L61.25,22.8571429 C61.25,20.3364571 63.3528125,18.2857143 65.9375,18.2857143 L65.9375,18.2857143 L70.625,18.2857143 L70.625,10.6666667 C70.625,9.8264381 69.9240625,9.14285714 69.0625,9.14285714 L69.0625,9.14285714 Z M41.5625,24.5342476 L41.5625,39.4657524 C45.1242188,38.7577905 47.8125,35.6795429 47.8125,32 C47.8125,28.3204571 45.1242188,25.2422095 41.5625,24.5342476 L41.5625,24.5342476 Z M38.4375,24.5342476 C34.8757812,25.2422095 32.1875,28.3204571 32.1875,32 C32.1875,35.6795429 34.8757812,38.7577905 38.4375,39.4657524 L38.4375,39.4657524 Z" id="Combined-Shape" stroke="#FFFFFF" fill="#303337"></path>
                        <path d="M9.375,21.3333333 L14.0625,21.3333333 C14.9240625,21.3333333 15.625,22.0169143 15.625,22.8571429 L15.625,41.1428571 C15.625,41.9830857 14.9240625,42.6666667 14.0625,42.6666667 L9.375,42.6666667 L9.375,21.3333333 Z" id="Path" fill="#F0AA3B"></path>
                        <path d="M70.625,42.6666667 L65.9375,42.6666667 C65.0759375,42.6666667 64.375,41.9830857 64.375,41.1428571 L64.375,22.8571429 C64.375,22.0169143 65.0759375,21.3333333 65.9375,21.3333333 L70.625,21.3333333 L70.625,42.6666667 Z" id="Path" fill="#F0AA3B"></path>
                    </g>
                </g>
            </g>
        </g>
    </g>
</svg>