<?xml version="1.0" encoding="UTF-8"?>
<svg width="64px" height="64px" viewBox="0 0 64 64" version="1.1" xmlns="http://www.w3.org/2000/svg" xmlns:xlink="http://www.w3.org/1999/xlink">
    <title>ico_3@1x</title>
    <g id="Page-1" stroke="none" stroke-width="1" fill="none" fill-rule="evenodd">
        <g id="ШФ_Страница-клуба" transform="translate(-1068.000000, -1476.000000)">
            <g id="ico_3" transform="translate(1068.000000, 1476.000000)">
                <path d="M63.6015411,50.3149733 C60.750869,48.0269688 56.2762366,46.3704656 52.3289791,44.9069627 C51.5830614,44.6307122 50.8508806,44.3597116 50.1369325,44.0867111 C48.5704178,43.501085 47.3097381,43.001959 46.2589844,42.486708 C45.5952387,42.1637074 44.9638374,41.7774566 44.3738967,41.3335807 C41.5520722,39.0935764 41.3804849,35.0401934 41.47527,33.1255647 C42.3207184,31.8505622 42.9783449,30.4603095 43.427544,28.9975566 C43.4531447,28.9121815 43.4670066,28.8204313 43.4903594,28.7340561 C43.5745296,28.7521812 43.6619467,28.7831812 43.74287,28.7926812 C43.844149,28.8073063 43.946427,28.8144313 44.048705,28.8140563 C45.0870955,28.7488062 46.0219591,28.16193 46.5327248,27.2545532 C47.4304986,25.5435499 47.9192852,23.6474212 47.9607459,21.7152924 C48.0276824,20.987916 47.9427629,20.2545396 47.7113573,19.5616632 C47.6240651,19.3379128 47.5087994,19.1260374 47.3681827,18.931287 C49.5548594,11.6171477 49.4696902,6.23788718 47.0740865,2.98138082 C45.7851836,1.20887736 43.7658482,0.113375221 41.5785471,0 L22.3967342,0 C20.2099326,0.11250022 18.1907221,1.20687736 16.9011948,2.97813082 C14.5055912,6.23888719 14.420297,11.6181477 16.6070986,18.928037 C16.4666068,19.1224123 16.3512162,19.3339128 16.263924,19.5574132 C16.0327682,20.2491645 15.9478487,20.981416 16.0145355,21.7077924 C16.0562459,23.6470462 16.5480296,25.5500499 17.4510484,27.2661783 C17.9604405,28.16493 18.8878112,28.7464311 19.9180843,28.8128063 C20.0178647,28.8126813 20.1176451,28.8055563 20.2164265,28.7914312 C20.3027196,28.7808062 20.3955067,28.7488062 20.4849219,28.7285561 C20.5072757,28.8170563 20.5222615,28.9088065 20.5477373,28.9951816 C20.9981852,30.4576845 21.6568108,31.8475622 22.5032582,33.1220647 C22.5980433,35.0324434 22.4265809,39.0837013 19.6100014,41.3258307 C19.0210598,41.7697066 18.3909073,42.1558323 17.7280358,42.478958 C16.6687901,43.003709 15.4081104,43.50296 13.8362258,44.0907111 C13.1275228,44.3615866 12.3943429,44.6325872 11.6495491,44.9088377 C7.70666251,46.3702156 3.23090617,48.0267188 0.376987098,50.3147233 C0.160567295,50.5054736 0.0273186343,50.7734742 0.0060887633,51.0613497 C-0.004900817,51.1612249 -0.00102948757,51.2623501 0.0178276332,51.3611003 L0.0178276332,56.5333604 C0.0225731337,60.6551185 3.35953421,63.995375 7.47737991,64 L56.4975268,64 C60.6153724,63.99525 63.9524584,60.6551185 63.957079,56.5333604 L63.957079,51.4453505 C64.0782142,51.0313497 63.9377224,50.5850988 63.6015411,50.3149733 Z M45.8327635,21.5991672 C45.8202753,23.1682953 45.4433827,24.7129233 44.7319322,26.111176 C44.4761747,26.5090518 44.1576018,26.6904271 44.0222301,26.6754271 C43.9435547,26.6654271 43.866253,26.646052 43.7920734,26.617802 L44.2428959,20.2989146 C44.3089583,20.2572896 44.3686517,20.2040395 44.434714,20.1687894 C44.7445453,19.989289 45.1109479,19.9340389 45.459867,20.0141641 C45.5889946,20.0675392 45.6851534,20.1792894 45.7188715,20.3149147 C45.8390076,20.7316655 45.8777209,21.1676663 45.8327635,21.5991672 Z M19.9361922,26.6796771 C19.639973,26.600177 19.3913338,26.3985516 19.2520908,26.125051 C18.5348958,24.7220483 18.155006,23.1707953 18.1427676,21.5949172 C18.0981849,21.1647913 18.1372728,20.7301655 18.2579084,20.3149147 C18.2915016,20.1800394 18.3872857,20.0690392 18.5157889,20.0162891 C18.8634593,19.9360389 19.228613,19.990539 19.537695,20.1687894 C19.6058803,20.2050395 19.6655737,20.2584146 19.73276,20.3010397 L20.1824587,26.614677 C20.1039081,26.648052 20.0209868,26.6700521 19.9361922,26.6796771 Z M22.3531505,27.0445528 L22.3425356,26.8878025 C22.3425356,26.8685525 22.3425356,26.8504274 22.3425356,26.8313024 L21.3312444,12.80565 C21.2840392,11.9428983 21.6054844,11.1006467 22.2154061,10.4891455 C22.8253278,9.87764429 23.6661556,9.55451866 24.5282133,9.60026875 C25.6476519,9.50089356 26.7645929,9.81676917 27.6666126,10.4877705 C28.9176764,11.3948973 30.446352,11.8356481 31.9878904,11.7336479 C32.5764574,11.7336479 33.0535051,11.256022 33.0535051,10.6670208 C33.0535051,10.0780197 32.5764574,9.60039375 31.9878904,9.60039375 C30.8684518,9.69976894 29.7515108,9.38389333 28.8494911,8.71289202 C27.5984273,7.80576525 26.0697517,7.36501438 24.5282133,7.46701458 C23.086705,7.41601448 21.6899044,7.97201557 20.6771147,9.00014258 C19.6644498,10.0281446 19.1285829,11.4341473 19.1998903,12.8761501 L19.5621718,17.941785 C19.2156254,17.8611599 18.8587138,17.8341598 18.5039252,17.8617849 C16.2213394,9.95564444 17.2646002,6.10926193 18.5923413,4.27563335 C19.4761284,3.02763091 20.8721797,2.24162938 22.3967342,2.13375417 L41.5785471,2.13375417 C43.0882407,2.23900437 44.4728029,3.01150588 45.3563402,4.24150828 C46.7011901,6.07188686 47.7625588,9.92039438 45.4628642,17.8617849 C45.1080756,17.8341598 44.751164,17.8614099 44.4046176,17.942785 L44.7616541,12.9294003 C45.141419,10.9333964 44.5097679,8.87851734 43.0747535,7.44138953 C39.5900575,4.09200799 32.1230123,5.29201034 31.8065623,5.34538544 C31.2399745,5.45601066 30.8644556,5.99801171 30.9593656,6.56788783 C31.0544005,7.13776394 31.585397,7.5283897 32.157105,7.44888955 C34.0219618,7.14163895 39.3491609,6.81638831 41.5999018,8.98164254 C42.5506254,9.97639449 42.9425039,11.3806472 42.6442866,12.7245249 L41.6372414,26.8429274 L41.6372414,26.8834275 L41.6255026,27.0445528 C41.5951563,27.4981787 41.5151072,27.9470546 41.3868538,28.3831804 C40.5562664,31.1628109 38.8381454,33.5930656 36.4954916,35.3015689 C35.5978427,35.9346952 34.5254844,36.2720708 33.4275254,36.2670034 L30.5502535,36.2670034 C29.4525443,36.2718208 28.3805607,35.9344452 27.4832864,35.3015689 C25.1410072,33.5931906 23.4227614,31.1633109 22.5919241,28.3841804 C22.4636707,27.9476796 22.3836216,27.4984287 22.3531505,27.0445528 Z M20.9293755,43.000834 C23.0815849,41.1215803 24.3874717,38.4543251 24.5525652,35.6003195 C25.0761937,36.1195705 25.6379111,36.5986965 26.2330968,37.0339473 C27.4945258,37.9271991 29.0027208,38.404825 30.5478808,38.400325 L33.4251527,38.400325 C34.9710619,38.404825 36.4798814,37.9273241 37.7421845,37.0339473 C38.33762,36.5990715 38.8994623,36.1198205 39.4227161,35.6003195 C39.5895579,38.4565751 40.8985668,41.1253303 43.0545227,43.004084 C43.5110898,43.3548347 43.9926332,43.6718353 44.4952816,43.9523358 C43.3795894,45.7752144 39.8629238,50.672349 33.591495,52.0057266 C32.5192616,52.230477 31.4119365,52.226852 30.3412017,51.9951016 C24.0953737,50.6372239 20.5819549,45.7348393 19.4863687,43.9524608 C19.9895166,43.6699603 20.4718093,43.3520847 20.9293755,43.000834 Z M17.5640663,44.9069627 C20.2581369,49.5108467 24.7051705,52.8218532 29.8851341,54.0803556 C30.5791012,54.2307309 31.2871798,54.3064811 31.9972565,54.3064811 C32.6813579,54.3068561 33.3634612,54.2353559 34.0327016,54.0931057 C39.2390153,52.8487282 43.7107754,49.5280967 46.4103409,44.9015877 C47.0081491,45.1629632 47.6517888,45.4242137 48.3593679,45.6962143 C46.5904201,48.5164698 41.8758902,54.6849818 33.7012659,56.2711099 C32.5693391,56.4897353 31.4060671,56.4897353 30.2741403,56.2711099 C22.099516,54.6849818 17.3849861,48.5164698 15.6160383,45.6962143 C16.3226183,45.4232137 16.9620121,45.1618382 17.5640663,44.9069627 Z" id="Shape" fill="#303337" fill-rule="nonzero"></path>
                <path d="M56.4977765,61.8669958 L54.399516,61.8669958 C54.4629558,59.0264903 55.4671287,56.2876099 57.2544341,54.0803556 C57.6575519,53.6609798 57.6503088,52.9956035 57.2383244,52.5849777 C56.82634,52.1743519 56.1615953,52.1699769 55.7443659,52.5752277 C55.6089942,52.710728 52.5953516,55.806109 52.2681618,61.8627458 L11.7072444,61.8627458 C11.3800546,55.806234 8.36641197,52.710728 8.23104033,52.5752277 C7.81381092,52.1699769 7.14906619,52.1743519 6.73708181,52.5849777 C6.32509743,52.9956035 6.31797918,53.6609798 6.72097209,54.0803556 C8.50965116,56.2867349 9.51407383,59.0262403 9.57589022,61.8669958 L7.47762967,61.8669958 C4.53641836,61.8634958 2.15292825,59.4777412 2.14930668,56.5336104 L2.14930668,51.6418509 C4.76120523,49.7324721 8.79900182,48.2370942 12.3849768,46.9100916 C12.7942138,46.7585913 13.184219,46.611466 13.5827162,46.4620907 C15.3229412,49.3420964 20.5307534,56.5527355 29.8680254,58.363989 C31.2681978,58.6334895 32.7069586,58.6334895 34.107256,58.363989 C43.4445279,56.5506105 48.6523401,49.3410964 50.3925651,46.4609657 C50.7910623,46.610341 51.1821915,46.7574663 51.5903045,46.9089666 C55.1762795,48.2358442 59.2139512,49.7313471 61.8206047,51.6407259 L61.8259746,56.5334854 C61.8226028,59.4777412 59.4391127,61.8634958 56.4977765,61.8669958 Z" id="Path" fill="#F0AA3B"></path>
            </g>
        </g>
    </g>
</svg>