<?xml version="1.0" encoding="UTF-8"?>
<svg width="71px" height="64px" viewBox="0 0 71 64" version="1.1" xmlns="http://www.w3.org/2000/svg" xmlns:xlink="http://www.w3.org/1999/xlink">
    <title>stadium@1x</title>
    <g id="Page-1" stroke="none" stroke-width="1" fill="none" fill-rule="evenodd">
        <g id="ШФ_Методика" transform="translate(-1065.000000, -2582.000000)" fill-rule="nonzero">
            <g id="Group-11" transform="translate(72.000000, 2424.000000)">
                <g id="Group-46" transform="translate(840.000000, 118.000000)">
                    <g id="stadium" transform="translate(153.000000, 40.000000)">
                        <path d="M70.2829,10.5705609 C70.7177785,10.3837026 71,9.95532338 71,9.48137353 C71,9.00742367 70.7177785,8.57904449 70.2829,8.39218618 L61.9995667,4.83662359 C61.6339771,4.67965879 61.2141088,4.71715796 60.8820168,4.9364339 C60.549925,5.15570984 60.3500439,5.52742312 60.35,5.92581093 L60.35,15.7628674 C56.8427102,14.9156502 53.285688,14.2902167 49.7,13.8902711 L49.7,10.2624121 L57.2662333,7.01499827 C57.7011119,6.82813997 57.9830286,6.39976079 57.9830286,5.92581093 C57.9830286,5.45186107 57.7011119,5.02348189 57.2662333,4.83662359 L48.9829,1.28106099 C48.6173105,1.12409619 48.1974421,1.16159537 47.8653502,1.3808713 C47.5332583,1.60014724 47.3333772,1.97186052 47.3333333,2.37024833 L47.3333333,13.6295299 C43.6863,13.2739736 40.0274333,13.0772325 36.6833333,13.0369361 L36.6833333,9.07722458 L44.2495667,5.82981074 C44.6844452,5.64295244 44.966362,5.21457325 44.966362,4.7406234 C44.966362,4.26667354 44.6844452,3.83829436 44.2495667,3.65143606 L35.9662333,0.0958734597 C35.6006438,-0.0610913429 35.1807755,-0.0235921635 34.8486835,0.195683767 C34.5165917,0.414959709 34.3167106,0.786672991 34.3166667,1.1850608 L34.3166667,13.0440472 C30.9725667,13.0819732 27.3137,13.2810848 23.6666667,13.636641 L23.6666667,10.2624121 L31.2329,7.01499827 C31.6677785,6.82813997 31.9496953,6.39976079 31.9496953,5.92581093 C31.9496953,5.45186107 31.6677786,5.02348189 31.2329,4.83662359 L22.9495667,1.28106099 C22.5839771,1.12409619 22.1641088,1.16159537 21.8320168,1.3808713 C21.499925,1.60014724 21.3000439,1.97186052 21.3,2.37024833 L21.3,13.8902711 C17.714312,14.2902167 14.1572898,14.9156502 10.65,15.7628674 L10.65,13.8179747 L18.2162333,10.5705609 C18.6511119,10.3837026 18.9330286,9.95532338 18.9330286,9.48137353 C18.9330286,9.00742367 18.6511119,8.57904449 18.2162333,8.39218618 L9.9329,4.83662359 C9.56731046,4.67965879 9.14744211,4.71715796 8.81535023,4.9364339 C8.48325834,5.15570984 8.28337726,5.52742312 8.28333333,5.92581093 L8.28333333,16.4182762 C3.35238333,17.9246495 0,19.9477646 0,22.5184364 C0.00484185683,22.7903922 0.047049357,23.0603852 0.125433333,23.3208083 L0.133716667,23.3848085 C0.139583338,23.4532773 0.15146262,23.5210954 0.169216667,23.5874755 L6.86925,49.3700451 C2.27081667,50.7555293 0,52.4420512 0,54.5184997 C0,60.1908073 18.3558667,64 35.5,64 C52.6441333,64 71,60.1908073 71,54.5184997 C71,52.4420512 68.7291833,50.7555293 64.1366667,49.3700451 L70.8307833,23.5851052 C70.8462361,23.5239494 70.8573088,23.4617664 70.8639167,23.3990307 L70.8745667,23.318438 C70.9527365,23.0587771 70.9949416,22.7895965 71,22.5184364 C71,19.9477646 67.6476167,17.9246495 62.7166667,16.4182762 L62.7166667,13.8179747 L70.2829,10.5705609 Z M62.7166667,7.72374042 L66.8121833,9.48137353 L62.7166667,11.2390066 L62.7166667,7.72374042 Z M49.7,4.16817782 L53.7955167,5.92581093 L49.7,7.68344404 L49.7,4.16817782 Z M36.6833333,2.98299029 L40.77885,4.7406234 L36.6833333,6.49825651 L36.6833333,2.98299029 Z M23.6666667,4.16817782 L27.7621833,5.92581093 L23.6666667,7.68344404 L23.6666667,4.16817782 Z M10.65,7.72374042 L14.7455167,9.48137353 L10.65,11.2390066 L10.65,7.72374042 Z M12.5433333,24.3507363 L16.2637333,26.6843706 C15.3263184,26.8955271 14.4033952,27.1667018 13.50065,27.496224 C11.717833,27.1226483 9.95482307,26.659845 8.21825,26.1095546 C9.59758936,25.379889 11.0465396,24.7906657 12.5433333,24.3507363 L12.5433333,24.3507363 Z M21.1651,22.4319177 L23.4134333,25.5276275 C22.0963833,25.6722204 20.84205,25.8381467 19.6764667,26.0242211 L15.6531333,23.4997717 C17.3382,23.0932523 19.1995833,22.7365109 21.16155,22.4319177 L21.1651,22.4319177 Z M55.3634333,23.4985865 L51.3401,26.0230359 C50.1745167,25.8369615 48.9201833,25.6674797 47.6031333,25.5264423 L49.8514667,22.4307325 C51.8004167,22.7365109 53.6618,23.0932523 55.3587,23.4997717 L55.3634333,23.4985865 Z M62.7900333,26.105999 C61.0534603,26.6562894 59.2904503,27.1190927 57.5076333,27.4926685 C56.6048881,27.1631463 55.6819649,26.8919716 54.74455,26.680815 L58.4566667,24.3507363 C59.9546772,24.7904419 61.404827,25.3796695 62.7853,26.1095546 L62.7900333,26.105999 Z M35.5,27.2591865 C40.9620649,27.2342326 46.417219,27.6511942 51.81225,28.5060038 C46.4081361,29.2657639 40.9570818,29.6412225 35.5,29.6295616 C30.0429182,29.6412225 24.5918639,29.2657639 19.18775,28.5060038 C24.582781,27.6511942 30.0379351,27.2342326 35.5,27.2591865 Z M44.8578,25.2680715 C43.3395833,25.1436268 41.7645667,25.0476266 40.1576,24.9848116 L40.7764833,21.4873232 C42.9621,21.605842 45.1181333,21.8002127 47.1854167,22.0573984 L44.8578,25.2680715 Z M37.7660833,24.9125152 C37.0134833,24.8994781 36.2573333,24.8888114 35.5,24.8888114 C34.7426667,24.8888114 33.9865167,24.8994781 33.2339167,24.9137004 L32.6079333,21.3842119 C33.5711667,21.353397 34.5355833,21.3332488 35.5,21.3332488 C36.4644167,21.3332488 37.4288333,21.353397 38.3920667,21.3842119 L37.7660833,24.9125152 Z M30.2235167,21.4873232 L30.8424,24.9848116 C29.2354333,25.0476266 27.6604167,25.1436268 26.1422,25.2680715 L23.8145833,22.0573984 C25.8818667,21.8002127 28.0379,21.6105827 30.2235167,21.4873232 Z M41.4166667,55.5152425 C39.5446333,55.6337612 37.5743833,55.7036873 35.5,55.7036873 C33.8551667,55.7036873 32.2848833,55.6550946 30.7666667,55.5780574 L30.7666667,50.9629371 C30.7666667,48.9992542 32.3560559,47.4073746 34.3166667,47.4073746 L37.8666667,47.4073746 C39.8272775,47.4073746 41.4166667,48.9992542 41.4166667,50.9629371 L41.4166667,55.5152425 Z M37.8666667,45.0369995 L34.3166667,45.0369995 C31.0506037,45.0409178 28.4039122,47.6917565 28.4,50.9629371 L28.4,55.4275386 C27.5898111,55.3659088 26.8009223,55.2947976 26.0333333,55.2142048 L26.0333333,50.9629371 C26.0385502,46.3831761 29.7440706,42.6718494 34.3166667,42.6666244 L37.8666667,42.6666244 C42.4392627,42.6718494 46.1447832,46.3831761 46.15,50.9629371 L46.15,55.0885749 C45.3855667,55.1798344 44.5951,55.2616123 43.7833333,55.335094 L43.7833333,50.9629371 C43.7794211,47.6917565 41.1327296,45.0409178 37.8666667,45.0369995 Z M68.6333333,54.5184997 C68.6333333,56.6909485 56.1160333,61.6296249 35.5,61.6296249 C14.8839667,61.6296249 2.36666667,56.6909485 2.36666667,54.5184997 C2.36666667,54.0373136 3.47781667,52.8592372 7.4905,51.6479755 C9.8974,55.5413166 23.0939333,58.0740623 35.5,58.0740623 C47.9060667,58.0740623 61.1026,55.5413166 63.5095,51.6479755 C67.5221833,52.8592372 68.6333333,54.0373136 68.6333333,54.5184997 Z M68.61085,22.3773991 L68.5422167,22.895326 C68.2523,23.5851052 67.19795,24.3459956 65.4892167,25.0997748 C63.4165655,23.6312171 61.0927808,22.5554756 58.6329833,21.9258426 C58.5974833,21.9151759 58.5655333,21.9021389 58.5312167,21.8950277 C55.6024237,21.0555822 52.618693,20.4219419 49.6017833,19.9987277 C49.5722,19.9904314 49.5438,19.9904314 49.5154,19.9845054 C44.8733698,19.3145622 40.1899637,18.9731722 35.5,18.9628738 C30.8095659,18.973378 26.1257254,19.3155628 21.4834167,19.9868758 C21.4550167,19.9868758 21.4266167,19.9868758 21.3994,19.9999129 C18.3807909,20.4223112 15.3954295,21.0559619 12.4652333,21.8962129 C12.4343526,21.9034977 12.4039276,21.9125999 12.3741167,21.9234722 C9.91183416,22.5534722 7.58564626,23.6300157 5.51078333,25.0997748 C3.80205,24.3459956 2.7477,23.5851052 2.45778333,22.895326 L2.38915,22.3773991 C2.7335,20.2831727 10.6855,17.42213 22.4584833,16.1184237 L22.4833333,16.1184237 C22.5117333,16.1184237 22.5354,16.1042015 22.5638,16.1018311 C31.1631528,15.1758063 39.8368472,15.1758063 48.4362,16.1018311 C48.4646,16.1018311 48.4882667,16.1184237 48.5166667,16.1184237 L48.5415167,16.1184237 C60.3145,17.42213 68.2665,20.2831727 68.61085,22.3773991 L68.61085,22.3773991 Z" id="Combined-Shape" fill="#303337"></path>
                        <path d="M35.5,31.9999366 C46.3062,31.9999366 61.0185833,30.2814147 67.5872667,26.6582964 L61.5522667,49.8678239 C61.5219295,49.9734054 61.5063975,50.082699 61.5061167,50.1925653 C61.5062409,50.2588828 61.5117816,50.3250789 61.5226833,50.3904916 C61.2185667,51.5128642 56.4166,53.5679793 48.5131167,54.7662039 L48.5131167,50.9629371 C48.5065952,45.0745958 43.7422459,40.302781 37.8631167,40.2962494 L34.3166667,40.2962494 C28.4375375,40.302781 23.6731881,45.0745958 23.6666667,50.9629371 L23.6666667,54.930945 C15.05555,53.7635353 9.78025,51.5555309 9.47376667,50.3786397 C9.48471609,50.3132331 9.49025711,50.2470329 9.49033333,50.1807134 C9.49037831,50.0508287 9.46878169,49.9218471 9.42643333,49.799083 L3.41273333,26.6582964 C9.98141667,30.2814147 24.6938,31.9999366 35.5,31.9999366 L35.5,31.9999366 Z M8.31883333,34.6583123 L11.8688333,48.8805627 C12.0007266,49.4078894 12.473896,49.7777587 13.0166667,49.7777587 C13.1136329,49.7781355 13.2102556,49.7661881 13.3042167,49.742194 C13.6088552,49.6660639 13.8707968,49.4717948 14.0323698,49.2021584 C14.193943,48.932522 14.2419003,48.6096258 14.1656833,48.3045615 L10.6156833,34.0823111 C10.4531708,33.4517211 9.8130943,33.0706009 9.18234623,33.2288607 C8.55159817,33.3871204 8.166513,34.0254617 8.32001667,34.6583123 L8.31883333,34.6583123 Z" id="Shape-path-2" fill="#F0AA3B"></path>
                    </g>
                </g>
            </g>
        </g>
    </g>
</svg>