<?xml version="1.0" encoding="UTF-8"?>
<svg width="64px" height="64px" viewBox="0 0 64 64" version="1.1" xmlns="http://www.w3.org/2000/svg" xmlns:xlink="http://www.w3.org/1999/xlink">
    <title>user-experience@1x</title>
    <g id="Page-1" stroke="none" stroke-width="1" fill="none" fill-rule="evenodd">
        <g id="ШФ_Методика" transform="translate(-183.000000, -1630.000000)" fill-rule="nonzero">
            <g id="Group-36" transform="translate(72.000000, 1472.000000)">
                <g id="Group-13" transform="translate(0.000000, 118.000000)">
                    <g id="Group-2" transform="translate(24.000000, 40.000000)">
                        <g id="user-experience" transform="translate(87.000000, 0.000000)">
                            <path d="M32,0 C35.3465,0 38.58575,0.885625 41.62775,2.632 C44.331,4.184125 46.76575,6.35 48.8755,9.074625 C49.434,8.84175 50.046125,8.712625 50.688,8.712625 C53.29375,8.712625 55.413625,10.8325 55.413625,13.43825 C55.413625,14.072125 55.28725,14.676875 55.059875,15.22975 C60.83175,19.752 64,25.680125 64,32 C64,35.3465 63.1145,38.58575 61.367875,41.62775 C59.815875,44.331 57.65,46.76575 54.925375,48.8755 C55.15825,49.434 55.287375,50.046125 55.287375,50.688 C55.287375,53.29375 53.1675,55.41375 50.56175,55.41375 C49.927875,55.41375 49.323125,55.287375 48.77025,55.06 C44.248,60.831625 38.319875,64 32,64 C25.68,64 19.752,60.831625 15.22975,55.059875 C14.676875,55.28725 14.072125,55.413625 13.43825,55.413625 C10.8325,55.413625 8.712625,53.293625 8.712625,50.687875 C8.712625,50.046 8.84175,49.433875 9.074625,48.875375 C6.35,46.765625 4.18425,44.330875 2.632125,41.627625 C0.8855,38.58575 0,35.3465 0,32 C0,25.680125 3.16825,19.752 8.940125,15.229875 C8.71275,14.677 8.586375,14.07225 8.586375,13.438375 C8.586375,10.832625 10.70625,8.71275 13.312,8.71275 C13.953875,8.71275 14.566,8.841875 15.1245,9.07475 C17.23425,6.35 19.669,4.18425 22.37225,2.632125 C25.41425,0.885625 28.6535,0 32,0 Z M46.74,53.462875 C42.21225,55.23575 37.1355,56.171375 32,56.171375 C26.8645,56.171375 21.78775,55.235625 17.26,53.462875 C17.118125,53.65775 16.96225,53.84175 16.792875,54.012625 C20.940875,59.25075 26.311,62.125 32,62.125 C37.688875,62.125 43.059125,59.25075 47.207125,54.01275 C47.03775,53.84175 46.881875,53.65775 46.74,53.462875 Z M32,9.70375 C27.073375,9.70375 22.2185,10.6 17.89825,12.300375 C17.98875,12.665 18.037625,13.046 18.037625,13.43825 C18.037625,16.044 15.91775,18.164 13.312,18.164 C12.94475,18.164 12.587625,18.120375 12.244125,18.04075 C10.5805,22.32725 9.70375,27.13325 9.70375,32 C9.70375,36.926875 10.599875,41.78175 12.300375,46.10175 C12.665125,46.01125 13.046,45.962375 13.43825,45.962375 C16.044,45.962375 18.163875,48.08225 18.163875,50.688 C18.163875,51.055375 18.120375,51.4125 18.040625,51.756 C22.327375,53.4195 27.133375,54.29625 32,54.29625 C36.866625,54.29625 41.672625,53.4195 45.959375,51.756 C45.879625,51.4125 45.836125,51.055375 45.836125,50.688 C45.836125,48.08225 47.956,45.962375 50.56175,45.962375 C50.954,45.962375 51.334875,46.01125 51.699625,46.10175 C53.400125,41.78175 54.29625,36.926875 54.29625,32 C54.29625,27.13325 53.4195,22.32725 51.755875,18.04075 C51.4125,18.1205 51.055375,18.164 50.688,18.164 C48.08225,18.164 45.962375,16.044 45.962375,13.43825 C45.962375,13.046 46.01125,12.665 46.10175,12.300375 C41.7815,10.6 36.926625,9.70375 32,9.70375 Z M13.43825,47.837375 C11.866375,47.837375 10.587625,49.11625 10.587625,50.688 C10.587625,52.259875 11.866375,53.53875 13.43825,53.53875 C15.010125,53.53875 16.288875,52.259875 16.288875,50.688 C16.288875,49.116125 15.010125,47.837375 13.43825,47.837375 Z M50.56175,47.837375 C48.989875,47.837375 47.711125,49.11625 47.711125,50.688 C47.711125,52.26 48.989875,53.53875 50.56175,53.53875 C52.1335,53.53875 53.412375,52.259875 53.412375,50.688 C53.412375,49.116125 52.133625,47.837375 50.56175,47.837375 Z M32,12.122 C42.960875,12.122 51.878,21.039125 51.878,32 C51.878,42.960875 42.96075,51.878 32,51.878 C21.03925,51.878 12.122,42.960875 12.122,32 C12.122,27.44625 13.620125,23.162 16.454875,19.61 C16.777875,19.205125 17.36775,19.139 17.7725,19.461875 C18.17725,19.784875 18.243375,20.37475 17.9205,20.779375 C15.353875,23.99575 13.997125,27.875625 13.997125,31.999875 C13.997125,37.0485 16.086875,41.6175 19.44575,44.88975 L19.44575,44.88975 L19.44575,40.33375 C19.44575,37.03175 22.132125,34.3455 25.434125,34.3455 L25.434125,34.3455 L28.53725,34.3455 L28.53725,31.49475 C28.53725,31.44025 28.542875,31.38725 28.55175,31.33525 C27.016875,30.25 26.01175,28.46275 26.01175,26.444 L26.01175,26.444 L26.01175,21.39325 C26.01175,18.7875 28.131625,16.667625 30.737375,16.667625 L30.737375,16.667625 L33.26275,16.667625 C35.8685,16.667625 37.988375,18.7875 37.988375,21.39325 L37.988375,21.39325 L37.988375,26.444 C37.988375,28.46275 36.983375,30.25 35.448375,31.33525 C35.45725,31.387125 35.462875,31.44025 35.462875,31.49475 L35.462875,31.49475 L35.462875,34.3455 L38.566,34.3455 C41.868,34.3455 44.554375,37.03175 44.554375,40.33375 L44.554375,40.33375 L44.554375,44.88975 C47.91325,41.6175 50.003,37.0485 50.003,31.999875 C50.003,22.073 41.927,13.996875 32,13.996875 C27.934,13.996875 24.097375,15.31925 20.904875,17.821125 C20.497625,18.140375 19.90825,18.069 19.58875,17.6615 C19.269375,17.254125 19.340875,16.66475 19.748375,16.345375 C23.274125,13.5825 27.510625,12.122 32,12.122 Z M9.987375,16.792875 C4.74925,20.940875 1.875,26.311125 1.875,32 L1.875,32 L1.87932671,32.3825839 C2.00615981,37.9862198 4.91780278,43.2492472 10.128625,47.319125 C10.278125,47.172375 10.436875,47.034875 10.604625,46.90875 C8.787875,42.34075 7.82875,37.205625 7.82875,32 C7.82875,26.8645 8.764375,21.78775 10.53725,17.260125 C10.34225,17.118125 10.15825,16.96225 9.987375,16.792875 Z M54.01275,16.79275 C53.841875,16.962125 53.657875,17.118125 53.462875,17.26 C55.23575,21.787625 56.171375,26.864375 56.171375,31.999875 C56.171375,37.2055 55.21225,42.340625 53.395375,46.908625 C53.563125,47.03475 53.721875,47.17225 53.871375,47.319125 C59.200625,43.15675 62.125,37.746375 62.125,32 C62.125,26.311125 59.25075,20.940875 54.01275,16.79275 Z M33.587875,32.217 C33.081875,32.356375 32.54975,32.432375 32,32.432375 C31.45025,32.432375 30.91825,32.356375 30.412125,32.217 L30.412125,32.217 L30.412125,34.3455 L33.587875,34.3455 Z M33.553125,23.904 C31.739625,24.449125 29.839125,24.76175 27.886625,24.8375 L27.886625,24.8375 L27.886625,26.444125 C27.886625,28.712125 29.731875,30.557375 32,30.557375 C34.268125,30.557375 36.113375,28.71225 36.113375,26.444125 L36.113375,26.444125 L36.113375,24.788 C35.41375,24.691 34.4405,24.458625 33.553125,23.904 Z M33.262625,18.542625 L30.73725,18.542625 C29.165375,18.542625 27.886625,19.8215 27.886625,21.39325 L27.886625,21.39325 L27.886625,22.9615 C29.802625,22.880625 31.660625,22.55175 33.421875,21.980625 C33.717625,21.884625 34.041875,21.941625 34.287125,22.13275 C34.8595,22.578625 35.562,22.790375 36.11325,22.890875 L36.11325,22.890875 L36.11325,21.39325 C36.11325,19.821375 34.8345,18.542625 33.262625,18.542625 L33.262625,18.542625 Z M13.312,10.587625 C11.740125,10.587625 10.461375,11.8665 10.461375,13.43825 C10.461375,15.01025 11.740125,16.289 13.312,16.289 C14.883875,16.289 16.162625,15.010125 16.162625,13.43825 C16.162625,11.866375 14.883875,10.587625 13.312,10.587625 Z M50.688,10.587625 C49.116125,10.587625 47.837375,11.8665 47.837375,13.43825 C47.837375,15.01025 49.116125,16.289 50.688,16.289 C52.259875,16.289 53.538625,15.010125 53.538625,13.43825 C53.538625,11.8665 52.259875,10.587625 50.688,10.587625 Z M32,1.875 C26.2535,1.875 20.843125,4.799375 16.680875,10.128625 C16.82775,10.278125 16.96525,10.436875 17.091375,10.60475 C21.6595,8.787875 26.794625,7.82875 32,7.82875 C37.205375,7.82875 42.3405,8.78775 46.908625,10.60475 C47.03475,10.436875 47.17225,10.278125 47.319125,10.128625 C43.156875,4.799375 37.7465,1.875 32,1.875 Z" id="Combined-Shape" fill="#303337"></path>
                            <path d="M26.3715,49.100875 L26.3715,42.85925 C26.3715,42.341375 25.95175,41.92175 25.434,41.92175 C24.91625,41.92175 24.4965,42.341375 24.4965,42.85925 L24.4965,48.36275 C23.369125,47.84375 22.30425,47.211625 21.31625,46.480875 C21.318875,46.4525 21.320625,46.423875 21.320625,46.39475 L21.320625,40.333875 C21.320625,38.06575 23.165875,36.220625 25.434,36.220625 L38.566125,36.220625 C40.83425,36.220625 42.6795,38.065875 42.6795,40.333875 L42.6795,46.39475 C42.6795,46.423875 42.68125,46.4525 42.683875,46.480875 C41.696,47.211625 40.631125,47.84375 39.503625,48.36275 L39.503625,42.85925 C39.503625,42.341375 39.083875,41.92175 38.566125,41.92175 C38.048375,41.92175 37.628625,42.341375 37.628625,42.85925 L37.628625,49.100875 C35.857,49.6855 33.965,50.003 32.000125,50.003 C30.03525,50.003 28.143125,49.6855 26.3715,49.100875 Z" id="Path" fill="#F0AA3B"></path>
                        </g>
                    </g>
                </g>
            </g>
        </g>
    </g>
</svg>