<?xml version="1.0" encoding="UTF-8"?>
<svg width="56px" height="64px" viewBox="0 0 56 64" version="1.1" xmlns="http://www.w3.org/2000/svg" xmlns:xlink="http://www.w3.org/1999/xlink">
    <title>stopwatch (1)@1x</title>
    <g id="Page-1" stroke="none" stroke-width="1" fill="none" fill-rule="evenodd">
        <g id="ШФ_Методика" transform="translate(-497.000000, -1630.000000)" fill-rule="nonzero">
            <g id="Group-36" transform="translate(72.000000, 1472.000000)">
                <g id="Group-13" transform="translate(0.000000, 118.000000)">
                    <g id="Group-15" transform="translate(310.000000, 0.000000)">
                        <g id="Group-4" transform="translate(24.000000, 40.000000)">
                            <g id="stopwatch-(1)" transform="translate(91.000000, 0.000000)">
                                <path d="M33.1787845,0 C34.9687571,0 36.4250566,1.460875 36.4250566,3.256625 L36.4250566,3.256625 L36.4250566,5.968875 C36.4250566,7.764625 34.9688817,9.2255 33.1789091,9.2255 L33.1789091,9.2255 L32.0628863,9.2255 L32.0628863,11.566875 C36.6286495,12.2805 40.808907,14.177125 44.2820717,16.9335 L44.2820717,16.9335 L46.1473013,15.06225 C45.293557,13.85925 45.4008357,12.175875 46.4756166,11.0975 C47.6737495,9.895625 49.6230826,9.895625 50.8212155,11.0975 L50.8212155,11.0975 L55.1014004,15.391625 C56.2995332,16.5935 56.2995332,18.54925 55.1014004,19.751125 C54.0172746,20.838875 52.3393155,20.93775 51.1471634,20.083 L51.1471634,20.083 L49.1948399,22.041625 C52.3953845,26.41075 54.2892717,31.80025 54.2892717,37.625875 C54.2892717,52.168625 42.4959617,64 28,64 C13.5040383,64 1.71072832,52.168625 1.71072832,37.62575 C1.71072832,31.800125 3.60461546,26.410625 6.80516013,22.0415 L6.80516013,22.0415 L4.8528366,20.082875 C3.65682195,20.940625 1.97948586,20.8355 0.898599609,19.751125 C-0.299533203,18.54925 -0.299533203,16.5935 0.898599609,15.391625 L0.898599609,15.391625 L5.17878455,11.097625 C6.37691736,9.89575 8.32637514,9.89575 9.52425875,11.097625 C10.5990397,12.176 10.706443,13.85925 9.85269866,15.062375 L9.85269866,15.062375 L11.7179283,16.933625 C15.191093,14.17725 19.3713505,12.280625 23.9371137,11.567 L23.9371137,11.567 L23.9371137,9.2255 L22.8210909,9.2255 C21.0312429,9.2255 19.5749434,7.764625 19.5749434,5.968875 L19.5749434,5.968875 L19.5749434,3.256625 C19.5749434,1.460875 21.0311183,0 22.8210909,0 L22.8210909,0 Z M28,13.12675 C14.534587,13.12675 3.57969589,24.117 3.57969589,37.625875 C3.57969589,51.13475 14.534587,62.125 28,62.125 C41.465413,62.125 52.4203041,51.13475 52.4203041,37.625875 C52.4203041,24.117 41.465413,13.12675 28,13.12675 Z M43.1878535,23.8145 C43.5854452,23.48425 44.1745438,23.54025 44.5034821,23.939125 C47.6687655,27.77625 49.4118893,32.637 49.4118893,37.626 C49.4118893,49.470625 39.8065174,59.107 28,59.107 C23.0350253,59.107 18.1960191,57.363375 14.3743542,54.197 C13.9763887,53.86725 13.9201951,53.276375 14.2488842,52.877125 C14.5775733,52.478 15.1664227,52.4215 15.5645128,52.75125 C19.0521308,55.64075 23.4685012,57.232 28.0001246,57.232 C38.7760932,57.232 47.5430463,48.43675 47.5430463,37.626 C47.5430463,33.072375 45.9523057,28.636125 43.063754,25.1345 C42.7346912,24.7355 42.7902618,24.144625 43.1878535,23.8145 Z M28,51.963625 C28.5160842,51.963625 28.9344838,52.383375 28.9344838,52.901125 L28.9344838,52.901125 L28.9344838,53.844125 C28.9344838,54.361875 28.5160842,54.781625 28,54.781625 C27.4839158,54.781625 27.0655162,54.361875 27.0655162,53.844125 L27.0655162,53.844125 L27.0655162,52.901125 C27.0655162,52.383375 27.4839158,51.963625 28,51.963625 Z M28.0001246,16.144875 C32.8747658,16.144875 37.4671929,17.746 41.280759,20.775 C41.6853282,21.0965 41.7537324,21.686 41.4333913,22.092 C41.1129257,22.498 40.5251977,22.5665 40.1206285,22.245125 C36.6404863,19.480875 32.4492642,18.019875 28,18.019875 C17.2240314,18.019875 8.45707827,26.815125 8.45707827,37.625875 C8.45707827,42.0775 9.90640032,46.273375 12.6486741,49.76 C12.9682676,50.1665 12.8989912,50.756 12.493799,51.07675 C12.0887315,51.397375 11.5011281,51.327875 11.1812854,50.921375 C8.17648394,47.100625 6.58823529,42.503125 6.58823529,37.625875 C6.58823529,25.781125 16.1936072,16.144875 28.0001246,16.144875 Z M16.689382,47.812625 C17.0543291,47.446625 17.6459196,47.4465 18.0109913,47.812625 C18.3758138,48.17875 18.3759384,48.772375 18.0109913,49.1385 L18.0109913,49.1385 L17.3463864,49.805375 C16.9814394,50.1715 16.3897242,50.171375 16.0247772,49.805375 C15.6599547,49.43925 15.6598301,48.845625 16.0247772,48.4795 L16.0247772,48.4795 Z M37.9890087,47.812625 C38.3539558,47.446625 38.9456709,47.446625 39.310618,47.812625 L39.310618,47.812625 L39.9752228,48.4795 C40.3401699,48.845625 40.3401699,49.43925 39.9752228,49.805375 C39.6101512,50.1715 39.0186852,50.1715 38.6536136,49.805375 L38.6536136,49.805375 L37.9890087,49.1385 C37.6240616,48.772375 37.6240616,48.17875 37.9890087,47.812625 Z M28.6199988,21.118875 C32.7798223,21.2735 36.6944372,22.9875 39.6429204,25.9455 C42.591279,28.903375 44.2998892,32.83075 44.4540167,37.004 C44.4854154,37.854875 43.8022454,38.563375 42.9536096,38.5635 L42.9536096,38.5635 L31.1598012,38.5635 C30.755855,39.93125 29.4925575,40.93225 28,40.93225 C26.1827405,40.93225 24.7043872,39.449 24.7043872,37.626 C24.7043872,36.128625 25.7021667,34.86125 27.0655162,34.456 L27.0655162,34.456 L27.0655162,22.624125 C27.0655162,21.759375 27.7883083,21.085125 28.6199988,21.118875 Z M28,36.194625 C27.2132892,36.194625 26.5733548,36.83675 26.5733548,37.625875 C26.5733548,38.415 27.2134138,39.057125 28,39.057125 C28.7867108,39.057125 29.4266452,38.415125 29.4266452,37.625875 C29.4266452,36.836625 28.7867108,36.194625 28,36.194625 Z M12.9389871,36.854 C13.4550714,36.854 13.8734709,37.27375 13.8734709,37.7915 C13.8734709,38.30925 13.4550714,38.729 12.9389871,38.729 L12.9389871,38.729 L11.999021,38.729 C11.4829368,38.729 11.0645372,38.30925 11.0645372,37.7915 C11.0645372,37.27375 11.4829368,36.854 11.999021,36.854 L11.999021,36.854 Z M16.0249018,25.77775 C16.3897242,25.411625 16.9814394,25.411625 17.3463864,25.77775 L17.3463864,25.77775 L18.0109913,26.4445 C18.3759384,26.8105 18.3759384,27.404125 18.0109913,27.77025 C17.6461688,28.136375 17.0544537,28.136375 16.6895066,27.77025 L16.6895066,27.77025 L16.0249018,27.1035 C15.6599547,26.7375 15.6599547,26.143875 16.0249018,25.77775 Z M8.56373402,16.42075 L6.20459855,18.7875 L7.97251728,20.56125 C8.69406336,19.71025 9.46744214,18.905 10.2894141,18.152 L10.2894141,18.152 L8.56373402,16.42075 Z M47.436266,16.42075 L45.7105859,18.152 C46.5324333,18.905 47.3059366,19.71025 48.0274827,20.56125 L48.0274827,20.56125 L49.7954014,18.7875 L47.436266,16.42075 Z M48.6484783,12.07025 C48.3402233,12.07025 48.0319682,12.188 47.7972259,12.423375 C47.3278659,12.89425 47.3278659,13.660375 47.7972259,14.13125 L47.7972259,14.13125 L52.0775355,18.425375 C52.5480169,18.897375 53.3096835,18.89725 53.7799157,18.425375 C54.2492758,17.954375 54.2492758,17.18825 53.7799157,16.717375 L53.7799157,16.717375 L49.4997308,12.423375 C49.2649885,12.188 48.9567334,12.07025 48.6484783,12.07025 Z M8.20277408,12.42325 C7.73341403,11.95225 6.96962928,11.9525 6.50039382,12.42325 L6.50039382,12.42325 L2.22020888,16.71725 C1.75084882,17.18825 1.75084882,17.954375 2.22020888,18.42525 C2.69069032,18.89725 3.4522323,18.89725 3.92246455,18.42525 L3.92246455,18.42525 L8.20277408,14.131125 C8.67213414,13.66025 8.67213414,12.894125 8.20277408,12.42325 Z M30.1939187,9.2255 L25.8062059,9.2255 L25.8062059,11.344375 C26.5297455,11.284125 27.2611348,11.25175 28,11.25175 C28.7388652,11.25175 29.4702545,11.284125 30.1939187,11.344375 L30.1939187,11.344375 L30.1939187,9.2255 Z M33.1787845,1.875 L22.8210909,1.875 C22.061667,1.875 21.4439109,2.49475 21.4439109,3.256625 L21.4439109,3.256625 L21.4439109,5.968875 C21.4439109,6.73075 22.0617916,7.3505 22.8210909,7.3505 L22.8210909,7.3505 L33.1787845,7.3505 C33.9382084,7.3505 34.5559645,6.73075 34.5559645,5.968875 L34.5559645,5.968875 L34.5559645,3.256625 C34.5559645,2.49475 33.9382084,1.875 33.1787845,1.875 L33.1787845,1.875 Z" id="Combined-Shape" fill="#303337"></path>
                                <path d="M31.1598012,36.688375 C30.8436965,35.618 30.0014151,34.772875 28.9344838,34.45575 L28.9344838,23.01175 C32.4777971,23.2365 35.7984541,24.74025 38.3213111,27.27125 C40.8442928,29.802375 42.3432047,33.1335 42.5671071,36.688375 L31.1598012,36.688375 Z" id="Path" fill="#F0AA3B"></path>
                            </g>
                        </g>
                    </g>
                </g>
            </g>
        </g>
    </g>
</svg>