<?xml version="1.0" encoding="UTF-8"?>
<svg width="63px" height="66px" viewBox="0 0 63 66" version="1.1" xmlns="http://www.w3.org/2000/svg" xmlns:xlink="http://www.w3.org/1999/xlink">
    <title>refresh (1)@1x</title>
    <g id="Page-1" stroke="none" stroke-width="1" fill="none" fill-rule="evenodd">
        <g id="ШФ_Методика" transform="translate(-804.000000, -1629.000000)" fill-rule="nonzero">
            <g id="Group-36" transform="translate(72.000000, 1472.000000)">
                <g id="Group-13" transform="translate(0.000000, 118.000000)">
                    <g id="Group-16" transform="translate(620.000000, 0.000000)">
                        <g id="Group-5" transform="translate(24.000000, 40.000000)">
                            <g id="refresh-(1)" transform="translate(89.000000, 0.000000)">
                                <path d="M39.0398048,8.52651283e-14 C39.7141564,8.52651283e-14 40.2597987,0.550461538 40.2597987,1.23076923 L40.2597987,1.23076923 L40.2597987,3.69230769 L55.9754551,3.69230769 C58.7454513,3.69230769 61,5.96646154 61,8.76092308 L61,8.76092308 L61,58.9313846 C61,61.7258462 58.7457563,64 55.9757601,64 L55.9757601,64 L5.02423988,64 C2.25424373,64 -1.42108547e-14,61.7258462 -1.42108547e-14,58.9316923 L-1.42108547e-14,58.9316923 L-1.42108547e-14,8.76092308 C-1.42108547e-14,5.96646154 2.25424373,3.69230769 5.02423988,3.69230769 L5.02423988,3.69230769 L20.7398963,3.69230769 L20.7398963,1.23076923 C20.7398963,0.550461538 21.2855386,8.52651283e-14 21.9598902,8.52651283e-14 C22.6342418,8.52651283e-14 23.1798841,0.550461538 23.1798841,1.23076923 L23.1798841,1.23076923 L23.1798841,3.69230769 L37.8198109,3.69230769 L37.8198109,1.23076923 C37.8198109,0.550461538 38.3654532,8.52651283e-14 39.0398048,8.52651283e-14 Z M53.6797316,20.9230769 L7.3199634,20.9230769 L7.3199634,54.7883077 C7.3199634,55.7956923 8.13278434,56.6153846 9.13104434,56.6153846 L9.13104434,56.6153846 L51.8686507,56.6153846 C52.8672157,56.6153846 53.6797316,55.7953846 53.6797316,54.7883077 L53.6797316,54.7883077 L53.6797316,20.9230769 Z M30.4961875,26.3449231 C36.9548352,26.3473846 42.207824,31.6501538 42.2066042,38.1646154 C42.204164,44.6778462 36.9490403,49.9772308 30.4928325,49.9772308 L30.4928325,49.9772308 C24.0329648,49.976 18.7799761,44.6741538 18.7811959,38.1587692 C18.7824161,31.6443077 24.0375398,26.3449231 30.4937475,26.3449231 L30.4937475,26.3449231 Z M30.4961875,28.8067692 C28.0180749,28.8067692 25.6900215,29.7790769 23.9387203,31.5446154 C22.1861991,33.3113846 21.2214889,35.6603077 21.2214889,38.1590769 C21.2214889,40.6578462 22.1852841,43.0076923 23.9353653,44.7744615 C25.6854466,46.5424615 28.0134999,47.516 30.4903925,47.516 L30.4903925,47.516 C35.603997,47.516 39.7641762,43.3212308 39.7666163,38.1649231 C39.7675312,33.0061538 35.608572,28.8092308 30.4961875,28.8067692 L30.4961875,28.8067692 Z M32.3374633,30.9301538 C32.9187904,30.5923077 33.6657317,30.7990769 34.00062,31.3916923 L34.00062,31.3916923 L35.5280524,34.0996923 C35.7064765,34.4156923 35.7363663,34.7956923 35.6113169,35.1369231 C35.4850476,35.4781538 35.2157339,35.7461538 34.8762706,35.8676923 L34.8762706,35.8676923 L32.1288444,36.852 C31.99312,36.9 31.8558707,36.9227692 31.7201464,36.9227692 C31.2184239,36.9227692 30.7478113,36.608 30.5703021,36.1043077 C30.3815081,35.5670769 30.598057,35.0027692 31.0424398,34.6947692 C29.6293819,34.4698462 28.1641692,35.1252308 27.4355278,36.4587692 C26.9838251,37.2821538 26.8776856,38.2341538 27.1375443,39.1390769 C27.396183,40.0430769 27.9894051,40.7916923 28.806801,41.2461538 C30.4876476,42.1836923 32.6192819,41.5646154 33.5531872,39.8627692 C33.8774006,39.2692308 34.6185469,39.0492308 35.2105489,39.3809231 C35.800111,39.7092308 36.0145249,40.4578462 35.6881766,41.0529231 C34.607567,43.0276923 32.5750571,44.1455385 30.4830726,44.1455385 C29.5147024,44.1455385 28.5341323,43.9064615 27.6273719,43.4027692 C26.2405438,42.6298462 25.2337438,41.3593846 24.793631,39.8233846 C24.3538232,38.2861538 24.5337723,36.6695385 25.2999285,35.2692308 C26.601357,32.8867692 29.2877836,31.7818462 31.795481,32.3495385 C31.6350518,31.8126154 31.8329958,31.2196923 32.3374633,30.9301538 Z M20.7398963,6.15384615 L5.02423988,6.15384615 C3.599287,6.15384615 2.4399878,7.32338462 2.4399878,8.76092308 L2.4399878,8.76092308 L2.4399878,18.4615385 L58.5597072,18.4615385 L58.5597072,8.76092308 C58.5597072,7.32338462 57.400408,6.15384615 55.9754551,6.15384615 L55.9754551,6.15384615 L40.2597987,6.15384615 L40.2597987,10.1876923 C40.9860001,10.6138462 41.4797926,11.3987692 41.4797926,12.3076923 C41.4797926,13.6670769 40.3872881,14.7692308 39.0398048,14.7692308 C37.6923215,14.7692308 36.599817,13.6670769 36.599817,12.3076923 C36.599817,11.3990769 37.0936095,10.6141538 37.8198109,10.1876923 L37.8198109,10.1876923 L37.8198109,6.15384615 L23.1798841,6.15384615 L23.1798841,10.1876923 C23.9060855,10.6138462 24.399878,11.3987692 24.399878,12.3076923 C24.399878,13.6670769 23.3073735,14.7692308 21.9598902,14.7692308 C20.6124069,14.7692308 19.5199024,13.6670769 19.5199024,12.3076923 C19.5199024,11.3990769 20.0136949,10.6141538 20.7398963,10.1876923 L20.7398963,10.1876923 L20.7398963,6.15384615 Z" id="Combined-Shape" stroke="#FFFFFF" stroke-width="0.5" fill="#303337"></path>
                                <path d="M55.9754551,61.5384615 L5.02423988,61.5384615 C3.599287,61.5384615 2.4399878,60.3689231 2.4399878,58.9313846 L2.4399878,20.9230769 L4.8799756,20.9230769 L4.8799756,54.7883077 C4.8799756,57.1526154 6.78743606,59.0769231 9.13104434,59.0769231 L51.8689557,59.0769231 C54.2125639,59.0769231 56.1200244,57.1526154 56.1200244,54.7883077 L56.1200244,20.9230769 L58.5600122,20.9230769 L58.5600122,58.9313846 C58.5600122,60.3689231 57.400408,61.5384615 55.9754551,61.5384615 Z" id="Path" fill="#F0AA3B"></path>
                            </g>
                        </g>
                    </g>
                </g>
            </g>
        </g>
    </g>
</svg>