<?xml version="1.0" encoding="UTF-8"?>
<svg width="72px" height="66px" viewBox="0 0 72 66" version="1.1" xmlns="http://www.w3.org/2000/svg" xmlns:xlink="http://www.w3.org/1999/xlink">
    <title>ico_1@1x</title>
    <g id="Page-1" stroke="none" stroke-width="1" fill="none" fill-rule="evenodd">
        <g id="ШФ_Страница-клуба" transform="translate(-224.000000, -1475.000000)">
            <g id="ico_1" transform="translate(225.000000, 1476.000000)">
                <g id="Combined-Shape-3" fill="#303337" fill-rule="nonzero" stroke="#FFFFFF" stroke-width="0.5">
                    <g id="Combined-Shape-2">
                        <path d="M11.5670831,0 C13.8454997,0 15.8239556,1.32059515 16.7628027,3.2807238 C18.5397353,2.31339477 20.4804568,1.63690122 22.5287759,1.28986432 C27.3229482,0.47760536 32.1416459,1.55957273 36.1368169,4.33797379 L36.1405117,4.33163629 L49.2830548,13.8260842 L49.282,13.827 L65.2169932,25.3352165 C67.1089608,26.701991 67.6079993,29.3198883 66.4009433,31.2923149 L66.2411527,31.5353692 L63.2534396,35.7769159 C61.4099349,38.3968972 59.1718816,38.2960078 57.50794,38.0187778 L57.3110847,37.9848266 L37.6128101,34.3170631 C34.5890032,36.8969301 30.7778336,38.4520209 26.8046523,38.7146172 C26.4046135,38.7410568 26.0044379,38.7542074 25.604946,38.7542074 C21.7459248,38.7543458 17.9452825,37.5294038 14.7877648,35.2485395 C7.12523022,29.7132524 4.84667686,19.3422893 9.10628375,11.1318973 C7.14792551,10.1836712 5.79345365,8.14768448 5.79345365,5.84993197 C5.79345365,5.35524866 5.85487861,4.87482888 5.96974855,4.4157601 L6.06579724,4.07557258 L5.9322231,4.07557258 C4.28543988,4.07557258 2.88136204,5.12998613 2.74507121,6.42119923 L2.73423668,6.62692365 L2.73423668,23.9704631 C6.87284708,37.8376477 12.011227,41.4409484 17.5164857,43.7427023 L18.660532,44.2032957 L21.0828991,45.1245784 L22.043155,45.4970411 C25.4112073,46.8290699 28.85033,48.5118662 32.2322468,52.1982536 C34.5255907,54.6969788 34.0935358,56.8909945 33.4600674,58.1716704 L33.3889814,58.3101782 L33.23959,58.5726861 C31.2042591,61.9238693 24.9768604,64 18.5488954,64 C16.0373735,64 13.4961835,63.6832786 11.1608919,63.0019401 C7.8398587,62.0329499 5.18806338,60.4385459 3.2791973,58.263163 C1.18312739,55.8744201 0.082570881,52.8906951 0.00368351068,49.3873161 L-4.50636056e-11,48.7986209 L-4.50636056e-11,6.62650836 C-4.50636056e-11,3.79087866 2.48677058,1.46632066 5.60735571,1.31450082 L5.93235982,1.30661401 L7.93528834,1.30661401 C8.92813932,0.490447444 10.19183,0 11.5670831,0 Z M2.734,32.055 L2.73700137,49.2926698 C2.87264971,55.6017386 6.92229674,58.56854 10.7615648,59.9642794 L11.3500054,60.1668524 L11.9180399,60.3420621 C15.4520808,61.3730677 19.7268635,61.5216 23.646451,60.7493149 C27.1927966,60.0503961 29.976252,58.6607258 30.910314,57.1226616 C31.2708411,56.5292243 31.5924034,55.5682629 30.2291816,54.0829395 C27.2676293,50.8548722 24.2759413,49.3593951 21.1589317,48.1199768 L20.665717,47.9261918 L17.5382309,46.7330876 C14.6219841,45.591191 11.6636496,44.2096802 8.88138153,41.4776234 C6.65333718,39.2897388 4.74588743,36.4552074 3.06699501,32.7974636 L2.734,32.055 Z M22.9800842,4.02061699 C20.7387184,4.40046113 18.647743,5.24140616 16.8101074,6.47714545 C16.7515918,6.52490283 16.6891114,6.56781525 16.6230762,6.60546744 C15.1048154,7.6586213 13.7649724,8.98433826 12.6646606,10.5463504 L12.5019312,10.7828186 L12.3439186,11.0211556 L12.0760849,11.4453688 C7.72128525,18.5843852 9.53135701,28.0503898 16.3760256,32.9948068 C22.4236393,37.3637065 30.799025,36.8652303 36.2906038,31.8102855 C36.5611896,31.5612353 36.9170543,31.4340236 37.2774392,31.4519255 L37.4576344,31.473077 L57.7095503,35.244039 L58.2233882,35.3282069 C59.3602137,35.4901837 60.0842379,35.382239 60.8597101,34.3950069 L61.0268394,34.1697766 L64.0150993,29.9273993 C64.5076772,29.2285299 64.3932653,28.2741149 63.7793579,27.7114161 L63.6288691,27.5888107 L58.5985791,23.9559282 L55.7427995,28.0076913 C55.2980537,28.6396113 54.6344212,29.0586304 53.8746756,29.1865371 C53.714578,29.2135304 53.5543437,29.2268194 53.3954766,29.2268194 C52.8870004,29.2268194 52.3913812,29.0904375 51.9517538,28.8276116 L51.7368057,28.6857076 L45.6159109,24.2611601 C44.996712,23.8180548 44.5820443,23.1494516 44.453392,22.3822882 C44.340582,21.7094457 44.4599417,21.0342715 44.7900388,20.4519122 L44.9443488,20.2082896 L47.7976674,16.1556959 L44.8297785,14.0122897 L44.826,14.01 L34.831132,6.79206725 C31.3765247,4.29539491 27.1677771,3.31117777 22.9800842,4.02061699 Z M32.1369539,10.616533 C37.1889822,14.2647809 38.3684542,21.3939183 34.7660539,26.5085251 C33.0208401,28.986233 30.4271502,30.6278407 27.4626793,31.1307466 C26.8339101,31.2373355 26.2041839,31.2900763 25.5792429,31.2900763 C23.4233262,31.2900763 21.3215187,30.6628494 19.4885899,29.4584919 L19.0704771,29.1703411 L18.746029,28.926895 C13.9701281,25.209142 12.9183629,18.2764031 16.4415138,13.2744729 C18.1865909,10.7967651 20.7805543,9.15598794 23.7452986,8.65418947 C26.7097696,8.152391 29.6896897,8.84937177 32.1369539,10.616533 Z M50.0237208,17.763389 L47.170949,21.8152906 C47.1448358,21.852389 47.144699,21.8921176 47.1492108,21.9189725 L47.1664544,21.9683045 L47.1993865,22.0042436 L53.3278009,26.4341898 C53.3514988,26.451447 53.3760474,26.4571994 53.3972337,26.4578454 L53.4555113,26.4478325 L53.4873364,26.4305599 L53.5166094,26.400552 L56.372389,22.3483736 L50.0237208,17.763389 Z M69.9801349,15.8706744 C70.095231,16.566814 69.6757361,17.2282763 69.024893,17.4251073 L68.8575379,17.4643864 L61.9788115,18.6298047 C61.9023857,18.6428168 61.8263702,18.649046 61.7514483,18.649046 C61.0954721,18.649046 60.5164686,18.1698112 60.4046327,17.4930408 C60.2895366,16.797029 60.7090316,16.1355765 61.3599822,15.9386374 L61.5273664,15.8993288 L68.4060929,14.7339105 C69.1510729,14.6073881 69.8555842,15.1166616 69.9801349,15.8706744 Z M63.1433811,5.93907907 C63.7069696,6.34589343 63.8742165,7.10607966 63.5605591,7.70954776 L63.4630294,7.86986116 L59.6807073,13.2416657 C59.4139692,13.6205409 58.9932859,13.8225061 58.5663135,13.8225061 C58.2917824,13.8225061 58.0145169,13.7390345 57.7738921,13.5653084 C57.2103035,13.158494 57.0430567,12.3981915 57.3567141,11.7948106 L57.4542438,11.6345263 L61.2365658,6.26272178 C61.6748859,5.64007639 62.528694,5.49528158 63.1433811,5.93907907 Z M53.4015216,4.92654976 L53.4403204,5.09605763 L54.3704175,10.7307354 C54.4948315,11.4848866 53.9919802,12.1982017 53.2472736,12.3243089 C53.1709846,12.3371826 53.0951057,12.3434118 53.0201839,12.3434118 C52.4238419,12.3434118 51.8910007,11.9472356 51.7151277,11.3666319 L51.6733683,11.1871297 L50.7432712,5.552452 C50.6188572,4.7983008 51.1217084,4.08498562 51.866415,3.95887848 C52.5535841,3.84247188 53.2070864,4.26733679 53.4015216,4.92654976 Z M11.5670831,2.76882014 L11.3299274,2.77810778 C9.76457019,2.90117598 8.52796377,4.23191617 8.52796377,5.84993197 C8.52796377,7.17384937 9.38231874,8.33068519 10.5717712,8.75427231 C11.6735869,7.2285281 12.9721409,5.89976575 14.425597,4.79400956 C14.0296415,3.68031688 13.0262906,2.8813522 11.8269374,2.77977332 L11.5670831,2.76882014 Z" id="Combined-Shape"></path>
                    </g>
                </g>
                <path d="M30.5493767,12.8706809 C28.6965653,11.5327824 26.4402971,11.0052364 24.1961968,11.3849421 C21.9520966,11.7647863 19.9888165,13.0067548 18.6678407,14.882166 C15.9412602,18.7531433 16.8344433,24.1519411 20.6588747,26.9170237 C22.5111392,28.2540917 24.7669973,28.7809455 27.0108241,28.4004092 C29.2549243,28.0195961 31.2184779,26.7769354 32.5397271,24.9011089 C35.2667177,21.0291627 34.3739448,15.6324413 30.5493767,12.8706809 Z" id="Path" fill="#F0AA3B"></path>
            </g>
        </g>
    </g>
</svg>