<?xml version="1.0" encoding="UTF-8"?>
<svg width="54px" height="66px" viewBox="0 0 54 66" version="1.1" xmlns="http://www.w3.org/2000/svg" xmlns:xlink="http://www.w3.org/1999/xlink">
    <title>football-award@1x</title>
    <g id="Page-1" stroke="none" stroke-width="1" fill="none" fill-rule="evenodd">
        <g id="ШФ_Методика" transform="translate(-653.000000, -2581.000000)" fill-rule="nonzero">
            <g id="Group-11" transform="translate(72.000000, 2424.000000)">
                <g id="Group-10" transform="translate(420.000000, 118.000000)">
                    <g id="football-award" transform="translate(162.000000, 40.000000)">
                        <path d="M50.3226811,7.23325 L46.2595098,6.339875 C46.158273,6.317625 46.078703,6.237625 46.056538,6.136125 L45.1665753,2.05725 C44.9466684,1.050125 44.1090051,0.3735 43.081943,0.373625 C42.0550054,0.373625 41.2173422,1.050375 40.9976844,2.057375 L40.1077216,6.136 C40.0855566,6.237625 40.0058621,6.317625 39.9047498,6.339875 L38.5815731,6.630875 C36.4406566,4.484125 33.9406171,2.81625 31.142097,1.67075 C28.4333577,0.562125 25.5634862,0 22.6120523,0 C19.6606185,0 16.7906225,0.562125 14.081136,1.671 C13.4438295,1.932625 12.82296,2.220625 12.2359607,2.52675 C11.7782157,2.7655 11.6000239,3.331375 11.8377375,3.790875 C12.0753266,4.250375 12.6391647,4.429375 13.0970342,4.190625 C13.4876615,3.986875 13.8954729,3.792125 14.3134951,3.608625 L21.6787557,8.980875 L21.6787557,13.032 L13.7431818,18.8195 L9.90477376,17.568 L7.09243166,8.881625 C7.91652199,7.949875 8.82429148,7.09125 9.79643913,6.32475 C10.2021336,6.004875 10.2726134,5.415625 9.9540847,5.008375 C9.63543146,4.601125 9.04830757,4.530375 8.64273758,4.850125 C7.43586489,5.801625 6.32026724,6.882875 5.32682623,8.063875 C1.89187131,12.1485 0,17.345875 0,22.69875 C0,23.25475 0.0201726553,23.807375 0.059646308,24.33775 C0.318528718,27.993 1.47484524,31.568625 3.40345071,34.677875 C4.22928435,36.00975 5.19196829,37.2505 6.27369581,38.3855 L5.16083765,38.63025 C4.11210862,38.860875 3.40755996,39.739875 3.40755996,40.817625 C3.40755996,41.89525 4.11210862,42.77425 5.16083765,43.00475 L9.55125421,43.970125 C9.68910068,44.0005 9.79780888,44.1095 9.82806786,44.247875 L10.7897556,48.655125 C11.0194998,49.707875 11.8951424,50.415125 12.968776,50.415125 C14.042285,50.415125 14.9179277,49.707875 15.1475473,48.655125 L15.237079,48.245 L17.2514805,48.245 L14.6417366,55.5475 L10.1489625,55.5475 C7.82748836,55.5475 5.93885463,57.443375 5.93885463,59.77375 C5.93885463,60.902 6.37692501,61.963125 7.17175254,62.760875 C7.96595745,63.56 9.02340306,64 10.1489625,64 L35.07701,64 C37.3986087,64 39.2872424,62.104125 39.2872424,59.77375 C39.2872424,58.643875 38.8487985,57.582625 38.0534729,56.785625 C37.9041703,56.63575 37.7475209,56.5 37.588132,56.38225 C37.1724757,56.0755 36.5880913,56.164875 36.282513,56.581875 C35.9768101,56.999 36.0658437,57.58575 36.4813755,57.892625 C36.5654282,57.954625 36.649979,58.028375 36.7336582,58.11225 C37.1759624,58.555375 37.4195285,59.145375 37.4195285,59.77375 C37.4195285,61.07025 36.3688071,62.125 35.0771345,62.125 L10.1485889,62.125 C9.52261402,62.125 8.93486752,61.8805 8.49281241,61.435875 C8.0501347,60.9915 7.80631952,60.40125 7.80631952,59.77375 C7.80631952,58.47725 8.85704091,57.4225 10.1485889,57.4225 L33.0134221,57.4225 C33.5293191,57.4225 33.9473413,57.00275 33.9473413,56.485 C33.9473413,55.96725 33.5293191,55.5475 33.0134221,55.5475 L30.5837378,55.5475 L27.9738694,48.245 L31.0438487,48.245 C33.0213915,48.245 34.6302231,46.630625 34.6302231,44.64625 L34.6302231,41.94 C37.5124223,40.12675 39.9709958,37.661875 41.8210276,34.678 C43.749633,31.5685 44.9059495,27.992875 45.164832,24.341 C45.2044301,23.8065 45.2246028,23.253875 45.2246028,22.69875 C45.2246028,20.9775 45.0307212,19.266125 44.6504292,17.601625 C44.8993498,17.329625 45.0806547,16.987625 45.1664507,16.59425 L46.0564135,12.515375 C46.0785785,12.413875 46.1581484,12.334 46.2593853,12.31175 L50.3225565,11.418375 C51.3259594,11.19775 52,10.356875 52,9.325875 C52,8.29475 51.3259594,7.453875 50.3226811,7.23325 L50.3226811,7.23325 Z M16.6258791,55.54725 L19.2354985,48.24525 L25.9896024,48.24525 L28.5992217,55.54725 L16.6258791,55.54725 Z M35.8413295,11.41825 L37.2139417,11.72 L35.3199535,17.56825 L31.4820436,18.819625 L23.5465942,13.032125 L23.5465942,8.981 L30.9119793,3.608625 C32.9144267,4.48625 34.7440367,5.662 36.3731654,7.116375 L35.8415786,7.23325 C34.8383003,7.453875 34.1642596,8.29475 34.1641351,9.32575 C34.1640106,10.356625 34.8380512,11.197625 35.8413295,11.41825 L35.8413295,11.41825 Z M42.8843257,18.269125 C43.1809385,19.644375 43.3380859,21.053 43.3532777,22.47075 L37.1589028,17.954375 L39.0475365,12.123125 L39.9045008,12.311625 C40.0057376,12.333875 40.0854321,12.413875 40.1075971,12.515375 L40.9975598,16.594125 C41.2030221,17.53575 41.9487877,18.18825 42.8843257,18.269125 L42.8843257,18.269125 Z M28.8129025,2.82175 L22.612675,7.344375 L16.4119494,2.8215 C18.4085442,2.193875 20.4867012,1.875 22.6120523,1.875 C24.7376525,1.875 26.8160586,2.193875 28.8129025,2.82175 Z M22.6125504,14.6685 L30.2202565,20.217 L27.3142734,29.194625 L17.910703,29.194625 L15.0048444,20.217 L22.6125504,14.6685 Z M27.077556,43.036375 C24.6027946,43.5795 22.0061256,43.663375 19.4952526,43.28625 L20.7762162,43.004625 C21.8249452,42.774125 22.5294939,41.895125 22.5294939,40.8175 C22.5294939,39.73975 21.8249452,38.86075 20.7762162,38.630125 L16.3859242,37.66475 C16.2480777,37.634375 16.1393695,37.525375 16.1091105,37.386875 L15.4203762,34.2305 L17.7082293,31.0695 L27.5172452,31.0695 L29.8892755,34.346875 L27.077556,43.036375 Z M1.87032891,22.471875 C1.9166513,18.22075 3.26161951,14.087375 5.69840156,10.6425 L8.0655755,17.954125 L1.87032891,22.471875 Z M1.96720746,24.718875 L9.32761168,19.351375 L13.1658952,20.602875 L16.1970234,29.9675 L14.7003867,32.035375 C14.2930734,31.526875 13.6743208,31.219875 12.9685269,31.219875 C11.8950179,31.219875 11.0193752,31.927125 10.7896311,32.979875 L10.7317281,33.245 L4.72438607,33.245 C3.20272034,30.647875 2.25622433,27.72175 1.96720746,24.718875 L1.96720746,24.718875 Z M5.96600055,35.12 L10.322547,35.12 L9.82781882,37.387 C9.79755984,37.525375 9.68897616,37.6345 9.55112968,37.664875 L8.44835786,37.907375 C7.53759983,37.051625 6.70728337,36.11925 5.96600055,35.12 L5.96600055,35.12 Z M32.7625091,44.64625 C32.7625091,45.59675 31.9915899,46.37 31.0439732,46.37 L15.6460111,46.37 L16.0693878,44.42975 C16.440465,44.542 16.8178929,44.647 17.1999282,44.741625 C18.962047,45.176 20.7831895,45.396125 22.612675,45.396125 C24.4421605,45.396125 26.263303,45.175875 28.0256708,44.7415 C29.6828171,44.332625 31.2686119,43.744 32.7625091,42.99325 L32.7625091,44.64625 Z M29.2350339,42.43775 L31.602955,35.119875 L39.2627115,35.119875 C36.7292999,38.54925 33.2521319,41.086625 29.2350339,42.43775 Z M40.5003412,33.244875 L31.4002323,33.244875 L29.028202,29.9675 L32.0594547,20.602875 L35.8969911,19.351625 L43.2576444,24.718375 C42.9691256,27.7195 42.0225051,30.64675 40.5003412,33.244875 L40.5003412,33.244875 Z" id="Shape" stroke="#303337" stroke-width="0.2" fill="#303337"></path>
                        <path d="M13.3227936,48.253875 C13.2711168,48.490375 13.1016415,48.54 12.9685269,48.54 C12.8354123,48.54 12.6658126,48.490375 12.6141357,48.253875 L11.6524479,43.846625 C11.4666603,42.995375 10.7988458,42.325 9.95084711,42.1385 L5.56043056,41.173125 C5.32483387,41.12125 5.27539841,40.951125 5.27539841,40.8175 C5.27539841,40.683875 5.32483387,40.513625 5.56043056,40.46175 L9.95084711,39.496375 C10.7988458,39.309875 11.4666603,38.6395 11.6524479,37.788125 L12.6141357,33.381 C12.6658126,33.144375 12.8352878,33.09475 12.9685269,33.09475 C13.1016415,33.09475 13.2712413,33.144375 13.3227936,33.381 L14.2844814,37.78825 C14.470269,38.6395 15.1380835,39.309875 15.9862067,39.496375 L20.3764988,40.46175 C20.61222,40.513625 20.6616554,40.68375 20.6616554,40.8175 C20.6616554,40.951125 20.61222,41.121375 20.3764988,41.173125 L15.9860822,42.1385 C15.1380835,42.325 14.470269,42.995375 14.2844814,43.846625 L13.3227936,48.253875 Z" id="Path" fill="#F0AA3B"></path>
                        <path d="M49.9230882,9.586625 L45.8599169,10.48 C45.0485279,10.658375 44.4096026,11.299875 44.2320334,12.114125 L43.3420707,16.192875 C43.3307391,16.244875 43.2962464,16.402875 43.0820676,16.402875 C42.8680133,16.402875 42.8335205,16.244875 42.822189,16.192875 L41.9322262,12.114 C41.754408,11.29975 41.1153582,10.658375 40.3043427,10.48 L36.2410469,9.586625 C36.1893701,9.57525 36.031849,9.540625 36.031849,9.32575 C36.031849,9.110875 36.1893701,9.07625 36.2410469,9.064875 L40.3044672,8.171375 C41.1154827,7.993 41.7545325,7.351625 41.9322262,6.53725 L42.822189,2.458375 C42.8335205,2.4065 42.8680133,2.2485 43.0820676,2.2485 C43.2962464,2.2485 43.3307391,2.4065 43.3420707,2.458375 L44.2320334,6.537125 C44.4096026,7.3515 45.0486524,7.993 45.8599169,8.171375 L49.9230882,9.064875 C49.974765,9.07625 50.1322861,9.110875 50.1322861,9.32575 C50.1322861,9.540625 49.974765,9.57525 49.9230882,9.586625 Z" id="Path" fill="#F0AA3B"></path>
                    </g>
                </g>
            </g>
        </g>
    </g>
</svg>