<?xml version="1.0" encoding="UTF-8"?>
<svg width="64px" height="64px" viewBox="0 0 64 64" version="1.1" xmlns="http://www.w3.org/2000/svg" xmlns:xlink="http://www.w3.org/1999/xlink">
    <title>ico_5@1x</title>
    <g id="Page-1" stroke="none" stroke-width="1" fill="none" fill-rule="evenodd">
        <g id="ШФ_Страница-клуба" transform="translate(-648.000000, -1724.000000)">
            <g id="ico_5" transform="translate(648.000000, 1724.000000)">
                <path d="M15.483871,33.0322581 C24.0216774,33.0322581 30.9677419,39.9783226 30.9677419,48.516129 C30.9677419,57.0539355 24.0216774,64 15.483871,64 C6.94606452,64 0,57.0539355 0,48.516129 C0,39.9783226 6.94606452,33.0322581 15.483871,33.0322581 Z M48.516129,0 C53.0694194,0 56.7741935,3.70477419 56.7741935,8.25806452 L56.7741935,8.25806452 L56.7741935,11.3548387 C56.7741935,14.272 55.419871,16.8763871 53.3109677,18.5806452 L53.3109677,18.5806452 L54.7096774,18.5806452 C59.8327742,18.5806452 64,22.747871 64,27.8709677 L64,27.8709677 L64,38.1935484 C64,41.6092903 61.2221935,44.3870968 57.8064516,44.3870968 L57.8064516,44.3870968 L57.8064516,64 L37.1612903,64 L37.1612903,44.3870968 C33.7455484,44.3870968 30.9677419,41.6092903 30.9677419,38.1935484 L30.9677419,38.1935484 L30.9677419,27.8709677 C30.9677419,22.747871 35.1349677,18.5806452 40.2580645,18.5806452 L40.2580645,18.5806452 L41.6567742,18.5806452 C39.547871,16.8763871 38.1935484,14.272 38.1935484,11.3548387 L38.1935484,11.3548387 L38.1935484,8.25806452 C38.1935484,3.70477419 41.8983226,0 46.4516129,0 L46.4516129,0 Z M18.0645161,53.6774194 L12.9032258,53.6774194 L10.464,56.9290323 L12.3086452,61.540129 C13.3285161,61.7889032 14.3886452,61.9354839 15.483871,61.9354839 C16.5790968,61.9354839 17.6392258,61.7889032 18.6590968,61.540129 L18.6590968,61.540129 L20.5037419,56.9290323 L18.0645161,53.6774194 Z M46.4516129,51.6129032 L39.2258065,51.6129032 L39.2258065,61.9354839 L46.4516129,61.9354839 L46.4516129,51.6129032 Z M55.7419355,51.6129032 L48.516129,51.6129032 L48.516129,61.9354839 L55.7419355,61.9354839 L55.7419355,51.6129032 Z M8.59148387,57.8064516 L5.82296774,57.8064516 C6.93470968,58.9625806 8.25187097,59.9122581 9.71354839,60.6131613 L9.71354839,60.6131613 L8.59148387,57.8064516 Z M25.1447742,57.8064516 L22.3762581,57.8064516 L21.2531613,60.6131613 C22.715871,59.9122581 24.0330323,58.9625806 25.1447742,57.8064516 L25.1447742,57.8064516 Z M6.36903226,46.6012903 L2.14812903,49.9778065 C2.37729032,52.0846452 3.10193548,54.0418065 4.19406452,55.7419355 L4.19406452,55.7419355 L8.77419355,55.7419355 L11.2856774,52.3953548 L10.4526452,48.2343226 L6.36903226,46.6012903 Z M24.6833548,46.5672258 L20.516129,48.2343226 L19.6830968,52.3953548 L22.1935484,55.7419355 L26.7747097,55.7419355 C28.0196129,53.8033548 28.772129,51.5272258 28.8753548,49.0828387 L28.8753548,49.0828387 L24.6833548,46.5672258 Z M15.483871,45.6774194 L12.4944516,47.9194839 L13.2335484,51.6129032 L17.7352258,51.6129032 L18.4732903,47.9194839 L15.483871,45.6774194 Z M3.73367742,42.0490323 C2.85006452,43.6469677 2.28851613,45.444129 2.12335484,47.3538065 L2.12335484,47.3538065 L4.95070968,45.092129 Z M27.2340645,42.048 L26.0593548,44.9868387 L28.7504516,46.6012903 C28.5150968,44.9723871 28,43.4343226 27.2340645,42.048 L27.2340645,42.048 Z M10.788129,35.9618065 C8.56670968,36.7948387 6.61677419,38.1873548 5.1323871,39.9865806 L5.1323871,39.9865806 L6.9883871,44.6255484 L11.2,46.3101935 L14.4516129,43.8709677 L14.4516129,38.7096774 Z M20.1796129,35.9618065 L16.516129,38.7096774 L16.516129,43.8709677 L19.7677419,46.3091613 L23.9793548,44.6245161 L25.8353548,39.9855484 C24.3509677,38.1873548 22.4010323,36.7948387 20.1796129,35.9618065 L20.1796129,35.9618065 Z M37.1612903,36.1290323 L33.0322581,36.1290323 L33.0322581,38.1935484 C33.0322581,40.4707097 34.884129,42.3225806 37.1612903,42.3225806 L37.1612903,42.3225806 L37.1612903,36.1290323 Z M61.9354839,36.1290323 L57.8064516,36.1290323 L57.8064516,42.3225806 C60.0836129,42.3225806 61.9354839,40.4707097 61.9354839,38.1935484 L61.9354839,38.1935484 L61.9354839,36.1290323 Z M15.483871,35.0967742 C14.747871,35.0967742 14.0314839,35.172129 13.3274839,35.2867097 L13.3274839,35.2867097 L15.483871,36.9032258 L17.6402581,35.2867097 C16.9362581,35.172129 16.219871,35.0967742 15.483871,35.0967742 Z M37.1612903,32 L33.0322581,32 L33.0322581,34.0645161 L37.1612903,34.0645161 L37.1612903,32 Z M61.9354839,32 L57.8064516,32 L57.8064516,34.0645161 L61.9354839,34.0645161 L61.9354839,32 Z M50.3907097,20.6451613 L44.5770323,20.6451613 C45.0043871,21.8436129 46.139871,22.7096774 47.483871,22.7096774 C48.827871,22.7096774 49.9633548,21.8436129 50.3907097,20.6451613 L50.3907097,20.6451613 Z M50.5806452,8.25806452 L44.3870968,8.25806452 C43.6459355,8.25806452 43.0028387,8.75974194 42.8221935,9.47922581 L42.8221935,9.47922581 L42.7932903,9.59896774 C42.4743226,10.8748387 41.5163871,11.8420645 40.3138065,12.2147097 C40.7411613,15.7935484 43.7914839,18.5806452 47.483871,18.5806452 C51.1762581,18.5806452 54.2265806,15.7945806 54.6539355,12.2147097 C53.4513548,11.8420645 52.4934194,10.875871 52.1754839,9.60206452 L52.1754839,9.60206452 L52.1445161,9.47612903 C51.9649032,8.75974194 51.3218065,8.25806452 50.5806452,8.25806452 L50.5806452,8.25806452 Z M48.516129,2.06451613 L46.4516129,2.06451613 C43.035871,2.06451613 40.2580645,4.84232258 40.2580645,8.25806452 L40.2580645,8.25806452 L40.2580645,9.93858065 C40.5109677,9.72490323 40.7050323,9.44103226 40.7907097,9.10141935 L40.7907097,9.10141935 L40.8196129,8.98167742 C41.2294194,7.33832258 42.6962581,6.19354839 44.3870968,6.19354839 L44.3870968,6.19354839 L50.5806452,6.19354839 C52.2714839,6.19354839 53.7383226,7.33832258 54.1470968,8.97858065 L54.1470968,8.97858065 L54.1780645,9.10451613 C54.2627097,9.44206452 54.4567742,9.72593548 54.7096774,9.93858065 L54.7096774,9.93858065 L54.7096774,8.25806452 C54.7096774,4.84232258 51.931871,2.06451613 48.516129,2.06451613 L48.516129,2.06451613 Z" id="Combined-Shape" fill="#303337" fill-rule="nonzero"></path>
                <polygon id="Path" fill="#F0AA3B" points="55.7419355 49.5483871 48.516129 49.5483871 48.516129 46.4516129 46.4516129 46.4516129 46.4516129 49.5483871 39.2258065 49.5483871 39.2258065 42.3225806 55.7419355 42.3225806"></polygon>
                <path d="M61.9354839,29.9354839 L57.8064516,29.9354839 L57.8064516,25.8064516 L55.7419355,25.8064516 L55.7419355,40.2580645 L39.2258065,40.2580645 L39.2258065,25.8064516 L37.1612903,25.8064516 L37.1612903,29.9354839 L33.0322581,29.9354839 L33.0322581,27.8709677 C33.0322581,23.8874839 36.2745806,20.6451613 40.2580645,20.6451613 L42.4268387,20.6451613 C42.9068387,22.9976774 44.9909677,24.7741935 47.483871,24.7741935 C49.9767742,24.7741935 52.0609032,22.9976774 52.5409032,20.6451613 L54.7096774,20.6451613 C58.6931613,20.6451613 61.9354839,23.8874839 61.9354839,27.8709677 L61.9354839,29.9354839 Z" id="Path" fill="#F0AA3B"></path>
            </g>
        </g>
    </g>
</svg>