<?xml version="1.0" encoding="UTF-8"?>
<svg width="66px" height="66px" viewBox="0 0 66 66" version="1.1" xmlns="http://www.w3.org/2000/svg" xmlns:xlink="http://www.w3.org/1999/xlink">
    <title>ico_6@1x</title>
    <g id="Page-1" stroke="none" stroke-width="1" fill="none" fill-rule="evenodd">
        <g id="ШФ_Страница-клуба" transform="translate(-1067.000000, -1723.000000)" fill-rule="nonzero" stroke-width="0.5">
            <g id="ico_6" transform="translate(1068.000000, 1724.000000)">
                <path d="M29.2562169,1.62711864 C30.8332786,1.62711864 32.1960928,2.56002345 32.8190971,3.90186089 C33.484951,3.38287416 34.3225776,3.07327689 35.2310371,3.07327689 C37.3948747,3.07327689 39.1554522,4.82965559 39.1554522,6.98848582 L39.1554522,6.98848582 L39.1554522,11.1233044 C39.6795154,10.8315302 40.2829065,10.665265 40.9245247,10.665265 C42.9332046,10.665265 44.5674823,12.2956361 44.5674823,14.2997923 L44.5674823,14.2997923 L44.5674823,18.8406769 C44.5674823,19.3569216 44.1481068,19.7754512 43.6305397,19.7754512 C43.1129727,19.7754512 42.6935972,19.3569216 42.6935972,18.8406769 L42.6935972,18.8406769 L42.6935972,14.2997923 C42.6935972,13.3266299 41.8999444,12.5348137 40.9245247,12.5348137 C39.9491051,12.5348137 39.1554522,13.3265052 39.1554522,14.2997923 L39.1554522,14.2997923 L39.1553273,27.3943608 C39.1553273,27.9106055 38.7359518,28.3291351 38.2183848,28.3291351 C37.7008177,28.3291351 37.2814422,27.9106055 37.2814422,27.3943608 L37.2814422,27.3943608 L37.2815671,6.98848582 C37.2815671,5.86052476 36.3617394,4.94282561 35.2310371,4.94282561 C34.1003348,4.94282561 33.1805071,5.86052476 33.1805071,6.98848582 L33.1805071,6.98848582 L33.180632,25.9844718 C33.180632,26.5007165 32.7612565,26.9192461 32.2436895,26.9192461 C31.7261224,26.9192461 31.3067469,26.5007165 31.3067469,25.9844718 L31.3067469,25.9844718 L31.306622,5.5424522 C31.306622,4.41436651 30.3867942,3.49666736 29.2562169,3.49666736 C28.1256395,3.49666736 27.2058118,4.41449114 27.2058118,5.5424522 L27.2058118,5.5424522 L27.2058118,26.6894163 C27.2058118,27.205661 26.7864363,27.6241906 26.2688692,27.6241906 C25.7513022,27.6241906 25.3319267,27.205661 25.3319267,26.6894163 L25.3319267,26.6894163 L25.3319267,9.88067768 C25.3319267,8.75259198 24.4120989,7.83489284 23.2813967,7.83489284 C22.1508193,7.83489284 21.2309916,8.75271662 21.2309916,9.88067768 L21.2309916,9.88067768 L21.2309916,32.9536508 C21.986667,33.0622093 23.0973811,33.3264389 24.2120929,33.9599666 C24.8027415,32.0634964 26.139821,30.5698516 28.0249494,29.7234446 C32.1988411,27.8494089 35.4791395,29.9056632 37.063197,31.2981031 C37.4242322,31.6154279 37.9681586,31.6151786 38.328944,31.2981031 C39.2560174,30.4831045 40.7651196,29.4418905 42.6937221,29.093282 L42.6937221,29.093282 L42.6937221,23.3184953 C42.6937221,22.8022506 43.1130976,22.3837209 43.6306647,22.3837209 C44.1482317,22.3837209 44.5676072,22.8022506 44.5676072,23.3184953 L44.5676072,23.3184953 L44.5676072,28.9946945 C45.4439608,29.059007 46.3801538,29.2802369 47.3669417,29.7233199 C49.985134,30.8986429 51.5004825,33.269106 51.5251374,36.2268567 C51.5458305,38.7698169 50.4442359,41.5821167 48.4230634,44.1457665 C47.0789881,45.8506703 45.3473933,47.4275724 43.3111048,48.8192644 C42.9829251,50.8299018 42.7916638,52.8794257 42.7379458,54.9189787 C44.1096297,55.3224273 45.1140321,56.5894828 45.1140321,58.0868667 L45.1140321,58.0868667 L45.1140321,61.8810535 C45.1140321,63.0493968 44.1613489,64 42.9904206,64 L42.9904206,64 L24.9691425,64 C24.4515754,64 24.0322,63.5813457 24.0322,63.065101 C24.0322,62.5488563 24.4515754,62.1303266 24.9691425,62.1303266 L24.9691425,62.1303266 L26.6251573,62.1303266 L26.6251573,56.6537953 L19.4445544,56.6537953 C18.6524007,56.6537953 18.0080341,57.2966708 18.0080341,58.0869913 L18.0080341,58.0869913 L18.0080341,61.8811781 C18.0080341,62.0186523 18.1200924,62.1304513 18.2578854,62.1304513 L18.2578854,62.1304513 L20.4809378,62.1304513 C20.9985049,62.1304513 21.4178804,62.5489809 21.4178804,63.0652256 C21.4178804,63.5814704 20.9985049,64 20.4809378,64 L20.4809378,64 L18.2578854,64 C17.0868322,64 16.134149,63.0495214 16.134149,61.8811781 L16.134149,61.8811781 L16.134149,58.0869913 C16.134149,56.4622289 17.3165705,55.1086756 18.8677726,54.8354722 L18.8677726,54.8354722 L18.8677726,51.6161093 C18.8677726,50.551339 18.4522698,49.5503826 17.6975938,48.797453 L17.6975938,48.797453 L14.4708885,45.5780901 C13.1836544,44.2937102 12.4745763,42.5860644 12.4745763,40.7696108 L12.4745763,40.7696108 L12.4745763,22.9956866 C12.4745763,21.4847173 13.7065933,20.2555513 15.2210672,20.2555513 C16.8219897,20.2555513 18.278873,20.8834704 19.3571064,21.9052411 L19.3571064,21.9052411 L19.3571064,9.88080232 C19.3571064,7.72184746 21.1175591,5.96546876 23.2813967,5.96546876 C24.0324498,5.96546876 24.7349069,6.17710167 25.3319267,6.54353322 L25.3319267,6.54353322 L25.3319267,5.5424522 C25.3319267,3.38349734 27.0923793,1.62711864 29.2562169,1.62711864 Z M41.8036267,56.6537953 L28.4990424,56.6537953 L28.4990424,62.1303266 L42.9904206,62.1303266 C43.1282136,62.1303266 43.240147,62.0185276 43.240147,61.8810535 L43.240147,61.8810535 L43.240147,58.0868667 C43.240147,57.2965461 42.5957804,56.6536706 41.8036267,56.6537953 L41.8036267,56.6537953 Z M15.2210672,22.1249754 C14.7399784,22.1249754 14.3484614,22.5154618 14.3484614,22.9955619 L14.3484614,22.9955619 L14.3484614,40.7696108 C14.3484614,42.0866456 14.8625305,43.3247854 15.7959752,44.2560699 L15.7959752,44.2560699 L19.0228053,47.4754328 C20.1312709,48.5813332 20.7417826,50.0517956 20.7417826,51.6159847 L20.7417826,51.6159847 L20.7417826,54.7841219 L40.8671838,54.7841219 C40.9110327,53.2270371 41.0318359,51.6647176 41.2298431,50.1171051 C40.5120201,50.5244175 39.765964,50.9111648 38.9924242,51.2738573 C38.5805443,51.4669193 38.1383074,51.5635127 37.6960705,51.5635127 C37.2539586,51.5635127 36.8117217,51.4669193 36.3998417,51.2738573 C34.2282587,50.255701 32.2671755,49.0580681 30.5709347,47.7141119 C30.1656758,47.393048 30.098091,46.8051373 30.4198995,46.4008162 C30.7417081,45.9963705 31.3313573,45.9290667 31.7362414,46.2501306 C33.3191746,47.5040992 35.1563316,48.6250806 37.1967426,49.5816664 C37.5141787,49.7303578 37.8780872,49.7302332 38.1955234,49.5816664 C41.8879515,47.8507136 44.9152754,45.5712351 46.9503146,42.9898869 C48.709393,40.7586428 49.6685724,38.3622553 49.6511962,36.242187 C49.6327187,34.0135603 48.5483638,32.3039203 46.5978993,31.4282237 C43.5437164,30.0568474 41.0891768,31.3632881 39.567707,32.7007632 C38.5005919,33.6387781 36.8912993,33.6387781 35.8244341,32.7007632 C34.3030892,31.3634127 31.8481748,30.0570967 28.7941168,31.4282237 C27.2708981,32.1121046 26.2701185,33.3053753 25.9000886,34.8790367 C25.316311,37.3615482 26.3237116,40.4176371 28.6638193,43.2635888 C28.9919991,43.6626752 28.9336588,44.2517076 28.5336468,44.5791279 C28.1336348,44.9064236 27.543236,44.8484676 27.2149314,44.4492566 C24.9385357,41.6807042 23.7672326,38.669983 23.8731696,35.9684851 C22.2446385,34.7506611 20.3237813,34.7454263 20.3036683,34.746922 C20.0504439,34.746922 19.8110863,34.6492069 19.6355658,34.4750896 C19.4585461,34.2996013 19.3571064,34.0610469 19.3571064,33.8121476 L19.3571064,33.8121476 L19.3571064,26.2514433 C19.3571064,23.9762025 17.5017103,22.1249754 15.2210672,22.1249754 Z M56.4067797,0 C57.0397013,0 57.6069017,0.353493271 57.886926,0.922618674 L57.886926,0.922618674 L59.3388356,3.87272341 L62.5854412,4.34577877 C63.2118277,4.43690312 63.7224313,4.86866196 63.9179922,5.47215991 C64.113553,6.07578151 63.9535038,6.72576896 63.5003601,7.16890288 L63.5003601,7.16890288 L61.1509175,9.46518726 L61.7056641,12.7073351 C61.8126924,13.332965 61.561028,13.9531546 61.0489447,14.3261834 C60.5368615,14.6992121 59.8705243,14.747309 59.3107222,14.4520512 L59.3107222,14.4520512 L56.4067797,12.9212362 L53.5028371,14.4521749 C53.2593108,14.5806392 52.9954394,14.6440678 52.7331709,14.6440678 C52.3924807,14.6440678 52.0541334,14.5371171 51.7647379,14.326307 C51.2526546,13.9534019 51.0009903,13.3330886 51.1078952,12.7075823 L51.1078952,12.7075823 L51.6626418,9.46506362 L49.3131992,7.16877924 C48.8600555,6.72576896 48.7000063,6.07565787 48.8955672,5.47215991 C49.091128,4.86866196 49.6017316,4.43702677 50.2279948,4.34577877 L50.2279948,4.34577877 L53.4747237,3.87272341 L54.9266333,0.922618674 C55.206781,0.353493271 55.773858,0 56.4067797,0 Z M7.59315869,0 C8.22607517,0 8.79327094,0.353493271 9.07329302,0.922618674 L9.07329302,0.922618674 L10.5253142,3.87284705 L13.7718934,4.34590241 C14.3982748,4.43702677 14.9088743,4.8687856 15.1044335,5.47228355 C15.2999927,6.07578151 15.1399449,6.7258926 14.6868048,7.16890288 L14.6868048,7.16890288 L12.3373813,9.46518726 L12.8920001,12.7075823 C12.9990275,13.3332123 12.7473652,13.9534019 12.2352861,14.3261834 C11.723207,14.6992121 11.0569985,14.747309 10.4970777,14.4520512 L10.4970777,14.4520512 L7.59315869,12.9212362 L4.68923969,14.4521749 C4.44571543,14.5806392 4.18184609,14.6440678 3.9195797,14.6440678 C3.57889234,14.6440678 3.24054774,14.5371171 2.95115459,14.326307 C2.43907546,13.9534019 2.18741317,13.3330886 2.29431724,12.7075823 L2.29431724,12.7075823 L2.84905936,9.46506362 L0.49963587,7.16877924 C0.0464957782,6.72576896 -0.113552069,6.07565787 0.082007165,5.47215991 C0.277566399,4.86866196 0.788165888,4.43702677 1.41442399,4.34577877 L1.41442399,4.34577877 L4.66112651,3.87272341 L6.11302436,0.922618674 C6.39316974,0.353493271 6.9602422,0 7.59315869,0 Z" id="Combined-Shape" stroke="#303337" fill="#303337"></path>
                <path d="M59.5117085,8.47740911 C59.2937062,8.69044475 59.1943229,8.99744852 59.2458641,9.29827019 L59.8144208,12.6227637 L56.8371121,11.053125 C56.7023404,10.9821544 56.5546217,10.946669 56.4067797,10.946669 C56.2589377,10.946669 56.1112189,10.9821544 55.9764472,11.053125 L52.9991385,12.6227637 L53.5676952,9.29827019 C53.6192365,8.99744852 53.5197298,8.69044475 53.3018509,8.47740911 L50.8930989,6.12301286 L54.2218252,5.63796421 C54.5230579,5.5940712 54.7834769,5.40440394 54.9181253,5.13065994 L56.4067797,2.10599891 L57.895434,5.13065994 C58.0302058,5.4042803 58.2905014,5.5940712 58.5917341,5.63796421 L61.9204604,6.12301286 L59.5117085,8.47740911 Z" id="Path" stroke="#F0AA3B" fill="#F0AA3B"></path>
                <path d="M10.6981856,8.47740911 C10.4801851,8.69044475 10.3808026,8.99744852 10.4323434,9.29827019 L11.0008955,12.6227637 L8.02348765,11.0530014 C7.888717,10.9820307 7.7409995,10.9465454 7.59315869,10.9465454 C7.44531788,10.9465454 7.29760037,10.9820307 7.16282973,11.0530014 L4.1855452,12.6226401 L4.75409729,9.29814654 C4.80563813,8.99732488 4.70613226,8.69032111 4.48825511,8.47728546 L2.07939937,6.12288922 L5.40809867,5.63784056 C5.70932894,5.59394756 5.96974578,5.4042803 6.10439312,5.1305363 L7.59303538,2.10587527 L9.08167765,5.1305363 C9.2164483,5.40415666 9.47674183,5.59394756 9.7779721,5.63784056 L13.1066714,6.12288922 L10.6981856,8.47740911 Z" id="Path" stroke="#F0AA3B" fill="#F0AA3B"></path>
            </g>
        </g>
    </g>
</svg>