<?xml version="1.0" encoding="UTF-8"?>
<svg width="66px" height="66px" viewBox="0 0 66 66" version="1.1" xmlns="http://www.w3.org/2000/svg" xmlns:xlink="http://www.w3.org/1999/xlink">
    <title>business</title>
    <g id="Page-1" stroke="none" stroke-width="1" fill="none" fill-rule="evenodd">
        <g id="ШФ_Стартовая" transform="translate(-943.000000, -1639.000000)" fill-rule="nonzero">
            <g id="Group-70" transform="translate(72.000000, 960.000000)">
                <g id="Group-64" transform="translate(840.000000, 640.000000)">
                    <g id="business" transform="translate(32.000000, 40.000000)">
                        <path d="M49.2370338,0 C51.3042394,0 52.9860465,1.68225 52.9860465,3.75 L52.9860465,3.75 L52.9860465,17.34375 C52.9860465,18.034125 52.4264439,18.59375 51.7363756,18.59375 C51.0463073,18.59375 50.4867047,18.034125 50.4867047,17.34375 L50.4867047,17.34375 L50.4867047,3.75 C50.4867047,3.06075 49.9261023,2.5 49.2370338,2.5 L49.2370338,2.5 L3.74901272,2.5 C3.05994419,2.5 2.49934182,3.06075 2.49934182,3.75 L2.49934182,3.75 L2.49934182,60.25 C2.49934182,60.93925 3.05994419,61.5 3.74901272,61.5 L3.74901272,61.5 L49.2370338,61.5 C49.9261023,61.5 50.4867047,60.93925 50.4867047,60.25 L50.4867047,60.25 L50.4867047,51.041 C50.4867047,50.350625 51.0463073,49.791 51.7363756,49.791 C52.4264439,49.791 52.9860465,50.350625 52.9860465,51.041 L52.9860465,51.041 L52.9860465,60.25 C52.9860465,62.31775 51.3042394,64 49.2370338,64 L49.2370338,64 L3.74901272,64 C1.68180711,64 0,62.31775 0,60.25 L0,60.25 L0,3.75 C0,1.68225 1.68180711,0 3.74901272,0 L3.74901272,0 Z M33.2832181,54.772093 C33.9718195,54.772093 34.5302326,55.3051684 34.5302326,55.9627907 C34.5302326,56.620413 33.9718195,57.1534884 33.2832181,57.1534884 L33.2832181,57.1534884 L26.54934,57.1534884 C25.8607387,57.1534884 25.3023256,56.620413 25.3023256,55.9627907 C25.3023256,55.3051684 25.8607387,54.772093 26.54934,54.772093 L26.54934,54.772093 Z M57.3946421,15.6602099 C58.7488969,15.2972592 60.1631297,15.4835481 61.3770607,16.1848193 C63.8831443,17.6326212 64.7448292,20.8505423 63.2978583,23.3580653 L63.2978583,23.3580653 L47.5734837,50.6091235 C47.4873901,50.7585297 47.3711826,50.8884318 47.2323584,50.9907031 L47.2323584,50.9907031 L39.1997959,56.9099376 C38.9805011,57.0715963 38.7200963,57.1534884 38.4586919,57.1534884 C38.2436455,57.1534884 38.0280994,57.0979768 37.8340453,56.9859534 C37.4042025,56.7375266 37.1620411,56.2580516 37.217021,55.7644487 L37.217021,55.7644487 L38.3238662,45.8443798 C38.3429842,45.6729691 38.3974643,45.5073095 38.4835578,45.3579034 L38.4835578,45.3579034 L54.2080574,18.1068451 C54.9088012,16.8922168 56.0406373,16.0232856 57.3946421,15.6602099 Z M40.5955355,48.0217089 L40.0174968,53.2017892 L44.2119629,50.1108946 L40.5955355,48.0217089 Z M33.280735,47.9255814 C33.9707076,47.9255814 34.5302326,48.4586567 34.5302326,49.1162791 C34.5302326,49.7739014 33.9707076,50.3069767 33.280735,50.3069767 L33.280735,50.3069767 L15.5378697,50.3069767 C14.8478971,50.3069767 14.2883721,49.7739014 14.2883721,49.1162791 C14.2883721,48.4586567 14.8478971,47.9255814 15.5378697,47.9255814 L15.5378697,47.9255814 Z M10.1203352,47.9255814 C10.4345223,47.9255814 10.7403786,48.052986 10.9628088,48.2744558 C11.1842869,48.4959256 11.3116279,48.8031256 11.3116279,49.1162791 C11.3116279,49.4294326 11.1841679,49.7366326 10.9628088,49.9581023 C10.7415688,50.1795721 10.4345223,50.3069767 10.1203352,50.3069767 C9.80721918,50.3069767 9.5001727,50.1795721 9.27893263,49.9581023 C9.05745453,49.7366326 8.93023256,49.4294326 8.93023256,49.1162791 C8.93023256,48.8031256 9.05757354,48.4959256 9.27893263,48.2744558 C9.50148182,48.052986 9.80721918,47.9255814 10.1203352,47.9255814 Z M53.8911733,23.6571277 L41.2726628,45.5254383 L46.0340466,48.276012 L58.6525571,26.4077013 L53.8911733,23.6571277 Z M33.280735,40.7813953 C33.9707076,40.7813953 34.5302326,41.3144707 34.5302326,41.972093 C34.5302326,42.6297153 33.9707076,43.1627907 33.280735,43.1627907 L33.280735,43.1627907 L15.5378697,43.1627907 C14.8478971,43.1627907 14.2883721,42.6297153 14.2883721,41.972093 C14.2883721,41.3144707 14.8478971,40.7813953 15.5378697,40.7813953 L15.5378697,40.7813953 Z M10.1203352,40.7813953 C10.4345223,40.7813953 10.7403786,40.9088 10.9628088,41.1302698 C11.1842869,41.3517395 11.3116279,41.6589395 11.3116279,41.972093 C11.3116279,42.2852465 11.1841679,42.5924465 10.9628088,42.8139163 C10.7403786,43.035386 10.4345223,43.1627907 10.1203352,43.1627907 C9.80721918,43.1627907 9.50148182,43.035386 9.27893263,42.8139163 C9.05745453,42.5924465 8.93023256,42.2852465 8.93023256,41.972093 C8.93023256,41.6589395 9.05757354,41.3517395 9.27893263,41.1302698 C9.50148182,40.9088 9.80721918,40.7813953 10.1203352,40.7813953 Z M10.1203352,33.9348837 C10.4345223,33.9348837 10.7415688,34.0622884 10.9628088,34.2837581 C11.1842869,34.5052279 11.3116279,34.8124279 11.3116279,35.1255814 C11.3116279,35.4387349 11.1841679,35.7459349 10.9628088,35.9674047 C10.7403786,36.1888744 10.4345223,36.3162791 10.1203352,36.3162791 C9.80721918,36.3162791 9.50148182,36.1888744 9.27893263,35.9674047 C9.05745453,35.7459349 8.93023256,35.4387349 8.93023256,35.1255814 C8.93023256,34.8124279 9.05757354,34.5052279 9.27893263,34.2837581 C9.5001727,34.0622884 9.80721918,33.9348837 10.1203352,33.9348837 Z M33.280735,33.9348837 C33.9707076,33.9348837 34.5302326,34.4679591 34.5302326,35.1255814 C34.5302326,35.7832037 33.9707076,36.3162791 33.280735,36.3162791 L33.280735,36.3162791 L15.5378697,36.3162791 C14.8478971,36.3162791 14.2883721,35.7832037 14.2883721,35.1255814 C14.2883721,34.4679591 14.8478971,33.9348837 15.5378697,33.9348837 L15.5378697,33.9348837 Z M26.6418605,6.84651163 C32.9611858,6.84651163 38.1023256,11.9876793 38.1023256,18.307039 C38.1023256,21.5853727 36.7183498,24.5461751 34.5042378,26.6369739 C34.4627559,26.6811966 34.418658,26.7233016 34.3704493,26.7615448 C32.3311094,28.6273685 29.6170969,29.7674419 26.6417359,29.7674419 C23.6663749,29.7674419 20.9523624,28.6274931 18.9130224,26.7615448 C18.8648138,26.7233016 18.8207159,26.6813211 18.779234,26.6369739 C16.5653711,24.5461751 15.1813953,21.5853727 15.1813953,18.307039 C15.1813953,11.9876793 20.3225351,6.84651163 26.6418605,6.84651163 Z M60.1273927,18.3503959 C59.4916252,17.9830693 58.7508961,17.8852989 58.0414056,18.0755886 C57.3321649,18.2657533 56.7393817,18.7208482 56.372266,19.3571059 L56.372266,19.3571059 L55.1405914,21.4916761 L59.9019752,24.2422497 L61.1336498,22.1076795 C61.5007655,21.4714218 61.5982299,20.7301422 61.4081744,20.0204942 C61.2181189,19.3108462 60.7632852,18.7177225 60.1273927,18.3503959 Z M26.6418605,9.33793063 C21.6962961,9.33793063 17.6728008,13.3614477 17.6728008,18.307039 C17.6728008,20.2960634 18.3244279,22.1351043 19.4242588,23.6241009 C20.3429646,22.2615438 21.6161974,21.2018188 23.0944728,20.5475721 C22.5077468,19.7893088 22.1573306,18.8394553 22.1573306,17.8087552 L22.1573306,17.8087552 L22.1573306,16.9990441 C22.1573306,14.5261861 24.169016,12.5144899 26.6418605,12.5144899 C29.114705,12.5144899 31.1263903,14.5261861 31.1263903,16.9990441 L31.1263903,16.9990441 L31.1263903,17.8087552 C31.1263903,18.8394553 30.7759741,19.7893088 30.1892481,20.5475721 C31.6675236,21.2018188 32.9407563,22.2615438 33.8594621,23.6241009 C34.959293,22.1351043 35.6109201,20.2960634 35.6109201,18.307039 C35.6109201,13.3614477 31.5874249,9.33793063 26.6418605,9.33793063 Z" id="Combined-Shape" stroke="#FFFFFF" stroke-width="0.5" fill="#303337"></path>
                        <path d="M26.6418605,27.2761474 C24.6077525,27.2761474 22.7304785,26.5944952 21.2241747,25.4489407 C22.3190229,23.5075025 24.3620999,22.2933094 26.6418605,22.2933094 C28.921621,22.2933094 30.9646981,23.5075025 32.0595462,25.4489407 C30.5531179,26.5944952 28.6759685,27.2761474 26.6418605,27.2761474 Z" id="Path" fill="#F0AA3B"></path>
                        <path d="M24.6487361,17.8087552 L24.6487361,16.9990441 C24.6487361,15.9000791 25.5429015,15.0059089 26.6418605,15.0059089 C27.7408194,15.0059089 28.6349848,15.9000791 28.6349848,16.9990441 L28.6349848,17.8087552 C28.6349848,18.9077202 27.7408194,19.8018904 26.6418605,19.8018904 C25.5429015,19.8018904 24.6487361,18.9077202 24.6487361,17.8087552 Z" id="Path" fill="#F0AA3B"></path>
                    </g>
                </g>
            </g>
        </g>
    </g>
</svg>