<?xml version="1.0" encoding="UTF-8"?>
<svg width="53px" height="66px" viewBox="0 0 53 66" version="1.1" xmlns="http://www.w3.org/2000/svg" xmlns:xlink="http://www.w3.org/1999/xlink">
    <title>soccer-player@1x</title>
    <g id="Page-1" stroke="none" stroke-width="1" fill="none" fill-rule="evenodd">
        <g id="ШФ_Методика" transform="translate(-234.000000, -2581.000000)" fill-rule="nonzero">
            <g id="Group-11" transform="translate(72.000000, 2424.000000)">
                <g id="Group-61" transform="translate(0.000000, 118.000000)">
                    <g id="soccer-player" transform="translate(163.000000, 40.000000)">
                        <path d="M25.2302749,0.0395507812 C25.4063522,-0.0131835937 25.5936478,-0.0131835937 25.7697251,0.0395507812 C25.9682389,0.0996094062 29.9877776,1.32226566 33.3873874,3.30957028 L33.3873874,3.30957028 L33.3195903,2.73486328 C33.2800827,2.39941403 33.4234809,2.06884766 33.695157,1.86914066 C33.9668331,1.66943366 34.3253286,1.63085941 34.6326103,1.76904303 C34.7882023,1.83886728 38.4911919,3.52050778 42.2356401,7.00634766 C47.1419063,11.5732423 49.778189,17.1118164 49.8776898,23.043457 C50.6034602,23.9560548 51,25.0839844 51,26.2607423 C51,28.71875 49.2543468,30.8325195 46.8838872,31.3242188 C45.1582315,37.2294923 41.0533368,42.1274414 35.6827338,44.902832 C37.88492,46.1445313 39.8617663,47.7924805 41.4849947,49.7416993 C41.9103117,49.7719727 42.3102657,49.9814453 42.5712114,50.3188477 C43.5101281,51.53125 44.3149137,52.8486328 44.9636197,54.2338868 C45.1567684,54.6459962 45.1275033,55.1206055 44.8870431,55.5063477 C45.8240088,57.9121094 46.3000518,60.4506837 46.3000518,63.0625 C46.3000518,63.5800782 45.8810754,64 45.3635739,64 L45.3635739,64 L5.63642624,64 C5.11941241,64 4.69994836,63.5800782 4.69994836,63.0625 C4.69994836,61.2045899 4.95113907,59.3847657 5.42230445,57.6411133 C5.43449826,57.550293 5.45839793,57.4638673 5.49449128,57.3828125 C6.98407647,52.1420899 10.4924543,47.6206055 15.319705,44.9038087 C9.94812648,42.1289063 5.84274406,37.230957 4.11660068,31.3256837 C1.73638607,30.8374024 0,28.7460938 0,26.2607423 C0,25.0854493 0.397027664,23.956543 1.12231018,23.043457 C1.22181095,17.1118164 3.85809383,11.5732423 8.76435988,7.00634766 C12.5088082,3.52050778 16.2117979,1.83886728 16.3673897,1.76904303 C16.6746715,1.63134766 17.0331669,1.66943366 17.3048431,1.86914066 C17.5765192,2.06884766 17.7199173,2.39941403 17.6804097,2.73486328 L17.6804097,2.73486328 L17.6126127,3.30957028 C21.0127102,1.32226566 25.0317611,0.0996094062 25.2302749,0.0395507812 Z M11.942044,58.7001953 L7.08504053,58.7001953 C6.82068056,59.8144532 6.65387038,60.9594727 6.59631607,62.125 L6.59631607,62.125 L11.942044,62.125 L11.942044,58.7001953 Z M43.9237391,58.7001953 L39.0569806,58.7001953 L39.0569806,62.125 L44.4046595,62.125 C44.3485683,60.9628907 44.1871234,59.819336 43.9237391,58.7001953 L43.9237391,58.7001953 Z M43.1218798,56.1362305 L39.0569806,56.1362305 L39.0569806,56.8251953 L43.3784358,56.8251953 C43.2974694,56.5942383 43.2116256,56.3642578 43.1218798,56.1362305 L43.1218798,56.1362305 Z M41.2001493,51.6103515 L39.0569806,51.6103515 L39.0569806,54.2612305 L42.8862972,54.2612305 C42.3995237,53.3339844 41.8347106,52.4458008 41.2001493,51.6103515 L41.2001493,51.6103515 Z M27.9499627,47.2368164 C27.1451771,47.3251953 26.3277098,47.3725587 25.5,47.3725587 C24.6718024,47.3725587 23.854823,47.3251953 23.0500373,47.2368164 L23.0500373,47.2368164 L25.5,50.0078125 Z M25.5,1.92041016 C24.3630574,2.28710941 19.8928387,3.81005866 17.0029265,5.94189453 C16.7024732,6.16357428 16.2991048,6.18554691 15.9767028,5.99804691 C15.6538131,5.81005866 15.473346,5.44824228 15.5172434,5.07714853 L15.5172434,5.07714853 L15.6113789,4.28271491 C14.2344638,5.07324228 12.1054399,6.44873053 9.99787681,8.41845703 C5.60716131,12.522461 3.26011362,17.2436524 3.01233718,22.4648438 C3.73957082,22.4370118 4.85261373,22.3266602 6.09832448,21.9609375 C8.95165546,21.1225587 11.1328685,19.399414 12.5814828,16.8383789 C13.113129,15.8984375 14.1086246,15.3149414 15.1797211,15.3149414 L15.1797211,15.3149414 L29.3985769,15.3149414 C29.9160786,15.3149414 30.3350548,15.734375 30.3350548,16.2524414 C30.3350548,16.7700195 29.9160786,17.1899414 29.3985769,17.1899414 L29.3985769,17.1899414 L15.1797211,17.1899414 C14.781718,17.1899414 14.4110288,17.4091798 14.2110518,17.7626953 C12.5249039,20.7436524 9.87593965,22.8251953 6.55046774,23.7817383 C6.04906175,23.9257813 5.56862911,24.0336914 5.11941241,24.1152344 C5.10477988,24.4335938 5.09648818,24.7529298 5.09648818,25.071289 C5.09648818,36.3344727 14.249584,45.4975587 25.5,45.4975587 C36.7504161,45.4975587 45.9035118,36.3344727 45.9035118,25.0717774 C45.9035118,24.7529298 45.8952201,24.4335938 45.8805876,24.1152344 C45.4308832,24.0336914 44.9509383,23.9257813 44.4495324,23.7817383 C41.1240604,22.8251953 38.4750962,20.7436524 36.7889482,17.7626953 C36.5889712,17.4091798 36.2177943,17.1899414 35.8202789,17.1899414 L35.8202789,17.1899414 L32.8952488,17.1899414 C32.3777473,17.1899414 31.9587709,16.7700195 31.9587709,16.2524414 C31.9587709,15.734375 32.3777473,15.3149414 32.8952488,15.3149414 L32.8952488,15.3149414 L35.8202789,15.3149414 C36.8913755,15.3149414 37.886871,15.8984375 38.4185173,16.8383789 C39.8671315,19.399414 42.0483445,21.1225587 44.9016756,21.9609375 C46.1468985,22.3261719 47.2604293,22.4370118 47.9876628,22.4643555 C47.7393987,17.2265625 45.3782063,12.4916993 40.9601767,8.37890628 C38.8604178,6.42431641 36.7538302,5.06396491 35.3886212,4.28125003 L35.3886212,4.28125003 L35.4827567,5.07714853 C35.5266541,5.44824228 35.346187,5.81005866 35.0232973,5.99804691 C34.7008952,6.18554691 34.2975269,6.16406253 33.9970736,5.94189453 C31.1022839,3.80664066 26.6369427,2.28662116 25.5,1.92041016 Z M26.7808287,29.805664 C27.0383601,29.3569337 27.6109772,29.2021485 28.0592185,29.4604493 C28.5074598,29.7182618 28.6620761,30.2915039 28.4045447,30.7402344 C27.8080278,31.7783203 26.6954726,32.4233399 25.5,32.4233399 C24.3045275,32.4233399 23.1919722,31.7783203 22.5954554,30.7402344 C22.337924,30.2910157 22.4920525,29.7182618 22.9407815,29.459961 C23.3890228,29.2021485 23.96164,29.3569337 24.2191715,29.805664 C24.4825559,30.2636719 24.9732312,30.5483399 25.5,30.5483399 C26.0267688,30.5483399 26.5174443,30.2636719 26.7808287,29.805664 Z M34.161445,29.5717774 C34.6789465,29.5717774 35.0979228,29.9916993 35.0979228,30.5092774 C35.0979228,31.0273438 34.6789465,31.4467774 34.161445,31.4467774 L34.161445,31.4467774 L32.7435589,31.4467774 C32.2260573,31.4467774 31.807081,31.0273438 31.807081,30.5092774 C31.807081,29.9916993 32.2260573,29.5717774 32.7435589,29.5717774 L32.7435589,29.5717774 Z M18.2564412,29.5717774 C18.7734549,29.5717774 19.1929191,29.9916993 19.1929191,30.5092774 C19.1929191,31.0273438 18.7734549,31.4467774 18.2564412,31.4467774 L18.2564412,31.4467774 L16.8385552,31.4467774 C16.3210536,31.4467774 15.9020773,31.0273438 15.9020773,30.5092774 C15.9020773,29.9916993 16.3210536,29.5717774 16.8385552,29.5717774 L16.8385552,29.5717774 Z M3.23621396,24.3325195 C2.93868707,24.347168 2.68505764,24.3496094 2.48459294,24.347168 C2.08805299,24.9033203 1.87295576,25.569336 1.87295576,26.2602539 C1.87295576,27.512207 2.5636082,28.6069337 3.60105013,29.165039 C3.35376141,27.8374024 3.22353242,26.4697265 3.22353242,25.071289 C3.22353242,24.8256837 3.22840997,24.5791015 3.23621396,24.3325195 Z M47.7637862,24.3325195 C47.7715902,24.5786133 47.7764676,24.8256837 47.7764676,25.071289 C47.7764676,26.4682618 47.6462387,27.834961 47.3999254,29.1611328 C48.4344409,28.5981445 49.1270442,27.4975587 49.1270442,26.2607423 C49.1270442,25.5688477 48.911947,24.9033203 48.5158949,24.3476563 C48.4744363,24.3481445 48.4310267,24.3481445 48.3851782,24.3481445 C48.2091009,24.3481445 47.9993688,24.34375 47.7637862,24.3325195 Z M33.452258,25.4692383 C33.9697597,25.4692383 34.3887359,25.8891602 34.3887359,26.4067383 L34.3887359,26.4067383 L34.3887359,27.8261719 C34.3887359,28.34375 33.9697597,28.7636719 33.452258,28.7636719 C32.9352442,28.7636719 32.5157801,28.34375 32.5157801,27.8261719 L32.5157801,27.8261719 L32.5157801,26.4067383 C32.5157801,25.8891602 32.9352442,25.4692383 33.452258,25.4692383 Z M17.547742,25.4692383 C18.0647558,25.4692383 18.4842199,25.8891602 18.4842199,26.4067383 L18.4842199,26.4067383 L18.4842199,27.8261719 C18.4842199,28.34375 18.0647558,28.7636719 17.547742,28.7636719 C17.0302405,28.7636719 16.6112641,28.34375 16.6112641,27.8261719 L16.6112641,27.8261719 L16.6112641,26.4067383 C16.6112641,25.8891602 17.0302405,25.4692383 17.547742,25.4692383 Z" id="Combined-Shape" stroke="#303337" stroke-width="0.2" fill="#303337"></path>
                        <path d="M38.3902278,49.7353515 C37.725426,49.7353515 37.1840248,50.2768555 37.1840248,50.9428712 L37.1840248,62.125 L13.8149997,62.125 L13.8149997,55.696289 C13.8149997,55.178711 13.3960234,54.758789 12.8785218,54.758789 C12.361508,54.758789 11.942044,55.178711 11.942044,55.696289 L11.942044,56.8251953 L7.63327016,56.8251953 C9.29259197,52.074707 12.8077983,48.0805664 17.5048201,45.8857423 C18.3393585,46.2080078 19.1973088,46.4814453 20.07672,46.7026368 L24.4284157,51.625 C24.6996041,51.9321289 25.0902909,52.1079102 25.5,52.1079102 C25.9092214,52.1079102 26.2999082,51.9321289 26.5715844,51.625 L30.92328,46.7026368 C31.8026913,46.4814453 32.6611294,46.2080078 33.4956676,45.8857423 C35.5193379,46.831543 37.3732714,48.1430664 38.9501636,49.7353515 L38.3902278,49.7353515 Z" id="Path" fill="#F0AA3B"></path>
                    </g>
                </g>
            </g>
        </g>
    </g>
</svg>