<?xml version="1.0" encoding="UTF-8"?>
<svg width="64px" height="64px" viewBox="0 0 64 64" version="1.1" xmlns="http://www.w3.org/2000/svg" xmlns:xlink="http://www.w3.org/1999/xlink">
    <title>ico_4@1x</title>
    <g id="Page-1" stroke="none" stroke-width="1" fill="none" fill-rule="evenodd">
        <g id="ШФ_Страница-клуба" transform="translate(-228.000000, -1724.000000)" fill-rule="nonzero">
            <g id="growth" transform="translate(228.000000, 1724.000000)">
                <path d="M64,61.8666958 L64,64 L0,64 L0,61.8666958 L64,61.8666958 Z M12.8,51.2001747 C13.3890667,51.2001747 13.8666667,51.6777682 13.8666667,52.2668268 L13.8666667,52.2668268 L13.8666667,58.6667395 C13.8666667,59.2557981 13.3890667,59.7333916 12.8,59.7333916 L12.8,59.7333916 L5.33333333,59.7333916 C4.74426667,59.7333916 4.26666667,59.2557981 4.26666667,58.6667395 L4.26666667,58.6667395 L4.26666667,52.2668268 C4.26666667,51.6777682 4.74426667,51.2001747 5.33333333,51.2001747 L5.33333333,51.2001747 Z M24.5333333,48.0002184 C25.1224,48.0002184 25.6,48.4778119 25.6,49.0668705 L25.6,49.0668705 L25.6,58.6667395 C25.6,59.2557981 25.1224,59.7333916 24.5333333,59.7333916 L24.5333333,59.7333916 L17.0666667,59.7333916 C16.4776,59.7333916 16,59.2557981 16,58.6667395 L16,58.6667395 L16,49.0668705 C16,48.4778119 16.4776,48.0002184 17.0666667,48.0002184 L17.0666667,48.0002184 Z M36.2666667,42.6669578 C36.8557333,42.6669578 37.3333333,43.1445513 37.3333333,43.7336099 L37.3333333,43.7336099 L37.3333333,58.6667395 C37.3333333,59.2557981 36.8557333,59.7333916 36.2666667,59.7333916 L36.2666667,59.7333916 L28.8,59.7333916 C28.2109333,59.7333916 27.7333333,59.2557981 27.7333333,58.6667395 L27.7333333,58.6667395 L27.7333333,43.7336099 C27.7333333,43.1445513 28.2109333,42.6669578 28.8,42.6669578 L28.8,42.6669578 Z M48,35.2003931 C48.5890667,35.2003931 49.0666667,35.6779866 49.0666667,36.2670452 L49.0666667,36.2670452 L49.0666667,58.6667395 C49.0666667,59.2557981 48.5890667,59.7333916 48,59.7333916 L48,59.7333916 L40.5333333,59.7333916 C39.9442667,59.7333916 39.4666667,59.2557981 39.4666667,58.6667395 L39.4666667,58.6667395 L39.4666667,36.2670452 C39.4666667,35.6779866 39.9442667,35.2003931 40.5333333,35.2003931 L40.5333333,35.2003931 Z M59.7333333,20.2672636 C60.3224,20.2672636 60.8,20.744857 60.8,21.3339157 L60.8,21.3339157 L60.8,58.6667395 C60.8,59.2557981 60.3224,59.7333916 59.7333333,59.7333916 L59.7333333,59.7333916 L52.2666667,59.7333916 C51.6776,59.7333916 51.2,59.2557981 51.2,58.6667395 L51.2,58.6667395 L51.2,21.3339157 C51.2,20.744857 51.6776,20.2672636 52.2666667,20.2672636 L52.2666667,20.2672636 Z M11.7333333,53.3334789 L6.4,53.3334789 L6.4,57.6000873 L11.7333333,57.6000873 L11.7333333,53.3334789 Z M23.4666667,50.1335226 L18.1333333,50.1335226 L18.1333333,57.6000873 L23.4666667,57.6000873 L23.4666667,50.1335226 Z M35.2,44.800262 L29.8666667,44.800262 L29.8666667,57.6000873 L35.2,57.6000873 L35.2,44.800262 Z M46.9333333,37.3336973 L41.6,37.3336973 L41.6,57.6000873 L46.9333333,57.6000873 L46.9333333,37.3336973 Z M56.0573333,0.112471968 C56.5845333,-0.150591108 57.2249333,0.0635393028 57.488,0.590732107 L57.488,0.590732107 L61.7546667,9.12394898 C62.018,9.65127511 61.8041333,10.2920664 61.2768,10.5553961 C60.7496,10.8187258 60.1086667,10.6047288 59.8453333,10.077536 L59.8453333,10.077536 L56.7072,3.8002883 L54.9856,8.71968783 C47.2978667,30.6264555 27.4876,45.9965124 4.35733333,48.0002184 L4.35733333,48.0002184 L4.176,45.8669142 C26.4664,43.9357405 45.5582667,29.1258093 52.9706667,8.01569743 L52.9706667,8.01569743 L54.6570667,3.20082982 L48.4768,6.28878767 C47.9496,6.55211741 47.3086667,6.33812033 47.0453333,5.81092753 C46.782,5.28373472 46.996,4.64281014 47.5232,4.3794804 L47.5232,4.3794804 L56.0565333,0.112871963 L56.0565333,0.112871963 Z M14.9333333,19.2006114 L14.9333333,21.3339157 L5.33333333,21.3339157 L5.33333333,19.2006114 L14.9333333,19.2006114 Z M14.9333333,14.934003 L14.9333333,17.0673072 L5.33333333,17.0673072 L5.33333333,14.934003 L14.9333333,14.934003 Z M19.2,10.6673946 L19.2,12.8006988 L5.33333333,12.8006988 L5.33333333,10.6673946 L19.2,10.6673946 Z M19.2,6.40078614 L19.2,8.53409036 L5.33333333,8.53409036 L5.33333333,6.40078614 L19.2,6.40078614 Z" id="Combined-Shape" fill="#303337"></path>
                <polygon id="Path" fill="#F0AA3B" points="58.6666667 57.6000873 53.3333333 57.6000873 53.3333333 22.4005678 58.6666667 22.4005678"></polygon>
            </g>
        </g>
    </g>
</svg>