<?xml version="1.0" encoding="UTF-8"?>
<svg width="66px" height="66px" viewBox="0 0 66 66" version="1.1" xmlns="http://www.w3.org/2000/svg" xmlns:xlink="http://www.w3.org/1999/xlink">
    <title>ico_2@1x</title>
    <g id="Page-1" stroke="none" stroke-width="1" fill="none" fill-rule="evenodd">
        <g id="ШФ_Страница-клуба" transform="translate(-647.000000, -1475.000000)" stroke-width="1.5">
            <g id="ico_2" transform="translate(648.000000, 1476.000000)">
                <g id="award" fill="#303337" fill-rule="nonzero" stroke="#FFFFFF">
                    <path d="M62.125,4.61917586 L53.9121094,4.61917586 C53.9418945,3.70950092 53.9584961,2.79445494 53.9584961,1.8750143 C53.9584961,0.839361903 53.1186524,0 52.0834961,0 L11.9165039,0 C10.8813476,0 10.0415039,0.839361903 10.0415039,1.8750143 C10.0415039,2.79445494 10.0581055,3.70950092 10.0878906,4.61917586 L1.875,4.61917586 C0.8393555,4.61917586 0,5.45853777 0,6.49419017 C0,14.8956214 2.19580075,22.8219515 6.18261725,28.8136963 C10.1235351,34.7370814 15.3730469,38.1345683 21.0439453,38.4651372 C22.3295899,39.8640736 23.6884765,41.0047073 25.1040039,41.8748312 L25.1040039,50.2083908 L21.9584961,50.2083908 C18.1557617,50.2083908 15.0625,53.3021644 15.0625,57.1044395 L15.0625,60.2499714 L14.9291992,60.2499714 C13.8935547,60.2499714 13.0541992,61.0898215 13.0541992,62.1249857 C13.0541992,63.1606381 13.8935547,64 14.9291992,64 L49.0708007,64 C50.1064453,64 50.9458007,63.1606381 50.9458007,62.1249857 C50.9458007,61.0898215 50.1064453,60.2499714 49.0708007,60.2499714 L48.9375,60.2499714 L48.9375,57.1044395 C48.9375,53.3021644 45.8442382,50.2083908 42.0415039,50.2083908 L38.8959961,50.2083908 L38.8959961,41.8748312 C40.3115235,41.0051956 41.6708985,39.8640736 42.956543,38.4651372 C48.6269531,38.1345683 53.8764649,34.7370814 57.8178711,28.8136963 C61.8046875,22.8219515 64,14.8956214 64,6.49419017 C64,5.45853777 63.1606445,4.61917586 62.125,4.61917586 Z M9.3046875,26.7365321 C6.01611325,21.7945999 4.08398438,15.3306833 3.78955075,8.36920447 L10.2973633,8.36920447 C10.9736328,16.9268869 12.9824219,24.8371035 16.1220703,31.11596 C16.6220703,32.1159676 17.1450195,33.0607991 17.6875,33.9504543 C14.5688476,32.772711 11.6826172,30.3107781 9.3046875,26.7365321 Z M54.6953125,26.7365321 C52.3173828,30.3107781 49.4311524,32.772711 46.3125,33.9504543 C46.8549805,33.0607991 47.3779297,32.1159676 47.8779297,31.11596 C51.0175781,24.8371035 53.0258789,16.9268869 53.7026368,8.36920447 L60.2104492,8.36920447 C59.9160156,15.3306833 57.9838867,21.7945999 54.6953125,26.7365321 Z" id="Shape"></path>
                </g>
                <path d="M45.1875,57.1044395 L45.1875,60.2504596 L18.8125,60.2504596 L18.8125,57.1044395 C18.8125,55.3700513 20.2236328,53.9584194 21.9584961,53.9584194 L42.0415039,53.9584194 C43.7763672,53.9584194 45.1875,55.3700513 45.1875,57.1044395 Z" id="Path" stroke="#FFFFFF" fill="#FFFFFF"></path>
                <path d="M35.1459961,50.2083908 L28.8540039,50.2083908 L28.8540039,43.5042381 C29.8847656,43.7757246 30.9350586,43.9168389 32,43.9168389 C33.0649414,43.9168389 34.1152344,43.7757246 35.1459961,43.5042381 L35.1459961,50.2083908 Z" id="Path" stroke="#F0AA3B" fill="#F0AA3B"></path>
                <path d="M36.3071289,39.0432666 C36.2226562,39.0779349 36.1416015,39.1199273 36.0639649,39.1663144 C34.7387695,39.8254991 33.3769531,40.1668103 32,40.1668103 C30.6235351,40.1668103 29.262207,39.8254991 27.9375,39.1672911 C27.8588867,39.1199273 27.7773438,39.0779349 27.6918945,39.0422901 C26.2216797,38.2649404 24.7993164,37.0911032 23.4541015,35.5486111 C23.3833008,35.4475361 23.303711,35.3542736 23.215332,35.2693121 C21.8798828,33.6838507 20.6235351,31.7336406 19.4760742,29.4387011 C16.0302735,22.5475353 14.040039,13.486431 13.8134765,3.75002861 L50.1865235,3.75002861 C49.9594726,13.486431 47.9692382,22.5480235 44.5239257,29.4387011 C43.3764649,31.7336406 42.1201172,33.6838507 40.7851562,35.2693121 C40.696289,35.3542736 40.6157226,35.4480243 40.5454101,35.5490993 C39.2001953,37.0920798 37.7773438,38.2654287 36.3071289,39.0432666 Z" id="Path" stroke="#F0AA3B" fill="#F0AA3B"></path>
            </g>
        </g>
    </g>
</svg>