<?xml version="1.0" encoding="UTF-8"?>
<svg width="452px" height="256px" viewBox="0 0 452 256" version="1.1" xmlns="http://www.w3.org/2000/svg" xmlns:xlink="http://www.w3.org/1999/xlink">
    <title>authentication_flatline 3@1x</title>
    <g id="Page-1" stroke="none" stroke-width="1" fill="none" fill-rule="evenodd">
        <g id="ШФ_Вход-в-лк" transform="translate(-454.000000, -360.000000)" fill-rule="nonzero">
            <g id="authentication_flatline" transform="translate(454.000000, 360.000000)">
                <path d="M440.484076,235.865169 L3.18127389,235.865169 C2.78376957,235.865169 2.46152866,235.543216 2.46152866,235.146067 C2.46152866,234.748919 2.78376957,234.426966 3.18127389,234.426966 L440.484076,234.426966 C440.881581,234.426966 441.203822,234.748919 441.203822,235.146067 C441.203822,235.543216 440.881581,235.865169 440.484076,235.865169 Z" id="Path" fill="#E4E9EC"></path>
                <rect id="Rectangle" fill="#FFFFFF" x="1.43949045" y="1.43820225" width="301.817962" height="207.877753" rx="14.65"></rect>
                <path d="M282.356051,209.344719 L22.7151592,209.344719 C10.6773542,209.328873 0.922739087,199.582987 0.906878981,187.555955 L0.906878981,21.8031461 C0.906878981,9.76721529 10.6684505,0.00793926832 22.7151592,0 L282.356051,0 C294.40276,0.00793926832 304.164331,9.76721529 304.164331,21.8031461 L304.164331,187.555955 C304.148471,199.582987 294.393856,209.328873 282.356051,209.344719 L282.356051,209.344719 Z M22.7151592,1.43820225 C11.4634591,1.44614125 2.34636943,10.5615123 2.34636943,21.8031461 L2.34636943,187.555955 C2.36222671,198.788691 11.4723621,207.890674 22.7151592,207.906517 L282.356051,207.906517 C293.598848,207.890674 302.708983,198.788691 302.724841,187.555955 L302.724841,21.8031461 C302.724841,10.5615123 293.607751,1.44614125 282.356051,1.43820225 L22.7151592,1.43820225 Z" id="Shape" fill="#303337"></path>
                <path d="M303.417096,170.685843 L2.56099295,170.685843 C2.16420663,170.685843 1.84254777,170.36389 1.84254777,169.966742 C1.84254777,169.569593 2.16420663,169.24764 2.56099295,169.24764 L303.417096,169.24764 C303.813883,169.24764 304.135541,169.569593 304.135541,169.966742 C304.135541,170.36389 303.813883,170.685843 303.417096,170.685843 Z" id="Path" fill="#303337"></path>
                <path d="M152.585987,195.437316 C149.363701,195.44312 146.455732,193.507506 145.219926,190.534275 C143.98412,187.561043 144.664261,184.13672 146.942765,181.860255 C149.22127,179.58379 152.64866,178.904257 155.624554,180.138958 C158.600448,181.373658 160.537796,184.279024 160.531988,187.498427 C160.524052,191.879664 156.971149,195.429388 152.585987,195.437316 Z M152.585987,181.055281 C149.947231,181.049461 147.565063,182.633108 146.551215,185.067151 C145.537368,187.501195 146.091709,190.305792 147.955533,192.172068 C149.819358,194.038345 152.625235,194.598386 155.063693,193.590828 C157.502151,192.583269 159.092478,190.206739 159.092484,187.570337 C159.111688,185.832501 158.435132,184.159032 157.213258,182.922046 C155.991383,181.68506 154.325482,180.987101 152.585987,180.983371 L152.585987,181.055281 Z" id="Shape" fill="#E4E9EC"></path>
                <rect id="Rectangle" fill="#FFFFFF" x="91.8682803" y="242.322697" width="121.33465" height="12.9294382" rx="4.18"></rect>
                <path d="M207.18586,256 L97.8853503,256 C94.1703243,256 91.1564731,252.995288 91.148535,249.283596 L91.148535,248.363146 C91.148535,244.643502 94.1623827,241.625909 97.8853503,241.617978 L207.18586,241.617978 C210.903216,241.625888 213.914757,244.634735 213.922675,248.348764 L213.922675,249.269213 C213.922675,251.054329 213.212906,252.766331 211.949508,254.028598 C210.68611,255.290866 208.972574,256 207.18586,256 L207.18586,256 Z M97.8853503,243.05618 C94.9597186,243.05618 92.5880255,245.42575 92.5880255,248.348764 L92.5880255,249.269213 C92.5880255,252.192227 94.9597186,254.561798 97.8853503,254.561798 L207.18586,254.561798 C210.105879,254.561798 212.47525,252.200991 212.483185,249.283596 L212.483185,248.363146 C212.483185,245.440132 210.111492,243.070562 207.18586,243.070562 L97.8853503,243.05618 Z" id="Shape" fill="#303337"></path>
                <polygon id="Path" fill="#FFFFFF" points="193.913758 242.538427 111.157452 242.538427 116.843439 208.625618 188.227771 208.625618"></polygon>
                <path d="M193.913758,243.257528 L111.157452,243.257528 C110.944002,243.264416 110.740329,243.168026 110.610446,242.998652 C110.475013,242.839775 110.417024,242.629096 110.452102,242.423371 L116.210064,208.510562 C116.266234,208.164272 116.564301,207.909015 116.915414,207.906517 L188.299745,207.906517 C188.650858,207.909015 188.948925,208.164272 189.005096,208.510562 L194.763057,242.423371 C194.792437,242.628774 194.735085,242.83714 194.604713,242.998652 C194.439562,243.205318 194.174199,243.30474 193.913758,243.257528 Z M112.006752,241.819326 L193.064459,241.819326 L187.623185,209.344719 L117.46242,209.344719 L112.006752,241.819326 Z" id="Shape" fill="#303337"></path>
                <polygon id="Path" fill="#303337" points="114.007643 225.582022 189.364968 215.356404 188.227771 208.625618 116.843439 208.625618"></polygon>
                <path d="M114.007643,226.301124 C113.81312,226.300647 113.626737,226.223058 113.489427,226.085393 C113.332656,225.920427 113.263256,225.691077 113.302293,225.466966 L116.181274,208.510562 C116.237445,208.164272 116.535511,207.909015 116.886624,207.906517 L188.270955,207.906517 C188.622069,207.909015 188.920135,208.164272 188.976306,208.510562 L190.113503,215.241348 C190.143024,215.433419 190.096559,215.629428 189.983949,215.787865 C189.865604,215.942602 189.688447,216.041513 189.494522,216.061124 L114.137197,226.286742 L114.007643,226.301124 Z M117.448025,209.344719 L114.871338,224.747865 L188.530064,214.680449 L187.623185,209.272809 L117.448025,209.344719 Z" id="Shape" fill="#303337"></path>
                <rect id="Rectangle" fill="#F0AA3B" x="119.578471" y="44.4692135" width="65.9286624" height="42.0098876" rx="6.13"></rect>
                <path d="M169.010573,54.8386517 L136.060637,54.8386517 C134.690059,54.8386517 133.375616,54.2946789 132.406471,53.3264012 C131.437326,52.3581235 130.892866,51.0448571 130.892866,49.6755056 L130.892866,36.6022472 C130.892866,24.6560178 140.585873,14.9716854 152.542803,14.9716854 C164.499732,14.9716854 174.192739,24.6560178 174.192739,36.6022472 L174.192739,49.6755056 C174.184804,52.5293573 171.866992,54.8386517 169.010573,54.8386517 L169.010573,54.8386517 Z M141.242803,44.4979775 L163.828408,44.4979775 L163.828408,36.6022472 C163.975909,32.4752554 161.856355,28.5970961 158.301635,26.4898814 C154.746916,24.3826667 150.324294,24.3826667 146.769575,26.4898814 C143.214855,28.5970961 141.095301,32.4752554 141.242803,36.6022472 L141.242803,44.4979775 Z" id="Shape" fill="#F0AA3B"></path>
                <ellipse id="Oval" fill="#303337" cx="152.542803" cy="58.9375281" rx="6.31936306" ry="6.31370787"></ellipse>
                <rect id="Rectangle" fill="#303337" x="150.772229" y="60.145618" width="3.52675159" height="14.6840449"></rect>
                <path d="M267.025478,99.2359551 L38.1464968,99.2359551 C31.3889235,99.2359551 25.910828,104.709148 25.910828,111.460674 L25.910828,137.348315 C25.910828,144.099841 31.3889235,149.573034 38.1464968,149.573034 L267.025478,149.573034 C273.783051,149.573034 279.261146,144.099841 279.261146,137.348315 L279.261146,111.460674 C279.261146,104.709148 273.783051,99.2359551 267.025478,99.2359551 Z M38.1464968,100.674157 L267.025478,100.674157 C272.988042,100.674157 277.821656,105.503445 277.821656,111.460674 L277.821656,137.348315 C277.821656,143.305543 272.988042,148.134831 267.025478,148.134831 L38.1464968,148.134831 C32.1839322,148.134831 27.3503185,143.305543 27.3503185,137.348315 L27.3503185,111.460674 C27.3503185,105.503445 32.1839322,100.674157 38.1464968,100.674157 Z" id="Rectangle" fill="#E4E9EC"></path>
                <g id="Group-2" transform="translate(109.401274, 116.494382)" fill="#303337">
                    <polygon id="Path" points="11.6886624 8.81617978 14.7979618 12.9150562 11.3431847 15.3168539 8.24828025 11.1460674 5.21095541 15.1730337 1.84254777 12.7568539 4.95184713 8.77303371 -8.48940168e-13 7.13348315 1.33872611 3.29348315 6.21859873 4.97617978 6.21859873 -2.04380832e-14 10.4219108 -2.04380832e-14 10.4219108 4.97617978 15.3017834 3.45168539 16.5973248 7.27730337"></polygon>
                    <polygon id="Path" points="34.202293 8.81617978 37.3115924 12.9150562 33.8568153 15.3168539 30.7475159 11.1460674 27.724586 15.1730337 24.3561783 12.7568539 27.4510828 8.77303371 22.5136306 7.13348315 23.8523567 3.29348315 28.7178344 4.97617978 28.7178344 -2.04380832e-14 32.9355414 -2.04380832e-14 32.9355414 4.97617978 37.8010191 3.45168539 39.1109554 7.27730337"></polygon>
                    <polygon id="Path" points="56.7878981 8.81617978 59.8828025 12.9150562 56.4424204 15.3168539 53.333121 11.1460674 50.2957962 15.1730337 46.9273885 12.7568539 50.0366879 8.77303371 45.0848408 7.13348315 46.4235669 3.29348315 51.3034395 4.97617978 51.3034395 -2.04380832e-14 55.5211465 -2.04380832e-14 55.5211465 4.97617978 60.3866242 3.45168539 61.6821656 7.27730337"></polygon>
                    <polygon id="Path" points="79.3447134 8.81617978 82.4540127 12.9150562 78.9992357 15.3168539 75.8899363 11.1460674 72.8670064 15.1730337 69.4985987 12.7568539 72.5935032 8.77303371 67.656051 7.13348315 68.9947771 3.29348315 73.8602548 4.97617978 73.8602548 -2.04380832e-14 78.0779618 -2.04380832e-14 78.0779618 4.97617978 82.9434395 3.45168539 84.2533758 7.27730337"></polygon>
                </g>
                <path d="M423.210191,226.933933 L438.756688,154.908764 L443.938854,119.097528 C443.938854,119.097528 406.03707,79.1011236 395.255287,66.1573034 C384.473503,53.2134831 372.468153,34.5168539 366.623822,35.6817978 C360.77949,36.8467416 359.426369,43.3761798 362.938726,51.6314607 C364.378217,55.025618 366.609427,58.8224719 367.55949,62.3029213 C368.336815,65.1793258 367.775414,73.0606742 364.982803,74.9591011 C361.62879,77.2314607 358.922548,65.5820225 354.704841,67.4804494 C352.488025,68.487191 350.127261,73.9955056 351.82586,80.0647191 C352.848243,82.9805138 354.154857,85.7889073 355.726879,88.4494382 C358.951338,94.0440449 358.850573,97.4813483 360.822675,103.564944 C362.794777,109.648539 362.578854,101.450787 360.275669,107.045393 C357.497452,113.833708 353.625223,121.74382 353.207771,129.193708 C352.545605,141.102022 366.163185,160.920449 371.805987,170.542022 C377.44879,180.163596 365.227516,206.655281 365.227516,206.655281 L423.210191,226.933933 Z" id="Path" fill="#FFFFFF"></path>
                <path d="M423.210191,227.653034 C423.134163,227.668146 423.0559,227.668146 422.979873,227.653034 L364.882038,207.302472 C364.692494,207.232713 364.541013,207.086587 364.464586,206.899775 C364.378837,206.717584 364.378837,206.506686 364.464586,206.324494 C364.59414,206.065618 376.412357,180.062921 371.086242,170.872809 C370.164968,169.290787 369.027771,167.435506 367.789809,165.393258 C361.427261,155.009438 351.82586,139.30427 352.401656,129.13618 C352.747134,122.707416 355.626115,115.933483 358.159618,109.964944 C358.620255,108.87191 359.080892,107.793258 359.512739,106.743371 C359.747559,106.108862 360.067139,105.508975 360.462803,104.96 C360.318854,104.614831 360.189299,104.212135 360.030955,103.75191 C359.36879,101.680899 358.936943,99.9406742 358.591465,98.2723596 C357.923532,94.9425004 356.733277,91.73897 355.064713,88.7802247 C353.469417,86.0362422 352.13909,83.1468143 351.09172,80.1510112 C349.335541,73.6647191 351.883439,67.868764 354.416943,66.7325843 C356.950446,65.5964045 359.152866,68.458427 360.923439,71.047191 C361.548916,72.0843744 362.287569,73.0490699 363.12586,73.9235955 C363.903185,74.6426966 364.291847,74.4701124 364.56535,74.268764 C366.969299,72.6435955 367.58828,65.1361798 366.839745,62.4179775 C366.090326,60.0302268 365.126757,57.7149191 363.960764,55.5002247 C363.370573,54.2777528 362.765987,53.0265169 362.262166,51.832809 C359.987771,46.4539326 359.656688,41.7653933 361.355287,38.5582022 C362.40203,36.6116873 364.286371,35.2540551 366.465478,34.8764045 C371.273376,33.941573 378.830701,43.7644944 387.568408,55.1550562 C390.289045,58.6930337 393.096051,62.3460674 395.802293,65.6107865 C406.440127,78.5546067 444.111592,118.177079 444.48586,118.579775 C444.641565,118.739976 444.715746,118.96232 444.687389,119.18382 L439.490828,154.995056 L423.944331,227.063371 C423.900442,227.266922 423.768703,227.440662 423.584459,227.537978 C423.476987,227.618837 423.344569,227.659545 423.210191,227.653034 Z M366.105605,206.166292 L422.67758,225.984719 L438.051338,154.764944 L443.219108,119.370787 C439.96586,115.947865 404.928662,78.9573034 394.70828,66.588764 C391.987643,63.2952809 389.166242,59.6278652 386.445605,56.0898876 C378.701146,46.0224719 370.683185,35.5955056 366.767771,36.3577528 C365.012502,36.6089417 363.48004,37.6759043 362.636433,39.2341573 C361.196943,41.9955056 361.528025,46.4251685 363.600892,51.2719101 C364.090318,52.4224719 364.666115,53.6161798 365.270701,54.8674157 C366.479463,57.1695045 367.476795,59.5763634 368.250446,62.058427 C369.042166,64.9348315 368.567134,73.3339326 365.371465,75.491236 C364.332459,76.1980561 362.924708,75.9917708 362.132611,75.0166292 C361.207502,74.0756892 360.391443,73.0336116 359.699873,71.9101124 C357.886115,69.2494382 356.489809,67.3941573 354.978344,68.0844944 C353.193376,68.8898876 350.861401,73.9667416 352.459236,79.8202247 C353.458903,82.6780799 354.741611,85.429097 356.28828,88.0323596 C358.018322,91.1101385 359.256803,94.4389125 359.958981,97.898427 C360.362038,99.5523596 360.77949,101.26382 361.398471,103.277303 C361.528025,103.665618 361.643185,103.982022 361.729554,104.226517 L361.844713,104.226517 C362.445624,104.442321 362.832418,105.027848 362.794777,105.664719 C362.830613,106.127559 362.505021,106.540441 362.046242,106.613933 C361.785768,106.667891 361.514939,106.598918 361.312102,106.426966 C361.15711,106.714444 361.022429,107.0124 360.909045,107.318652 C360.462803,108.368539 360.002166,109.447191 359.541529,110.554607 C357.05121,116.422472 354.229809,123.066966 353.884331,129.251236 C353.35172,138.987865 362.809172,154.448539 369.070955,164.688539 C370.323312,166.745169 371.46051,168.600449 372.381783,170.196854 C377.607134,179.142472 368.092102,201.751011 366.14879,206.166292 L366.105605,206.166292 Z" id="Shape" fill="#303337"></path>
                <path d="M360.329832,14.2786625 L426.505012,14.2601714 C428.283368,14.2578748 429.725414,15.6991151 429.725911,17.4774719 C429.725911,17.4780719 429.725911,17.478672 429.724111,17.4792715 L429.685467,155.679069 C429.68317,157.456722 428.24222,158.897671 426.464567,158.899969 L360.289387,158.91846 C358.511031,158.920756 357.068985,157.479516 357.068488,155.701159 C357.068488,155.700559 357.068488,155.699959 357.070288,155.69936 L357.108932,17.4995621 C357.111229,15.7219087 358.552179,14.2809598 360.329832,14.2786625 Z" id="Rectangle" fill="#FFFFFF" transform="translate(393.397200, 86.589316) rotate(-160.680000) translate(-393.397200, -86.589316) "></path>
                <path d="M393.700065,64.7191011 C382.19128,64.7191011 372.828025,73.3770383 372.828025,84.0191341 C372.828025,88.9657038 374.824879,93.6219088 378.467479,97.212291 C377.051611,100.936333 375.739818,102.399679 375.175987,102.464205 C374.622449,102.526426 374.193572,102.980408 374.160405,103.542702 C374.128382,104.103843 374.502363,104.60622 375.046752,104.731814 C375.091355,104.742185 376.170983,104.988764 377.756114,104.988764 C380.088064,104.988764 383.408148,104.469103 386.331377,102.080508 C388.690776,102.90436 391.166829,103.321472 393.701209,103.321472 C405.209994,103.321472 414.573248,94.6635344 414.573248,84.0214386 C414.573248,73.3770383 405.207707,64.7191011 393.700065,64.7191011 Z M382.481773,90.0660937 C381.235169,90.0660937 380.003432,89.7400096 379.388136,89.3954896 L379.890209,87.3410443 C380.554683,87.6832598 381.57484,88.0266276 382.627019,88.0266276 C383.7604,88.0266276 384.359684,87.5530566 384.359684,86.8352106 C384.359684,86.1496273 383.8416,85.7578655 382.529807,85.2854468 C380.715941,84.6494098 379.533383,83.6377424 379.533383,82.0384322 C379.533383,80.1625843 381.087635,78.72574 383.663187,78.72574 C384.89378,78.72574 385.800713,78.9872987 386.449176,79.2799678 L385.899069,81.2871713 C385.462186,81.075159 384.684488,80.7652062 383.615153,80.7652062 C382.545818,80.7652062 382.027734,81.2549085 382.027734,81.8252677 C382.027734,82.5269823 382.643031,82.8369351 384.052036,83.3750315 C385.979126,84.0928776 386.886059,85.104545 386.886059,86.655461 C386.886059,88.5001985 385.478197,90.0660937 382.481773,90.0660937 Z M397.946524,89.9024755 L397.782979,85.69334 C397.736089,84.3717198 397.686911,82.7712574 397.686911,81.1742517 L397.637733,81.1742517 C397.298062,82.5776809 396.845167,84.1435761 396.423151,85.4329336 L395.095347,89.7250305 L393.168257,89.7250305 L392.00171,85.4663486 C391.644884,84.1769911 391.27319,82.6110959 391.013576,81.1754039 L390.981553,81.1754039 C390.916364,82.6606423 390.86833,84.3555884 390.787129,85.7279072 L390.592704,89.90478 L388.308789,89.90478 L389.005286,78.9077941 L392.293347,78.9077941 L393.362681,82.5788332 C393.702352,83.850907 394.043167,85.2220735 394.285626,86.5125832 L394.33366,86.5125832 C394.641308,85.2405094 395.014146,83.7875337 395.369828,82.563854 L396.536375,78.9089463 L399.759247,78.9089463 L400.357388,89.9059323 L397.946524,89.9024755 L397.946524,89.9024755 Z M406.496627,83.3761838 C408.423717,84.0940298 409.33065,85.1056972 409.33065,86.655461 C409.33065,88.5001985 407.922788,90.0649415 404.924076,90.0649415 C403.677472,90.0649415 402.446879,89.7400096 401.830439,89.3966418 L402.332512,87.3410443 C402.996986,87.6832598 404.017143,88.0266276 405.069322,88.0266276 C406.203846,88.0266276 406.803131,87.5530566 406.803131,86.8352106 C406.803131,86.1496273 406.285047,85.7578655 404.973254,85.2854468 C403.159388,84.6494098 401.975686,83.6377424 401.975686,82.0384322 C401.975686,80.1625843 403.529938,78.72574 406.105491,78.72574 C407.336083,78.72574 408.243016,78.9872987 408.892623,79.2799678 L408.342516,81.2871713 C407.905632,81.075159 407.127935,80.7652062 406.059744,80.7652062 C404.989265,80.7652062 404.471181,81.2549085 404.471181,81.8252677 C404.472325,82.5281346 405.087621,82.8380873 406.496627,83.3761838 Z" id="Shape" fill="#F0AA3B" transform="translate(393.700637, 84.853933) rotate(19.000000) translate(-393.700637, -84.853933) "></path>
                <path d="M400.898089,166.25618 C400.295134,166.25618 399.696615,166.153182 399.127516,165.954157 L339.331083,144.999551 L339.331083,144.999551 C336.546729,144.015732 335.080351,140.969938 336.049045,138.182472 L380.889172,10.4413483 C381.885648,7.67092744 384.930593,6.22041773 387.712357,7.19101124 L447.50879,28.145618 C448.849742,28.6083463 449.949701,29.5877893 450.563521,30.8656603 C451.17734,32.1435313 451.254006,33.6136287 450.776433,34.9483146 L405.936306,162.675056 C405.466713,164.014322 404.48249,165.111526 403.201274,165.724045 C402.481699,166.06747 401.695517,166.249112 400.898089,166.25618 L400.898089,166.25618 Z M339.806115,143.64764 L399.602548,164.587865 C400.579665,164.936623 401.655794,164.880546 402.591296,164.432123 C403.526798,163.9837 404.243998,163.180164 404.583185,162.200449 L449.423312,34.5168539 C450.13334,32.4837558 449.065315,30.2596224 447.033758,29.5406742 L387.22293,8.5141573 C385.183897,7.80612047 382.955964,8.8804899 382.242293,10.9159551 L337.416561,138.671461 C336.706532,140.704559 337.774558,142.928692 339.806115,143.64764 L339.806115,143.64764 Z" id="Shape" fill="#303337"></path>
                <path d="M406.699236,147.113708 C406.618239,147.128586 406.535519,147.128586 406.454522,147.113708 L345.117834,125.626966 C344.744296,125.491809 344.551008,125.079829 344.685987,124.706517 L381.551338,19.7177528 C381.608202,19.5348746 381.738544,19.3838128 381.91121,19.3006742 C382.092734,19.2359304 382.291088,19.2359304 382.472611,19.3006742 L443.794904,40.7874157 C444.168526,40.9229438 444.366329,41.3309449 444.241146,41.7078652 L407.375796,146.696629 C407.314607,146.877076 407.185545,147.026654 407.015924,147.113708 C406.911295,147.133545 406.803865,147.133545 406.699236,147.113708 L406.699236,147.113708 Z M346.240637,124.462022 L406.209809,145.474157 L442.643312,41.7941573 L382.67414,20.7820225 L346.240637,124.462022 Z" id="Shape" fill="#E4E9EC"></path>
                <path d="M376.988153,153.297978 C376.591838,153.300227 376.197872,153.237055 375.822166,153.111011 L364.191083,149.012135 C362.338648,148.36041 361.360984,146.336144 362.003057,144.481798 L363.572102,140.023371 C364.224319,138.164993 366.260595,137.186395 368.120892,137.837303 L379.780764,141.921798 C381.640807,142.573431 382.620281,144.607885 381.96879,146.466517 L380.399745,150.924944 C379.895774,152.369779 378.519303,153.327224 376.988153,153.297978 L376.988153,153.297978 Z M366.91172,139.074157 C366.002808,139.078503 365.19533,139.654757 364.896433,140.51236 L363.341783,144.970787 C363.153175,145.500916 363.183843,146.084292 363.426999,146.591764 C363.670156,147.099236 364.105741,147.488942 364.637325,147.674607 L364.637325,147.674607 L376.311592,151.759101 C377.416366,152.143057 378.624368,151.565276 379.017834,150.464719 L380.586879,146.006292 C380.970701,144.894604 380.386124,143.681568 379.276943,143.28809 L367.61707,139.203596 C367.385166,139.124029 367.142443,139.080378 366.897325,139.074157 L366.91172,139.074157 Z" id="Shape" fill="#E4E9EC"></path>
                <path d="M427.528662,29.4831461 C427.452506,29.4968918 427.3745,29.4968918 427.298344,29.4831461 L409.82293,23.3707865 C409.449392,23.2356291 409.256103,22.8236489 409.391083,22.4503371 C409.520523,22.0789892 409.924506,21.8803819 410.297962,22.0044944 L427.773376,28.131236 C428.17088,28.1987512 428.43834,28.5754357 428.370764,28.9725843 C428.303189,29.3697328 427.926167,29.6369535 427.528662,29.5694382 L427.528662,29.4831461 Z" id="Path" fill="#E4E9EC"></path>
                <path d="M407.735669,22.2921348 L407.490955,22.2921348 L405.158981,21.4723596 C404.895436,21.4048702 404.692504,21.194679 404.634492,20.9291102 C404.576479,20.6635413 404.673303,20.3879868 404.884737,20.2169263 C405.096172,20.0458658 405.386077,20.0085374 405.634013,20.1204494 L407.980382,20.9402247 C408.237522,20.9838994 408.451809,21.1613164 408.542521,21.4056445 C408.633234,21.6499725 408.586592,21.9240923 408.420165,22.1247456 C408.253737,22.3253989 407.992809,22.4221017 407.735669,22.378427 L407.735669,22.2921348 Z" id="Path" fill="#E4E9EC"></path>
                <path d="M371.129427,79.9640449 C370.370998,82.4597736 368.148546,84.2281324 365.544204,84.4080899 C362.380397,84.6745725 359.23163,83.7456706 356.720127,81.8049438 C355.271323,80.717607 354.052996,79.3537151 353.135796,77.7923596 C351.546636,75.4501749 351.207776,72.4783957 352.228917,69.8391011 C354.071465,66.1429213 359.958981,65.5244944 364.925223,67.8831461 C369.574777,70.1267416 372.036306,76.4835955 371.129427,79.9640449 Z" id="Path" fill="#FFFFFF"></path>
                <path d="M364.363822,85.1991011 C361.434831,85.1199074 358.606841,84.1126134 356.28828,82.3226966 C354.765134,81.1762192 353.479371,79.7450739 352.50242,78.108764 C350.779519,75.5631502 350.439439,72.3271893 351.595541,69.4795506 C353.553248,65.5388764 359.671083,64.5177528 365.241911,67.192809 C370.136178,69.5514607 372.84242,76.181573 371.834777,80.1366292 L371.834777,80.1366292 C371.005299,82.9264028 368.535547,84.9130315 365.630573,85.127191 C365.209854,85.1730588 364.787034,85.1970611 364.363822,85.1991011 L364.363822,85.1991011 Z M358.965732,67.192809 C356.201911,67.192809 353.841146,68.2283146 352.876688,70.1555056 C351.943581,72.5766873 352.272488,75.3025508 353.754777,77.432809 C354.62434,78.9107084 355.779087,80.2013025 357.151975,81.2296629 C359.512457,83.0650953 362.47676,83.9479443 365.457834,83.7033708 C367.768498,83.543186 369.745014,81.9850761 370.438471,79.7770787 L370.438471,79.7770787 C371.215796,76.7568539 369.128535,70.7020225 364.68051,68.5303371 C362.900193,67.661645 360.946987,67.2045024 358.965732,67.192809 Z" id="Shape" fill="#303337"></path>
                <path d="M364.191083,96.8916854 C364.683724,98.6493143 364.344323,100.53554 363.269809,102.011685 C362.543398,102.827552 361.636468,103.46282 360.621146,103.866966 C357.920628,105.230911 354.749564,105.310117 351.984204,104.082697 C350.39878,103.126558 349.046488,101.829519 348.025605,100.285843 C346.154268,97.7258427 344.527643,94.734382 344.729172,91.5559551 C345.002675,86.9824719 350.170446,81.934382 354.805605,84.2642697 C358.663439,86.1770787 363.226624,92.821573 364.191083,96.8916854 Z" id="Path" fill="#FFFFFF"></path>
                <path d="M355.770064,105.693483 C354.329081,105.709469 352.905976,105.373759 351.624331,104.715506 C349.93367,103.717868 348.495458,102.344916 347.421019,100.702921 C344.901911,97.265618 343.807898,94.3460674 343.980637,91.512809 C344.317237,88.3808047 346.101708,85.5867479 348.80293,83.9622472 C350.712147,82.7598804 353.107902,82.6293198 355.136688,83.6170787 C359.181656,85.6305618 363.88879,92.5051685 364.910828,96.7191011 L364.910828,96.7191011 C365.460846,98.698302 365.067925,100.820298 363.845605,102.47191 C363.056461,103.372439 362.071719,104.08082 360.966624,104.542921 C359.335122,105.288559 357.564111,105.680675 355.770064,105.693483 Z M352.358471,84.3937079 C351.342338,84.4022987 350.347487,84.6855775 349.47949,85.2134831 C347.176012,86.5717917 345.653814,88.941094 345.376943,91.5991011 C345.218599,94.087191 346.226242,96.7047191 348.529427,99.854382 C349.490898,101.308506 350.758332,102.535541 352.243312,103.449888 C354.822866,104.59697 357.785043,104.506967 360.290064,103.205393 C361.212146,102.853922 362.036486,102.28677 362.694013,101.551461 C363.625939,100.252739 363.907352,98.5976016 363.456943,97.0642697 L363.456943,97.0642697 C362.535669,93.2098876 358.102038,86.7235955 354.460127,84.9114607 C353.808974,84.5790917 353.089635,84.4018791 352.358471,84.3937079 Z" id="Shape" fill="#303337"></path>
                <path d="M357.08,109.432809 C357.793441,110.423876 358.284444,111.557078 358.51949,112.755056 C358.876239,115.534855 357.584049,118.268478 355.208662,119.759101 C352.839543,121.182678 349.997835,121.597155 347.320255,120.909663 C344.121578,120.20782 341.373278,118.178513 339.76293,115.329438 C338.20192,112.428573 338.283945,108.92104 339.978854,106.09618 C344.628408,98.9195506 353.438089,104.168989 357.08,109.432809 Z" id="Path" fill="#FFFFFF"></path>
                <path d="M349.983312,121.945169 C349.038163,121.940844 348.096526,121.829878 347.176306,121.614382 C343.77369,120.860134 340.852977,118.695093 339.143949,115.660225 C337.445588,112.535993 337.538803,108.745008 339.388662,105.707865 C340.72815,103.394005 343.177296,101.944362 345.851975,101.882247 C350.285605,101.752809 355.179873,105.420225 357.670191,109.073258 L357.670191,109.073258 C358.457914,110.143555 358.994203,111.37739 359.239236,112.683146 C359.647507,115.741088 358.229144,118.755224 355.61172,120.39191 C353.92669,121.445503 351.970712,121.985289 349.983312,121.945169 Z M345.995924,103.248539 L345.880764,103.248539 C343.682287,103.290832 341.671301,104.495249 340.597834,106.412584 C339.045897,109.016444 338.974864,112.242838 340.410701,114.91236 C341.920701,117.579886 344.49642,119.478563 347.492994,120.133034 C349.981434,120.791193 352.630672,120.412328 354.834395,119.083146 C356.949618,117.736203 358.111619,115.30265 357.828535,112.812584 C357.606616,111.716409 357.149925,110.681187 356.489809,109.777978 L356.489809,109.777978 C354.229809,106.585169 349.911338,103.306067 345.995924,103.306067 L345.995924,103.248539 Z" id="Shape" fill="#303337"></path>
                <path d="M438.080127,156.936629 C438.080127,156.936629 450.50293,120.190562 448.775541,111.446292 C447.048153,102.702022 444.284331,67.4516854 440.72879,65.9703371 C437.173248,64.4889888 429.601529,74.211236 429.356815,85.141573 C429.204587,91.5883309 430.044488,98.0201963 431.847134,104.212135 C431.847134,104.212135 419.669045,109.058876 417.265096,138.441348" id="Path" fill="#FFFFFF"></path>
                <path d="M438.080127,157.65573 L437.849809,157.65573 C437.476187,157.520202 437.278384,157.112201 437.403567,156.735281 C437.533121,156.37573 449.74,120.075506 448.070191,111.604494 C447.53758,108.886292 446.904204,103.723146 446.184459,97.7258427 C444.903312,87.1838202 442.528153,67.5235955 440.426497,66.6606742 C439.626796,66.4821751 438.789638,66.6899455 438.166497,67.221573 C434.884459,69.3501124 430.249299,76.771236 430.062166,85.1847191 C429.900161,91.5447513 430.705865,97.8924818 432.45172,104.010787 C432.56251,104.371026 432.382033,104.756527 432.034268,104.902472 C431.919108,104.902472 420.216051,110.051236 417.898471,138.52764 C417.866671,138.924789 417.518651,139.220985 417.121147,139.189213 C416.723642,139.157441 416.427181,138.809733 416.458981,138.412584 C418.589427,112.294831 428.334777,105.333933 430.853885,103.89573 C429.194363,97.8062845 428.428246,91.5084277 428.57949,85.1991011 C428.766624,76.771236 433.272229,68.6885393 437.345987,66.0566292 C438.344557,65.2177293 439.70939,64.9613703 440.944713,65.3806742 C443.377452,66.3874157 444.960892,76.138427 447.551975,97.5964045 C448.27172,103.564944 448.905096,108.713708 449.423312,111.374382 C451.165096,120.219326 439.217325,155.728539 438.713503,157.238652 C438.59879,157.486574 438.353399,157.648164 438.080127,157.65573 Z" id="Path" fill="#303337"></path>
                <polygon id="Path" fill="#F0AA3B" points="421.511592 255.252135 433.070701 196.961798 369.17172 179.386966 344.829936 255.252135"></polygon>
                <path d="M421.511592,256 L344.815541,256 C344.589524,255.997791 344.377124,255.891687 344.239745,255.71236 C344.108363,255.523576 344.071203,255.284904 344.138981,255.065169 L368.509554,179.171236 C368.632974,178.807941 369.015757,178.601047 369.387643,178.696629 L433.286624,196.271461 C433.652026,196.370116 433.878509,196.73468 433.804841,197.105618 L422.288917,255.395955 C422.223435,255.766819 421.887486,256.027879 421.511592,256 L421.511592,256 Z M345.80879,254.561798 L420.921401,254.561798 L432.235796,197.493933 L369.646752,180.235506 L345.80879,254.561798 Z" id="Shape" fill="#F0AA3B"></path>
                <path d="M255.264841,59.6422472 C255.264841,59.6422472 285.49414,29.44 321.639745,36.1995506 L319.235796,46.9716854 L341.562293,38.8314607 L325.727898,16.007191 L324.360382,25.7294382 C324.360382,25.7294382 292.849936,13.5191011 243.878471,34.8764045 L255.264841,59.6422472 Z" id="Path" fill="#303337" transform="translate(292.720382, 37.824719) scale(-1, 1) translate(-292.720382, -37.824719) "></path>
                <path d="M255.264841,60.4044944 L255.135287,60.4044944 C254.900291,60.3706059 254.69917,60.2185423 254.602675,60.0017978 L243.273885,35.1352809 C243.195053,34.9616216 243.195053,34.7624233 243.273885,34.588764 C243.332576,34.4056505 243.469719,34.2580898 243.648153,34.1860674 C287.941274,14.8710112 318.501656,23.011236 323.827771,24.7370787 L325.080127,15.8633708 C325.122757,15.5738298 325.336763,15.3389835 325.621304,15.2694912 C325.905845,15.199999 326.204154,15.3097249 326.375669,15.5469663 L342.210064,38.371236 C342.33836,38.5562837 342.370455,38.7914331 342.296433,39.0040449 C342.235481,39.2150648 342.073683,39.3821056 341.864586,39.4498876 L319.566879,47.6476404 C319.318685,47.7347092 319.042718,47.6795652 318.847134,47.5038202 C318.648191,47.3341708 318.559542,47.0684618 318.616815,46.8134831 L320.848025,36.7460674 C285.882803,30.72 256.070955,59.8292135 255.840637,60.131236 C255.699055,60.3035022 255.487941,60.4036913 255.264841,60.4044944 Z M244.828535,35.2503371 L255.495159,58.4916854 C260.389427,53.9757303 288.848153,29.425618 321.71172,35.4804494 C321.905082,35.5205189 322.075361,35.6339366 322.186752,35.7968539 C322.290785,35.9587705 322.326973,36.1550454 322.287516,36.3433708 L320.171465,45.8355056 L340.324331,38.414382 L326.073376,17.8624719 L324.950573,25.7725843 C324.924211,25.9901779 324.795992,26.1823344 324.605096,26.2903371 C324.409305,26.3835049 324.181905,26.3835049 323.986115,26.2903371 C323.784586,26.247191 292.547643,14.6265169 244.828535,35.207191 L244.828535,35.2503371 Z" id="Shape" fill="#303337" transform="translate(292.775176, 37.826691) scale(-1, 1) translate(-292.775176, -37.826691) "></path>
            </g>
        </g>
    </g>
</svg>