<?xml version="1.0" encoding="UTF-8"?>
<svg width="381px" height="256px" viewBox="0 0 381 256" version="1.1" xmlns="http://www.w3.org/2000/svg" xmlns:xlink="http://www.w3.org/1999/xlink">
    <title>soccer (3) 2@1x</title>
    <g id="Page-1" stroke="none" stroke-width="1" fill="none" fill-rule="evenodd">
        <g id="ШФ_Методика" transform="translate(-490.000000, -360.000000)" fill-rule="nonzero">
            <g id="soccer-(3)" transform="translate(490.000000, 360.000000)">
                <path d="M379.413502,212.852582 L17.5356151,212.852582 C17.2037216,212.852582 16.9346688,212.583533 16.9346688,212.251643 C16.9346688,211.919754 17.2037216,211.650704 17.5356151,211.650704 L379.413502,211.650704 C379.745395,211.650704 380.014448,211.919754 380.014448,212.251643 C380.014448,212.583533 379.745395,212.852582 379.413502,212.852582 Z" id="Path" fill="#E4E9EC"></path>
                <ellipse id="Oval" fill="#E4E9EC" cx="136.138391" cy="252.310235" rx="86.0074448" ry="3.34122066"></ellipse>
                <ellipse id="Oval" fill="#E4E9EC" cx="298.213628" cy="251.108357" rx="22.355205" ry="3.07680751"></ellipse>
                <path d="M129.359716,150.583286 C129.359716,150.583286 106.259338,178.106291 102.160883,177.877934 C98.062429,177.649577 37.2586751,159.945915 37.2586751,159.945915 C37.2586751,159.945915 42.739306,150.511174 40.7922397,152.554366 C38.8451735,154.597559 48.5204101,149.16507 48.5204101,149.16507 L97.6898423,154.633615 L112.100536,128.600939 L129.359716,150.583286 Z" id="Path" fill="#FFFFFF"></path>
                <path d="M102.160883,178.442817 L102.076751,178.442817 C97.9422397,178.178404 39.4821767,161.219906 36.9942587,160.498779 C36.8170664,160.43999 36.6729951,160.309018 36.5976341,160.138216 C36.5193809,159.970625 36.5193809,159.776981 36.5976341,159.60939 C37.9197161,157.349859 39.3018927,154.801878 40.0110095,153.395681 L39.9388959,153.323568 C39.5542902,152.818779 40.0590852,152.289953 40.2273502,152.12169 C40.3956151,151.953427 40.912429,151.400563 41.4292429,151.773146 C41.5121275,151.829712 41.5818225,151.903505 41.6335647,151.989484 C43.1239117,151.328451 45.7440379,149.946291 48.1117666,148.624225 C48.2217439,148.563855 48.3475974,148.538685 48.4723344,148.552113 L97.245142,153.972582 L111.535647,128.324507 C111.635617,128.150304 111.816008,128.037561 112.016404,128.024038 C112.215578,128.011487 112.408393,128.096683 112.533218,128.252394 L129.804416,150.234742 C129.978944,150.456966 129.978944,150.769701 129.804416,150.991925 C125.95836,155.57108 106.535773,178.442817 102.160883,178.442817 Z M38.0759621,159.537277 C59.2893691,165.702911 98.9999054,177.024601 102.172902,177.240939 L102.172902,177.240939 C105.033407,177.240939 119.696498,161.075681 128.542429,150.571268 L112.184669,129.682629 L98.1345426,154.922066 C98.018275,155.133359 97.7849298,155.252411 97.5456151,155.222535 L48.5684858,149.778028 C46.2540243,151.150819 43.8440522,152.35579 41.3571293,153.383662 C40.3698483,155.489872 39.2746734,157.543801 38.0759621,159.537277 Z" id="Shape" fill="#303337"></path>
                <path d="M154.323028,133.720939 C154.323028,133.720939 135.681672,160.871362 121.727697,173.731455 L98.891735,149.104977 C98.891735,149.104977 121.4753,106.907042 130.044795,100.104413 C143.626183,95.6334272 154.323028,133.720939 154.323028,133.720939 Z" id="Path" fill="#303337"></path>
                <path d="M121.727697,174.332394 C121.560198,174.328099 121.40085,174.259193 121.282997,174.140094 L98.4470347,149.513615 C98.2704105,149.329069 98.2361806,149.050343 98.3629022,148.828545 C99.2763407,147.09784 121.102713,106.43831 129.612114,99.6356808 C129.666643,99.594139 129.727521,99.5616713 129.792397,99.5395305 C131.947799,98.8442717 134.29672,99.0931321 136.25858,100.224601 C146.955426,105.909484 154.503312,132.43493 154.815804,133.552676 C154.868009,133.724852 154.836896,133.911526 154.731672,134.057465 C154.551388,134.321878 135.898013,161.412207 122.052208,174.17615 C121.960585,174.257264 121.848244,174.311353 121.727697,174.332394 Z M99.6489274,149.032864 L121.763754,172.90216 C134.768233,160.703099 151.811073,136.26892 153.674006,133.624789 C152.8447,130.776338 145.465079,106.450329 135.777823,101.294272 C134.142495,100.324562 132.172875,100.093101 130.357287,100.657277 C122.352681,107.147418 101.908486,144.826291 99.6489274,149.032864 Z" id="Shape" fill="#303337"></path>
                <path d="M48.2319558,148.552113 C48.2319558,148.552113 43.5325552,138.396244 41.9220189,138.816901 C40.3114826,139.237559 1.05766562,150.318873 1.51438486,152.410141 C1.9711041,154.501408 3.73788644,157.097465 8.72574132,157.217653 C13.7135962,157.33784 34.782776,159.549296 37.2346372,159.861784 C39.8347303,155.184958 43.6297407,151.28216 48.2319558,148.552113 L48.2319558,148.552113 Z" id="Path" fill="#303337"></path>
                <path d="M37.1745426,160.498794 L37.0904101,160.498794 C34.5784543,160.174272 13.5333123,158.095023 8.65362776,157.866667 C3.01675079,157.662347 1.44227129,154.453333 0.937476341,152.554366 C0.733154574,151.72507 0.480757098,150.691455 20.7446688,144.417653 C30.7684543,141.316808 40.9845426,138.408263 41.7777918,138.24 C43.5085174,137.807324 46.5853628,143.45615 48.7728076,148.299718 C48.8992378,148.589351 48.7847418,148.92763 48.5083912,149.080939 C43.9887836,151.767006 40.2576106,155.59763 37.6913565,160.186291 C37.5917228,160.379507 37.3919315,160.50031 37.1745426,160.498794 Z M2.15138801,152.446197 C2.66820189,154.333146 4.24268139,156.508545 8.68968454,156.664789 C13.4011041,156.833052 33.0039748,158.81615 36.8380126,159.260845 C39.4058394,154.779068 43.0541822,151.010951 47.4507256,148.299718 C45.4435647,144.057089 42.8594953,139.586103 42.0061514,139.405822 C37.102429,140.691831 4.45902208,150.162629 2.15138801,152.446197 Z" id="Shape" fill="#303337"></path>
                <path d="M65.1666246,168.539413 L65.0103785,168.539413 C64.8551563,168.497289 64.723266,168.394776 64.6442087,168.254733 C64.5651513,168.11469 64.5455237,167.948804 64.5897161,167.794178 L69.2650789,151.364507 C69.3230472,151.149812 69.4911518,150.982351 69.7060695,150.925205 C69.9209871,150.868059 70.1500665,150.92991 70.3070158,151.087459 C70.4639651,151.245008 70.5249399,151.474319 70.4669716,151.689014 L65.7435331,168.106667 C65.6723358,168.36553 65.435072,168.543476 65.1666246,168.539413 Z" id="Path" fill="#303337"></path>
                <polygon id="Path" fill="#303337" points="30.311735 142.77108 28.1964038 138.648638 25.0354259 139.586103 25.3719558 144.790235"></polygon>
                <path d="M25.3719558,145.42723 C25.2618983,145.429574 25.1534676,145.400382 25.0594637,145.343099 C24.896328,145.241346 24.793134,145.066367 24.7830284,144.874366 L24.4344795,139.670235 C24.417775,139.389919 24.5974324,139.135407 24.8671609,139.057277 L28.0281388,138.119812 C28.3023596,138.041961 28.5935448,138.16747 28.7252366,138.420282 L30.8525868,142.542723 C30.9180528,142.696287 30.9180528,142.86991 30.8525868,143.023474 C30.7942899,143.181731 30.6721734,143.308207 30.5160568,143.372019 L25.5762776,145.391174 C25.5103503,145.413317 25.4414804,145.425471 25.3719558,145.42723 L25.3719558,145.42723 Z M25.6604101,140.078873 L25.9128076,143.960939 L29.5184858,142.506667 L27.8959306,139.41784 L25.6604101,140.078873 Z" id="Shape" fill="#303337"></path>
                <polygon id="Path" fill="#303337" points="39.8307256 139.886573 37.7153943 135.764131 34.5544164 136.713615 34.8909464 141.905728"></polygon>
                <path d="M34.8548896,142.506667 C34.7438411,142.504112 34.6356735,142.47083 34.5423975,142.410516 C34.3777205,142.310275 34.2739991,142.134402 34.2659621,141.941784 L33.9174132,136.749671 C33.8992648,136.472728 34.0731326,136.219381 34.3380757,136.136714 L37.5110726,135.18723 C37.784963,135.114149 38.0732373,135.238404 38.2081703,135.4877 L40.3235016,139.62216 C40.3950969,139.774414 40.3950969,139.950657 40.3235016,140.102911 C40.2649776,140.258285 40.1423482,140.380913 39.9869716,140.439437 L35.0471924,142.458592 C34.9870096,142.487477 34.9215852,142.503832 34.8548896,142.506667 L34.8548896,142.506667 Z M35.1433438,137.146291 L35.3957413,141.040376 L39.0014196,139.586103 L37.4149211,136.485258 L35.1433438,137.146291 Z" id="Shape" fill="#303337"></path>
                <polygon id="Path" fill="#303337" points="10.6367508 149.669859 8.50940063 145.547418 5.34842271 146.496901 5.69697161 151.689014"></polygon>
                <path d="M5.69697161,152.289954 C5.37866399,152.290526 5.11512321,152.042801 5.09602524,151.72507 L4.80757098,146.532958 C4.79947085,146.255164 4.9757818,146.005393 5.24025237,145.92 L8.40123028,144.970516 C8.67887044,144.891142 8.97425772,145.016304 9.110347,145.270986 L11.2256782,149.405446 C11.2911443,149.55901 11.2911443,149.732633 11.2256782,149.886197 C11.1551511,150.062567 11.0023237,150.192918 10.8170347,150.234742 L5.87725552,152.253897 C5.82013032,152.277699 5.75885724,152.289954 5.69697161,152.289954 Z M5.97340694,146.929577 L6.23782334,150.823662 L9.84350158,149.36939 L8.25700315,146.268545 L5.97340694,146.929577 Z" id="Shape" fill="#303337"></path>
                <path d="M134.852366,26.2369953 C134.852366,26.2369953 113.374543,21.898216 105.622334,23.8332394 C103.362776,24.4221596 75.7192429,63.0625352 75.7192429,63.0625352 C75.7192429,63.0625352 64.0969401,72.0646009 66.1041009,75.9707042 C68.1112618,79.8768075 74.8178233,85.513615 77.7384227,85.9222535 C79.7936593,86.1986854 81.993123,84.1434742 86.4521451,79.1556808 C87.8823975,77.5571831 88.2549842,68.1104225 88.2549842,68.1104225 L114.432208,39.8662911 L129.407792,43.1233803" id="Path" fill="#FFFFFF"></path>
                <path d="M78.1230284,86.5352113 C77.9670096,86.54713 77.810309,86.54713 77.6542902,86.5352113 C74.4572555,86.0905164 67.5583912,80.2373709 65.5632492,76.2591549 C63.5681073,72.280939 73.8202524,63.8557746 75.3346372,62.6659155 C81.8969716,53.4835681 103.194511,23.8692958 105.478107,23.2923944 C113.266372,21.3213146 134.095174,25.491831 134.972555,25.6961502 C135.187253,25.7390892 135.362733,25.8933048 135.432895,26.1007054 C135.503057,26.308106 135.457242,26.5371827 135.312706,26.7016444 C135.168171,26.866106 134.946874,26.9409671 134.732177,26.8980282 C134.515836,26.8980282 113.29041,22.6073239 105.766562,24.4942723 C103.939685,25.3716432 86.6925237,48.8683568 76.2600946,63.4711737 C76.2265702,63.5207713 76.1860936,63.5652951 76.1399054,63.6033803 C71.8010726,66.9686385 65.3829653,73.2184038 66.6449527,75.7543662 C68.5559621,79.5883568 75.2264669,85.0208451 77.8225552,85.3693897 C79.5893375,85.6097653 81.7647634,83.5425352 86.0074448,78.8071362 C86.9449211,77.7615023 87.5098107,71.7040376 87.6540379,68.1344601 C87.6565919,67.9913136 87.7122825,67.8542307 87.8102839,67.7498592 L113.999527,39.5057277 C114.14163,39.3483111 114.357394,39.2794508 114.564416,39.325446 L129.54,42.5825352 C129.695631,42.6141469 129.831898,42.7072714 129.91789,42.8407828 C130.003881,42.9742941 130.032307,43.1368751 129.996719,43.2916432 C129.924667,43.6130236 129.611519,43.8200172 129.287603,43.7603756 L114.648549,40.5633803 L88.8439117,68.3507981 C88.7597792,70.3819718 88.3391167,77.9658216 86.8968454,79.5523005 C82.7262776,84.2276056 80.3946057,86.5352113 78.1230284,86.5352113 Z" id="Path" fill="#303337"></path>
                <path d="M212.194164,69.3002817 L229.465363,83.1579343 L260.185741,67.8099531 C260.185741,67.8099531 264.801009,59.3968075 267.024511,58.6276056 C269.248013,57.8584038 279.235741,51.8129577 280.738107,58.9761502 C281.351073,61.9568075 283.490442,69.0839437 273.130126,76.2351174 C270.32874,77.9773265 267.258567,79.2443667 264.043817,79.9849765 C264.043817,79.9849765 237.506025,99.3832864 230.078328,103.061033 C225.01836,105.54892 200.031009,81.5353991 200.031009,81.5353991 L212.194164,69.3002817 Z" id="Path" fill="#FFFFFF"></path>
                <path d="M229.285079,103.806657 C222.542461,103.806657 202.062208,84.3117371 199.622366,81.9680751 C199.510214,81.8563907 199.445612,81.7056538 199.441922,81.5474178 C199.438236,81.3841783 199.503747,81.2269548 199.622366,81.1147418 L211.773502,68.8796244 C212.002233,68.6731907 212.350038,68.6731907 212.57877,68.8796244 L229.561514,82.4488263 L259.741041,67.3051643 C260.53429,65.8869484 264.548612,58.8199061 266.820189,58.0146479 C267.132681,57.9064789 267.625457,57.6781221 268.226404,57.4016901 C271.086909,56.0676056 275.882461,53.7960563 278.947287,55.3705164 C280.243329,56.0699785 281.134035,57.3392192 281.351073,58.7958685 L281.435205,59.2405634 C282.180379,62.6058216 283.706782,69.6247887 273.502713,76.6798122 C270.665971,78.4588039 267.555472,79.7582129 264.296215,80.5258216 C262.252997,82.0161502 237.578139,99.9962441 230.342744,103.565822 C230.0151,103.731089 229.651971,103.813618 229.285079,103.806657 L229.285079,103.806657 Z M200.896372,81.5233803 C210.511514,90.6937089 226.460631,104.178779 229.813912,102.520188 C237.109401,98.914554 263.466909,79.684507 263.683249,79.5042254 C263.7531,79.4561992 263.830198,79.4196796 263.911609,79.3960563 C267.046842,78.6794256 270.046,77.4619202 272.793596,75.7904225 C282.336625,69.1921127 280.918391,62.7019718 280.245331,59.589108 L280.14918,59.1444131 C280.036791,58.0275964 279.386189,57.0360016 278.406435,56.4882629 C275.858423,55.2142723 271.195079,57.3656338 268.731199,58.5194366 C268.094196,58.8199061 267.529306,59.0602817 267.216814,59.1924883 C265.762524,59.7092958 262.409243,64.925446 260.702555,68.086385 C260.650516,68.194582 260.560764,68.2800582 260.450158,68.3267606 L229.729779,83.6867606 C229.516634,83.7838725 229.267387,83.7561788 229.080757,83.6146479 L212.254259,70.0935211 L200.896372,81.5233803 Z" id="Shape" fill="#303337"></path>
                <path d="M153.674006,28.7489202 C192.62735,37.1620657 230.895615,78.9753991 230.895615,78.9753991 L212.049937,97.1598122 L196.894069,84.5280751 C193.288391,91.943662 175.007603,120.031549 175.007603,120.031549 C175.007603,120.031549 149.419306,116.930704 130.068833,100.104413 C128.602524,103.830235 150.873596,37.0418779 153.674006,28.7489202 Z" id="Path" fill="#F0AA3B"></path>
                <path d="M174.418675,41.1282629 C174.418675,41.1282629 169.490915,54.8777465 177.675804,60.1660094 C184.262177,64.4206573 187.59142,55.9113615 187.59142,55.9113615 L174.418675,41.1282629 Z" id="Path" fill="#303337"></path>
                <path d="M181.233407,61.9688263 C179.841154,61.9202048 178.492788,61.4693632 177.351293,60.6707981 C168.865931,55.1902347 173.637445,41.5128638 173.853785,40.9359624 C173.923461,40.7357535 174.091641,40.5857576 174.298486,40.5393427 C174.507201,40.5036094 174.719815,40.5759876 174.863375,40.7316432 L188.084196,55.5147418 C188.231501,55.6830162 188.273176,55.91917 188.192366,56.1276995 C188.120252,56.3079812 186.413565,60.5746479 182.952114,61.7044131 C182.39582,61.8787016 181.816364,61.9678475 181.233407,61.9688263 L181.233407,61.9688263 Z M174.671073,42.3301408 C173.769653,45.5030986 171.546151,55.5507981 178.012334,59.6612207 C179.300526,60.6499354 180.977112,60.9790226 182.54347,60.5506103 C184.947256,59.7814085 186.437603,56.9449765 186.894322,56.0195305 L174.671073,42.3301408 Z" id="Shape" fill="#303337"></path>
                <path d="M166.73858,122.182911 C166.73858,122.182911 207.663028,130.908545 211.797539,138.768826 C215.93205,146.629108 197.963754,225.832864 197.963754,225.832864 L180.368044,230.760563 L185.34388,157.662347 L162.411767,146.172394" id="Path" fill="#FFFFFF"></path>
                <path d="M180.368044,231.313477 C180.226286,231.315317 180.089,231.263835 179.983438,231.169202 C179.835762,231.044465 179.75558,230.857376 179.767098,230.664413 L184.718896,157.962817 L162.14735,146.629108 C161.848646,146.479758 161.727572,146.116541 161.876924,145.81784 C162.026276,145.51914 162.389498,145.398068 162.688202,145.547418 L185.620315,157.037371 C185.836544,157.144943 185.965179,157.373625 185.944826,157.614272 L181.017066,229.871174 L197.458959,225.304038 C203.672744,197.889202 214.453722,145.054648 211.268707,139.009202 C207.314479,131.485446 167.027035,122.819906 166.618391,122.723756 C166.403694,122.67867 166.229358,122.522471 166.161056,122.313996 C166.092753,122.105522 166.14086,121.876446 166.287254,121.713057 C166.433649,121.549669 166.656091,121.476792 166.870789,121.521878 C168.553438,121.882441 208.119748,130.391737 212.338391,138.420282 C216.557035,146.448826 199.285836,222.72 198.552681,225.953052 C198.504122,226.166943 198.342887,226.337389 198.132019,226.397746 L180.52429,231.277371 L180.368044,231.313477 Z" id="Shape" fill="#303337"></path>
                <path d="M175.007603,120.031549 L190.704322,126.750047 L176.882555,156.520563 C176.882555,156.520563 139.046972,150.330892 129.20347,128.757183 C122.761325,114.61108 130.068833,100.104413 130.068833,100.104413 L175.007603,120.031549 Z" id="Path" fill="#303337"></path>
                <path d="M176.882555,157.121698 L176.786404,157.121698 C169.860874,155.831049 163.075143,153.879069 156.522492,151.292394 C146.666972,147.386291 133.830757,140.343286 128.662618,129.009577 C122.172397,114.779343 129.455868,99.9962441 129.527981,99.8520188 C129.668544,99.5612569 130.017055,99.437939 130.309211,99.5755869 L175.247981,119.502723 L190.932681,126.197183 C191.079594,126.264176 191.195583,126.38446 191.257192,126.533709 C191.323528,126.682912 191.323528,126.853238 191.257192,127.002441 L177.435426,156.772958 C177.338426,156.99012 177.12032,157.127619 176.882555,157.121698 Z M130.357287,100.957746 C129.155394,103.637934 124.167539,116.329765 129.756341,128.600939 C138.782555,148.38385 172.267287,155.162441 176.534006,155.943662 L189.899054,127.062535 L174.779243,120.584413 L174.779243,120.584413 L130.357287,100.957746 Z" id="Shape" fill="#303337"></path>
                <path d="M182.327129,202.600563 C181.995236,202.600563 181.726183,202.331514 181.726183,201.999624 C181.726183,201.667735 181.995236,201.398685 182.327129,201.398685 L203.107855,201.398685 L203.107855,201.398685 C203.439748,201.398685 203.708801,201.667735 203.708801,201.999624 C203.702407,202.328829 203.437063,202.594169 203.107855,202.600563 L182.327129,202.600563 L182.327129,202.600563 Z" id="Path" fill="#303337"></path>
                <path d="M146.054006,146.208451 L145.885741,146.208451 C145.717476,146.208451 128.42224,141.064413 125.633849,117.36338 C125.59734,117.031491 125.836797,116.732846 126.168691,116.696338 C126.500584,116.65983 126.799233,116.899284 126.835741,117.231174 C129.515962,140.150986 146.066025,145.054648 146.210252,145.102723 C146.529338,145.195951 146.715955,145.526526 146.630915,145.847887 C146.531705,146.075833 146.302378,146.21916 146.054006,146.208451 Z" id="Path" fill="#FFFFFF"></path>
                <path d="M265.125521,60.2741784 C267.884142,58.6978052 270.898879,57.6196738 274.031546,57.0892019 C274.638768,56.9162195 275.291047,57.0125281 275.822366,57.353615 C276.303152,57.8761447 276.367524,58.6584959 275.978612,59.2525822 C275.582466,59.8166498 275.065004,60.2848238 274.464227,60.622723 C272.324858,62.040939 270.209527,63.5032238 268.118233,65.0095775 C267.783178,65.2014787 267.524316,65.5027734 267.385079,65.8629108 C267.3432,66.0812653 267.3432,66.3055892 267.385079,66.5239437 C267.844449,69.3183113 267.216553,72.1825142 265.630315,74.5284507" id="Path" fill="#FFFFFF"></path>
                <path d="M265.618297,75.1293897 C265.497932,75.1271623 265.380887,75.0895413 265.281767,75.0212207 C265.011702,74.834003 264.9421,74.4645808 265.125521,74.1919249 C266.637571,71.9819355 267.244138,69.2760807 266.820189,66.6321127 C266.759647,66.3306464 266.759647,66.0201517 266.820189,65.7186854 C266.976479,65.2140656 267.314934,64.7856467 267.769685,64.5168075 C269.848959,63.0144601 272.000347,61.5361502 274.139716,60.1059155 C274.667327,59.8081816 275.122831,59.3978223 275.473817,58.9040376 C275.714681,58.5659621 275.714681,58.1123477 275.473817,57.7742723 C275.197382,57.5218779 274.65653,57.5699531 274.163754,57.6420657 C271.098532,58.1651451 268.149094,59.2228615 265.450032,60.7669484 C265.162619,60.8761365 264.838784,60.7555156 264.692839,60.4849121 C264.546894,60.2143087 264.623997,59.8774539 264.873123,59.697277 C267.699038,58.0961118 270.78166,56.9980938 273.98347,56.4522066 C274.769264,56.2436118 275.607181,56.3979629 276.267066,56.8728638 C276.957932,57.5850413 277.072127,58.6773272 276.543502,59.5169953 C276.108696,60.1632732 275.528232,60.6984454 274.848833,61.0794366 C272.709464,62.5096714 270.582114,63.9759624 268.514858,65.4662911 C268.346593,65.5864789 268.058139,65.7907981 268.022082,65.959061 C268.007195,66.0908485 268.007195,66.2238932 268.022082,66.3556808 C268.514009,69.3129284 267.851423,72.3461575 266.171167,74.8289202 C266.058232,75.0252663 265.844487,75.1414308 265.618297,75.1293897 Z" id="Path" fill="#303337"></path>
                <path d="M180.392082,226.962629 C180.392082,226.962629 192.567256,228.885634 198.660852,222.467606 C201.072571,226.972181 205.218261,230.297374 210.138927,231.673991 C218.660347,234.246009 226.003912,236.649765 225.956071,238.741033 C225.90776,240.8323 222.037666,242.226479 222.037666,242.226479 C222.037666,242.226479 184.322271,248.656526 178.420978,244.846573 C172.519685,241.03662 180.392082,226.962629 180.392082,226.962629 Z" id="Path" fill="#303337"></path>
                <path d="M186.726057,246.637371 C182.711735,246.637371 179.5147,246.276808 178.096467,245.351362 C171.810568,241.276995 179.538738,227.323192 179.875268,226.66216 C180.000762,226.449033 180.24402,226.33456 180.488233,226.373709 C180.608423,226.373709 192.423028,228.164507 198.22817,222.058967 C198.367838,221.91359 198.570061,221.846183 198.769022,221.878685 C198.96431,221.917406 199.129465,222.046851 199.213722,222.22723 C201.570793,226.558075 205.574407,229.755727 210.319211,231.097089 C221.364606,234.426291 226.616877,236.421408 226.544763,238.76507 C226.47265,241.108732 222.674669,242.635117 222.241987,242.791362 C220.98,243.0077 199.514196,246.637371 186.726057,246.637371 Z M180.716593,227.611643 C179.5147,229.787042 173.865804,241.204883 178.73347,244.341784 C183.252587,247.250329 208.961073,243.849014 221.929495,241.637559 C222.722744,241.337089 225.306814,240.099155 225.342871,238.729014 C225.342871,236.890141 214.970536,233.753239 209.958644,232.250892 C205.159256,230.885302 201.059655,227.744032 198.492587,223.465164 C192.735521,228.777465 182.916057,227.888075 180.728612,227.611643 L180.716593,227.611643 Z" id="Shape" fill="#303337"></path>
                <path d="M180.993028,36.8255399 C178.73347,34.7823474 178.384921,31.4170892 178.264732,28.5806573 C177.95224,21.6578404 177.72388,13.4129577 182.495394,7.78816901 C187.47123,1.93502347 198.396435,-0.624976526 205.667886,1.21389671 C215.871956,3.77389671 221.4247,15.2638498 215.138801,24.2538967 C213.936909,26.0086385 213.203754,26.6576526 211.184574,26.09277 C209.165394,25.5278873 207.350536,24.7947418 205.283281,25.8283568 C203.510942,26.8910626 202.060996,28.4157719 201.088675,30.2392488 C200.11997,32.0294472 198.906395,33.6758439 197.482997,35.130892 C194.442208,37.9192488 189.658675,38.0153991 185.752524,38.2557746 C184.036144,38.4618345 182.311505,37.9435782 180.993028,36.8255399 Z" id="Path" fill="#FFFFFF"></path>
                <path d="M185.175615,38.8807512 C183.494681,38.9426033 181.853196,38.3625046 180.584385,37.258216 L180.584385,37.258216 C178.252713,35.1549296 177.808013,31.8497653 177.663785,28.5926761 C177.375331,22.1506103 176.990726,13.3288263 182.038675,7.3915493 C187.375079,1.11774648 198.636814,-1.17784038 205.812114,0.612957746 C211.131362,1.90344635 215.479148,5.72118665 217.446435,10.8289202 C219.1797,15.4310829 218.498694,20.5949401 215.631577,24.5904225 C214.429685,26.3331455 213.504227,27.3307042 211.028328,26.6576526 L210.33123,26.4413146 C208.64858,25.9485446 207.206309,25.5399061 205.583754,26.3331455 C203.918714,27.354245 202.557498,28.8025947 201.641546,30.5276995 L201.329054,31.0324883 C200.423575,32.6879459 199.286322,34.2056134 197.951735,35.5395305 C194.947003,38.291831 190.536057,38.5562441 186.653943,38.7846009 L185.848675,38.7846009 L185.175615,38.8807512 Z M181.389653,36.3808451 C182.598436,37.3943665 184.175953,37.8562856 185.740505,37.6548357 L186.545773,37.6548357 C190.235584,37.4384977 194.41817,37.1981221 197.098391,34.7342723 C198.34763,33.4695318 199.415464,32.0376813 200.271388,30.4796244 L200.58388,29.9748357 C201.588145,28.0111911 203.125147,26.3700764 205.018864,25.2394366 C207.050063,24.2298592 208.864921,24.7466667 210.631703,25.2394366 L211.34082,25.4317371 C212.999432,25.8884507 213.480189,25.5158685 214.646025,23.8452582 C217.265736,20.1924519 217.900737,15.4772851 216.340694,11.2615962 C214.510357,6.51900297 210.46656,2.97847764 205.523659,1.79079812 C198.841136,0.120187793 187.92795,2.33164319 182.952114,8.18478873 C178.204637,13.7615023 178.589243,22.3068545 178.865678,28.6167136 C178.997886,31.6093897 179.394511,34.6261033 181.389653,36.440939 L181.389653,36.3808451 Z" id="Shape" fill="#303337"></path>
                <path d="M209.465868,31.2488263 C209.465868,31.2488263 211.244669,39.926385 209.730284,40.9720188 C208.215899,42.0176526 205.487603,39.7701408 205.487603,39.7701408" id="Path" fill="#FFFFFF"></path>
                <path d="M208.756751,41.8133333 C207.427138,41.6509805 206.173915,41.1037465 205.151073,40.2388732 C205.024445,40.1416623 204.942707,39.9972109 204.924581,39.8386061 C204.906454,39.6800013 204.953492,39.5208328 205.054921,39.3975587 C205.261319,39.139811 205.637016,39.0968747 205.896246,39.3014085 C206.52123,39.8061972 208.492334,41.068169 209.429811,40.4311737 C210.054795,39.9984977 209.814416,35.7438498 208.912997,31.320939 C208.853355,30.9970261 209.060351,30.6838819 209.381735,30.611831 C209.537931,30.579922 209.700406,30.6113848 209.8334,30.6992946 C209.966393,30.7872043 210.059005,30.9243561 210.090852,31.0805634 C210.643722,33.8088263 211.773502,40.2749296 210.090852,41.4167136 C209.696901,41.6816548 209.231459,41.8200275 208.756751,41.8133333 L208.756751,41.8133333 Z" id="Path" fill="#303337"></path>
                <path d="M214.129211,15.5523005 C216.064259,19.061784 211.244669,29.9748357 209.910568,33.1357746 C208.043628,37.6788732 206.07653,42.1738967 204.009274,46.6208451 C202.687192,49.4452582 195.187382,46.5006573 194.213849,45.1064789 L186.822208,56.4882629 C186.822208,56.4882629 184.694858,59.7573709 179.779117,54.5412207 C174.863375,49.3250704 174.418675,41.0922066 174.418675,41.0922066 L183.312681,31.645446 C183.312681,31.645446 188.240442,33.6646009 193.52877,28.9532394 C198.817098,24.2418779 202.326625,15.1676995 202.326625,15.1676995 C202.326625,15.1676995 212.230221,12.1149296 214.129211,15.5523005 Z" id="Path" fill="#FFFFFF"></path>
                <path d="M184.730915,58.1348357 C183.120379,58.1348357 181.305521,57.0771831 179.346435,54.9859155 C174.346562,49.673615 173.829748,41.5128638 173.817729,41.1643192 C173.808458,41.0011877 173.864703,40.8411063 173.973975,40.7196244 L182.88,31.2488263 C183.051455,31.0724834 183.311714,31.0157003 183.541041,31.1046009 C183.733344,31.1887324 188.204385,32.9194366 193.156183,28.5325822 C198.276246,23.9774648 201.761735,15.0595305 201.797792,14.9633803 C201.865121,14.7939234 202.00715,14.6652118 202.182397,14.6148357 C203.240063,14.2783099 212.626845,11.4899531 214.694101,15.2398122 L214.694101,15.2398122 C216.38877,18.3286385 213.708549,25.6841315 210.872082,32.4867606 L210.511514,33.3521127 C208.64858,37.8831925 206.653438,42.4262911 204.586183,46.8612207 C204.092179,47.8062963 203.104282,48.3887759 202.03817,48.3635681 C199.297604,48.3579265 196.623448,47.5196434 194.370095,45.9598122 L187.36306,56.7767136 C186.823585,57.5135193 185.989815,57.9786697 185.079464,58.0507042 L184.730915,58.1348357 Z M175.03164,41.3085446 C175.163849,42.702723 175.993155,49.6255399 180.223817,54.1205634 C182.483375,56.5243192 184.021798,56.9449765 184.911199,56.8848826 C185.465114,56.849661 185.977238,56.5782829 186.317413,56.1397183 L193.721073,44.7338967 C193.82752,44.5638303 194.013226,44.4596552 194.213849,44.4574648 C194.408446,44.4602841 194.590623,44.5535933 194.706625,44.7098592 C195.247476,45.479061 199.273817,47.3539906 201.917981,47.113615 C202.548939,47.1468102 203.147848,46.8335388 203.480442,46.296338 C205.547697,41.8734272 207.53082,37.3423474 209.381735,32.8353052 L209.742303,31.9579343 C211.256688,28.3523005 215.271009,18.737277 213.624416,15.7686385 C212.326372,13.3648826 205.475584,14.8311737 202.807382,15.6123944 C202.170379,17.210892 198.841136,25.0230986 193.961451,29.3738967 C189.274069,33.5444131 184.863123,32.6910798 183.529022,32.2944601 L175.03164,41.3085446 Z" id="Shape" fill="#303337"></path>
                <path d="M205.259243,43.1834742 C202.224393,42.3024385 199.980542,39.7347154 199.514196,36.6092019" id="Path" fill="#FFFFFF"></path>
                <path d="M205.259243,43.7844131 L205.115016,43.7844131 C201.844346,42.8327309 199.415372,40.0808635 198.877192,36.7173709 C198.830727,36.3854815 199.062113,36.0787651 199.394006,36.0323006 C199.7259,35.9858361 200.03262,36.2172186 200.079085,36.549108 C200.529827,39.4233449 202.614666,41.771107 205.415489,42.5584977 C205.738436,42.6412809 205.936001,42.9669928 205.860189,43.2916432 C205.807326,43.5807504 205.553108,43.7892064 205.259243,43.7844131 Z" id="Path" fill="#303337"></path>
                <path d="M199.514196,30.611831 C199.849585,29.4333505 199.849585,28.1846777 199.514196,27.0061972 C199.383422,26.0602174 199.107763,25.1400144 198.696909,24.2779343 C198.277321,23.4062406 197.486869,22.7703544 196.545521,22.54723 C195.680463,22.4105722 194.799464,22.6660587 194.141735,23.2443192 C193.535497,23.8009559 193.055937,24.4813498 192.735521,25.2394366 C191.181638,28.6649306 191.570962,32.6588828 193.757129,35.7198122 L193.624921,35.34723" id="Path" fill="#FFFFFF"></path>
                <path d="M193.757129,36.3087324 C193.568418,36.3068867 193.391076,36.218217 193.276372,36.0683568 C190.971075,32.825159 190.559322,28.6024614 192.194669,24.9750235 C192.561507,24.1115459 193.125421,23.3459499 193.841262,22.7395305 C194.624839,22.0705426 195.657179,21.7687181 196.677729,21.9102347 C197.80526,22.1638599 198.75364,22.9216683 199.249779,23.965446 C199.69465,24.8780613 199.990844,25.8558954 200.127161,26.8619718 C200.49788,28.1580499 200.49788,29.5320909 200.127161,30.828169 C200.004272,31.1368956 199.657768,31.2914877 199.345931,31.1767136 C199.195432,31.1202125 199.073844,31.0057693 199.008346,30.858964 C198.942847,30.7121586 198.938898,30.5452312 198.997382,30.395493 C199.306314,29.3154279 199.306314,28.1703937 198.997382,27.0903286 C198.877233,26.2033278 198.621872,25.3399751 198.240189,24.5303286 C197.90993,23.8158693 197.273361,23.2898222 196.509464,23.1000939 C195.836612,23.0172689 195.160068,23.2224119 194.64653,23.6649765 C194.074266,24.1642655 193.625794,24.7896492 193.336467,25.491831 C191.943415,28.5061994 192.141668,32.0161281 193.8653,34.8544601 C194.01081,34.9133605 194.124422,35.0313401 194.177792,35.1789671 L194.322019,35.5515493 C194.430738,35.8341081 194.312282,36.153421 194.045584,36.2967136 C193.952005,36.3251024 193.852745,36.3292381 193.757129,36.3087324 L193.757129,36.3087324 Z" id="Path" fill="#303337"></path>
                <path d="M194.213849,45.1064789 C194.213849,45.1064789 190.824511,42.3421596 190.091356,38.9648826 C190.091356,38.9648826 186.101073,45.3228169 191.293249,49.781784 L194.213849,45.1064789 Z" id="Path" fill="#303337"></path>
                <path d="M191.233155,50.3226593 C191.087858,50.3240848 190.946954,50.2728477 190.83653,50.1784038 C185.379937,45.5030986 189.538486,38.7124883 189.634637,38.6403756 C189.764452,38.4337661 190.008233,38.3286067 190.247603,38.3759624 C190.488081,38.4116943 190.68035,38.5943479 190.72836,38.8326761 C191.413438,41.9695775 194.610473,44.6137089 194.64653,44.6377465 C194.883076,44.8327891 194.93487,45.1746263 194.766719,45.4309859 L191.786025,50.0461972 C191.689414,50.1897614 191.536621,50.2858016 191.365363,50.3106103 L191.233155,50.3226593 Z M189.971167,40.5393427 C189.201956,42.4022535 188.312555,45.9477934 191.112965,48.7962441 L193.432618,45.1906103 C191.977811,43.8886801 190.800523,42.3067194 189.971167,40.5393427 L189.971167,40.5393427 Z" id="Shape" fill="#303337"></path>
                <ellipse id="Oval" fill="#303337" transform="translate(207.246092, 27.452575) rotate(-58.543177) translate(-207.246092, -27.452575) " cx="207.246092" cy="27.4525746" rx="1.74850722" ry="1"></ellipse>
                <line x1="210.030757" y1="26.2730516" x2="207.434669" y2="23.53277" id="Path" fill="#FFFFFF"></line>
                <polygon id="Path" fill="#303337" points="186.473659 246.180657 185.800599 250.771831 182.507413 250.904038 181.137256 245.880188"></polygon>
                <path d="M182.507413,251.505006 C182.235507,251.507704 181.997084,251.323921 181.930505,251.060282 L180.560347,246.036432 C180.513946,245.847271 180.558386,245.647292 180.680536,245.495587 C180.802662,245.351367 180.984486,245.271543 181.173312,245.279249 L186.497697,245.579718 C186.666964,245.593878 186.823176,245.676323 186.930379,245.808075 C187.039492,245.93345 187.087854,246.100515 187.062587,246.264789 L186.401546,250.855962 C186.356233,251.143296 186.115209,251.35921 185.824637,251.37277 L182.531451,251.505006 L182.507413,251.505006 Z M181.942524,246.517183 L182.952114,250.29108 L185.283785,250.19493 L185.78858,246.74554 L181.942524,246.517183 Z" id="Shape" fill="#303337"></path>
                <polygon id="Path" fill="#303337" points="195.776309 245.303286 195.115268 249.89446 191.810063 250.026667 190.451924 245.002817"></polygon>
                <path d="M191.810063,250.627606 C191.539598,250.626088 191.303472,250.444076 191.233155,250.182911 L189.899054,245.183099 C189.84946,244.999636 189.889574,244.803527 190.007224,244.654272 C190.129524,244.502113 190.31699,244.417308 190.512019,244.425915 L195.836404,244.738404 C196.005774,244.741989 196.164594,244.821398 196.269085,244.954742 C196.375382,245.081634 196.423369,245.247403 196.401293,245.411455 L195.728233,250.002629 C195.692881,250.29049 195.45321,250.509762 195.163344,250.519437 L191.858139,250.651643 L191.810063,250.627606 Z M191.245174,245.651831 L192.266782,249.413709 L194.598454,249.317559 L195.09123,245.868169 L191.245174,245.651831 Z" id="Shape" fill="#303337"></path>
                <polygon id="Path" fill="#303337" points="220.126656 242.178404 219.465615 246.757559 216.16041 246.901784 214.802271 241.865915"></polygon>
                <path d="M216.16041,247.490704 C215.893323,247.490704 215.658286,247.314429 215.583502,247.058028 L214.225363,242.02216 C214.175769,241.838697 214.215883,241.642588 214.333533,241.493333 C214.460474,241.348664 214.646021,241.269145 214.838328,241.276995 L220.162713,241.577465 C220.330878,241.58578 220.487842,241.664262 220.595394,241.793803 C220.694385,241.928711 220.737444,242.09664 220.715584,242.262535 L220.054543,246.84169 C220.01919,247.129552 219.779519,247.348823 219.489653,247.358498 L216.184448,247.490704 L216.16041,247.490704 Z M215.595521,242.51493 L216.617129,246.276808 L218.936782,246.180657 L219.441577,242.731268 L215.595521,242.51493 Z" id="Shape" fill="#303337"></path>
                <path d="M158.096972,29.4339906 C148.788782,26.0955867 139.042549,24.1358365 129.167413,23.6169014 L119.552271,46.1761502 L152.640379,60.7068545 L158.096972,29.4339906 Z" id="Path" fill="#F0AA3B"></path>
                <path d="M156.402303,60.9592488 L156.197981,60.9592488 L124.94877,49.2289202 C124.798271,49.1724191 124.676683,49.0579759 124.611185,48.9111705 C124.545686,48.7643651 124.541737,48.5974378 124.600221,48.4476995 C124.718019,48.1405793 125.060848,47.9852369 125.369432,48.0991549 L156.618644,59.8294836 C156.950537,59.8892237 157.17116,60.2067021 157.11142,60.5385915 C157.051679,60.870481 156.734196,61.0911016 156.402303,61.0313615 L156.402303,60.9592488 Z" id="Path" fill="#303337"></path>
                <path d="M123.302177,168.046573 C123.13771,168.044386 122.981328,167.974884 122.869495,167.854272 L102.497413,146.424789 C102.268407,146.182509 102.279169,145.800459 102.521451,145.571455 C102.763733,145.342452 103.145788,145.353214 103.374795,145.595493 L123.794953,167.061033 C123.908719,167.173869 123.972712,167.327467 123.972712,167.4877 C123.972712,167.647932 123.908719,167.80153 123.794953,167.914366 C123.6593,168.030991 123.47799,168.079634 123.302177,168.046573 Z" id="Path" fill="#FFFFFF"></path>
                <path d="M173.625426,153.756244 C173.534039,153.755053 173.443934,153.734575 173.361009,153.69615 C173.217361,153.626243 173.107461,153.502017 173.055591,153.350918 C173.00372,153.199819 173.01415,153.034286 173.084574,152.890892 L186.004921,126.449577 C186.099388,126.256352 186.289765,126.128201 186.504338,126.113398 C186.718912,126.098596 186.925083,126.199389 187.04519,126.377812 C187.165297,126.556234 187.181091,126.785178 187.086625,126.978404 L174.166278,153.419718 C174.060978,153.622245 173.853638,153.751254 173.625426,153.756244 L173.625426,153.756244 Z" id="Path" fill="#FFFFFF"></path>
                <path d="M180.944953,111.402066 C180.830091,111.399864 180.717963,111.366641 180.620442,111.305915 C180.340546,111.121856 180.260259,110.747187 180.440158,110.464601 C180.608423,110.212207 197.519054,84.2396244 201.497319,74.4082629 C201.623438,74.0996057 201.975897,73.9516285 202.284558,74.0777465 C202.593219,74.2038645 202.741198,74.5563194 202.615079,74.8649765 C198.588738,84.8165258 182.182902,110.067981 181.449748,111.137653 C181.335171,111.303401 181.14645,111.402066 180.944953,111.402066 L180.944953,111.402066 Z" id="Path" fill="#303337"></path>
                <path d="M348.86151,201.999624 C348.859511,211.390869 343.039768,219.798615 334.250688,223.10761 C325.461607,226.416606 315.541888,223.934601 309.34683,216.876436 C303.151772,209.818271 301.977399,199.660533 306.398517,191.375023 C308.850316,186.79872 312.801013,183.204522 317.588139,181.195117 C323.165991,178.856044 329.44975,178.856044 335.027603,181.195117 C339.813461,183.201796 343.761136,186.797108 346.205205,191.375023 C347.960674,194.64045 348.873641,198.292273 348.86151,201.999624 L348.86151,201.999624 Z" id="Path" fill="#FFFFFF"></path>
                <path d="M326.301861,179.44024 C329.299111,179.429906 332.267407,180.026828 335.027603,181.195117 C339.813461,183.201796 343.761136,186.797108 346.205205,191.375023 C350.023659,198.530543 349.707026,207.185074 345.375899,214.042441 C340.18591,222.269613 330.306772,226.243628 320.865301,223.902157 C311.42383,221.560685 304.546447,213.431077 303.802197,203.732222 C303.057947,194.033368 308.61445,184.949657 317.588139,181.195117 C320.344413,180.027782 323.308592,179.430865 326.301861,179.44024 M326.301861,178.238431 C323.147643,178.230955 320.024388,178.860503 317.119401,180.08939 C306.683209,184.465409 300.78128,195.594149 303.013153,206.688284 C305.245027,217.782419 314.991329,225.76319 326.307871,225.76319 C337.624412,225.76319 347.370715,217.782419 349.602588,206.688284 C351.834461,195.594149 345.932533,184.465409 335.496341,180.08939 C332.587138,178.860502 329.459963,178.230986 326.301861,178.238431 L326.301861,178.238431 Z" id="Shape" fill="#303337"></path>
                <polygon id="Path" fill="#F0AA3B" points="326.301861 193.850892 317.744385 200.07662 321.013533 210.148357 331.602208 210.148357 334.871356 200.07662"></polygon>
                <path d="M317.744385,181.303286 L314.475237,191.375023 L306.398517,191.375023 C308.850316,186.79872 312.801013,183.204522 317.588139,181.195117 L317.744385,181.303286 Z" id="Path" fill="#303337"></path>
                <path d="M346.205205,191.375023 L338.140505,191.375023 L334.871356,181.303286 L335.027603,181.195117 C339.813461,183.201796 343.761136,186.797108 346.205205,191.375023 L346.205205,191.375023 Z" id="Path" fill="#303337"></path>
                <path d="M317.744385,222.695962 L314.475237,212.624225 L306.398517,212.624225 C308.847179,217.202974 312.798874,220.798081 317.588139,222.804131 L317.744385,222.695962 Z" id="Path" fill="#303337"></path>
                <path d="M346.205205,212.624225 L338.140505,212.624225 L334.871356,222.695962 L335.027603,222.804131 C339.816151,220.801671 343.765086,217.205212 346.205205,212.624225 L346.205205,212.624225 Z" id="Path" fill="#303337"></path>
            </g>
        </g>
    </g>
</svg>