<?xml version="1.0" encoding="UTF-8"?>
<svg width="456px" height="472px" viewBox="0 0 456 472" version="1.1" xmlns="http://www.w3.org/2000/svg" xmlns:xlink="http://www.w3.org/1999/xlink">
    <title>Group 3@1x</title>
    <g id="Page-1" stroke="none" stroke-width="1" fill="none" fill-rule="evenodd">
        <g id="ШФ_Страница-клуба" transform="translate(-832.000000, -3316.000000)">
            <g id="Group-28" transform="translate(0.000000, 3316.000000)">
                <g id="Group-14-Copy-2" transform="translate(72.000000, 0.000000)">
                    <g id="Group-3" transform="translate(760.000000, 0.000000)">
                        <rect id="Rectangle" fill="#FFFFFF" x="0" y="4.54747351e-13" width="456" height="440"></rect>
                        <g id="checklist__flatline-2" transform="translate(1.000000, 0.000000)" fill-rule="nonzero">
                            <g id="checklist__flatline">
                                <path d="M103.493871,419.611038 C103.493871,419.611038 110.499355,362.440369 114.526129,349.95038 C118.552903,337.460392 117.412903,217.80299 117.541613,216.588941 C117.670323,215.374892 52.8558065,247.694347 47.1925806,257.314765 C41.5293548,266.935183 56.2758065,329.679441 52.1387097,338.748019 C48.0016129,347.816597 34.523871,387.549109 34.523871,387.549109 L103.493871,419.611038 Z" id="Path" fill="#FFFFFF"></path>
                                <path d="M103.493871,420.530773 C103.360285,420.526427 103.228952,420.495144 103.107742,420.438799 L34.1193548,388.37687 C33.6856388,388.190664 33.4690675,387.701171 33.6229032,387.254794 C34.1745161,385.617667 47.1925806,347.35673 51.2929032,338.361731 C53.1316129,334.370085 50.8516129,317.851661 48.6451613,301.885078 C45.9790323,282.40511 43.1290323,262.262934 46.3835484,256.854898 C49.6380645,251.446862 68.2825806,240.649184 83.5070968,232.389972 C88.5083871,229.685954 116.033871,215.154156 117.799032,215.687601 C118.217168,215.830213 118.483204,216.240836 118.442581,216.680914 C118.442581,216.956834 118.442581,220.194298 118.442581,224.645811 C118.534516,253.065594 118.810323,339.520596 115.353548,350.244695 C111.41871,362.495553 104.468387,419.151171 104.32129,419.721407 C104.243723,420.174192 103.860723,420.511371 103.401935,420.530773 L103.493871,420.530773 Z M35.6454839,387.052453 L102.74,418.323411 C103.806452,409.677911 109.910968,361.299899 113.625161,349.766433 C115.85,342.850033 116.86129,300.781397 116.622258,224.6826 C116.622258,221.003664 116.622258,218.94346 116.622258,217.821384 C108.090645,221.206006 53.0212903,249.221105 47.9832258,257.811422 C45.1332258,262.667617 47.9832258,283.380029 50.5022581,301.645947 C52.9293548,319.360025 55.0254839,334.756374 52.9845161,339.152702 C49.2151613,347.338336 37.6129032,381.442075 35.6454839,387.052453 L35.6454839,387.052453 Z" id="Shape" fill="#303337"></path>
                                <polygon id="Path" fill="#F0AA3B" points="102.464194 469.810124 113.551613 395.863505 38.146129 358.522302 0.0480645161 466.076003"></polygon>
                                <rect id="Rectangle" fill="#FFFFFF" x="103.273226" y="33.6806615" width="254.036129" height="328.841718" rx="6.4"></rect>
                                <path d="M345.541613,363.460508 L115.022581,363.460508 C108.027071,363.44026 102.363965,357.766595 102.353871,350.768178 L102.353871,45.4164682 C102.363965,38.4180511 108.027071,32.7443867 115.022581,32.7241381 L345.541613,32.7241381 C352.544304,32.7342691 358.218583,38.4108885 358.22871,45.4164682 L358.22871,350.768178 C358.218583,357.773758 352.544304,363.450377 345.541613,363.460508 Z M115.022581,34.6003956 C109.038364,34.6105425 104.192581,39.4665636 104.192581,45.4532576 L104.192581,350.804968 C104.192581,356.791661 109.038364,361.647683 115.022581,361.65783 L345.541613,361.65783 C351.528814,361.647703 356.379878,356.794638 356.39,350.804968 L356.39,45.4532576 C356.379878,39.4635868 351.528814,34.6105218 345.541613,34.6003956 L115.022581,34.6003956 Z" id="Shape" fill="#303337"></path>
                                <rect id="Rectangle" fill="#FFFFFF" x="118.82871" y="53.8412322" width="222.906774" height="288.557366"></rect>
                                <path d="M341.735484,343.318332 L118.82871,343.318332 C118.320964,343.318332 117.909355,342.906553 117.909355,342.398598 L117.909355,53.8412322 C117.909355,53.3332771 118.320964,52.9214982 118.82871,52.9214982 L341.735484,52.9214982 C342.24323,52.9214982 342.654839,53.3332771 342.654839,53.8412322 L342.654839,342.398598 C342.654839,342.906553 342.24323,343.318332 341.735484,343.318332 Z M119.748065,341.478864 L340.816129,341.478864 L340.816129,54.7609663 L119.748065,54.7609663 L119.748065,341.478864 Z" id="Shape" fill="#303337"></path>
                                <path d="M288.541613,22.0736176 L256.419355,22.0736176 C253.988458,9.52405635 243.004686,0.460691728 230.226935,0.460691728 C217.449185,0.460691728 206.465413,9.52405635 204.034516,22.0736176 L172.040968,22.0736176 C167.793229,22.0736055 164.346912,25.513116 164.336774,29.7625944 L164.336774,56.5636451 C164.346912,60.8131235 167.793229,64.2526219 172.040968,64.2526219 L288.541613,64.2526219 C292.786367,64.2526219 296.227419,60.8101497 296.227419,56.5636451 L296.227419,29.7441997 C296.217282,25.5048804 292.779196,22.0736055 288.541613,22.0736176 L288.541613,22.0736176 Z M230.29129,25.5686319 C227.523107,25.5760515 225.023358,23.9135798 223.95886,21.357191 C222.894362,18.8008021 223.475016,15.8545706 225.429788,13.8937215 C227.384559,11.9328724 230.328002,11.3440502 232.886193,12.4021021 C235.444384,13.460154 237.112903,15.9564509 237.112903,18.7257856 C237.10286,22.4936323 234.057543,25.5484174 230.29129,25.5686319 L230.29129,25.5686319 Z" id="Shape" fill="#303337"></path>
                                <path d="M204.714839,146.164138 L150.877419,146.164138 C150.410293,146.164138 150.031613,145.785301 150.031613,145.317982 L150.031613,87.7610246 C150.031613,87.2937059 150.410293,86.9148693 150.877419,86.9148693 L204.714839,86.9148693 C205.177866,86.9246244 205.550894,87.2978068 205.560645,87.7610246 L205.560645,145.317982 C205.550894,145.7812 205.177866,146.154383 204.714839,146.164138 Z M151.723226,144.453432 L203.869032,144.453432 L203.869032,88.6071799 L151.723226,88.6071799 L151.723226,144.453432 Z" id="Shape" fill="#E4E9EC"></path>
                                <path d="M217.328387,101.832956 C217.045777,102.309759 216.719539,102.759291 216.353871,103.175768 L181.565484,137.96011 C181.207966,138.523728 180.587089,138.865208 179.919839,138.865208 C179.252588,138.865208 178.631712,138.523728 178.274194,137.96011 L158.710323,117.72596 C158.171919,117.373606 157.856768,116.765352 157.879329,116.122109 C157.90189,115.478866 158.25888,114.894206 158.820645,114.58047 L163.73,110.165746 C164.076575,109.695294 164.625989,109.417588 165.210161,109.417588 C165.794334,109.417588 166.343748,109.695294 166.690323,110.165746 C170.527097,114.102208 174.382258,118.032538 178.255806,121.956737 C178.617832,122.519989 179.241277,122.860458 179.910645,122.860458 C180.580013,122.860458 181.203459,122.519989 181.565484,121.956737 L208.612903,95.1188971 C208.974907,94.5795884 209.581614,94.2560605 210.230968,94.2560605 C210.880322,94.2560605 211.487029,94.5795884 211.849032,95.1188971 C213.375161,96.6640504 214.90129,98.1908089 216.409032,99.7359621 C216.74788,100.145396 217.06106,100.575428 217.346774,101.02359 L217.328387,101.832956 Z" id="Path" fill="#F0AA3B"></path>
                                <path d="M313.750323,108.344673 L236.432581,108.344673 C236.00842,108.282278 235.694107,107.918219 235.694107,107.48932 C235.694107,107.060422 236.00842,106.696362 236.432581,106.633968 L313.750323,106.633968 C314.174484,106.696362 314.488796,107.060422 314.488796,107.48932 C314.488796,107.918219 314.174484,108.282278 313.750323,108.344673 L313.750323,108.344673 Z" id="Path" fill="#E4E9EC"></path>
                                <path d="M293.193548,126.426645 L236.432581,126.426645 C235.965455,126.426645 235.586774,126.047808 235.586774,125.580489 C235.586774,125.113171 235.965455,124.734334 236.432581,124.734334 L293.193548,124.734334 C293.660674,124.734334 294.039355,125.113171 294.039355,125.580489 C294.039355,126.047808 293.660674,126.426645 293.193548,126.426645 Z" id="Path" fill="#E4E9EC"></path>
                                <path d="M204.714839,224.746426 L150.877419,224.746426 C150.651579,224.751295 150.433483,224.663779 150.273749,224.50398 C150.114016,224.344181 150.026536,224.125994 150.031404,223.900061 L150.031404,166.361498 C150.031404,165.894179 150.410293,165.515343 150.877419,165.515343 L204.714839,165.515343 C205.177866,165.525098 205.550894,165.89828 205.560645,166.361498 L205.560645,223.900061 C205.560645,224.124475 205.471534,224.339698 205.312914,224.498383 C205.154295,224.657068 204.939161,224.746426 204.714839,224.746426 Z M151.723226,223.053906 L203.869032,223.053906 L203.869032,167.207653 L151.723226,167.207653 L151.723226,223.053906 Z" id="Shape" fill="#E4E9EC"></path>
                                <path d="M217.328387,180.433429 C217.045777,180.910232 216.719539,181.359764 216.353871,181.776241 L181.565484,216.523794 C181.207966,217.087412 180.587089,217.428892 179.919839,217.428892 C179.252588,217.428892 178.631712,217.087412 178.274194,216.523794 L158.710323,196.289644 C158.171919,195.93729 157.856768,195.329036 157.879329,194.685793 C157.90189,194.04255 158.25888,193.45789 158.820645,193.144154 L163.73,188.72943 C164.076575,188.258978 164.625989,187.981272 165.210161,187.981272 C165.794334,187.981272 166.343748,188.258978 166.690323,188.72943 C170.527097,192.665892 174.382258,196.596222 178.255806,200.520421 C178.617832,201.083673 179.241277,201.424142 179.910645,201.424142 C180.580013,201.424142 181.203459,201.083673 181.565484,200.520421 L208.612903,173.71937 C208.974907,173.180062 209.581614,172.856534 210.230968,172.856534 C210.880322,172.856534 211.487029,173.180062 211.849032,173.71937 C213.375161,175.246129 214.90129,176.772888 216.409032,178.336435 C216.74788,178.74587 217.06106,179.175902 217.346774,179.624063 L217.328387,180.433429 Z" id="Path" fill="#F0AA3B"></path>
                                <path d="M313.750323,186.945146 L236.432581,186.945146 C236.00842,186.882752 235.694107,186.518692 235.694107,186.089794 C235.694107,185.660895 236.00842,185.296836 236.432581,185.234441 L313.750323,185.234441 C314.174484,185.296836 314.488796,185.660895 314.488796,186.089794 C314.488796,186.518692 314.174484,186.882752 313.750323,186.945146 L313.750323,186.945146 Z" id="Path" fill="#E4E9EC"></path>
                                <path d="M293.193548,205.027118 L236.432581,205.027118 C235.965455,205.027118 235.586774,204.648281 235.586774,204.180963 C235.586774,203.713644 235.965455,203.334807 236.432581,203.334807 L293.193548,203.334807 C293.660674,203.334807 294.039355,203.713644 294.039355,204.180963 C294.039355,204.648281 293.660674,205.027118 293.193548,205.027118 L293.193548,205.027118 Z" id="Path" fill="#E4E9EC"></path>
                                <path d="M204.714839,303.015585 L150.877419,303.015585 C150.410293,303.015585 150.031613,302.636749 150.031613,302.16943 L150.031613,244.649262 C150.031613,244.181943 150.410293,243.803106 150.877419,243.803106 L204.714839,243.803106 C205.177866,243.812861 205.550894,244.186044 205.560645,244.649262 L205.560645,302.206219 C205.532035,302.655018 205.16428,303.006929 204.714839,303.015585 L204.714839,303.015585 Z M151.723226,301.323275 L203.869032,301.323275 L203.869032,245.458628 L151.723226,245.458628 L151.723226,301.323275 Z" id="Shape" fill="#E4E9EC"></path>
                                <path d="M217.328387,258.684403 C217.045777,259.161207 216.719539,259.610739 216.353871,260.027215 L181.565484,294.774768 C180.370323,295.970422 179.450968,295.988817 178.274194,294.774768 C171.740645,288.042315 165.219355,281.297598 158.710323,274.540619 C158.171919,274.188264 157.856768,273.58001 157.879329,272.936768 C157.90189,272.293525 158.25888,271.708864 158.820645,271.395128 L163.73,266.980405 C164.076575,266.509952 164.625989,266.232247 165.210161,266.232247 C165.794334,266.232247 166.343748,266.509952 166.690323,266.980405 L178.255806,278.78979 C178.617832,279.353042 179.241277,279.693511 179.910645,279.693511 C180.580013,279.693511 181.203459,279.353042 181.565484,278.78979 L208.612903,252.007134 C208.974907,251.467825 209.581614,251.144298 210.230968,251.144298 C210.880322,251.144298 211.487029,251.467825 211.849032,252.007134 C213.375161,253.552287 214.90129,255.079046 216.409032,256.624199 C216.74788,257.033633 217.06106,257.463665 217.346774,257.911827 L217.328387,258.684403 Z" id="Path" fill="#F0AA3B"></path>
                                <path d="M313.750323,265.196121 L236.432581,265.196121 C235.969554,265.186365 235.596525,264.813183 235.586774,264.349965 C235.586774,264.125551 235.675886,263.910328 235.834505,263.751643 C235.993125,263.592958 236.208259,263.50381 236.432581,263.50381 L313.750323,263.50381 C314.217449,263.50381 314.596129,263.882647 314.596129,264.349965 C314.586378,264.813183 314.213349,265.186365 313.750323,265.196121 L313.750323,265.196121 Z" id="Path" fill="#E4E9EC"></path>
                                <path d="M293.193548,283.278092 L236.432581,283.278092 C235.965455,283.278092 235.586774,282.899256 235.586774,282.431937 C235.596525,281.968719 235.969554,281.595537 236.432581,281.585782 L293.193548,281.585782 C293.656575,281.595537 294.029604,281.968719 294.039355,282.431937 C294.039355,282.899256 293.660674,283.278092 293.193548,283.278092 L293.193548,283.278092 Z" id="Path" fill="#E4E9EC"></path>
                                <path d="M68.0251613,273.410111 C81.5764516,258.694366 97.7203226,246.425114 114.599677,235.627436 C118.773548,232.941812 123.278387,230.256189 128.242903,230.109031 C133.207419,229.961874 138.613226,233.493653 138.760323,238.460217 C138.870645,242.359889 135.92871,245.597353 133.244194,248.356555 L97.1503226,284.649262 C106.08046,301.576788 104.06234,322.200487 92.0203226,337.074103" id="Path" fill="#FFFFFF"></path>
                                <path d="M92.0203226,337.994212 C91.8061443,338.000079 91.5970104,337.928159 91.4319355,337.791496 C91.04687,337.458298 90.9979011,336.878593 91.3216129,336.485474 C103.067569,321.879064 105.03888,301.695493 96.3412903,285.090734 C96.1509192,284.732092 96.2181773,284.290996 96.5067742,284.005448 L132.527097,247.804715 C135.266774,245.045513 137.95129,242.065574 137.840968,238.607374 C137.712258,234.100677 132.655806,231.04716 128.26129,231.249502 C123.866774,231.451843 119.380323,233.824757 115.096129,236.583959 C95.4770968,249.129132 80.7306452,261.085675 68.7054839,274.219477 C68.3602168,274.595364 67.7757318,274.620071 67.4,274.274661 C67.0242682,273.929252 66.9995717,273.344526 67.3448387,272.968639 C79.4803226,259.724468 94.3370968,247.675952 114.103226,235.020411 C118.626452,232.132446 123.112903,229.502007 128.224516,229.502007 C133.336129,229.502007 139.514194,233.180943 139.679677,238.699348 C139.808387,242.893335 136.866452,246.222772 133.832581,249.257895 L98.2903226,284.75963 C107.159875,301.904374 104.991782,322.68327 92.7741935,337.625944 C92.5929527,337.858185 92.314839,337.994212 92.0203226,337.994212 Z" id="Path" fill="#303337"></path>
                                <path d="M383.529355,342.269835 L339.014194,374.166213 L255.794194,271.247971 C255.922903,265.729566 252.116774,241.503771 260.335806,245.495417 C268.554839,249.487063 299.206129,284.436957 304.262581,285.577428 C309.319032,286.717898 321.031613,280.978757 319.266452,269.666028 C317.50129,258.353299 315.368387,239.314804 304.299355,238.523833 C287.511935,237.328178 271.90129,248.475355 265.263548,245.881705 C258.625806,243.288055 253.146452,234.477003 263.976452,227.965286 C276.369355,220.607413 303.049032,215.824796 324.433226,218.142526 C345.817419,220.460256 362.034839,263.50381 363.542581,295.032294 C369.169032,315.082496 380.035806,333.348415 383.529355,342.269835 Z" id="Path" fill="#FFFFFF"></path>
                                <path d="M339.014194,375.085947 C338.733824,375.087417 338.46875,374.958225 338.297097,374.736448 L255.095484,271.836601 C254.950997,271.667599 254.872612,271.45195 254.874839,271.229576 C254.874839,270.125895 254.764516,268.194454 254.599032,265.968697 C253.881935,256.035569 253.514194,246.948597 256.897419,244.630867 C258.07199,243.915516 259.547365,243.915516 260.721935,244.630867 C265.098065,246.709466 275.137419,256.826541 284.864194,266.612511 C293.028065,274.834934 302.276774,284.142642 304.464839,284.657693 C306.652903,285.172745 311.249677,283.921906 314.522581,280.868389 C317.614745,278.094866 319.066031,273.926776 318.365484,269.83158 L318.016129,267.587429 C316.36129,256.679383 313.860645,240.179354 304.244194,239.480356 C295.252903,238.836542 286.463871,241.85327 279.421613,244.281368 C273.188387,246.415151 268.279032,248.107462 264.932581,246.838229 C260.746194,245.38108 257.686963,241.756441 256.952581,237.383362 C256.713548,234.716134 257.65129,230.779672 263.498387,227.266288 C276.369355,219.522127 303.766129,215.070614 324.525161,217.314765 C347.049355,219.779652 362.935806,264.166018 364.461935,294.97711 C368.304839,308.625963 374.63,321.575819 379.263548,331.030685 C381.414839,335.408619 383.271935,339.197924 384.375161,342.067494 C384.521927,342.45301 384.394152,342.889129 384.062581,343.134385 L339.547419,375.049158 C339.377242,375.11398 339.191655,375.126784 339.014194,375.085947 Z M256.731935,270.935261 L339.16129,372.915374 L382.389355,341.938731 C381.286129,339.253108 379.557742,335.739724 377.590323,331.729683 C372.92,322.182843 366.558065,309.104225 362.641613,295.271425 C362.632954,295.204256 362.632954,295.136252 362.641613,295.069083 C361.225806,265.637593 345.615161,221.361595 324.359677,219.043865 C303.913226,216.818109 277.049677,221.159254 264.472903,228.719468 C260.482903,231.129171 258.533871,234.017136 258.809677,237.107442 C259.46499,240.788322 262.072449,243.819862 265.612903,245.017155 C268.315806,246.028863 273.188387,244.373341 278.833226,242.423505 C286.059355,239.958618 295.013871,236.905101 304.39129,237.53052 C315.423548,238.339886 318.108065,255.704465 319.854839,267.201141 L320.204194,269.445292 C321.005231,274.164044 319.340797,278.965141 315.79129,282.174412 C312.408065,285.338297 307.37,287.15937 304.07871,286.405188 C301.486129,285.816558 294.590968,279.047316 283.577097,267.881744 C274.383548,258.684403 264.031613,248.199435 259.968065,246.249599 C258.680968,245.642574 258.129355,246.028863 257.945484,246.157625 C255.150645,247.997094 255.996452,259.622532 256.456129,265.82154 C256.584839,267.992112 256.713548,269.739607 256.731935,270.935261 L256.731935,270.935261 Z" id="Shape" fill="#303337"></path>
                                <polygon id="Path" fill="#FFFFFF" points="228.048065 252.043923 229.941935 267.072378 214.073871 264.110834 205.615806 262.528892 213.411935 258.886745"></polygon>
                                <path d="M229.941935,267.992112 L229.776452,267.992112 L205.450323,263.448626 C205.056888,263.377434 204.757412,263.055365 204.714839,262.657655 C204.659784,262.260647 204.868062,261.873685 205.229677,261.701131 L227.643548,251.234558 C227.908746,251.097111 228.224157,251.097111 228.489355,251.234558 C228.743709,251.382511 228.913904,251.641315 228.949032,251.933555 L230.787742,266.96201 C230.80795,267.221907 230.721252,267.478797 230.547705,267.67325 C230.374158,267.867702 230.128798,267.982871 229.868387,267.992112 L229.941935,267.992112 Z M208.612903,262.142604 L228.83871,265.931908 L227.257419,253.40513 L208.612903,262.142604 Z" id="Shape" fill="#303337"></path>
                                <path d="M346.516129,252.283054 L229.923548,266.998799 C228.702985,264.701745 227.882228,262.213575 227.496452,259.640927 C227.231184,257.06022 227.411555,254.453096 228.029677,251.933555 L344.603871,237.21781 L346.516129,252.283054 Z" id="Path" fill="#F0AA3B"></path>
                                <path d="M229.941935,267.992112 C229.615462,267.990141 229.314524,267.815104 229.15129,267.532245 C227.863089,265.14373 227.004235,262.547427 226.613871,259.861663 C226.330509,257.171387 226.51087,254.452413 227.147097,251.823187 C227.23692,251.457082 227.544996,251.18557 227.919355,251.142584 L344.511935,236.334866 C345.014954,236.290293 345.465892,236.644747 345.541613,237.144232 L347.380323,252.172686 C347.420925,252.415511 347.353797,252.663986 347.196452,252.853289 C347.047599,253.041592 346.828519,253.161139 346.589677,253.184394 L230.015484,267.992112 L229.941935,267.992112 Z M228.801935,252.890079 C228.323377,255.106761 228.199255,257.385346 228.434194,259.640927 C228.764204,261.882766 229.453371,264.05671 230.475161,266.079065 L345.504839,251.473688 L343.831613,238.284702 L228.801935,252.890079 Z" id="Shape" fill="#303337"></path>
                                <path d="M349.693233,235.771215 L368.484968,235.770247 L368.484189,250.908971 L349.692453,250.909939 C347.377118,250.909939 345.500384,249.032455 345.500384,246.716195 L345.500731,239.965391 C345.500851,237.649131 347.377897,235.771334 349.693233,235.771215 Z" id="Path" fill="#FFFFFF" transform="translate(356.992676, 243.340093) rotate(172.770000) translate(-356.992676, -243.340093) "></path>
                                <path d="M346.516129,253.202788 C346.051582,253.198071 345.660515,252.853789 345.596774,252.393422 L343.758065,237.364968 C343.726554,237.122673 343.792711,236.877792 343.941935,236.684365 C344.093932,236.49669 344.310157,236.372145 344.54871,236.334866 L363.193226,233.980346 C365.993701,233.63311 368.548695,235.613841 368.911613,238.413465 L369.757419,245.109129 C370.104513,247.910759 368.124598,250.466807 365.326129,250.829875 L346.681613,253.184394 L346.516129,253.202788 Z M345.633548,238.045571 L347.306774,251.252952 L365.050323,249.008801 C366.839553,248.760964 368.099704,247.123728 367.881935,245.329865 L367.036129,238.634201 C366.926246,237.76966 366.476376,236.984615 365.786144,236.452917 C365.095912,235.92122 364.222278,235.686745 363.35871,235.80142 L345.633548,238.045571 Z" id="Shape" fill="#303337"></path>
                                <polygon id="Rectangle" fill="#303337" transform="translate(350.634883, 244.121516) rotate(-7.230000) translate(-350.634883, -244.121516) " points="349.55962 236.552209 351.710925 236.552098 351.710145 251.690822 349.558841 251.690933"></polygon>
                                <polygon id="Rectangle" fill="#303337" transform="translate(354.873358, 243.590988) rotate(-7.230000) translate(-354.873358, -243.590988) " points="353.798096 236.021681 355.9494 236.02157 355.948621 251.160294 353.797316 251.160405"></polygon>
                                <polygon id="Path" fill="#F0AA3B" points="213.411935 258.886745 214.073871 264.110834 205.615806 262.528892"></polygon>
                                <path d="M214.129032,265.030569 L213.945161,265.030569 L205.505484,263.448626 C205.112049,263.377434 204.812573,263.055365 204.77,262.657655 C204.714945,262.260647 204.923223,261.873685 205.284839,261.701131 L213.062581,258.022195 C213.327778,257.884749 213.643189,257.884749 213.908387,258.022195 C214.162741,258.170148 214.332937,258.428952 214.368065,258.721193 L215.03,263.926888 C215.067067,264.189051 214.989399,264.454478 214.816868,264.65526 C214.644338,264.856041 214.393682,264.972699 214.129032,264.975384 L214.129032,265.030569 Z M208.612903,262.142604 L213.007419,262.970364 L212.676452,260.247951 L208.612903,262.142604 Z" id="Shape" fill="#303337"></path>
                                <path d="M259.986452,276.435271 C259.986452,276.435271 248.476129,262.142604 245.11129,256.86333 C239.595161,248.254619 253.146452,240.639221 257.982258,244.244579 C261.457419,246.801439 279.366452,262.63926 282.970323,266.042276" id="Path" fill="#FFFFFF"></path>
                                <path d="M259.986452,277.355005 C259.706082,277.356475 259.441008,277.227283 259.269355,277.005506 C258.809677,276.435271 247.703871,262.620865 244.339032,257.341592 C241.944712,253.68529 242.743224,248.804366 246.177742,246.102441 C249.579355,242.920162 255.37129,241.117483 258.680968,243.508791 C261.990645,245.9001 280.101935,261.903473 283.742581,265.380067 C283.982352,265.606794 284.083002,265.944267 284.006618,266.265364 C283.930234,266.586461 283.688419,266.8424 283.372263,266.93677 C283.056107,267.031141 282.713642,266.949606 282.473871,266.722879 C278.796452,263.264679 260.997742,247.500437 257.577742,244.998761 C255.37129,243.380029 250.535484,244.538894 247.428065,247.445253 C244.725445,249.60286 244.090297,253.455037 245.957097,256.366674 C249.266774,261.553974 260.666774,275.717878 260.777097,275.865036 C260.934308,276.051368 261.00935,276.293471 260.985098,276.536096 C260.960845,276.778721 260.839368,277.001165 260.648387,277.152664 C260.464484,277.307462 260.225432,277.380536 259.986452,277.355005 Z" id="Path" fill="#303337"></path>
                                <polygon id="Path" fill="#F0AA3B" points="312.444839 354.502966 341.83751 472 454.444839 466.535057 375.640005 307"></polygon>
                            </g>
                        </g>
                    </g>
                </g>
            </g>
        </g>
    </g>
</svg>