<?xml version="1.0" encoding="UTF-8"?>
<svg width="319px" height="249px" viewBox="0 0 319 249" version="1.1" xmlns="http://www.w3.org/2000/svg" xmlns:xlink="http://www.w3.org/1999/xlink">
    <title>marketing__flatline 2@1x</title>
    <defs>
        <path d="M51.2970446,157.588846 C36.1670446,160.348846 19.1870446,139.888846 8.99704458,109.168846 C3.87878803,93.5562655 0.90165496,77.3216392 0.147044578,60.908846 C-1.25295542,28.358846 7.42704458,3.01884596 22.6370446,0.248845963 C41.4470446,-3.18115404 63.1170446,29.248846 71.0370446,72.698846 C78.9570446,116.148846 70.1170446,154.158846 51.2970446,157.588846 Z" id="path-1"></path>
    </defs>
    <g id="Page-1" stroke="none" stroke-width="1" fill="none" fill-rule="evenodd">
        <g id="ШФ_Клубы" transform="translate(-969.000000, -1723.000000)">
            <g id="Group-7" transform="translate(72.000000, 1622.000000)">
                <g id="marketing__flatline-2" transform="translate(897.000000, 102.000000)">
                    <g id="marketing__flatline" transform="translate(159.500000, 124.000000) scale(-1, 1) translate(-159.500000, -124.000000) ">
                        <path d="M107.37,178.92 L94.89,198.92 L123.1,218.39 L152.58,190.76 C152.58,190.76 137,150.21 132.58,147.29 C128.16,144.37 107.37,178.92 107.37,178.92 Z" id="Path" fill="#FFFFFF" fill-rule="nonzero"></path>
                        <path d="M123.1,218.930247 C122.999442,218.930247 122.901302,218.899182 122.82,218.84 L94.61,199.37 C94.3879256,199.217954 94.3260476,198.917404 94.47,198.69 L106.94,178.69 C107.72,177.41 125.5,148.09 131.52,146.75 C131.98452,146.62181 132.481513,146.694364 132.89,146.95 C137.36,149.95 152.41,189 153.05,190.66 C153.119823,190.849729 153.068519,191.062835 152.92,191.2 L123.44,218.8 C123.348729,218.887243 123.226194,218.934094 123.1,218.930247 L123.1,218.930247 Z M95.57,198.82 L123.05,217.82 L152,190.66 C147.59,179.2 135.81,150.05 132.35,147.74 C132.167588,147.635726 131.949448,147.613912 131.75,147.68 C127.09,148.68 112.89,170.77 107.75,179.17 L107.75,179.17 L95.57,198.82 Z" id="Shape" stroke="#303337" stroke-width="0.5" fill="#303337" fill-rule="nonzero"></path>
                        <path d="M92.46,123.09 C92.46,123.09 90.77,136.33 96.4,142.24 C102.03,148.15 121.18,149.84 122.31,151.81 C123.44,153.78 144.31,206.43 147.36,209.53 C150.41,212.63 163.13,207.84 172.7,198.83 C172.7,198.83 150.88,150.12 150.11,145.9 C149.34,141.68 156.37,123.66 156.37,115.49 L92.46,123.09 Z" id="Path" fill="#FFFFFF" fill-rule="nonzero"></path>
                        <path d="M150.41,211 C149.175652,211.0986 147.952676,210.702931 147.01,209.9 C144.93,207.82 136.01,186.27 127.01,164.38 C124.32,157.81 122.2,152.63 121.88,152.08 C121.56,151.53 118.01,150.69 114.88,149.95 C108.45,148.45 99.65,146.38 96.05,142.6 C90.32,136.6 91.9,123.6 91.97,123.05 C91.9971958,122.82098 92.1804153,122.641925 92.41,122.62 L156.31,115 C156.456097,114.980996 156.60299,115.028737 156.71,115.13 C156.811881,115.226128 156.86974,115.359928 156.87,115.5 C156.87,119.8 154.95,126.8 153.25,132.98 C151.71,138.6 150.25,143.9 150.6,145.82 C151.36,149.93 172.94,198.15 173.16,198.64 C173.245594,198.83437 173.201774,199.061438 173.05,199.21 C165.66,206.15 155.92,211 150.41,211 Z M92.91,123.56 C92.7,125.76 91.91,136.8 96.76,141.91 C100.16,145.48 108.76,147.5 115.1,148.98 C119.9,150.11 122.23,150.69 122.74,151.58 C123.07,152.16 124.74,156.24 127.93,164 C134.11,179.05 145.6,207.08 147.72,209.2 C150.5,211.98 162.72,207.4 172.1,198.73 C170.04,194.11 150.37,150.11 149.62,146.01 C149.22,143.86 150.62,138.7 152.29,132.73 C153.96,126.76 155.71,120.28 155.86,116.07 L92.91,123.56 Z" id="Shape" stroke="#303337" stroke-width="0.5" fill="#303337" fill-rule="nonzero"></path>
                        <path d="M165.15,202.710078 C164.94289,202.708664 164.757156,202.582206 164.68,202.39 L141.68,144.21 C141.63081,144.086685 141.632685,143.948869 141.685209,143.826936 C141.737734,143.705004 141.836596,143.608968 141.96,143.56 C142.083062,143.50794 142.222047,143.508394 142.344766,143.561257 C142.467485,143.614121 142.563293,143.714808 142.61,143.84 L165.61,202.03 C165.661797,202.151656 165.661116,202.28929 165.608118,202.410427 C165.555121,202.531564 165.454501,202.625475 165.33,202.67 C165.27406,202.697529 165.212335,202.711246 165.15,202.710078 Z" id="Path" fill="#E4E9EC" fill-rule="nonzero"></path>
                        <path d="M148.46,124 C146.436814,126.588878 145.232093,129.722546 145,133 C144.79,138.06 151.05,148.88 151.05,148.88 L165.63,139.75 L158.53,122.67 L148.46,124 Z" id="Path" fill="#303337" fill-rule="nonzero"></path>
                        <path d="M151.09,149.33 L151,149.33 C150.869789,149.292564 150.758859,149.206682 150.69,149.09 C150.43,148.65 144.36,138.09 144.57,132.94 C144.800191,129.581538 146.033428,126.369548 148.11,123.72 C148.19083,123.629522 148.300255,123.569515 148.42,123.55 L158.53,122.14 C158.754215,122.108461 158.971639,122.231531 159.06,122.44 L166.16,139.52 C166.251211,139.747868 166.167173,140.008385 165.96,140.14 L151.39,149.27 C151.298279,149.31963 151.193754,149.340535 151.09,149.33 L151.09,149.33 Z M148.73,124.5 C146.877141,126.959399 145.769886,129.899352 145.54,132.97 C145.36,137.26 150.1,146.04 151.27,148.13 L165,139.5 L158.22,123.17 L148.73,124.5 Z" id="Shape" fill="#303337" fill-rule="nonzero"></path>
                        <path d="M166.88,185.74 C166.88,185.74 176.93,177.06 171.3,172.55 C171.3,172.55 174.92,164.22 165.67,162.98 C165.67,162.98 168.67,153.78 161.35,151.53 C154.03,149.28 139.76,161.29 138.26,165.61 C136.76,169.93 143.13,170.61 147.8,168.61 C147.8,168.61 140.94,172.61 142.12,175.47 C143.84,179.7 149.62,177.63 154.12,176.32 C154.12,176.32 145.9,180.84 151.31,185.05 C155.46,188.28 165.15,181.82 165.15,181.82 L166.88,185.74 Z" id="Path" fill="#FFFFFF" fill-rule="nonzero"></path>
                        <path d="M154.35,186.44 C153.152857,186.491222 151.973173,186.139077 151,185.44 C149.717147,184.612686 148.958967,183.175935 149,181.65 C149.297433,180.058449 150.173801,178.63346 151.46,177.65 C147.46,178.75 143.21,179.44 141.67,175.65 C140.88,173.72 142.96,171.53 144.87,170.01 C142.25,170.47 139.75,170.11 138.49,168.94 C137.519438,168.049188 137.243598,166.629422 137.81,165.44 C139.38,160.92 154,148.74 161.52,151.05 C163.379722,151.560793 164.94631,152.816234 165.85,154.52 C167.39,157.52 166.68,161.18 166.32,162.52 C168.95,162.98 170.77,164.08 171.74,165.8 C173.15,168.31 172.28,171.33 171.91,172.35 C172.922766,173.22499 173.512451,174.49172 173.53,175.83 C173.62,180.49 167.53,185.83 167.23,186.06 C167.109354,186.164903 166.945818,186.205787 166.79,186.17 C166.637032,186.134319 166.508389,186.031405 166.44,185.89 L164.95,182.5 C163.34,183.54 158.35,186.44 154.35,186.44 Z M154.12,175.81 C154.323564,175.805307 154.507939,175.929559 154.58,176.12 C154.678026,176.355376 154.583239,176.626812 154.36,176.75 C154.36,176.75 150.18,179.08 149.97,181.75 C149.972046,182.942205 150.593013,184.047829 151.61,184.67 C155.44,187.67 164.78,181.49 164.87,181.43 C164.991425,181.342451 165.146744,181.316565 165.29,181.36 C165.431696,181.403465 165.548111,181.505328 165.61,181.64 L167.06,184.93 C168.51,183.56 172.58,179.39 172.51,175.93 C172.495117,174.760067 171.927743,173.666111 170.98,172.98 C170.808788,172.835444 170.751987,172.596067 170.84,172.39 C170.84,172.39 172.3,168.94 170.84,166.39 C169.97,164.85 168.2,163.89 165.6,163.54 C165.452594,163.518441 165.321514,163.434695 165.24,163.31 C165.159224,163.185285 165.140761,163.030193 165.19,162.89 C165.19,162.84 166.64,158.31 164.94,155.04 C164.170213,153.558939 162.8128,152.470105 161.2,152.04 C154.29,149.92 140.2,161.6 138.73,165.8 C138.331851,166.617473 138.496536,167.597552 139.14,168.24 C140.6,169.58 144.47,169.55 147.6,168.17 C147.841764,168.069325 148.120248,168.172257 148.238417,168.405969 C148.356586,168.639681 148.274396,168.924976 148.05,169.06 C146.37,170.06 141.75,173.29 142.58,175.3 C144.02,178.82 148.81,177.39 153.04,176.14 L153.98,175.86 C154.02268,175.833774 154.070363,175.816745 154.12,175.81 L154.12,175.81 Z" id="Shape" stroke="#303337" stroke-width="0.5" fill="#303337" fill-rule="nonzero"></path>
                        <path d="M158.86,136.27 C158.86,136.27 159.11,127.88 152,131.01 C144.89,134.14 134.09,141.61 139.7,146.53 C145.31,151.45 157.17,142.67 158.86,136.27 Z" id="Path" fill="#FFFFFF" fill-rule="nonzero"></path>
                        <path d="M143.77,148.47 C142.159998,148.517629 140.590436,147.961148 139.37,146.91 C138.097634,145.926211 137.458421,144.330093 137.7,142.74 C138.48,137.67 147.26,132.55 151.8,130.56 C153.97,129.56 155.74,129.56 157.06,130.46 C159.46,132.07 159.36,136.12 159.36,136.29 C159.364709,136.326515 159.364709,136.363485 159.36,136.4 C158.18,140.9 152.36,146.3 146.96,147.96 C145.927393,148.285356 144.852576,148.457192 143.77,148.47 L143.77,148.47 Z M154.84,130.82 C153.924706,130.853113 153.026039,131.074375 152.2,131.47 C147.13,133.7 139.35,138.59 138.68,142.89 C138.494369,144.145328 139.01286,145.401229 140.03,146.16 C142.03,147.91 144.73,147.58 146.64,147 C151.64,145.46 157.23,140.33 158.36,136.2 C158.36,135.74 158.31,132.5 156.5,131.29 C156.008239,130.966194 155.428521,130.802058 154.84,130.82 Z" id="Shape" stroke="#303337" stroke-width="0.5" fill="#303337" fill-rule="nonzero"></path>
                        <path d="M105.25,182.32 C105.25,182.32 113.25,160.08 115.02,156.32 C118.02,149.96 125.17,141.48 131.3,143.25 C137.43,145.02 150.3,150.99 145.09,155.04 C140.34,158.75 129.27,153.19 129.27,153.19 C129.27,153.19 132.03,164.95 126.45,171.54" id="Path" fill="#FFFFFF" fill-rule="nonzero"></path>
                        <path d="M105.25,182.82 C105.193804,182.830333 105.136196,182.830333 105.08,182.82 C104.953672,182.777173 104.850263,182.684694 104.793648,182.563915 C104.737033,182.443135 104.732104,182.304495 104.78,182.18 C105.1,181.27 112.78,159.88 114.57,156.13 C117.72,149.48 125.03,140.93 131.44,142.78 C135.9,144.07 145.95,148.29 146.75,152.43 C146.937295,153.609574 146.407056,154.787884 145.4,155.43 C141.22,158.68 132.76,155.32 129.95,154.05 C130.49,157.05 131.62,166.2 126.83,171.85 C126.723622,172.010083 126.534898,172.095018 126.344533,172.068482 C126.154168,172.041946 125.995865,171.908639 125.937321,171.725567 C125.878776,171.542494 125.930355,171.342069 126.07,171.21 C131.42,164.88 128.81,153.41 128.78,153.29 C128.739921,153.099716 128.80936,152.902971 128.96,152.78 C129.111419,152.66045 129.318895,152.640877 129.49,152.73 C129.6,152.78 140.33,158.11 144.78,154.64 C145.489686,154.239343 145.885286,153.448143 145.78,152.64 C145.17,149.46 136.78,145.38 131.18,143.77 C125.4,142.09 118.4,150.42 115.49,156.58 C113.74,160.28 105.82,182.32 105.74,182.58 C105.636789,182.74799 105.445993,182.841441 105.25,182.82 Z" id="Path" stroke="#303337" stroke-width="0.5" fill="#303337" fill-rule="nonzero"></path>
                        <path d="M228.17,155 C228.17,155 187.35,124 163.27,123.42 C157.177601,123.335364 151.086587,123.669484 145.04,124.42 C130.79,126.04 116.47,129.02 106.54,129.42 C86.83,130.17 72.08,123.85 72.05,103.28 C72.05,85.68 80.35,82.45 97.9,77.61 C106.58,75.22 123.31,72.76 139.15,68.36 C148.81,65.67 158.15,62.27 165.1,57.72 C183.5,45.72 197.23,18.32 197.23,18.32 L228.17,155 Z" id="Path" fill="#FAFAFA"></path>
                        <path d="M228.17,155.450251 C228.061451,155.452318 227.955448,155.416984 227.87,155.35 C227.46,155.04 186.87,124.43 163.26,123.87 C157.190845,123.783948 151.123011,124.11808 145.1,124.87 C139.24,125.53 133.42,126.42 127.79,127.28 C119.89,128.49 112.43,129.63 106.56,129.85 C93.74,130.33 84.3,127.77 78.56,122.21 C73.95,117.77 71.56,111.38 71.56,103.21 C71.56,85.14 80.56,81.82 97.78,77.06 C101.45,76.06 106.53,75.06 112.41,73.85 C120.6,72.21 129.88,70.35 139.03,67.85 C150.32,64.7 158.76,61.24 164.84,57.27 C182.91,45.47 196.66,18.34 196.79,18.07 C196.885672,17.8810822 197.089977,17.7729208 197.3,17.8 C197.51027,17.8207109 197.683586,17.9738731 197.73,18.18 L228.67,154.85 C228.715435,155.055354 228.627504,155.267187 228.45,155.38 C228.364939,155.428786 228.268012,155.453018 228.17,155.450251 L228.17,155.450251 Z M161.11,122.85 C161.85,122.85 162.57,122.85 163.28,122.85 C173.35,123.09 187.39,128.5 205,138.92 C215.63,145.22 224.4,151.53 227.38,153.72 L197,19.72 C194.08,25.17 181.42,47.59 165.33,58.1 C159.17,62.1 150.64,65.63 139.24,68.8 C130.06,71.35 120.77,73.22 112.56,74.86 C106.7,76.04 101.64,77.05 97.99,78.05 C80.76,82.81 72.48,85.86 72.5099188,103.24 C72.5099188,111.13 74.76,117.24 79.17,121.52 C84.75,126.88 93.94,129.36 106.48,128.88 C112.29,128.66 119.73,127.52 127.6,126.32 C133.24,125.46 139.07,124.57 144.94,123.9 C150.305372,123.239855 155.704312,122.889275 161.11,122.85 L161.11,122.85 Z" id="Shape" stroke="#303337" stroke-width="0.5" fill="#303337" fill-rule="nonzero"></path>
                        <path d="M148.46,124 C134.21,125.62 116.46,128.45 106.54,129.35 C83.92,131.41 73.38,126.6 72.05,106.07 C70.69,84.96 80.35,82.38 97.9,77.54 C106.58,75.15 123.31,72.69 139.15,68.29 C139.15,68.29 133.15,79.34 135.82,98.85 C137.120055,108.405464 141.56774,117.255091 148.46,124 Z" id="Path" fill="#303337" fill-rule="nonzero"></path>
                        <path d="M98,130.31 C89.12,130.31 83.1,128.64 79,125.12 C74.52,121.29 72.16,115.26 71.57,106.12 C70.19,84.68 79.92,82 97.57,77.12 L97.77,77.12 C101.44,76.12 106.52,75.12 112.4,73.91 C120.59,72.27 129.87,70.41 139.02,67.91 C139.211776,67.8556208 139.417381,67.9228377 139.54,68.08 C139.671027,68.234427 139.691031,68.4544768 139.59,68.63 C139.53,68.74 133.74,79.78 136.32,98.88 C137.633385,108.308467 142.015865,117.041797 148.79,123.73 C148.93987,123.857495 148.99894,124.062272 148.94,124.25 C148.879641,124.43819 148.715989,124.574566 148.52,124.6 C141.95,125.35 134.69,126.34 127.67,127.3 C119.58,128.41 111.93,129.46 106.59,129.95 C103.45,130.17 100.59,130.31 98,130.31 Z M138.26,69.09 C129.42,71.49 120.52,73.28 112.62,74.86 C106.76,76.04 101.7,77.05 98.05,78.05 L97.85,78.11 C80.69,82.84 71.24,85.45 72.57,106.11 C73.14,114.95 75.39,120.76 79.64,124.4 C84.74,128.76 93.02,130.15 106.51,128.92 C111.83,128.44 119.51,127.39 127.51,126.28 C134.16,125.37 141.03,124.43 147.32,123.7 C140.834535,116.920792 136.637715,108.27884 135.32,98.99 C133.15,82.79 136.88,72.26 138.24,69.09 L138.26,69.09 Z" id="Shape" fill="#303337" fill-rule="nonzero"></path>
                        <g id="Group-4" transform="translate(191.202955, 1.091154)">
                            <mask id="mask-2" fill="white">
                                <use xlink:href="#path-1"></use>
                            </mask>
                            <use id="Mask" fill="#F0AA3B" fill-rule="nonzero" xlink:href="#path-1"></use>
                            <g mask="url(#mask-2)">
                                <g transform="translate(0.147045, 58.804282)">
                                    <path d="M39.53,39.3045636 L8.85,50.3645636 C3.73174345,34.7519831 0.754610382,18.5173569 0,2.10456359 L34.57,2.10456359 L39.53,39.3045636 Z" id="Path" fill="#FFFFFF" fill-rule="nonzero"></path>
                                    <ellipse id="Oval" fill="#C8CFD4" fill-rule="evenodd" transform="translate(36.972124, 20.750000) rotate(-7.830000) translate(-36.972124, -20.750000) " cx="36.9721243" cy="20.75" rx="8.73" ry="18.75"></ellipse>
                                </g>
                            </g>
                        </g>
                        <path d="M216.6,1.1 C234.73,1.1 254.7,32.47 262.24,73.8 C270.16,117.25 261.32,155.25 242.5,158.68 C241.589631,158.847928 240.665726,158.931615 239.74,158.930023 C225.34,158.930023 209.74,139.12 200.2,110.26 C195.081743,94.6474195 192.10461,78.4127933 191.35,62 C189.95,29.45 198.63,4.11 213.84,1.34 C214.750369,1.17207224 215.674274,1.08838515 216.6,1.08997707 M216.6,0.08999471 L216.6,0.08999471 L216.6,0.08999471 C215.613773,0.08999471 214.629584,0.17958272 213.66,0.36 C198.25,3.16 188.88,27.95 190.35,62.04 C191.115758,78.5438669 194.109545,94.8684161 199.25,110.57 C209.2,140.57 225.09,159.920005 239.74,159.920005 C240.726227,159.920005 241.710416,159.830417 242.68,159.65 C252.2,157.92 259.55,147.91 263.37,131.46 C267.13,115.3 267.08,94.76 263.22,73.61 C259.57,53.61 252.83,35.03 244.22,21.41 C235.61,7.79 225.76,0.1 216.61,0.1 L216.6,0.08999471 Z" id="Shape" stroke="#303337" stroke-width="0.5" fill="#303337" fill-rule="nonzero"></path>
                        <path d="M154.12,176.81 C153.884621,176.815826 153.677071,176.656646 153.621668,176.427807 C153.566265,176.198967 153.678022,175.962482 153.89,175.86 C156.998748,174.249863 160.322706,173.094729 163.76,172.43 C164.03206,172.393822 164.283962,172.579435 164.33,172.85 C164.35007,172.981309 164.317065,173.115206 164.238268,173.222145 C164.159471,173.329083 164.04136,173.400272 163.91,173.42 C160.583506,174.078275 157.36559,175.19916 154.35,176.75 C154.279914,176.789805 154.200599,176.810496 154.12,176.81 Z" id="Path" stroke="#303337" stroke-width="0.5" fill="#303337" fill-rule="nonzero"></path>
                        <path d="M147.8,169.1 C147.673201,169.097233 147.551983,169.04732 147.46,168.96 C147.365936,168.867836 147.312929,168.74169 147.312929,168.61 C147.312929,168.47831 147.365936,168.352164 147.46,168.26 C150.507904,165.307858 154.482017,163.499195 158.71,163.14 C158.982858,163.116817 159.223599,163.317435 159.25,163.59 C159.263896,163.721685 159.223904,163.853387 159.139134,163.955112 C159.054364,164.056836 158.932032,164.119922 158.8,164.13 C154.825743,164.5047 151.090978,166.19784 148.19,168.94 C148.088416,169.045998 147.946758,169.104114 147.8,169.1 L147.8,169.1 Z" id="Path" stroke="#303337" stroke-width="0.5" fill="#303337" fill-rule="nonzero"></path>
                        <path d="M165.15,182.31 C164.971367,182.345727 164.787244,182.28344 164.666987,182.146603 C164.546731,182.009765 164.508611,181.819166 164.566987,181.646603 C164.625364,181.474039 164.771367,181.345727 164.95,181.31 L168.28,179.89 C168.534051,179.779543 168.829543,179.895949 168.94,180.15 C169.050457,180.404051 168.934051,180.699543 168.68,180.81 L165.35,182.23 C165.290255,182.271474 165.221867,182.29883 165.15,182.31 Z" id="Path" stroke="#303337" stroke-width="0.5" fill="#303337" fill-rule="nonzero"></path>
                        <path d="M124.88,220.37 C124.88,220.37 131.43,215.23 131.59,214.69 C131.75,214.15 100.59,184.69 100.59,184.69 L83,195.76 L124.88,220.37 Z" id="Path" fill="#303337" fill-rule="nonzero"></path>
                        <path d="M124.88,220.870097 C124.791747,220.870601 124.705108,220.846343 124.63,220.8 L82.7,196.19 C82.549254,196.103047 82.4545637,195.943967 82.4499915,195.77 C82.4489778,195.594476 82.5400693,195.431271 82.69,195.34 L100.35,184.22 C100.544013,184.101952 100.792706,184.126414 100.96,184.28 C132.33,214 132.19,214.45 132.07,214.84 C132.07,215.01 131.86,215.52 125.19,220.77 C125.100725,220.837001 124.991599,220.872203 124.88,220.870097 Z M83.88,195.75 L124.81,219.75 C127.44,217.68 130.2,215.41 130.94,214.65 C128.94,212.35 112.05,196.18 100.53,185.26 L83.88,195.75 Z" id="Shape" fill="#303337" fill-rule="nonzero"></path>
                        <polygon id="Path" fill="#F0AA3B" fill-rule="nonzero" points="126.76 220.91 87.69 188.14 12.9 235.49 102.72 247.96"></polygon>
                        <path d="M86.27,126.130078 C86.0637244,126.126016 85.8793131,126.00046 85.8,125.81 C79.73,110.2 79.13,95.46 84.09,84.3 C84.19,84.08 84.25,83.93 84.28,83.86 C84.2794987,83.7333875 84.3323596,83.6124219 84.4256142,83.5267799 C84.5188688,83.441138 84.6438878,83.3987445 84.77,83.41 C85.0548636,83.4313246 85.2715767,83.674574 85.26,83.96 C85.2259525,84.225248 85.1374332,84.4805923 85,84.71 C80.15,95.62 80.76,110.09 86.73,125.44 C86.8266543,125.696709 86.7029466,125.983888 86.45,126.09 C86.3940598,126.117529 86.3323348,126.131246 86.27,126.130078 Z" id="Path" fill="#FFFFFF" fill-rule="nonzero"></path>
                        <path d="M105.41,80.52 C105.170692,80.5152504 104.966885,80.3447181 104.92,80.11 C104.893623,79.9812499 104.920073,79.8473007 104.993407,79.7382393 C105.066742,79.6291779 105.180813,79.5541472 105.31,79.53 L127.31,75.21 C127.439023,75.1806732 127.574429,75.2059059 127.684229,75.2797366 C127.794028,75.3535674 127.868482,75.4694476 127.89,75.6 C127.916549,75.7299587 127.890371,75.8651412 127.817228,75.9757945 C127.744084,76.0864477 127.629969,76.1635027 127.5,76.19 L105.5,80.51 L105.41,80.52 Z" id="Path" fill="#FFFFFF" fill-rule="nonzero"></path>
                        <path d="M105.41,84.84 C105.170692,84.8352504 104.966885,84.6647181 104.92,84.43 C104.893623,84.3012499 104.920073,84.1673007 104.993407,84.0582393 C105.066742,83.9491779 105.180813,83.8741472 105.31,83.85 L127.31,79.53 C127.439023,79.5006732 127.574429,79.5259059 127.684229,79.5997366 C127.794028,79.6735674 127.868482,79.7894476 127.89,79.92 C127.916549,80.0499587 127.890371,80.1851412 127.817228,80.2957945 C127.744084,80.4064477 127.629969,80.4835027 127.5,80.51 L105.5,84.83 L105.41,84.84 Z" id="Path" fill="#FFFFFF" fill-rule="nonzero"></path>
                        <path d="M105.41,89.81 C105.172366,89.81 104.967527,89.6428331 104.92,89.41 C104.870376,89.1404943 105.042601,88.8799486 105.31,88.82 L127.31,84.5 C127.580394,84.4513414 127.839396,84.6299631 127.89,84.9 C127.919327,85.0290228 127.894094,85.1644292 127.820263,85.2742288 C127.746433,85.3840284 127.630552,85.4584822 127.5,85.48 L105.5,89.8 L105.41,89.81 Z" id="Path" fill="#FFFFFF" fill-rule="nonzero"></path>
                        <path d="M62.53,179.88 C62.270593,179.87616 62.0554064,179.678188 62.03,179.42 C61.03,168.42 52.03,160.42 43.9,156.55 C33.48,151.64 13.44,145.74 1.49,147.99 C1.26037114,148.041182 1.02749032,147.918391 0.94,147.7 C0.8497217,147.484834 0.920272295,147.235831 1.11,147.1 C2.11,146.4 3.03,145.71 4.02,145 C16.12,136.32 29.83,126.47 31.63,110.67 C34.49,85.47 13.77,62.58 13.56,62.35 C13.4147897,62.1651024 13.4147897,61.9048976 13.56,61.72 C13.6958314,61.5302723 13.9448335,61.4597217 14.16,61.55 C14.42,61.66 40.7,72.63 66.9,58.12 C92.71,43.83 91.82,15.56 91.81,15.28 C91.8003161,15.0787359 91.9100397,14.8906383 92.09,14.8 C92.2737342,14.7206923 92.4864726,14.7516361 92.64,14.88 C92.9,15.11 119.07,37.88 138.13,36.4 C152.365815,35.4116494 165.169243,27.3837159 172.26,15 C172.377338,14.7529598 172.671387,14.6460328 172.92,14.76 C173.039518,14.8181648 173.130958,14.9215253 173.174115,15.0472441 C173.217272,15.172963 173.208595,15.3106919 173.15,15.43 C165.895986,28.1438292 152.754705,36.3777804 138.15,37.36 C120.37,38.77 97.45,20.27 92.75,16.3 C92.63,21.76 90.75,45.99 67.32,58.95 C44.71,71.53 22,65.35 15.56,63.14 C20.08,68.65 35.12,88.82 32.62,110.78 C30.77,127.03 16.87,137.01 4.62,145.78 L3.37,146.68 C15.67,145.33 34.37,150.91 44.37,155.61 C52.73,159.55 62.03,167.85 63.07,179.3 C63.0931829,179.572858 62.8925654,179.813599 62.62,179.84 L62.53,179.88 Z" id="Path" fill="#E4E9EC" fill-rule="nonzero"></path>
                        <path d="M213.34,240.85 C213.204866,240.85 213.075388,240.79572 212.98,240.7 C212.79,240.5 193.7,220.95 165.73,224.7 C165.598293,224.719855 165.464178,224.685238 165.358534,224.604118 C165.25289,224.522999 165.184821,224.402368 165.17,224.27 C165.134534,223.996735 165.326843,223.746286 165.6,223.71 C190.17,220.39 208.02,234.77 212.6,238.91 C211.6,232.48 210.23,207.36 241.6,185.51 C259.45,173.09 288.24,177.37 301.2,182.71 C289.2,168.56 278.2,152.03 283.86,135.33 C289,120.14 312.14,103.33 316.97,99.92 C283.07,89.19 268.84,70.55 272.2,41.33 C272.230376,41.0538576 272.478858,40.8546244 272.755,40.885 C273.031142,40.9153757 273.230376,41.1638576 273.2,41.44 C269.88,70.44 284.2,88.76 318.25,99.27 C318.437697,99.3251228 318.576008,99.4846446 318.603975,99.6782592 C318.631941,99.8718739 318.544426,100.064015 318.38,100.17 C318.1,100.36 290.33,119.35 284.82,135.65 C279.1,152.55 291.02,169.45 303.43,183.75 C303.592436,183.929193 303.603325,184.198961 303.455862,184.390663 C303.308399,184.582366 303.044863,184.641037 302.83,184.53 C291.31,178.9 260.71,173.44 242.18,186.33 C206.64,211.08 213.77,239.92 213.85,240.21 C213.906098,240.429482 213.807623,240.659256 213.61,240.77 C213.52866,240.820077 213.435491,240.847683 213.34,240.85 Z" id="Path" fill="#E4E9EC" fill-rule="nonzero"></path>
                    </g>
                </g>
            </g>
        </g>
    </g>
</svg>