<?xml version="1.0" encoding="UTF-8"?>
<svg width="32px" height="32px" viewBox="0 0 32 32" version="1.1" xmlns="http://www.w3.org/2000/svg" xmlns:xlink="http://www.w3.org/1999/xlink">
    <title>instagram 2</title>
    <defs>
        <linearGradient x1="100%" y1="100%" x2="0%" y2="0%" id="linearGradient-1">
            <stop stop-color="#FEC054" offset="0%"></stop>
            <stop stop-color="#F4233D" offset="30%"></stop>
            <stop stop-color="#A42EB0" offset="59.3169341%"></stop>
            <stop stop-color="#5441D9" offset="100%"></stop>
        </linearGradient>
    </defs>
    <g id="Symbols" stroke="none" stroke-width="1" fill="none" fill-rule="evenodd">
        <g id="Footer" transform="translate(-160.000000, -328.000000)" fill="url(#linearGradient-1)" fill-rule="nonzero">
            <g id="instagram" transform="translate(160.000000, 328.000000)">
                <path d="M15.9999451,0 C24.8358947,0 32,7.16399548 32,16.0000549 C32,24.8361144 24.8360045,32 16.0000549,32 C7.16410533,32 0,24.8360045 0,16.0000549 C0,7.16410533 7.16300688,0 15.9999451,0 Z M21.3979891,7.2 L10.6009371,7.2 C8.72500976,7.2 7.2,8.72597618 7.2,10.6009371 L7.2,21.3990629 C7.2,23.2749902 8.72597618,24.8 10.6009371,24.8 L21.3990629,24.8 C23.2749902,24.8 24.8,23.2740238 24.8,21.3990629 L24.8,10.6009371 C24.8,8.72597618 23.2739164,7.2 21.3979891,7.2 Z M11.5393303,14.0409606 C11.3125439,14.5991214 11.1844397,15.3616263 11.1844397,16.0009664 C11.1844397,18.6541097 13.3428836,20.8135201 15.9969934,20.8135201 C18.6511031,20.8135201 20.8084733,18.6541097 20.8084733,16.0009664 C20.8084733,15.3616263 20.680369,14.5991214 20.454549,14.0409606 L22.8690941,14.0409606 L22.8690941,21.1859137 L22.8712417,21.1859137 C22.8712417,22.1156091 22.1156091,22.8722081 21.1839809,22.8722081 L10.7827314,22.8722081 C9.8520695,22.8722081 9.09547052,22.1165756 9.09547052,21.1859137 L9.09547052,14.0409606 L11.5393303,14.0409606 Z M16,13.0555349 C18.4409606,13.0555349 18.9443577,15.3469153 18.9443577,16.000859 C18.9443577,17.6226181 17.6227255,18.9442503 16,18.9442503 C14.3763081,18.9442503 13.0556406,17.6226181 13.0556406,16.000859 C13.0545685,15.3469153 13.5590394,13.0555349 16,13.0555349 Z M22.8545978,9.16687817 L22.8545978,12.087827 L19.912173,12.0975986 L19.9024014,9.17664975 L20.0583482,9.17611483 C20.4838325,9.17465538 21.6685143,9.1705918 22.2024554,9.16876033 L22.3975493,9.16809114 C22.4437558,9.16793264 22.469426,9.16784459 22.469426,9.16784459 L22.8545978,9.16687817 Z" id="Combined-Shape"></path>
            </g>
        </g>
    </g>
</svg>