<?xml version="1.0" encoding="UTF-8"?>
<svg width="456px" height="449px" viewBox="0 0 456 449" version="1.1" xmlns="http://www.w3.org/2000/svg" xmlns:xlink="http://www.w3.org/1999/xlink">
    <title>Coach_Flatline 2@1x</title>
    <g id="Page-1" stroke="none" stroke-width="1" fill="none" fill-rule="evenodd">
        <g id="ШФ_Страница-клуба" transform="translate(-832.000000, -1991.000000)" fill-rule="nonzero">
            <g id="Coach_Flatline" transform="translate(832.000000, 1991.000000)">
                <polygon id="Path" fill="#303337" points="326.571149 440.349755 319.791698 361.600911 172.897315 382.363849 162.286815 440.349755"></polygon>
                <path d="M326.55237,441.289255 L162.380713,441.289255 C162.099813,441.284986 161.833797,441.162142 161.648307,440.951035 C161.472729,440.735749 161.403716,440.452639 161.460511,440.180646 L172.07101,382.194739 C172.145095,381.797133 172.460698,381.488874 172.859755,381.42435 L319.754138,360.755362 C320.00742,360.722199 320.263606,360.789653 320.467765,360.943262 C320.669215,361.104056 320.792253,361.343428 320.805798,361.600911 L327.58525,440.349755 C327.609573,440.611731 327.520719,440.871603 327.341115,441.063775 C327.125302,441.253486 326.835777,441.336253 326.55237,441.289255 L326.55237,441.289255 Z M163.394814,439.410256 L325.538269,439.410256 L318.946614,362.671941 L173.6485,383.190609 L163.394814,439.410256 Z" id="Shape" fill="#303337"></path>
                <path d="M334.796634,254.779824 L328.242538,419.755928 C328.242538,419.755928 208.991792,412.239932 156.108312,407.749125 L168.728233,281.856198 L118.999734,305.625534 L82.3418666,237.605774 C82.3418666,237.605774 188.46564,147.225927 282.382645,168.270714" id="Path" fill="#F0AA3B"></path>
                <path d="M278.94597,71.8780707 C270.081977,63.4789456 259.997308,61.4872068 248.654402,58.7250784 C244.241186,57.6164691 240.898409,55.0798206 236.203498,54.6288608 C231.508587,54.1779011 225.799575,54.253061 221.893408,57.0527694 C216.902197,61.0011886 212.773265,65.9317773 209.761758,71.5398509 C206.810423,77.3884044 204.614371,83.5887238 203.226441,89.9916202 L199.470512,104.027742 C198.244,108.352566 197.265859,112.744077 196.540888,117.180734 C195.601905,123.66328 195.000957,132.062406 197.273294,138.394632 C199.376614,144.257108 205.273423,144.764438 210.794638,145.591198 C227.057811,148.071476 244.128508,148.259376 259.997308,143.467929 C288.166775,134.918484 302.026153,98.9920249 282.063391,75.2602688 C281.086943,74.0765957 280.046234,72.9474948 278.94597,71.8780707 L278.94597,71.8780707 Z" id="Path" fill="#FFFFFF"></path>
                <path d="M232.109535,148.240586 C224.946921,148.204378 217.797019,147.632825 210.71952,146.530697 L209.724198,146.380377 C204.522237,145.609988 198.625428,144.745648 196.465769,138.714062 C194.587805,133.471655 194.32489,126.387829 195.677024,117.049204 C196.413495,112.557492 197.397801,108.109994 198.625428,103.727102 L202.381357,89.6721903 C203.795066,83.1890652 206.029074,76.9127197 209.029352,70.9949413 C212.100185,65.2650828 216.319686,60.2308753 221.423917,56.2072199 C224.785474,53.8021013 229.668181,52.9565518 236.353735,53.6142014 C238.99899,53.9766747 241.571474,54.750113 243.978271,55.9065801 C245.583251,56.6674188 247.247651,57.2958404 248.954877,57.785579 L251.527688,58.4244386 C261.687476,60.9422971 271.302654,63.3098357 279.697156,71.2580011 L279.697156,71.2580011 C280.846858,72.345792 281.931687,73.500234 282.946034,74.7153591 C292.03048,85.4665482 294.978763,100.123898 290.758366,113.554266 C286.408251,128.246666 275.039414,139.811937 260.42924,144.407428 C251.229867,147.075255 241.686695,148.366953 232.109535,148.240586 Z M232.109535,55.2677204 C228.721814,55.0792485 225.358211,55.9386533 222.475577,57.729209 C217.600404,61.6003912 213.567829,66.4280797 210.625621,71.9156507 C207.711005,77.7000647 205.540333,83.8305376 204.165423,90.1607301 L200.409495,104.196852 C199.192028,108.522737 198.220193,112.914087 197.49865,117.349844 C196.221634,126.256299 196.446989,133.246175 198.193496,138.018832 C199.940003,142.791489 204.822711,143.655829 209.949554,144.463798 L210.963655,144.614118 C229.405266,147.413827 245.818676,146.718597 259.790732,142.509639 C273.793223,138.089947 284.687124,126.999932 288.861622,112.915407 C292.876616,100.074561 290.042011,86.070988 281.349764,75.8051784 C280.376015,74.6488213 279.341684,73.5449263 278.251123,72.4981404 L278.251123,72.4981404 C270.232215,64.9821448 261.349442,62.6897661 250.945519,60.1343276 L248.372708,59.495468 C246.57061,59.0170382 244.811702,58.3885107 243.114407,57.6164691 C240.906624,56.5419211 238.542205,55.8252281 236.1096,55.4932003 C234.793645,55.3483932 233.470973,55.2731288 232.147095,55.2677204 L232.109535,55.2677204 Z" id="Shape" fill="#303337"></path>
                <path d="M211.395587,169.961813 L211.20779,204.629343 C211.20779,204.629343 222.475577,225.467441 244.447762,219.191585 C266.419947,212.915728 269.42469,195.328299 269.42469,195.328299 L269.42469,195.328299 C269.837842,173.813761 269.180554,151.867054 270.739265,130.502836 C270.739265,130.258567 263.415203,123.8136 262.664018,122.667411 C260.909502,120.246515 259.815656,117.410013 259.490258,114.437396 C257.875208,104.873291 257.199141,95.0085472 256.372837,85.3317029 L252.034739,84.9371131 C251.616075,84.2228379 251.494675,83.3725689 251.696705,82.5695745 C246.530302,89.0396997 239.784208,94.0680814 232.109535,97.169396 C227.827776,98.898075 222.963848,99.9878943 218.60697,98.4283252 C221.341666,93.7823276 223.24803,88.6958898 224.240864,83.396334 C218.346659,90.1744378 211.561845,96.1223216 204.071525,101.077714 C196.202854,106.301331 195.414109,97.3197159 194.174652,106.71471 C192.822518,116.917674 192.766179,142.829069 194.775601,153.050823 C198.249835,170.112133 211.395587,169.961813 211.395587,169.961813 Z" id="Path" fill="#FFFFFF"></path>
                <path d="M236.447633,221.314853 C219.395716,221.314853 210.494164,205.268203 210.381486,205.080303 C210.306766,204.9418 210.268021,204.786734 210.268808,204.629343 L210.437825,170.807363 C207.245285,170.431563 196.897701,168.120395 193.949297,153.182353 C191.864756,142.584799 192.071332,116.335185 193.348348,106.526811 C193.78028,103.200982 194.174652,102.036003 195.019736,101.491093 C195.724478,101.144873 196.549772,101.144873 197.254514,101.491093 C198.53153,101.904473 200.315596,102.449383 203.639593,100.232164 C211.064931,95.3309086 217.787407,89.4391803 223.621136,82.7198944 C223.89532,82.3997932 224.351764,82.306906 224.729135,82.4944145 C225.113518,82.674797 225.329108,83.0908059 225.254965,83.5090739 C224.320969,88.5330968 222.570017,93.3699096 220.071783,97.8270456 C224.058703,98.5573893 228.174386,98.0048209 231.827841,96.2486865 C239.354632,93.2155128 245.971812,88.2903442 251.039417,81.9495049 C251.313499,81.6040481 251.793939,81.5016028 252.184976,81.705235 C252.590253,81.892107 252.797882,82.3475445 252.673246,82.7762644 C252.561276,83.1820535 252.561276,83.6106145 252.673246,84.0164036 L256.429175,84.3546235 C256.879913,84.4061177 257.232711,84.7669542 257.274259,85.2189629 L257.649852,89.5218704 C258.32592,97.6955157 259.039546,106.132221 260.41046,114.249496 C260.7022,117.095783 261.745753,119.81311 263.433983,122.122501 C263.790796,122.667411 266.532624,125.20406 268.35425,126.895159 C271.697027,129.976717 271.697027,129.976717 271.659468,130.540416 C270.607807,144.839598 270.570248,159.664899 270.513909,174.001661 C270.513909,180.991537 270.513909,188.206893 270.344892,195.271929 L270.344892,195.271929 L270.344892,195.271929 C270.372439,195.395679 270.372439,195.523978 270.344892,195.647728 C269.725164,198.409857 265.218049,214.174658 244.710677,220.074714 C242.028305,220.874759 239.246557,221.292251 236.447633,221.314853 L236.447633,221.314853 Z M212.146773,204.403863 C213.423788,206.639872 224.109406,224.020612 244.203627,218.308455 C264.65466,212.483559 268.316691,196.380538 268.617165,195.253139 C268.748623,188.206893 268.767402,181.010327 268.786182,174.058031 C268.786182,159.815219 268.88008,145.102658 269.912961,130.841056 C269.443469,130.371307 268.279131,129.281487 267.227471,128.323198 C265.353942,126.702332 263.579212,124.970546 261.912832,123.137161 C260.087676,120.608846 258.948884,117.65024 258.607614,114.550136 C257.217921,106.338911 256.523074,97.8646256 255.828227,89.6721903 L255.527752,86.1396724 L251.997179,85.8202426 C251.700366,85.7943766 251.434438,85.6263291 251.283553,85.3692829 C251.178559,85.200087 251.084469,85.0243563 251.001858,84.8431632 C245.953866,90.6202111 239.61674,95.1262326 232.503908,97.9961555 C226.870014,100.250954 222.250222,100.683124 218.325276,99.2738747 C218.063164,99.1789604 217.856748,98.9724314 217.761886,98.7101751 C217.640757,98.4610744 217.640757,98.1700962 217.761886,97.9209955 C219.84156,94.3943639 221.433561,90.601798 222.494357,86.6470021 C217.130168,92.3793657 211.11785,97.4680588 204.578576,101.810523 C200.484613,104.516282 198.043259,103.689522 196.578447,103.276142 C196.345177,103.18014 196.097767,103.123014 195.846041,103.107032 C195.409341,104.315096 195.156132,105.581841 195.094855,106.86503 C193.817839,116.560665 193.630043,142.45327 195.677024,152.919293 C198.850784,168.984734 210.70074,169.135054 211.264129,169.078684 L211.264129,169.078684 C211.518755,169.07499 211.763526,169.177034 211.940197,169.360534 C212.115434,169.53514 212.216376,169.7708 212.221891,170.018183 L212.146773,204.403863 Z" id="Shape" fill="#303337"></path>
                <path d="M259.565376,146.380377 C263.948233,148.091106 268.829679,147.99653 273.143059,146.117317 C279.123946,143.244463 283.179322,137.464149 283.847457,130.859846 C284.272408,128.478326 284.156882,126.031688 283.509423,123.70086 C282.851296,121.340606 281.189381,119.389185 278.964749,118.364504 C276.29804,117.237104 273.330856,117.951124 270.438791,118.683933 C266.25093,119.754963 265.743879,121.897022 262.926933,124.58399 C263.227407,124.35851 263.58422,123.569331 263.884695,123.343851" id="Path" fill="#FFFFFF"></path>
                <path d="M266.025574,148.541435 C263.698029,148.542173 261.391343,148.102258 259.227343,147.244717 C258.874309,147.153473 258.605988,146.865991 258.539126,146.507355 C258.472264,146.148718 258.618952,145.783779 258.915366,145.571323 C259.21178,145.358868 259.604319,145.337313 259.922189,145.516038 C264.063546,147.132766 268.677023,147.038148 272.748687,145.252978 C278.465067,142.511911 282.322676,136.968449 282.908475,130.653156 C283.326997,128.412337 283.23067,126.105627 282.62678,123.90755 C282.037008,121.816145 280.571413,120.082501 278.607936,119.153683 C276.29804,118.176604 273.65011,118.740303 270.682926,119.510693 C268.639583,120.020679 266.854975,121.264573 265.668761,123.005631 C265.105371,123.644491 264.485643,124.3773 263.659339,125.16648 L263.471542,125.33559 C263.216588,125.553763 262.864671,125.619271 262.548354,125.507439 C262.232038,125.395608 261.999378,125.123425 261.938016,124.79342 C261.876654,124.463415 261.995911,124.125723 262.250865,123.90755 C262.250865,123.90755 262.250865,123.90755 262.344764,123.90755 L262.588899,123.550541 C262.773315,123.227435 263.007852,122.935687 263.283746,122.686201 C263.405838,122.593696 263.546961,122.529514 263.696898,122.498301 L264.241508,121.878232 C265.688109,119.858575 267.815827,118.430417 270.232215,117.857174 C272.767467,117.199524 276.260481,116.297605 279.359122,117.594114 C281.826223,118.739253 283.675903,120.898402 284.429626,123.512961 C285.111185,125.95969 285.233141,128.528605 284.786439,131.028956 C284.08607,137.96472 279.812529,144.029364 273.518652,147.019237 C271.151699,148.035315 268.601152,148.553381 266.025574,148.541435 L266.025574,148.541435 Z" id="Path" fill="#303337"></path>
                <path d="M211.20779,189.353082 C211.20779,189.353082 225.51788,191.232081 234.926482,181.348547 C244.335084,171.465013 243.227085,163.648377 243.227085,163.648377 C243.227085,163.648377 225.968591,172.291772 211.301689,169.961813 L211.20779,189.353082 Z" id="Path" fill="#303337"></path>
                <path d="M214.156195,190.442901 C213.158835,190.449261 212.161916,190.399074 211.170231,190.292582 C210.699194,190.234622 210.349472,189.827744 210.362706,189.353082 L210.362706,169.961813 C210.360331,169.68869 210.476868,169.428052 210.68196,169.247794 C210.889417,169.07101 211.164515,168.995316 211.433146,169.041104 C225.630558,171.295903 242.626136,162.896778 242.795153,162.802828 C243.066013,162.662427 243.388157,162.662427 243.659017,162.802828 C243.927518,162.938538 244.110665,163.199315 244.147288,163.498057 C244.147288,163.836277 245.161388,171.934762 235.56499,181.987406 C228.578962,189.409452 218.963784,190.442901 214.156195,190.442901 Z M212.27823,188.563903 C215.395651,188.733012 226.682218,188.808172 234.381872,180.766057 C241.086206,173.757391 242.269323,167.744595 242.43834,165.170366 C238.175361,167.049365 224.672796,172.686362 212.390908,171.089213 L212.27823,188.563903 Z" id="Shape" fill="#303337"></path>
                <path d="M219.508393,118.871833 C219.508393,118.871833 208.991792,136.947803 211.996535,139.785091 C215.001279,142.622379 222.550696,140.142101 222.550696,140.142101" id="Path" fill="#FFFFFF"></path>
                <path d="M216.466091,142.09626 C214.592767,142.236605 212.737167,141.651366 211.282909,140.461531 C208.05281,137.361182 216.146837,122.780151 218.794767,118.402084 C218.942378,118.075291 219.263047,117.861081 219.621295,117.849957 C219.979543,117.838833 220.312871,118.032735 220.48045,118.349741 C220.64803,118.666747 220.620626,119.051554 220.409816,119.341583 C215.508329,127.759498 211.24535,137.718192 212.672603,139.108651 C214.757143,141.11918 220.315918,139.897831 222.287781,139.258971 C222.806366,139.098121 223.357086,139.388355 223.517848,139.907226 C223.678609,140.426097 223.388535,140.97712 222.86995,141.13797 C220.792911,141.76572 218.635806,142.088514 216.466091,142.09626 L216.466091,142.09626 Z" id="Path" fill="#303337"></path>
                <ellipse id="Oval" fill="#303337" transform="translate(236.193706, 119.028686) rotate(-89.290000) translate(-236.193706, -119.028686) " cx="236.193706" cy="119.028686" rx="4.05863729" ry="2.87328592"></ellipse>
                <ellipse id="Oval" fill="#303337" transform="translate(205.190751, 120.126825) rotate(-88.990000) translate(-205.190751, -120.126825) " cx="205.190751" cy="120.126825" rx="4.05863693" ry="2.87328617"></ellipse>
                <path d="M232.109535,144.877178 C227.377065,148.766706 217.968463,150.082005 205.254643,148.635176 C205.254643,148.635176 204.916609,165.546166 217.160938,164.738196 C229.405266,163.930227 232.109535,144.877178 232.109535,144.877178 Z" id="Path" fill="#303337"></path>
                <path d="M216.278295,165.677696 C213.643165,165.755621 211.086603,164.774389 209.179589,162.953148 C204.184203,158.19928 204.315661,148.973396 204.315661,148.597596 C204.33112,148.333981 204.445078,148.085818 204.634915,147.902366 C204.835896,147.726418 205.102247,147.644419 205.367321,147.676886 C217.724327,149.104926 227.001472,147.864786 231.527366,144.144369 C231.827615,143.900418 232.24665,143.865631 232.582975,144.056737 C232.919301,144.247842 233.104103,144.625736 233.048517,145.008708 C232.93584,145.816678 230.081334,164.756986 217.236056,165.677696 L216.278295,165.677696 Z M206.212405,149.649835 C206.343862,152.092534 206.98237,158.29323 210.475384,161.600268 C212.257255,163.254024 214.6704,164.049703 217.085819,163.779907 C226.02493,163.159837 229.630622,151.810684 230.757401,146.868917 C225.592998,149.875315 217.198497,150.814815 206.212405,149.649835 L206.212405,149.649835 Z" id="Shape" fill="#303337"></path>
                <line x1="229.555503" y1="116.729775" x2="243.583898" y2="111.524948" id="Path" fill="#231F20"></line>
                <line x1="209.667859" y1="115.959385" x2="200.935325" y2="113.385156" id="Path" fill="#231F20"></line>
                <path d="M291.810027,97.7706756 C291.321756,96.6996462 192.766179,92.3027888 192.766179,92.3027888 C192.766179,92.3027888 190.04313,67.988543 204.372,52.7498619 C218.700869,37.5111808 259.396359,42.6972178 277.180683,56.7897096 C294.965007,70.8822013 291.810027,97.7706756 291.810027,97.7706756 Z" id="Path" fill="#FFFFFF"></path>
                <path d="M291.810027,98.7102856 C291.652525,98.7126425 291.497127,98.6737715 291.359315,98.5974351 C287.92264,97.7518856 230.663503,94.8394373 192.72862,93.2422883 C192.262836,93.2247825 191.883698,92.8615777 191.845976,92.3967388 C191.733299,91.4008693 189.235606,67.4812133 203.677153,52.1110023 C210.437825,44.9144365 223.508458,41.5322385 239.546275,42.8287477 C254.344635,44.031307 268.992758,49.104604 277.762852,55.98174 C295.753752,70.2433417 292.786568,97.5264058 292.786568,97.8082556 C292.771348,98.2717358 292.42042,98.6547775 291.960264,98.7102856 L291.810027,98.7102856 Z M193.648822,91.4008693 C267.715742,94.7079074 286.213692,96.0232066 290.946163,96.7748062 C291.284197,92.0773089 291.979043,69.717222 276.598514,57.5225191 C258.739072,43.3736574 218.719648,38.84527 205.048067,53.3887215 C192.634721,66.5980838 193.348348,87.1167518 193.648822,91.4008693 L193.648822,91.4008693 Z" id="Shape" fill="#303337"></path>
                <path d="M192.766179,92.3027888 C192.766179,92.3027888 163.60139,96.8311762 163.807966,106.226171 C164.014543,115.621165 235.170617,119.642223 265.969235,95.9668367 L192.766179,92.3027888 Z" id="Path" fill="#FFFFFF"></path>
                <path d="M197.367192,114.456186 C183.507814,114.456186 171.901993,112.746297 166.531015,110.172068 C164.12722,109.025879 162.906543,107.673 162.775086,106.151011 C162.54973,96.2674765 189.460961,91.8330391 192.540823,91.3632894 C192.60308,91.3540282 192.666363,91.3540282 192.72862,91.3632894 L265.969235,94.9521773 C266.361522,94.9535673 266.705816,95.2138442 266.814319,95.5910369 C266.925568,95.9684137 266.799737,96.3757375 266.495065,96.6244863 C249.443148,109.758689 220.334698,114.456186 197.367192,114.456186 Z M192.822518,93.2422883 C184.859948,94.4824275 164.65305,99.1423448 164.65305,106.113431 C164.65305,106.82745 165.610812,107.69179 167.244641,108.462179 C180.897443,115.019886 235.471092,115.771485 263.171068,96.6808563 L192.822518,93.2422883 Z" id="Shape" fill="#303337"></path>
                <path d="M235.903023,300.740137 C234.158389,300.723205 232.455989,300.201109 231.001536,299.236938 C214.869821,288.921234 210.17491,226.275411 210.343927,204.629343 C210.343927,204.110472 210.764323,203.689844 211.282909,203.689844 L211.282909,203.689844 C211.531959,203.694778 211.768843,203.798524 211.941425,203.978249 C212.114007,204.157975 212.208142,204.398948 212.203112,204.648133 C212.071654,231.686927 217.930903,288.620594 232.053196,297.658579 C234.258195,299.133572 237.096673,299.270877 239.433597,298.015589 C260.391681,288.169634 268.542046,196.173848 268.617165,195.253139 C268.658652,194.734267 269.11268,194.347289 269.631266,194.388799 C270.149851,194.430309 270.536616,194.884587 270.49513,195.403459 C270.157096,199.161456 262.156967,289.353404 240.241121,299.725478 C238.887714,300.380064 237.406199,300.726583 235.903023,300.740137 Z" id="Path" fill="#303337"></path>
                <path d="M227.865335,333.096498 L221.161002,331.029599 C221.161002,331.029599 219.283038,318.365147 220.428596,309.533852 C221.574154,300.702557 225.724456,296.24933 227.696319,294.746131 C229.668181,293.242931 239.658952,295.42257 239.658952,295.42257 C239.658952,295.42257 232.147095,305.681904 231.452248,312.87847 C230.757401,320.075036 227.865335,333.096498 227.865335,333.096498 Z" id="Path" fill="#FFFFFF"></path>
                <path d="M227.865335,334.073578 C227.772277,334.091351 227.676699,334.091351 227.583641,334.073578 L220.860528,332.006679 C220.505286,331.902224 220.242039,331.602251 220.184461,331.236289 C219.115042,324.034587 218.875599,316.733841 219.470834,309.477482 C220.785409,299.518788 225.649337,295.14072 227.09537,294.032111 C229.273809,292.397382 237.405395,294.032111 239.865529,294.520651 C240.182789,294.592754 240.443326,294.818207 240.560375,295.12193 C240.678319,295.430964 240.628626,295.77901 240.428918,296.04264 C240.428918,296.04264 233.048517,306.189234 232.41001,312.95363 C231.733942,320.150196 228.935775,332.758278 228.804318,333.284398 C228.743512,333.548198 228.581677,333.777592 228.353606,333.923258 C228.204774,334.010734 228.037573,334.062209 227.865335,334.073578 Z M222.024866,330.31558 L227.151709,331.875149 C227.827776,328.680851 229.931096,318.722157 230.475706,312.8221 C231.020316,306.922043 235.978142,299.067828 237.987564,296.08022 C233.743364,295.27225 229.161131,294.85887 228.259708,295.53531 C227.358285,296.21175 222.625815,300.251597 221.367578,309.684172 C220.812562,316.557945 221.033047,323.472396 222.024866,330.29679 L222.024866,330.31558 Z" id="Shape" fill="#303337"></path>
                <path d="M246.776438,302.525186 C246.044032,298.579288 241.048646,291.833682 233.086077,297.677369 C225.123507,303.521055 227.865335,333.096498 227.865335,333.096498 L233.048517,331.555719 L233.856042,317.125007 C233.856042,317.125007 249.499486,317.312907 246.776438,302.525186 Z" id="Path" fill="#FFFFFF"></path>
                <path d="M227.865335,334.073578 C227.671026,334.072676 227.481404,334.013795 227.320726,333.904468 C227.080339,333.742934 226.927888,333.479463 226.907574,333.190448 C226.794896,331.950309 224.222084,302.994936 232.541467,296.888189 C236.654209,293.863001 239.884308,294.163641 241.93129,295.00919 C244.959646,296.387326 247.135354,299.145207 247.771759,302.412446 L247.771759,302.412446 C248.77846,306.210551 247.974367,310.260974 245.59332,313.3858 C242.344442,317.237747 236.992243,317.970557 234.832584,318.120877 L234.081398,331.668459 C234.048774,332.076023 233.774847,332.424175 233.386551,332.551588 L228.203369,334.092368 L227.865335,334.073578 Z M239.039224,296.36207 C237.098857,296.483707 235.245997,297.213426 233.743364,298.447758 C227.865335,302.769456 228.109471,322.987484 228.804318,331.837569 L232.203433,330.822909 L232.954619,317.068638 C232.984507,316.551143 233.413089,316.147065 233.931161,316.147928 L233.931161,316.147928 C233.931161,316.147928 240.673053,316.147928 244.128508,312.0705 C246.131534,309.377932 246.782757,305.912068 245.893795,302.675506 L245.893795,302.675506 C245.358025,300.085212 243.6416,297.895042 241.255222,296.756659 C240.548729,296.483989 239.79636,296.350019 239.039224,296.36207 L239.039224,296.36207 Z" id="Shape" fill="#303337"></path>
                <polygon id="Path" fill="#303337" points="220.428596 309.533852 225.198626 309.796912 224.898152 315.114479 220.015444 314.851419"></polygon>
                <path d="M224.898152,316.091558 L224.898152,316.091558 L220.034223,315.809708 C219.773224,315.800279 219.527392,315.684615 219.353661,315.489503 C219.179929,315.29439 219.093367,315.036754 219.114021,314.776259 L219.527173,309.458692 C219.536227,309.203909 219.65046,308.964288 219.842659,308.796911 C220.034859,308.629534 220.287817,308.549387 220.541274,308.575562 L225.311304,308.838622 C225.565478,308.853141 225.803417,308.968315 225.972556,309.158701 C226.141696,309.349088 226.228116,309.599019 226.212727,309.853282 L225.931032,315.170849 C225.916514,315.430143 225.799422,315.672987 225.605621,315.845742 C225.411819,316.018496 225.157254,316.106947 224.898152,316.091558 L224.898152,316.091558 Z M221.142223,313.930709 L224.071847,314.099819 L224.259644,310.717621 L221.405138,310.567301 L221.142223,313.930709 Z" id="Shape" fill="#303337"></path>
                <path d="M88.933522,162.051228 C92.689451,174.020451 115.638177,231.386288 122.192273,248.673077 C128.746369,265.959867 134.624398,291.213613 118.999734,305.625534 C111.994926,312.08929 100.839817,314.344089 92.5955527,309.552642 C89.0586792,307.297527 86.0380249,304.320031 83.7315603,300.815297 C62.7359172,271.578074 58.6043953,170.112133 54.7170088,153.370253 C54.7170088,153.370253 79.8253942,132.269095 83.8066789,131.930876 C87.7879636,131.592656 88.933522,162.051228 88.933522,162.051228 Z" id="Path" fill="#FFFFFF"></path>
                <path d="M102.548765,313.067364 C98.8965557,313.102214 95.3001401,312.168576 92.1260616,310.360611 C88.4773081,308.032813 85.3556221,304.967011 82.9615949,301.360207 C67.2618117,279.4135 60.9330713,217.632016 57.139583,180.728477 C55.8250079,167.932495 54.7921274,157.842271 53.7968062,153.595733 C53.7157673,153.247292 53.8395448,152.88304 54.1160602,152.656234 C58.3414803,149.086136 79.6563773,131.329596 83.7127807,130.991376 C84.2322554,130.957862 84.7423287,131.14159 85.121254,131.498706 C88.614268,134.599054 89.6847078,157.053091 89.8725042,161.882118 C92.4640952,170.074553 103.637984,198.560177 112.614654,221.465173 C117.06543,232.851907 120.934037,242.679071 123.074917,248.334858 C133.159586,274.903902 131.957689,294.95282 119.638241,306.320764 C114.976126,310.613857 108.884645,313.018304 102.548765,313.067364 L102.548765,313.067364 Z M55.7498893,153.727263 C56.7452105,158.36839 57.7405317,168.214344 59.0175475,180.540577 C62.7734765,217.256216 69.0834372,278.71827 84.4827461,300.270387 C86.7345049,303.652411 89.6554192,306.536564 93.0650439,308.744672 C100.576902,313.12274 111.224961,311.506801 118.361226,304.986675 C133.159586,291.345143 128.145421,267.049687 121.30963,249.067667 C119.16875,243.430671 115.318923,233.584716 110.868147,222.197983 C101.835138,199.161456 90.5861307,170.469143 88.0508786,162.389448 C88.0336236,162.30894 88.0336236,162.225686 88.0508786,162.145178 C87.5438282,148.747916 85.7973213,133.772295 83.8630178,132.907955 C81.2338675,133.077065 65.4214065,145.685148 55.7498893,153.727263 L55.7498893,153.727263 Z" id="Shape" fill="#303337"></path>
                <path d="M119.18753,130.653156 C119.18753,130.653156 115.431601,140.048151 109.591131,141.92715 C103.750662,143.806149 90.4358936,137.887302 88.933522,138.770432 C87.4311504,139.653561 54.4540938,166.861465 51.374232,167.782175 C48.2943702,168.702884 41.5149184,160.717139 38.4350566,151.322144 C38.4350566,151.322144 70.6609274,127.101848 72.7266884,124.58399 C74.7924493,122.066131 76.7079731,107.673 79.6939366,102.186323 L119.18753,130.653156 Z" id="Path" fill="#FFFFFF"></path>
                <path d="M50.8108427,168.665304 C46.7919986,168.665304 40.5008176,160.717139 37.6650912,151.603994 C37.5526125,151.222704 37.6871069,150.811522 38.0031248,150.570545 C50.9235205,140.85612 70.679707,125.767759 72.1257397,123.98271 C72.9896034,122.949261 74.0037042,118.777883 74.9614661,114.756826 C75.8364627,110.283954 77.190135,105.918319 78.9990898,101.735363 C79.1261623,101.494865 79.3530268,101.322903 79.6188181,101.265614 C79.8792103,101.208982 80.1514113,101.263452 80.3700039,101.415933 L119.807258,129.826397 C120.143641,130.086919 120.272776,130.53534 120.126512,130.935006 C119.957495,131.348386 116.164007,140.743381 109.929165,142.716329 C106.004219,143.937679 99.3374453,142.05868 94.4735172,140.687011 C92.8277841,140.125613 91.1286592,139.735229 89.4030131,139.522031 C89.1025388,139.728721 85.6470841,142.490849 81.684579,145.685148 C67.1303542,157.372521 53.8719248,167.932495 51.637147,168.571354 C51.368438,168.646334 51.0895147,168.678047 50.8108427,168.665304 L50.8108427,168.665304 Z M39.5430557,151.754314 C42.6416971,160.905039 48.7075224,167.500325 51.0174188,166.786305 C53.3273151,166.072286 71.5435707,151.359724 80.4263428,144.238318 C85.5156266,140.142101 87.9382008,138.169152 88.4452512,137.887302 C89.3091149,137.361182 90.942944,137.774562 94.8866694,138.901962 C99.5252417,140.198471 105.872762,142.00231 109.271877,140.93128 C113.778992,139.522031 117.04665,133.039485 117.985633,130.935006 L80.0883092,103.595572 C78.6452022,107.368617 77.5084809,111.251936 76.6891934,115.207785 C75.3933979,120.544142 74.5483139,123.86997 73.4778742,125.18527 C71.5060114,127.609178 44.7074581,147.808416 39.580615,151.660364 L39.5430557,151.754314 Z" id="Shape" fill="#303337"></path>
                <path d="M81.8348162,110.735768 C82.223961,113.161871 81.8772646,115.648988 80.839495,117.875964 C79.1305473,121.295742 71.0365203,126.162349 71.0365203,126.162349 L64.7453392,114.888356 L75.6750926,106.188591 L81.8348162,110.735768 Z" id="Path" fill="#303337"></path>
                <path d="M71.0365203,127.102053 L70.7923849,127.102053 C70.5464941,127.023526 70.3388112,126.855948 70.2102159,126.632099 L63.9190349,115.358105 C63.7022487,114.956562 63.8052308,114.45722 64.1631702,114.174336 L75.0929236,105.474571 C75.4326938,105.220901 75.8987118,105.220901 76.238482,105.474571 L82.3982055,109.984168 C82.5877573,110.116709 82.7162837,110.319757 82.7550188,110.547868 C83.1903565,113.177273 82.817061,115.876965 81.684579,118.289344 C79.8066145,121.934601 71.8628247,126.763629 71.5247911,126.970319 C71.3779095,127.059874 71.2084858,127.105513 71.0365203,127.102053 L71.0365203,127.102053 Z M65.9472365,115.038676 L71.3745539,124.84705 C73.9661449,123.212321 78.8864119,119.792543 80.0131906,117.462584 C80.9032413,115.518562 81.2348732,113.36502 80.9709525,111.243098 L75.6938723,107.2972 L65.9472365,115.038676 Z" id="Shape" fill="#303337"></path>
                <path d="M47.1112526,144.783228 C47.1112526,144.783228 43.6370183,135.388234 48.9892171,134.467524 C48.9892171,134.467524 49.6465047,127.627968 56.2193804,130.183407 C56.2193804,130.183407 57.5902945,123.005631 63.2617473,124.1894 C68.9332001,125.373169 73.9473653,138.544952 73.3651963,141.94594 C72.7830273,145.346928 68.2946921,143.524299 65.9660162,140.442741 C65.9660162,140.442741 69.0458779,145.591198 67.2242524,147.056817 C64.5199835,149.217666 61.477681,145.741518 58.9799882,143.298819 C58.9799882,143.298819 62.7359172,149.292826 57.6466334,150.100795 C53.702908,150.720865 49.6652843,142.904229 49.6652843,142.904229 L47.1112526,144.783228 Z" id="Path" fill="#FFFFFF"></path>
                <path d="M57.2147016,151.002715 C53.7592469,151.002715 50.6418259,146.361587 49.4023693,144.238318 L47.674642,145.534828 C47.4437232,145.72454 47.1312196,145.78139 46.8483376,145.685148 C46.5633169,145.607649 46.3327986,145.397971 46.2286093,145.121448 C46.0032536,144.482588 43.9938315,138.789222 45.8530164,135.576134 C46.3616313,134.675828 47.1945549,134.003745 48.1816924,133.697135 C48.4859845,131.964162 49.4567896,130.419462 50.8859613,129.394227 C52.3153751,128.576637 54.0307157,128.425604 55.5808725,128.980847 C56.1311335,127.030157 57.2971505,125.309829 58.9048697,124.07666 C60.2426499,123.171299 61.9044341,122.883919 63.4683234,123.287481 C69.6843859,124.58399 74.9614661,138.319472 74.3041785,142.07747 C74.2033756,143.288994 73.3423549,144.301629 72.163299,144.595328 C70.8807797,144.806869 69.565764,144.524925 68.4824886,143.806149 C69.0264514,145.13681 68.7639914,146.661375 67.8064214,147.733256 C65.5716436,149.518305 63.2617473,148.372116 61.2335456,146.662227 C61.3233727,147.390261 61.21973,148.129121 60.9330713,148.804286 C60.3366781,150.011532 59.1402543,150.807198 57.7968706,150.889975 L57.2147016,151.002715 Z M49.7028436,141.92715 L49.9094197,141.92715 C50.1814336,141.992943 50.4131982,142.170272 50.5479276,142.41569 C51.5056895,144.294688 54.9048053,149.574675 57.5339556,149.123716 C58.9048697,148.898236 59.1677847,148.296956 59.2616829,148.109056 C59.8438519,146.831337 58.6795139,144.463798 58.2100228,143.749779 C57.9686324,143.341079 58.0557782,142.817916 58.4165989,142.509639 C58.7739935,142.186904 59.3174405,142.186904 59.6748351,142.509639 L60.2006652,143.035759 C62.904934,145.797888 64.9519153,147.639306 66.660863,146.267637 C67.3369302,145.722728 66.4542869,142.960599 65.1960507,140.85612 C64.9668646,140.428624 65.1006642,139.896832 65.5048306,139.628864 C65.908997,139.360895 66.4506134,139.444875 66.7547613,139.822671 C67.8541684,141.535151 69.7013487,142.623147 71.7313672,142.753909 C72.0130618,142.753909 72.3510955,142.509639 72.482553,141.73925 C72.9896034,138.789222 68.1632346,126.124769 63.0927305,125.05374 C62.0258235,124.784112 60.8947926,124.974993 59.9753094,125.579859 C58.5373833,126.816496 57.5636479,128.506559 57.2147016,130.371307 C57.1577351,130.642095 56.9865571,130.875026 56.7452105,131.010166 C56.4939901,131.121127 56.2076857,131.121127 55.9564654,131.010166 C54.6916861,130.37657 53.2024006,130.37657 51.9376214,131.010166 C50.8683621,131.90007 50.1934556,133.176345 50.0596569,134.561474 C50.0238249,134.98519 49.7080195,135.331996 49.2896914,135.407024 C48.5714012,135.484355 47.9347803,135.904336 47.5807437,136.534423 C46.6229818,138.187942 47.1675915,141.30708 47.7122013,143.261239 L49.2333525,142.09626 C49.3733298,142.001645 49.5347121,141.943515 49.7028436,141.92715 Z" id="Shape" fill="#303337"></path>
                <path d="M70.4919106,115.019886 C70.4919106,115.019886 73.4027556,109.382889 76.9521085,114.042806 C80.5014614,118.702723 84.9146779,127.609178 79.412242,128.811737 C73.909806,130.014297 69.2712337,119.867703 70.4919106,115.019886 Z" id="Path" fill="#FFFFFF"></path>
                <path d="M78.4920394,129.845187 C76.6398317,129.758547 74.9061971,128.908258 73.7032299,127.496438 C70.6045885,124.30214 68.6890647,118.364504 69.5904876,114.794406 C69.5827341,114.725727 69.5827341,114.656394 69.5904876,114.587716 C69.7407248,114.268286 71.2430964,111.487368 73.6844502,111.280572 C75.2936463,111.269769 76.79062,112.104257 77.6281757,113.479106 C79.9568517,116.541875 83.9944753,123.362641 82.5672223,127.233378 C82.074071,128.551758 80.9133809,129.505195 79.5249198,129.732447 C79.1850402,129.803105 78.8391511,129.840859 78.4920394,129.845187 Z M71.3745539,115.358105 C71.038233,119.335175 72.4031882,123.268411 75.1304829,126.181139 C76.1233997,127.43339 77.6944774,128.080661 79.2807844,127.891028 C80.041375,127.803374 80.6878169,127.294657 80.9521728,126.575729 C81.8911551,124.03908 79.2432252,118.514823 76.2760413,114.625296 C75.804723,113.790395 74.9572493,113.23678 74.0037042,113.140887 C72.7830273,113.253627 71.7313672,114.719246 71.3745539,115.358105 L71.3745539,115.358105 Z" id="Shape" fill="#303337"></path>
                <path d="M89.1400981,165.076416 C89.1400981,165.076416 91.9946041,147.451407 92.2011802,144.407428 C92.5392138,139.089861 90.9241643,130.878636 86.2104734,129.807607 C81.4967826,128.736578 70.8487239,127.928608 72.8018069,132.550945 C74.6797714,136.741113 83.9193568,137.116913 83.9193568,137.116913 C83.9193568,137.116913 77.7971925,143.881309 79.0742084,150.269905" id="Path" fill="#FFFFFF"></path>
                <path d="M89.1400981,166.016042 L88.9898609,166.016042 C88.4837028,165.929588 88.1407102,165.452482 88.2198955,164.944886 C88.2198955,164.775776 91.0744015,147.319877 91.2621979,144.275898 C91.5814519,139.127441 89.9476228,131.536286 86.0038973,130.634366 C81.3277657,129.563337 74.9239068,129.488177 73.6656706,130.972586 C73.6656706,131.104116 73.3464166,131.367176 73.6656706,132.118776 C74.9239068,135.087594 81.5343418,136.008303 83.956916,136.102253 C84.3260882,136.120743 84.6531869,136.346201 84.8020001,136.684743 C84.9360198,137.016087 84.870506,137.394819 84.6329833,137.661822 C84.6329833,137.661822 78.830073,144.163159 79.994411,150.025635 C80.0442695,150.269827 79.9951081,150.523835 79.8577469,150.731753 C79.7203857,150.93967 79.5060826,151.084456 79.2620048,151.134244 C78.7558828,151.227487 78.2665871,150.903876 78.1540057,150.401435 C77.1586846,145.346928 80.2948853,140.254841 82.0789515,137.830932 C79.092988,137.492712 73.4403149,136.384103 71.9379433,132.851585 C71.404493,131.858431 71.5231731,130.64129 72.2384176,129.770027 C74.6797714,126.838789 84.0508143,128.266828 86.4358292,128.811737 C91.9570448,130.070667 93.478196,139.033492 93.1401624,144.388638 C92.9335863,147.545357 90.1917582,164.531507 90.0790803,165.245526 C89.9964805,165.697512 89.5992639,166.023409 89.1400981,166.016042 Z" id="Path" fill="#303337"></path>
                <path d="M17.8713454,102.017213 C17.8713454,102.017213 56.1818211,96.3802164 72.3323158,104.873291 C76.387618,107.054991 80.2902344,109.509595 84.013255,112.220177 C92.8396881,118.514823 101.19663,125.711389 107.638048,129.600917 C120.389427,137.304813 132.445959,138.526162 139.976597,124.941 C146.436795,113.309997 142.117477,108.12396 132.276943,98.5034852 C127.413015,93.749618 117.253227,86.0081425 108.408014,77.2895876 C103.197829,72.4692233 98.7298815,66.9033743 95.1495844,60.7731872 C87.2621336,46.0982058 88.2762344,22.9677293 88.2762344,22.9677293 L17.8713454,102.017213 Z" id="Path" fill="#FFFFFF"></path>
                <path d="M124.351932,136.290153 C119.318988,136.290153 113.534857,134.411154 107.112218,130.465257 C102.566876,127.528593 98.1789091,124.354972 93.9664668,120.957522 C90.5485714,118.345714 87.0367778,115.621165 83.431086,113.046937 C79.7474712,110.353009 75.8821742,107.917033 71.8628247,105.756421 C56.2006008,97.5639857 18.3783958,102.956713 18.0028029,103.013083 C17.6127468,103.067297 17.2303202,102.872227 17.045041,102.524543 C16.8540722,102.179284 16.8990857,101.75142 17.1577189,101.453513 L87.5813875,22.4040296 C87.8454344,22.1130298 88.2626171,22.0172396 88.6270527,22.1639324 C88.9914884,22.3106253 89.2261446,22.6687938 89.2152166,23.0616793 C89.2152166,23.2871591 88.3701326,46.0982058 95.9383295,60.3785975 C99.4758887,66.4454601 103.907637,71.9438547 109.084081,76.6883079 C114.173365,81.686445 119.619462,86.3087823 124.427051,90.3862099 C127.882506,93.3174482 130.887249,95.8540967 132.95301,97.9022055 C142.812323,107.56026 147.638692,113.159677 140.821681,125.467119 C137.741819,131.104116 133.741755,134.467524 128.915386,135.745243 C127.424505,136.125284 125.890328,136.308476 124.351932,136.290153 Z M43.918713,99.2550847 C54.3789752,99.2550847 65.5904233,100.307324 72.7266884,104.046532 C76.8306261,106.269598 80.7717292,108.781237 84.5203054,111.562528 C88.1635565,114.155546 91.6941298,116.880094 95.1120252,119.510693 C99.2701356,122.85912 103.594988,125.994798 108.06998,128.905687 C116.051329,133.734715 122.88712,135.444604 128.389556,133.960194 C132.690095,132.814005 136.314566,129.657287 139.112733,124.5652 C145.310016,113.422736 141.291172,108.762819 131.600875,99.2738747 C129.572674,97.2821359 126.60549,94.7642774 123.168815,91.7578791 C118.342446,87.6616615 112.877569,83.0205342 107.731947,77.9660272 C102.417696,73.0684421 97.8776032,67.3917838 94.2669411,61.130197 C87.9194211,49.198554 87.2621336,31.9493441 87.2621336,25.4292179 L20.2375807,100.758284 C28.0958936,99.8026517 36.0027022,99.3007539 43.918713,99.2550847 Z" id="Shape" fill="#303337"></path>
                <path d="M81.8348162,110.735768 C90.6612493,117.011624 101.384427,125.391959 107.600489,129.525757 C121.779121,139.165021 130.511656,139.841461 138.887378,126.744839 C147.507235,113.291207 142.079917,108.0488 132.239383,98.4283252 C127.375455,93.674458 117.215667,85.9329825 108.370455,77.2144276 C108.370455,77.2144276 108.257777,86.7033721 99.3937842,98.6538051 C95.0475182,104.523855 88.8684106,108.775572 81.8348162,110.735768 Z" id="Path" fill="#303337"></path>
                <path d="M124.821423,137.699402 C120.070173,137.699402 114.473839,135.350654 107.130998,130.371307 C103.769441,128.097718 99.1120895,124.60278 94.1542633,120.976312 C89.8725042,117.782014 85.440508,114.474976 81.365325,111.581318 C81.0647383,111.361985 80.9182893,110.988335 80.9897321,110.623028 C81.0602476,110.251422 81.3507366,109.960773 81.7221383,109.890219 C88.478586,107.962612 94.4162095,103.869996 98.6238188,98.2404253 C107.168557,86.7221621 107.412693,77.4586975 107.412693,77.3647475 C107.414585,76.9854698 107.644222,76.6445306 107.994862,76.500408 C108.344592,76.3696854 108.738207,76.4499105 109.008962,76.7070979 C114.098246,81.705235 119.544343,86.3275723 124.351932,90.4049999 C127.807387,93.3362382 130.81213,95.8728867 132.877891,97.9209955 C142.755984,107.59784 148.671573,113.366367 139.676123,127.421278 C135.920194,133.377705 131.976468,136.590793 127.469353,137.511502 C126.59517,137.662234 125.708119,137.72518 124.821423,137.699402 Z M83.956916,111.092778 C87.6001672,113.723376 91.468774,116.598245 95.224703,119.397953 C100.14497,123.155951 104.802322,126.575729 108.145099,128.792947 C116.464481,134.429944 122.323731,136.534423 127.11254,135.538554 C131.112605,134.730584 134.624398,131.780556 138.117412,126.275089 C146.305337,113.516686 141.42263,108.744029 131.713553,99.2550847 C129.572674,97.150606 126.60549,94.6327474 123.168815,91.7390891 C118.774378,87.9810913 113.778992,83.8472937 109.12164,79.3189064 C107.820803,86.6005952 104.743851,93.4484858 100.16375,99.2550847 C96.0685075,104.736172 90.4223197,108.860224 83.956916,111.092778 Z" id="Shape" fill="#303337"></path>
                <path d="M7.03549025,99.2362948 C16.0121605,106.60197 34.7166869,99.2362948 52.6888072,82.7011044 C61.7724311,74.2432727 69.6747394,64.5985366 76.182143,54.0275812 C88.9898609,32.9452135 92.5204342,13.0841951 83.5062046,5.6997294 C72.2384176,-3.45099526 46.1347111,10.0777968 25.0076105,35.8952418 C3.88050989,61.7126867 -4.15717816,90.0855701 7.03549025,99.2362948 Z" id="Path" fill="#F0AA3B"></path>
                <path d="M74.5483139,2.88123105 C77.7723631,2.73955531 80.9434581,3.73730428 83.5062046,5.6997294 C92.5392138,13.0841951 89.0086405,33.0203734 76.2009227,54.0275812 C69.6935191,64.5985366 61.7912107,74.2432727 52.7075868,82.7011044 C39.4491575,94.9521773 25.8151352,102.111163 15.8994827,102.111163 C12.6737887,102.240445 9.50666128,101.221879 6.96037167,99.2362948 C-4.30741532,90.0855701 3.82417096,61.6563167 24.9324919,35.8952418 C41.6463759,15.5456836 61.4401217,2.88123105 74.5483139,2.88123105 M74.5483139,1.00223214 C60.5574784,1.00223214 40.0688857,14.5498142 23.5615778,34.8242124 C13.1952138,47.394715 5.57067794,61.130197 2.09644362,73.3061099 C-1.50924822,86.0457225 -0.175893424,95.8540967 5.85237261,100.701914 C8.71636072,102.935483 12.2698756,104.098488 15.8994827,103.990162 C26.3409653,103.990162 40.1815636,96.7184362 53.8907044,84.0727736 C58.5377324,79.7632812 62.8800176,75.1360746 66.8862188,70.2245517 C70.8366266,65.4055675 74.4508587,60.320254 77.7032943,55.0046606 C91.4312147,32.4566738 94.2106022,12.1071157 84.595424,4.27169023 C81.7311623,2.04058258 78.1763083,0.883787612 74.5483139,1.00223214 Z" id="Shape" fill="#303337"></path>
                <path d="M36.4444143,64.1553853 L52.6888072,82.7011044 C61.7724311,74.2432727 69.6747394,64.5985366 76.182143,54.0275812 L53.3273151,41.3819186 L36.4444143,64.1553853 Z" id="Path" fill="#FFFFFF"></path>
                <ellipse id="Oval" fill="#303337" transform="translate(44.942063, 52.816024) rotate(-53.210000) translate(-44.942063, -52.816024) " cx="44.942063" cy="52.8160241" rx="14.1648544" ry="6.59295869"></ellipse>
                <path d="M38.6228531,65.7525343 C37.6438783,65.7788177 36.6846024,65.4743281 35.8998046,64.8881948 C34.1720772,63.6104756 33.6086879,61.130197 34.2847551,57.823159 C35.1390081,54.3525794 36.7129812,51.1004706 38.9045478,48.2778445 L38.9045478,48.2778445 C43.9750519,41.4946585 50.5854869,38.1688304 53.9282637,40.7618489 C55.6559911,42.0395682 56.2193804,44.5198467 55.5433132,47.8080948 C54.7049271,51.2830074 53.1435421,54.5419531 50.9610798,57.3721992 C47.036134,62.5770262 42.1909856,65.7525343 38.6228531,65.7525343 Z M40.5008176,49.4240339 C38.4745143,52.0303517 37.0159783,55.0322383 36.2190585,58.2365387 C35.6932285,60.7168173 36.0312621,62.5958162 37.1204815,63.4037857 C39.2425814,65.0009348 44.8952545,62.4454963 49.5526065,56.2072199 C51.5789097,53.6009021 53.0374457,50.5990154 53.8343655,47.394715 C54.3601956,44.9144365 54.022162,43.0354376 52.9329426,42.2274681 C50.8108427,40.611529 45.1581695,43.1857575 40.5008176,49.4240339 L40.5008176,49.4240339 Z" id="Shape" fill="#303337"></path>
                <path d="M59.0926661,144.163159 C58.7715792,144.169972 58.4711192,144.005344 58.303921,143.730989 C56.9082844,141.662667 55.2335623,139.797327 53.3273151,138.187942 C52.9185557,137.870902 52.842988,137.282829 53.1582983,136.872643 C53.4749253,136.466902 54.0553666,136.383936 54.4728734,136.684743 C56.5588844,138.416282 58.3754123,140.449127 59.8626315,142.716329 C60.0036222,142.921928 60.0552426,143.175951 60.0056891,143.420313 C59.9561356,143.664676 59.8096461,143.87848 59.5997165,144.012839 C59.4473395,144.107777 59.2721382,144.159717 59.0926661,144.163159 L59.0926661,144.163159 Z" id="Path" fill="#303337"></path>
                <path d="M65.9847958,141.382252 C65.5544081,141.384442 65.1799861,141.087861 65.0833728,140.668221 C64.1859602,137.935657 62.4180562,135.572753 60.050428,133.941404 C59.7719912,133.75344 59.6149276,133.431128 59.6384016,133.095879 C59.6618755,132.760631 59.8623208,132.463379 60.1642316,132.316095 C60.4661424,132.168811 60.8236513,132.193871 61.1020881,132.381835 C63.8672904,134.260894 65.9131875,137.023383 66.9049984,140.217261 C67.0119933,140.718514 66.7058337,141.215262 66.2101515,141.34466 L65.9847958,141.382252 Z" id="Path" fill="#303337"></path>
                <path d="M49.7028436,143.806149 C49.415821,143.810615 49.1438332,143.678035 48.9704375,143.449139 L47.2802694,141.28829 C46.9649591,140.878104 47.0405268,140.290031 47.4492862,139.972991 C47.8543349,139.653226 48.4413642,139.720352 48.7638614,140.123311 L50.4540294,142.28416 C50.771346,142.700397 50.6960921,143.294394 50.2850126,143.618249 C50.1173582,143.744144 49.9124219,143.810289 49.7028436,143.806149 Z" id="Path" fill="#303337"></path>
                <path d="M126.380134,98.3156399 C126.159264,98.3150218 125.945965,98.2349905 125.779185,98.0901054 L112.84001,87.2107018 C112.440699,86.8734355 112.390252,86.2761435 112.727332,85.8766127 C113.064413,85.4770819 113.661376,85.4266065 114.060687,85.7638726 L126.981083,96.6620663 C127.178096,96.8164077 127.302128,97.0457396 127.323497,97.2951816 C127.344866,97.5446235 127.261649,97.7917295 127.093761,97.9773655 C126.920518,98.1938994 126.657333,98.3186346 126.380134,98.3156399 Z" id="Path" fill="#FFFFFF"></path>
                <path d="M124.821423,101.171664 C124.600553,101.1711 124.387254,101.091069 124.220475,100.946184 L111.281299,90.0667801 C111.022991,89.8486071 110.900633,89.5091248 110.960318,89.1762131 C111.020003,88.8433013 111.252663,88.5675372 111.570657,88.4527985 C111.88865,88.3380598 112.243668,88.4017779 112.501976,88.619951 L125.422372,99.5181446 C125.719897,99.7726784 125.828386,100.185187 125.694609,100.553277 C125.560832,100.921367 125.21286,101.167799 124.821423,101.171664 L124.821423,101.171664 Z" id="Path" fill="#FFFFFF"></path>
                <path d="M122.943459,104.459912 C122.722589,104.459348 122.50929,104.379317 122.34251,104.234432 L109.403335,93.3550282 C109.004024,93.0177619 108.953576,92.4204698 109.290657,92.020939 C109.627738,91.6214081 110.224701,91.5709327 110.624012,91.908199 L123.544408,102.806393 C123.841933,103.060926 123.950421,103.473435 123.816644,103.841525 C123.682867,104.209615 123.334895,104.456047 122.943459,104.459912 L122.943459,104.459912 Z" id="Path" fill="#FFFFFF"></path>
                <path d="M160.502749,384.862918 L160.502749,384.862918 C160.254798,384.843981 160.025063,384.725443 159.865867,384.534303 C159.706671,384.343163 159.631569,384.095694 159.657665,383.848259 L175.24477,215.208107 C175.278317,214.872456 175.488284,214.580209 175.79558,214.441452 C176.102875,214.302694 176.460813,214.338508 176.734562,214.535401 C177.008311,214.732295 177.156281,215.060356 177.122735,215.396007 L161.422952,383.979788 C161.402793,384.473549 160.996649,384.862918 160.502749,384.862918 L160.502749,384.862918 Z" id="Path" fill="#303337"></path>
                <polygon id="Path" fill="#FFFFFF" points="406.065387 447.621481 454.235176 340.631284 306.890081 275.918562 258.739072 382.908759"></polygon>
                <path d="M406.065387,448.579771 C405.935297,448.606606 405.801104,448.606606 405.671014,448.579771 L258.344699,383.791889 C258.105754,383.694535 257.916169,383.504845 257.818869,383.265769 C257.724589,383.024115 257.724589,382.755823 257.818869,382.514169 L305.988659,275.523972 C306.217533,275.0481 306.777872,274.833735 307.265674,275.035432 L454.591989,339.748154 C454.831101,339.847312 455.01992,340.039081 455.115439,340.279779 C455.210958,340.520477 455.205042,340.78961 455.09904,341.025874 L406.94803,448.016071 C406.795558,448.365905 406.446723,448.588688 406.065387,448.579771 L406.065387,448.579771 Z M260.034867,382.439009 L405.595895,446.324972 L452.95816,341.101033 L307.397132,277.215071 L260.034867,382.439009 Z" id="Shape" fill="#303337"></path>
                <path d="M289.237215,349.594109 L302.270289,320.619945 C303.612643,317.33783 303.585703,313.654592 302.195484,310.392486 C300.805265,307.130379 298.167521,304.561019 294.871109,303.257996 L291.321756,301.698426 L267.678183,354.254026 L271.227536,355.813595 C277.920927,359.009868 285.939266,356.240804 289.237215,349.594109 L289.237215,349.594109 Z" id="Path" fill="#FFFFFF"></path>
                <path d="M277.161903,358.012024 C274.983046,358.007819 272.828511,357.553646 270.833163,356.677934 L267.28381,355.118365 C267.043643,355.013116 266.854683,354.817299 266.75798,354.573456 C266.6637,354.331802 266.6637,354.06351 266.75798,353.821856 L290.382774,301.209887 C290.604524,300.726338 291.172175,300.509176 291.659789,300.721347 L295.227922,302.280916 C298.938538,303.889793 301.861953,306.902637 303.359508,310.661251 C304.669845,313.973037 304.581753,317.674948 303.115373,320.920585 L290.082299,349.988698 L290.082299,349.988698 C287.727112,354.972593 282.67087,358.112425 277.161903,358.012024 Z M268.955199,353.727906 L271.621908,354.892885 C277.803442,357.88011 285.237667,355.375625 288.354572,349.255889 L301.350086,320.225356 C302.594769,317.445844 302.662508,314.280705 301.537883,311.450431 C300.24538,308.165562 297.687377,305.538441 294.439177,304.159915 L291.772467,302.976146 L268.955199,353.727906 Z" id="Shape" fill="#303337"></path>
                <path d="M398.722545,432.40159 C398.598933,432.42978 398.470565,432.42978 398.346952,432.40159 L287.37803,384.167688 C287.144969,384.067979 286.962096,383.878229 286.87098,383.641569 C286.777065,383.412837 286.777065,383.156281 286.87098,382.927549 L325.087557,298.071959 C325.308235,297.608448 325.854802,297.401301 326.327014,297.602209 L435.248955,345.967641 C435.473926,346.066338 435.650118,346.250939 435.7383,346.480339 C435.826482,346.709738 435.819333,346.964893 435.718446,347.18899 L399.53007,431.91305 C399.425391,432.142729 399.237445,432.324062 399.00424,432.42038 L398.722545,432.40159 Z M289.011859,382.758439 L398.234275,430.221951 L433.690244,347.22657 L326.458472,299.631528 L289.011859,382.758439 Z" id="Shape" fill="#E4E9EC"></path>
                <path d="M302.044933,390.387175 C301.920363,390.404906 301.793911,390.404906 301.66934,390.387175 C301.198854,390.173289 300.982791,389.624519 301.181069,389.147035 L338.289648,303.934435 C338.423834,303.625636 338.712479,303.411922 339.046853,303.373795 C339.381226,303.335669 339.710529,303.478923 339.910716,303.749595 C340.110904,304.020267 340.151562,304.377236 340.017375,304.686035 L302.908797,389.898635 C302.737381,390.212852 302.402395,390.402297 302.044933,390.387175 Z" id="Path" fill="#E4E9EC"></path>
                <path d="M405.87759,416.37373 C405.746901,416.371248 405.618479,416.339124 405.501997,416.27978 L294.871109,367.425808 C294.39401,367.213071 294.179608,366.653635 294.392228,366.176274 C294.604848,365.698912 295.163975,365.484392 295.641074,365.697129 L406.253183,414.551101 C406.723669,414.764986 406.939732,415.313756 406.741454,415.79124 C406.597411,416.142073 406.256659,416.371836 405.87759,416.37373 Z" id="Path" fill="#E4E9EC"></path>
                <path d="M394.835159,370.526156 C389.201265,389.879845 374.816057,427.760463 367.717352,430.785651 C360.618646,433.810839 337.369445,424.735275 332.392839,420.526317 C327.416233,416.31736 351.829772,399.18089 351.829772,399.18089 C351.829772,399.18089 340.336629,399.18089 338.383546,393.262043 C336.430463,387.343196 359.228952,386.460067 359.228952,386.460067 C362.421492,384.581068 361.482509,365.903819 361.670306,362.765891 C362.684407,346.88835 363.416813,330.992019 364.11166,315.095689 C364.919184,296.775449 365.388676,277.515711 368.656334,259.439741 C370.534298,248.673077 374.290227,237.305134 383.15422,230.916538 C385.548975,229.087922 388.401925,227.956517 391.398484,227.64708 C401.483153,226.93306 410.572501,235.858305 414.34721,244.38896 C418.009241,252.637765 418.516291,261.90123 418.384834,270.920424 C417.783885,306.715354 404.431557,336.986026 394.835159,370.526156 Z" id="Path" fill="#FFFFFF"></path>
                <path d="M363.905084,432.32643 C354.02699,432.32643 336.129989,424.923175 331.791891,421.240337 C331.092134,420.660899 330.714561,419.77941 330.77779,418.872798 C331.021925,413.761921 343.754525,403.840807 349.125503,399.951279 C345.369574,399.575479 339.022054,398.2226 337.500903,393.543893 C337.17481,392.626254 337.322386,391.606714 337.895275,390.819344 C340.862459,386.572807 356.055192,385.670887 358.890918,385.539358 C360.768883,383.660359 360.768883,370.770426 360.768883,366.429939 C360.768883,364.66368 360.768883,363.38596 360.768883,362.671941 C361.782984,346.81319 362.49661,331.067179 363.210237,315.020529 L363.491931,308.575562 C364.167999,292.190692 364.881625,275.242122 367.77369,259.233051 C369.40752,250.157487 372.750296,237.248764 382.647169,230.108568 C385.169972,228.163877 388.19057,226.971907 391.360925,226.67 C401.727289,225.974771 411.19223,234.824856 415.248633,243.95679 C419.09846,252.656555 419.492833,262.464929 419.361375,270.901634 C418.929443,297.921639 411.380026,321.371545 403.379897,346.19312 C400.807086,354.160076 398.159156,362.408881 395.774141,370.732846 C391.210687,386.647967 376.299649,428.136263 368.130504,431.612411 C366.782918,432.127056 365.346848,432.369726 363.905084,432.32643 L363.905084,432.32643 Z M351.829772,398.24139 C352.235081,398.242052 352.596092,398.497909 352.731195,398.88025 C352.851288,399.276844 352.708282,399.706099 352.374382,399.951279 C344.862524,405.212476 332.843551,414.98327 332.655754,418.966748 C332.618325,419.28223 332.746096,419.594731 332.993788,419.793508 C338.19575,424.209155 360.90034,432.66465 367.360538,429.921312 C373.520262,427.290713 387.717673,391.909164 393.914956,370.263096 L394.835159,370.526156 L393.914956,370.263096 C396.318751,361.901551 398.98546,353.633956 401.558272,345.667001 C409.502062,320.976955 417.032699,297.658579 417.445851,270.901634 C417.558529,262.671619 417.201716,253.126305 413.502126,244.76476 C409.802536,236.403215 400.919764,227.85377 391.454823,228.586579 C388.63513,228.869238 385.952829,229.944052 383.717609,231.686927 C374.327787,238.413743 371.172806,250.833926 369.576536,259.608851 C366.703251,275.486392 366.008404,292.378592 365.332337,308.688302 L365.050642,315.133269 C364.337015,331.198709 363.623389,346.94472 362.609288,362.822261 C362.609288,363.44233 362.609288,364.70126 362.609288,366.411149 C362.609288,378.493112 362.233695,385.783627 359.717223,387.268037 C359.586728,387.347831 359.438089,387.393094 359.285291,387.399566 C352.637297,387.681416 341.36951,389.128245 339.453986,391.890374 C339.22145,392.19707 339.164578,392.602509 339.303749,392.961403 C341.012696,398.18502 351.585637,398.24139 351.848552,398.24139 L351.829772,398.24139 Z" id="Shape" fill="#303337"></path>
                <path d="M280.392002,168.233134 C353.820414,187.718353 396.450208,218.966105 407.041928,230.240098 L363.698508,286.008786 L297.594157,256.057543 L280.392002,168.233134 Z" id="Path" fill="#F0AA3B"></path>
                <path d="M363.698508,286.873125 C363.568317,286.898947 363.434326,286.898947 363.304135,286.873125 L309.012181,259.984651 C308.6944,259.87756 308.467266,259.596144 308.42954,259.262768 C308.391815,258.929391 308.550314,258.604288 308.836121,258.428819 C309.121927,258.25335 309.483401,258.259218 309.763367,258.443872 L364.0741,285.332346 C364.49617,285.542689 364.67169,286.052811 364.468473,286.478535 C364.29825,286.73552 364.006406,286.885083 363.698508,286.873125 L363.698508,286.873125 Z" id="Path" fill="#303337"></path>
            </g>
        </g>
    </g>
</svg>