<?xml version="1.0" encoding="UTF-8"?>
<svg width="456px" height="416px" viewBox="0 0 456 416" version="1.1" xmlns="http://www.w3.org/2000/svg" xmlns:xlink="http://www.w3.org/1999/xlink">
    <title>Navigation_Flatline 4@1x</title>
    <g id="Page-1" stroke="none" stroke-width="1" fill="none" fill-rule="evenodd">
        <g id="ШФ_Страница-клуба" transform="translate(-72.000000, -2688.000000)" fill-rule="nonzero">
            <g id="Navigation_Flatline-4" transform="translate(72.000000, 2688.000000)">
                <g id="Navigation_Flatline-3" transform="translate(0.000000, -0.000000)">
                    <g id="Navigation_Flatline" transform="translate(228.000000, 208.000000) scale(-1, 1) translate(-228.000000, -208.000000) ">
                        <path d="M455.157267,236.864277 L455.048235,236.864277 L1.4313024,150.127129 C1.26664326,150.096592 1.1194228,149.992323 1.02222268,149.837398 C0.925022559,149.682473 0.885858171,149.489669 0.913397063,149.301654 C0.940119213,149.113486 1.03136104,148.945246 1.16692963,148.834168 C1.30249822,148.72309 1.47121421,148.678334 1.63573872,148.709804 L455.252671,235.493677 C455.56194,235.566399 455.775626,235.890608 455.753277,236.250375 C455.727192,236.610142 455.472631,236.893189 455.157267,236.911002 L455.157267,236.864277 Z" id="Path" fill="#E4E9EC"></path>
                        <path d="M366.404332,388.043589 L388.153131,395.103959 C388.153131,395.103959 393.724984,416.248104 396.25089,414.732528 C398.776797,413.216951 398.27533,373.442299 398.27533,373.442299 L367.908732,362.870226" id="Path" fill="#FFFFFF"></path>
                        <path d="M395.972298,415.73059 C395.76943,415.726182 395.56866,415.688721 395.377967,415.619695 C392.573468,414.473771 388.710316,400.833579 387.391644,395.824782 L366.107167,388.986203 C365.627183,388.819646 365.364885,388.305756 365.512836,387.821797 C365.672122,387.337183 366.195724,387.072518 366.682925,387.230352 L388.450296,394.27224 C388.747052,394.371753 388.971551,394.616106 389.044627,394.919132 C391.21765,403.143909 394.35646,412.366749 395.879434,413.808395 C397.03095,411.202342 397.550989,392.017357 397.346688,374.163122 L367.63014,363.812841 C367.142909,363.644414 366.885133,363.114817 367.054382,362.629952 C367.223631,362.145087 367.755812,361.888563 368.243044,362.05699 L398.591069,372.629063 C398.959382,372.764032 399.208984,373.107395 399.222545,373.497747 C399.408274,388.54262 399.333982,414.030187 396.752357,415.582729 C396.508745,415.69582 396.240629,415.746642 395.972298,415.73059 L395.972298,415.73059 Z" id="Path" fill="#303337"></path>
                        <path d="M232.048388,365.735036 L222.929122,383.977407 C222.929122,383.977407 192.265359,379.24585 194.902702,384.531886 C197.540046,389.817922 238.586028,414.104118 238.586028,414.104118 L255.041567,379.818812" id="Path" fill="#FFFFFF"></path>
                        <path d="M238.586028,415.065215 C238.422752,415.06185 238.263,415.017336 238.121707,414.935837 C233.887099,412.422197 196.759987,390.298471 194.066924,384.938504 C193.685122,384.268824 193.728602,383.439505 194.178361,382.813 C196.667122,379.430676 215.592849,381.944316 222.409082,382.960861 L231.231183,365.309935 C231.462949,364.856821 232.018993,364.675127 232.475563,364.903317 C232.930888,365.133958 233.11347,365.687302 232.884166,366.141654 L223.857764,384.402507 C223.673555,384.754643 223.287385,384.954181 222.891976,384.901539 C209.110927,382.776035 196.444248,382.313969 195.757053,383.921959 L195.757053,383.921959 C195.744012,383.982884 195.744012,384.04586 195.757053,384.106785 C197.614337,387.803314 221.759033,403.069979 238.214572,412.828815 L254.224362,379.449159 C254.444898,378.984709 255.002026,378.78611 255.468742,379.005575 C255.935459,379.22504 256.135027,379.779463 255.914491,380.243912 L239.440379,414.529219 C239.328057,414.762181 239.127791,414.941546 238.883194,415.02825 L238.586028,415.065215 Z" id="Path" fill="#303337"></path>
                        <path d="M278.369058,231.976136 L224.749261,368.914051 L255.097286,395.103959 L317.334882,292.87645 C317.334882,292.87645 309.757162,347.529631 325.414068,368.895568 C343.13256,393.089351 370.954679,394.530997 370.954679,394.530997 L376.526531,362.315747 C376.526531,362.315747 352.08467,355.107515 352.753293,326.902999 C353.421915,298.698484 360.851052,250.38485 360.851052,250.38485 L278.369058,231.976136 Z" id="Path" fill="#303337"></path>
                        <path d="M309.868599,94.594637 C309.868599,94.594637 302.420889,104.353473 303.720988,106.571391 C305.021087,108.789308 309.738589,107.68035 309.738589,107.68035" id="Path" fill="#FFFFFF"></path>
                        <path d="M307.19411,108.881721 C305.529369,109.074413 303.887514,108.370154 302.88521,107.033457 C301.473674,104.575265 306.785507,97.1267593 309.125685,94.0956056 C309.328066,93.8314771 309.656672,93.6948568 309.987721,93.7372083 C310.31877,93.7795598 310.601967,93.9944489 310.730635,94.300929 C310.859302,94.607409 310.813893,94.9589184 310.611513,95.2230469 C306.896944,100.083982 304.036726,105.222158 304.501047,106.183255 C304.965368,107.144353 308.215616,107.144353 309.497142,106.830148 C309.738593,106.775096 309.992139,106.818322 310.201407,106.950215 C310.410675,107.082107 310.558319,107.291735 310.611513,107.532488 C310.727782,108.027288 310.420801,108.522677 309.924317,108.641447 C309.024865,108.813998 308.110032,108.894509 307.19411,108.881721 Z" id="Path" fill="#303337"></path>
                        <path d="M232.494136,158.045557 C232.494136,158.045557 235.632946,165.272271 254.781547,167.545636 C265.089475,168.765491 291.351475,169.59721 291.351475,169.59721 L307.639858,145.144671 C307.639858,145.144671 276.530346,165.272271 226.717982,141.448142 C203.260482,130.229176 232.494136,158.045557 232.494136,158.045557 Z" id="Path" fill="#FFFFFF"></path>
                        <path d="M291.425766,170.521342 L291.425766,170.521342 C291.165746,170.521342 265.015184,169.67114 254.781547,168.451286 C236.747317,166.344264 232.494136,159.81989 231.788368,158.600036 C225.306446,152.426833 214.9428,141.743864 217.078677,138.675745 C218.174474,137.10472 221.108983,137.677682 227.238022,140.524009 C275.954588,163.849107 306.93409,144.479295 307.249828,144.220538 C307.616929,143.988957 308.096334,144.041747 308.403676,144.347597 C308.711018,144.653446 308.764066,145.130522 308.531354,145.495841 L292.242971,169.966862 C292.096865,170.289781 291.781207,170.503957 291.425766,170.521342 L291.425766,170.521342 Z M233.348487,157.58349 C233.348487,157.712869 236.747317,164.403586 254.967276,166.547573 C264.253697,167.656532 287.209731,168.395838 290.942872,168.580664 L304.946796,147.565897 C295.660374,151.890836 266.965332,161.612707 226.402244,142.187447 C219.660302,138.971467 218.583077,139.655325 218.545931,139.673808 C217.988746,141.115454 224.656396,149.210852 233.144186,157.306251 C233.236169,157.407834 233.305763,157.527457 233.348487,157.657421 L233.348487,157.58349 Z" id="Shape" fill="#303337"></path>
                        <path d="M312.190204,81.1947195 C307.658431,84.4291824 308.475636,91.9146535 308.141324,96.7386238 C307.757486,103.515594 307.528421,110.292563 307.454129,117.069533 C307.454129,121.375989 318.597835,122.189226 320.640848,121.024819 L317.799203,137.899474 L341.943898,130.506416 L342.463938,110.859364 C342.463938,110.859364 335.034801,110.434264 331.320232,101.39625 C327.605664,92.358237 328.571451,78.9028716 328.571451,78.9028716 C328.571451,78.9028716 316.721978,78.0526699 312.190204,81.1947195 Z" id="Path" fill="#FFFFFF"></path>
                        <path d="M317.799203,138.879054 C317.572594,138.874515 317.355133,138.789265 317.186299,138.63878 C316.93903,138.429729 316.81933,138.107408 316.870561,137.788578 L319.489331,122.337087 C315.854283,122.768551 312.170784,122.16616 308.865665,120.599718 C307.480718,119.973883 306.573329,118.619408 306.525487,117.106498 C306.525487,110.323368 306.841225,103.447824 307.212682,96.7755891 C307.212682,95.9623527 307.212682,95.0751858 307.305547,94.1695362 C307.305547,89.4010138 307.491275,83.4865675 311.651592,80.5293443 C316.313375,77.2209509 328.014266,78.0157046 328.515733,78.0341873 C329.03188,78.073608 329.420625,78.5180822 329.388657,79.0322501 C329.388657,79.1616286 328.385723,92.3767196 332.063146,101.100528 C335.573413,109.454683 342.166772,109.972197 342.445365,109.99068 C342.943617,110.020365 343.329164,110.436693 343.318513,110.933295 L342.723958,130.506416 C342.707467,130.901477 342.449525,131.246175 342.073908,131.3751 L317.929213,138.768158 L317.799203,138.879054 Z M320.640848,120.156135 C320.833017,120.157022 321.020551,120.21494 321.17946,120.322479 C321.478541,120.519707 321.625892,120.878965 321.550917,121.228128 L318.950719,136.624171 L340.959538,129.804075 L341.442432,111.635635 C339.250836,111.210535 333.567546,109.417718 330.298726,101.728938 C327.029906,94.0401576 327.271353,83.0245013 327.438508,79.7715559 C324.634009,79.66066 316.127647,79.5127988 312.691671,81.9525079 L312.691671,81.9525079 C309.292841,84.3737344 309.199977,89.7706667 309.125685,94.1140882 C309.125685,95.0751858 309.125685,95.9623527 309.032821,96.7940717 C308.642791,103.521754 308.419917,110.360333 308.345626,117.124981 C308.345626,117.808839 308.809947,118.437249 309.775735,118.973245 C313.002725,120.495071 316.634645,120.948476 320.139381,120.267031 C320.291576,120.180849 320.466299,120.14221 320.640848,120.156135 L320.640848,120.156135 Z" id="Shape" fill="#303337"></path>
                        <path d="M307.435556,132.484059 C295.17748,141.725381 264.030823,166.529091 264.030823,166.529091 L278.629077,198.245309 L289.902793,189.761775 L278.369058,231.976136 C278.369058,231.976136 331.078785,271.399617 357.693669,255.855713 C357.693669,255.855713 369.951745,160.429818 361.073926,139.415051 C352.196107,118.400283 319.67506,123.242736 307.435556,132.484059 Z" id="Path" fill="#F0AA3B"></path>
                        <path d="M361.928277,148.046446 C360.3907,139.314282 355.260956,131.616839 347.775771,126.809887 C352.039397,128.129711 356.203908,129.747897 360.238148,131.65234 C360.238148,131.65234 369.728871,135.8479 371.641874,149.931676 L362.559754,149.506575" id="Path" fill="#303337"></path>
                        <path d="M380.296819,147.399553 C380.296819,147.399553 351.861796,134.461702 338.879379,141.411176 C325.896962,148.360651 300.303585,234.10164 300.675042,238.833197 C301.046499,243.564754 320.195099,254.802202 340.829528,257.001637 C361.463956,259.201072 367.945878,257.630047 371.010397,254.173792 C374.074916,250.717538 383.584212,213.197769 381.726927,205.619884 C379.869643,198.042 374.4278,198.226826 374.4278,198.226826 C374.4278,198.226826 387.5588,154.977438 380.296819,147.399553 Z" id="Path" fill="#303337"></path>
                        <path d="M309.125685,231.477104 L308.364199,229.98001 L288.862714,191.757901 L286.169652,205.305679 C286.169652,205.305679 296.477579,236.522866 304.38961,243.453858" id="Path" fill="#303337"></path>
                        <path d="M311.688737,116.089953 C310.1713,116.049644 308.696484,115.58179 307.435556,114.74072 C307.2339,114.602696 307.096608,114.389661 307.054672,114.149701 C307.012736,113.909742 307.069692,113.663088 307.212682,113.465417 C307.508881,113.04775 308.08564,112.941158 308.512781,113.225143 C309.682301,114.016787 311.103726,114.352325 312.505943,114.167758 C313.759179,113.834095 314.811857,112.987984 315.403306,111.838945 C315.668645,111.3999 316.237788,111.252148 316.684832,111.506257 C316.897607,111.632845 317.050689,111.83884 317.109993,112.078374 C317.169296,112.317907 317.129898,112.571094 317.00057,112.781559 C316.154801,114.390022 314.651377,115.55592 312.877399,115.979057 C312.485364,116.051718 312.087513,116.088835 311.688737,116.089953 L311.688737,116.089953 Z" id="Path" fill="#303337"></path>
                        <path d="M326.584157,98.80868 C326.885597,97.1248125 327.65071,95.5572294 328.794326,94.280432 C329.534821,93.1961676 330.436616,92.2302006 331.468815,91.4156221 C332.509272,90.577713 333.874112,90.2517422 335.183384,90.5284551 C336.318541,90.8904233 337.244337,91.7175763 337.727863,92.8018204 C338.197293,93.8788487 338.41328,95.0483616 338.35934,96.2211097 C338.253203,101.427886 335.364883,106.18315 330.78162,108.696895 L331.190222,108.308759" id="Path" fill="#FFFFFF"></path>
                        <path d="M330.800193,109.621043 C330.423839,109.61583 330.087859,109.385077 329.949476,109.036749 C329.811093,108.688421 329.897679,108.291419 330.168716,108.03152 L330.558746,107.643384 C330.729584,107.481995 330.954721,107.389741 331.190222,107.384627 C334.979502,104.934808 337.318886,100.789959 337.44927,96.2950403 C337.499046,95.2573323 337.315019,94.22168 336.910658,93.2638866 C336.557678,92.397564 335.847233,91.7242352 334.960509,91.4156221 C333.914731,91.2156767 332.833638,91.4863288 332.007427,92.1549279 C331.057626,92.9382803 330.225745,93.8532621 329.537239,94.8718767 C328.499959,96.0165175 327.79953,97.4233603 327.512799,98.9380585 C327.471769,99.4484425 327.022741,99.8290906 326.509866,99.7882599 C325.996991,99.7474292 325.614485,99.3005814 325.655515,98.7901974 C325.972074,96.9318432 326.801596,95.1976681 328.051412,93.7814006 C328.841529,92.6029849 329.805787,91.5499445 330.91163,90.6578337 C332.194727,89.6492084 333.86877,89.2752278 335.461976,89.6412882 C336.859459,90.0667993 337.999657,91.0798893 338.582214,92.4136849 C339.115201,93.6168637 339.363034,94.9258939 339.306555,96.2395924 C339.179459,101.778955 336.102342,106.833299 331.227368,109.510131 C331.097198,109.583701 330.949888,109.621943 330.800193,109.621043 Z" id="Path" fill="#303337"></path>
                        <path d="M344.89698,120.063722 C344.436624,120.077561 344.009666,119.825511 343.801183,119.416829 C343.624094,118.986739 343.73531,118.492383 344.079775,118.178492 C344.45079,117.910289 344.953141,117.910289 345.324156,118.178492 C348.884184,116.909141 351.760201,114.234328 353.273332,110.785434 C357.526513,101.691973 357.247921,88.7726039 352.567564,78.6625972 C351.240964,75.1831394 348.756715,72.2608739 345.528457,70.3823723 C342.556802,68.9222434 338.09932,69.2734136 336.242036,72.2306368 C336.022878,72.5694422 335.608396,72.7278892 335.217668,72.6222286 C334.826939,72.5165681 334.550042,72.1711587 334.533334,71.7685707 C334.347606,67.8687326 330.503027,64.98544 326.899896,64.3755127 C322.826157,64.0152398 318.74799,65.0168226 315.310442,67.22184 C313.824614,68.0350764 312.375933,68.9592087 310.945824,69.8648582 C308.799111,71.2771426 306.566042,72.5549216 304.2596,73.6907657 C302.348798,74.6584533 300.128293,74.8248479 298.093417,74.1528318 L297.870542,74.041936 C297.628568,76.938929 298.100333,79.8509348 299.244933,82.5254699 C300.73076,85.4457278 304.463902,87.7560584 307.509848,86.3698601 C307.976596,86.1616491 308.524656,86.3682396 308.735655,86.8319262 C308.934241,87.2966703 308.729488,87.8345936 308.271334,88.0517807 C304.241028,89.9000452 299.48638,87.1091658 297.59195,83.357189 C295.69752,79.6052121 295.938967,75.2063426 296.106122,71.6576748 C296.122331,71.2056661 296.471167,70.8348555 296.923327,70.7889905 C297.373015,70.7253427 297.801011,71.0014008 297.926261,71.4358831 C298.052082,71.9044127 298.398173,72.2832642 298.854903,72.4524285 C300.397081,72.8947857 302.050655,72.7361792 303.479541,72.008845 C305.71412,70.9097547 307.878827,69.675259 309.961463,68.3123161 C311.391572,67.4066665 312.877399,66.4640516 314.418945,65.6323326 C318.206534,63.2157927 322.699999,62.1353084 327.178488,62.5642136 C331.20493,63.1326776 334.600464,65.8387461 336.037734,69.6245839 C339.036225,67.3958434 343.045367,67.0520297 346.382808,68.7374169 C350.019001,70.8044457 352.812084,74.0744666 354.276266,77.9787393 C359.198069,88.5692948 359.476662,102.006178 354.982034,111.672601 C353.199943,115.811966 349.672324,118.9572 345.342728,120.267031 L344.89698,120.063722 Z" id="Path" fill="#303337"></path>
                        <path d="M320.640848,121.080267 C324.03762,120.227847 327.118225,118.425659 329.518666,115.886644 C329.518666,115.886644 328.460014,126.181477 319.377894,128.602703 L320.640848,121.080267 Z" id="Path" fill="#303337"></path>
                        <path d="M319.377894,129.526836 C319.144869,129.526836 318.920045,129.441224 318.746418,129.286561 C318.522227,129.063107 318.4128,128.750032 318.449252,128.43636 L319.730778,120.932406 C319.786167,120.565412 320.05679,120.26699 320.417974,120.174617 C323.614126,119.384073 326.514982,117.696917 328.775753,115.313682 C329.031439,114.991182 329.470353,114.875354 329.853026,115.029392 C330.2357,115.183429 330.470261,115.570352 330.428736,115.979057 C330.428736,116.089953 329.202928,126.939265 319.619341,129.48987 L319.377894,129.526836 Z M321.458053,121.819573 L320.547983,127.234988 C324.190909,125.638596 326.919002,122.496164 327.977121,118.677523 C325.994976,120.078646 323.791662,121.140596 321.458053,121.819573 Z" id="Shape" fill="#303337"></path>
                        <path d="M305.949729,133.33426 C318.634981,137.030789 331.505961,137.73313 338.693651,154.552337 L347.980072,150.356776 C347.980072,150.356776 342.408219,131.874132 316.721978,126.606578 C316.721978,126.532647 310.704377,126.070581 305.949729,133.33426 Z" id="Path" fill="#303337"></path>
                        <path d="M206.269282,165.752819 C203.724803,153.997857 194.326944,108.253312 191.838183,96.1471792 C191.692336,95.4428877 191.884343,94.7111728 192.357596,94.1677636 C192.830849,93.6243544 193.53138,93.3312193 194.252653,93.3747824 L222.594811,95.2230469 C224.240411,95.3636381 225.595072,96.5686277 225.91935,98.1802701 L237.843115,164.329656 C237.949846,164.906439 237.810176,165.501392 237.457699,165.971417 C237.105222,166.441442 236.571836,166.744004 235.98583,166.80633 L209.798122,168.377355 C208.124584,168.514948 206.610686,167.389003 206.269282,165.752819 L206.269282,165.752819 Z" id="Path" fill="#303337"></path>
                        <polygon id="Path" fill="#FFFFFF" points="195.404169 97.5703428 209.575248 163.516419 233.348487 163.257662 221.461867 99.067437"></polygon>
                        <path d="M209.575248,164.440552 C209.133894,164.440552 208.75345,164.131583 208.665179,163.701246 L194.4941,97.7551693 C194.439462,97.4731813 194.514403,97.1816534 194.698401,96.9604155 C194.889048,96.7431622 195.170695,96.6269493 195.459888,96.6462106 L221.461867,98.1433048 C221.885136,98.1767917 222.234298,98.4864898 222.316218,98.9010932 L234.202838,163.091319 C234.259007,163.358863 234.190754,163.637342 234.017109,163.849107 C233.838011,164.052099 233.582629,164.172482 233.311341,164.181795 L209.51953,164.440552 L209.575248,164.440552 Z M196.574258,98.549923 L210.318162,162.573805 L232.234116,162.352013 L220.681808,99.954604 L196.574258,98.549923 Z" id="Shape"></path>
                        <path d="M277.867591,194.216092 C268.018743,200.607049 256.405727,203.767668 244.659348,203.254106 C233.36706,202.496317 223.839191,192.94079 216.242899,185.510767 C207.558106,176.693215 199.402881,167.374139 191.81961,157.601973 C190.370929,155.753709 189.163694,152.68559 191.225279,151.650561 C190.156851,150.317457 189.725036,148.587292 190.042538,146.911638 C190.360041,145.235984 191.395354,143.781116 192.878262,142.926753 C192.228213,141.392694 191.559591,138.324575 192.506806,136.772032 C192.506806,136.772032 194.36409,133.981153 194.549818,135.515213 C194.616661,132.672636 195.499582,129.908469 197.094298,127.549193 L200.567419,136.790515 C200.883158,134.775907 203.854813,136.254518 205.86068,139.100846 C207.866547,141.947173 208.498023,147.806171 208.702324,148.342168 C208.702324,148.342168 236.728744,182.886231 247.185255,180.058387 C254.119601,178.036455 260.794749,175.220582 267.076769,171.667266" id="Path" fill="#FFFFFF"></path>
                        <path d="M247.891023,204.289134 C246.813798,204.289134 245.718,204.252169 244.603629,204.178238 C233.23705,203.42045 223.7649,194.160645 216.131462,186.712139 L215.592849,186.176142 C206.873883,177.336261 198.693448,167.985865 191.09527,158.174935 C189.775567,156.695668 189.106611,154.751801 189.237985,152.778003 C189.34226,152.290114 189.572735,151.837773 189.906608,151.465735 C188.160546,148.452003 188.9589,144.614678 191.763892,142.538618 C191.243852,140.930628 190.649521,138.047335 191.763892,136.291484 C192.22356,135.495066 192.858543,134.812615 193.621176,134.295358 C193.952737,131.701986 194.873735,129.217886 196.314238,127.031679 C196.506223,126.744721 196.842751,126.587962 197.187162,126.62506 C197.533861,126.660825 197.829578,126.890507 197.948649,127.216505 L200.901731,134.942251 L201.087459,134.942251 C202.833306,134.51715 205.192057,136.494793 206.659312,138.509401 C208.137671,141.162828 209.089774,144.074286 209.463811,147.085348 C209.463811,147.436518 209.575248,147.695276 209.593821,147.861619 C217.394415,157.435629 238.938912,181.315206 246.980953,179.097289 C253.843123,177.104349 260.449715,174.32569 266.668167,170.817064 C266.876792,170.68921 267.128409,170.65047 267.366106,170.709606 C267.603804,170.768741 267.807499,170.920757 267.93112,171.131269 C268.186469,171.576142 268.037996,172.142522 267.596809,172.406572 C261.241411,175.993263 254.492173,178.839852 247.48242,180.890106 C236.673026,183.828846 210.856774,152.40835 207.977984,148.822717 C207.927845,148.752948 207.884322,148.678699 207.847974,148.600925 C207.720393,148.204018 207.63328,147.79534 207.587954,147.381071 C207.247206,144.615858 206.403895,141.935378 205.099193,139.470499 C203.594793,137.363477 201.886091,136.513275 201.496061,136.642654 C201.432877,137.070069 201.105126,137.411053 200.678856,137.492856 C200.271015,137.558469 199.871307,137.336637 199.713069,136.956859 L196.927142,129.563801 C195.957282,131.317969 195.458326,133.291367 195.47846,135.293421 L195.47846,135.293421 C195.509436,135.641471 195.340503,135.977145 195.041876,136.160925 C194.74325,136.344705 194.365999,136.345162 194.066924,136.162105 C193.776841,136.463766 193.515689,136.791715 193.286865,137.141685 C192.788934,138.899433 192.947273,140.777138 193.732613,142.427722 C193.923094,142.872512 193.736854,143.38823 193.305438,143.610611 C192.04795,144.300743 191.17843,145.52715 190.946687,146.937487 C190.639472,148.327773 190.996052,149.781283 191.912475,150.87429 C192.110764,151.088187 192.193686,151.383878 192.135349,151.669044 C192.077384,151.94466 191.900875,152.181115 191.652455,152.315937 C191.361125,152.453156 191.153817,152.721347 191.09527,153.03676 C191.079006,154.453253 191.59576,155.824571 192.543951,156.88115 C200.104069,166.627135 208.234481,175.921517 216.892948,184.716013 L217.431561,185.25201 C224.860698,192.478724 234.147119,201.461289 244.715067,202.182112 C262.805015,203.401967 277.180396,193.421339 277.328978,193.328926 C277.595612,193.101722 277.968194,193.04355 278.291937,193.178577 C278.615679,193.313604 278.835245,193.618751 278.859417,193.967244 C278.883588,194.315737 278.708233,194.64801 278.406203,194.82602 C269.347748,200.80819 258.760825,204.091319 247.891023,204.289134 L247.891023,204.289134 Z" id="Path" fill="#303337"></path>
                        <path d="M243.544977,148.416099 C243.544977,148.416099 231.509775,137.086237 229.70821,139.008432 C227.906644,140.930628 232.679864,146.105768 235.280062,149.062991 C237.88026,152.020214 240.851915,155.883087 240.851915,155.883087" id="Path" fill="#FFFFFF"></path>
                        <path d="M240.833342,156.807219 C240.541726,156.804381 240.26768,156.668024 240.090429,156.437566 C240.090429,156.437566 237.100201,152.574694 234.518576,149.672919 L233.979963,149.044509 C230.748289,145.34798 226.717982,140.801249 228.983869,138.380023 C229.303163,138.057593 229.736309,137.871913 230.191104,137.862508 L230.191104,137.862508 C233.441351,137.862508 242.337743,146.087285 244.08359,147.750723 C244.379255,147.959811 244.52553,148.321068 244.458133,148.675737 C244.390736,149.030406 244.122003,149.313564 243.770033,149.400775 C243.418063,149.487986 243.047283,149.363285 242.820637,149.081474 C237.248784,143.758472 231.379765,139.452016 230.172531,139.729256 C229.169597,140.838214 233.645652,145.902459 235.317208,147.824654 L235.874393,148.453064 C238.456019,151.410287 241.446246,155.27316 241.446246,155.328608 C241.758084,155.732085 241.683349,156.310538 241.279091,156.622393 C241.149943,156.722822 240.995939,156.786679 240.833342,156.807219 Z" id="Path" fill="#303337"></path>
                        <path d="M288.862714,191.757901 C288.862714,191.757901 303.720988,177.877434 311.354426,172.203263" id="Path" fill="#FFFFFF"></path>
                        <path d="M288.862714,192.682033 C288.609491,192.674541 288.369365,192.568336 288.194091,192.386311 C288.018288,192.212789 287.919401,191.976585 287.919401,191.730177 C287.919401,191.483768 288.018288,191.247564 288.194091,191.074043 C288.342674,190.944664 303.219521,177.101163 310.760095,171.463957 C311.173005,171.16807 311.747054,171.249679 312.060194,171.648783 C312.367919,172.05709 312.284766,172.636338 311.874466,172.942568 C304.445329,178.487362 289.587055,192.293897 289.457045,192.423276 C289.298618,192.580743 289.086448,192.673117 288.862714,192.682033 Z" id="Path" fill="#303337"></path>
                        <path d="M317.334882,238.944102 L317.204872,238.944102 C316.702919,238.867868 316.350648,238.411324 316.40624,237.909065 C316.573395,236.61528 320.585129,206.322225 327.754246,198.152896 C334.923364,189.983567 369.691725,197.524486 371.15898,197.857173 C371.671855,197.969458 371.996153,198.474231 371.883321,198.984615 C371.770488,199.494999 371.263252,199.817722 370.750377,199.705438 C361.036781,197.506003 334.663344,193.144099 329.14721,199.409716 C322.330976,207.172426 318.282097,237.890582 318.244951,238.22327 C318.149095,238.646258 317.770605,238.946043 317.334882,238.944102 Z" id="Path" fill="#FFFFFF"></path>
                        <path d="M339.009389,188.634334 C338.911129,188.651999 338.810484,188.651999 338.712224,188.634334 C338.479716,188.562238 338.285945,188.400414 338.17425,188.185056 C338.062555,187.969698 338.042256,187.718776 338.117893,187.48841 C340.951291,179.219405 343.332108,170.803612 345.249864,162.278082 C346.078589,159.567306 346.039645,156.667146 345.138427,153.979375 C344.477521,152.611425 343.261216,151.58931 341.795316,151.170013 C340.884483,150.874021 339.88805,151.003064 339.08368,151.521183 C338.667125,151.807042 338.097271,151.708418 337.802154,151.299391 C337.516783,150.874324 337.623896,150.300366 338.043601,150.005606 C339.292769,149.183159 340.845975,148.959445 342.278209,149.395679 C344.279652,149.956027 345.939213,151.351378 346.828556,153.221586 C347.909043,156.259103 347.993578,159.559383 347.070003,162.647735 C345.141083,171.236845 342.741604,179.714554 339.882313,188.042889 C339.743264,188.401517 339.395653,188.637039 339.009389,188.634334 Z" id="Path" fill="#FFFFFF"></path>
                        <ellipse id="Oval" fill="#FFFFFF" cx="360.665324" cy="223.085984" rx="3.21310179" ry="3.19749755"></ellipse>
                        <path d="M214.459906,137.73313 C214.051303,136.882928 213.624128,136.051209 213.215525,135.237973 C211.896853,132.576472 210.596754,129.914971 209.25951,127.271953 C208.738037,126.325765 208.463444,125.264501 208.460878,124.185351 C208.537615,121.20837 210.800887,118.739834 213.772851,118.391616 C216.744816,118.043398 219.522334,119.921317 220.291778,122.799153 C220.667703,124.192307 220.508794,125.67485 219.84603,126.957748 L216.521491,133.6115 L214.571343,137.622234 C214.538151,137.662935 214.500806,137.7001 214.459906,137.73313 L214.459906,137.73313 Z M214.459906,127.271953 C216.12162,127.271953 217.468706,125.931409 217.468706,124.277765 C217.468706,122.62412 216.12162,121.283576 214.459906,121.283576 C212.798191,121.283576 211.451105,122.62412 211.451105,124.277765 C211.451105,125.931409 212.798191,127.271953 214.459906,127.271953 L214.459906,127.271953 Z" id="Shape" fill="#F0AA3B"></path>
                        <path d="M318.337815,290.289081 C317.92994,290.279865 317.575746,290.006992 317.464794,289.6163 C317.353842,289.225608 317.512121,288.808609 317.854921,288.588477 C317.966358,288.588477 329.648676,281.084523 331.580252,267.592192 C331.665758,267.092116 332.133612,266.749055 332.638904,266.815921 C333.138718,266.89206 333.485462,267.352139 333.418963,267.850949 C331.357378,282.211964 319.340749,289.845297 318.820709,290.159502 C318.675445,290.247592 318.507887,290.292485 318.337815,290.289081 L318.337815,290.289081 Z" id="Path" fill="#FFFFFF"></path>
                        <path d="M175.544484,369.967797 C174.917814,369.967797 174.409797,369.364392 174.409797,368.620053 C174.409797,367.875715 174.917814,367.27231 175.544484,367.27231 C179.275799,367.113854 182.994274,366.663631 186.67576,365.924566 C187.30243,365.80175 187.894269,366.305593 187.997669,367.049932 C188.10107,367.79427 187.676876,368.497237 187.050206,368.620053 C183.266624,369.366342 179.445848,369.816559 175.612565,369.967797 L175.544484,369.967797 Z M165.012857,369.941853 L164.861667,369.941853 C160.876942,369.517596 156.980935,368.463144 153.313099,366.816239 C152.731902,366.537202 152.482002,365.829618 152.75486,365.235605 C153.027922,364.64169 153.720355,364.386322 154.301647,364.665151 C157.75079,366.201544 161.410364,367.187562 165.152416,367.588729 C165.794722,367.628111 166.284173,368.192122 166.245634,368.848483 C166.207096,369.504843 165.655163,370.005004 165.012857,369.965622 L165.012857,369.941853 Z M201.870146,365.905819 C201.666294,365.91105 201.465836,365.850636 201.29597,365.732775 C200.799087,365.421295 200.136577,365.444368 199.021351,365.825065 C198.641915,365.971052 198.216452,365.888681 197.912276,365.610345 C197.6081,365.332008 197.473867,364.902229 197.562364,364.490019 C197.650862,364.077809 197.947935,363.749106 198.336757,363.633172 C199.655621,363.008123 201.17768,363.059283 202.455363,363.771608 C202.704677,363.933409 202.882077,364.192256 202.948375,364.490971 C203.014674,364.789686 202.964415,365.103688 202.808702,365.363614 C202.606509,365.70161 202.251643,365.906617 201.870146,365.905819 Z M146.012259,357.781803 C145.448739,357.804664 144.942468,357.433133 144.785004,356.881172 C144.013606,353.771438 143.549032,350.590916 143.398206,347.387013 C143.312299,346.348785 143.238663,345.310557 143.12821,344.272329 C143.060431,343.581488 143.554946,342.965448 144.232739,342.896364 C144.910533,342.82728 145.51494,343.331313 145.582719,344.022153 C145.693172,345.07289 145.77908,346.136136 145.864988,347.186873 C145.995829,350.221433 146.427567,353.234714 147.153605,356.18068 C147.343388,356.843887 146.969754,357.538333 146.319072,357.731768 C146.223256,357.760604 146.124344,357.777407 146.024531,357.781803 L146.012259,357.781803 Z M71.0870483,344.243919 C69.5642427,344.245769 68.0439343,344.135592 66.5420673,343.914519 C66.1361259,343.853898 65.797837,343.607644 65.6546307,343.268517 C65.5114244,342.929389 65.5850573,342.548911 65.8477924,342.270405 C66.1105275,341.991898 66.5224493,341.857675 66.9283906,341.918295 C70.5388475,342.401027 74.220695,342.279108 77.779533,341.558975 C78.1854743,341.482308 78.6071415,341.601704 78.8856966,341.872187 C79.1642517,342.14267 79.2573756,342.523148 79.1299894,342.870299 C79.0026031,343.217449 78.6740598,343.478531 78.2681185,343.555199 C75.9138502,344.013179 73.5097171,344.244112 71.0984108,344.243919 L71.0870483,344.243919 Z M88.3279686,340.169577 C87.8456586,340.103015 87.4556633,339.661885 87.36682,339.082408 C87.2779767,338.50293 87.5111101,337.920933 87.9413803,337.648069 C89.421461,336.870157 90.8904963,336.06542 92.3595316,335.247271 C94.1157467,334.268174 95.9382341,333.262253 97.7496761,332.323394 L98.0589467,332.162447 C98.6232146,331.877262 99.2710337,332.201525 99.5058912,332.88671 C99.7407487,333.571894 99.4737087,334.358533 98.9094408,334.643718 L98.622261,334.791253 C96.8329097,335.716701 95.0214677,336.709209 93.276298,337.688306 C91.8072627,338.506455 90.327182,339.324604 88.8581467,340.115928 C88.6903331,340.179184 88.5132171,340.197487 88.3390139,340.169577 L88.3279686,340.169577 Z M56.4510826,340.182254 C56.1814823,340.184176 55.9223543,340.052254 55.7309394,339.815608 C53.2946076,336.550633 51.5513444,332.578695 50.6595088,328.260609 C50.5841873,327.938728 50.6145383,327.592736 50.7438849,327.298747 C50.8732314,327.004758 51.0909782,326.786854 51.3492234,326.692972 C51.6088318,326.599561 51.8876129,326.639125 52.1237286,326.802887 C52.3598442,326.96665 52.5337743,327.241074 52.6069382,327.565286 C53.3960954,331.467633 54.9505353,335.064569 57.1306543,338.033054 C57.416002,338.395893 57.4993524,338.936399 57.3422556,339.405235 C57.1851589,339.874071 56.8181423,340.180132 56.4105112,340.182254 L56.4510826,340.182254 Z M141.967216,332.021638 C141.617742,332.019895 141.288013,331.846152 141.071341,331.549575 C140.841629,331.243149 140.588947,330.932582 140.313293,330.617873 C138.017916,328.23745 135.048112,326.762679 131.882877,326.431425 C131.472537,326.371509 131.122921,326.079369 130.965725,325.665052 C130.808529,325.250734 130.867636,324.777184 131.12078,324.422782 C131.373924,324.068381 131.782648,323.88697 132.192988,323.946885 C135.873475,324.360179 139.315375,326.112051 141.95573,328.915964 C142.277327,329.288645 142.587437,329.661326 142.874577,330.046429 C143.148247,330.420998 143.199247,330.932055 143.005778,331.361159 C142.812309,331.790263 142.408603,332.061489 141.967216,332.058924 L141.967216,332.021638 Z M110.387561,330.695855 C109.77564,330.767722 109.210132,330.409843 109.124463,329.896512 C109.038794,329.38318 109.465405,328.908784 110.077326,328.836917 C113.621742,327.945187 117.220423,327.212961 120.85798,326.643371 L121.157134,327.57284 L121.356571,328.502309 C117.764497,329.063097 114.210299,329.782891 110.708875,330.658676 C110.608086,330.683337 110.50363,330.695855 110.398641,330.695855 L110.387561,330.695855 Z M50.3792579,315.812264 L50.3121461,315.812264 C50.0152982,315.794003 49.7375457,315.65156 49.5402577,315.416407 C49.3429697,315.181253 49.2423853,314.872744 49.2607286,314.559045 C49.3461374,310.469901 50.4703701,306.480285 52.515649,303.008161 L52.6610578,302.771704 C53.017178,302.241079 53.7119737,302.114277 54.2158136,302.487957 C54.4619331,302.667106 54.6299976,302.942905 54.6825297,303.253851 C54.7350618,303.564798 54.6676929,303.885035 54.4954459,304.14315 L54.3612224,304.332315 C52.5530232,307.45863 51.5647103,311.037347 51.4977873,314.700918 C51.4622406,315.326019 50.9717175,315.813391 50.3792579,315.812264 Z M62.653715,295.50394 C62.1399707,295.50581 61.6876425,295.120816 61.5461528,294.561243 C61.4046631,294.00167 61.6084473,293.403705 62.0451349,293.097078 L63.8479098,291.796076 L71.88576,286.305846 C72.2378593,285.991503 72.7192179,285.938053 73.1184807,286.168964 C73.5177434,286.399876 73.7619034,286.872925 73.7437546,287.380406 C73.7256059,287.887888 73.448467,288.337005 73.0340243,288.53056 L64.9961742,294.0338 L63.2278471,295.256742 C63.05983,295.396677 62.8613522,295.482131 62.653715,295.50394 L62.653715,295.50394 Z M81.5994547,281.964864 C81.1373545,281.974526 80.7258801,281.620116 80.5913133,281.096533 C80.4567465,280.57295 80.6317241,280.00718 81.0200208,279.710357 C83.4603089,277.936808 85.6207129,275.672893 87.4041411,273.020355 C87.6712669,272.602969 87.9199298,272.169456 88.1491275,271.721563 C88.2925638,271.44287 88.5239679,271.243459 88.7920231,271.167553 C89.0600783,271.091646 89.3426298,271.145519 89.5770183,271.317223 C90.0609832,271.670628 90.2134657,272.420253 89.9184704,272.99585 C89.6573502,273.51375 89.3705811,274.012901 89.0596666,274.490685 C87.1374102,277.369315 84.8053243,279.828226 82.1685416,281.756567 C82.0001884,281.890554 81.8022912,281.962988 81.5994547,281.964864 L81.5994547,281.964864 Z M90.4127995,260.301143 C89.9447494,260.330157 89.5177427,259.985309 89.3683999,259.457692 C89.225154,258.957192 89.0469878,258.471763 88.835756,258.006459 C87.4153725,254.917938 84.5641614,253.044979 82.5693581,251.866628 C82.2054527,251.696887 81.9518467,251.299976 81.9121495,250.83805 C81.8724524,250.376124 82.0533128,249.926549 82.3808412,249.672997 C82.7083696,249.419445 83.1277095,249.404382 83.4675418,249.633962 C85.7443331,250.93635 88.981972,253.094594 90.6843434,256.815704 C90.9582599,257.407169 91.1888761,258.025493 91.3736472,258.663855 C91.4629963,258.976349 91.443804,259.318248 91.3203175,259.613891 C91.1968309,259.909534 90.9792324,260.134543 90.7156754,260.239125 C90.6171251,260.273889 90.5154621,260.294706 90.4127995,260.301143 L90.4127995,260.301143 Z M72.4834681,248.042242 C72.3889808,248.05302 72.2935164,248.05302 72.1990292,248.042242 C68.5950643,247.126623 64.9124091,246.532045 61.1969325,246.265912 C60.7904516,246.236349 60.4311119,245.998742 60.2542731,245.642595 C60.0774344,245.286448 60.1099626,244.865868 60.3396048,244.539284 C60.569247,244.212701 60.9611149,244.029728 61.3675959,244.059291 C65.2110795,244.327972 69.0202034,244.944837 72.7451519,245.90182 C73.3735169,245.981034 73.8166867,246.539219 73.7349992,247.148561 C73.6533118,247.757902 73.0777005,248.187655 72.4493354,248.108441 L72.4834681,248.042242 Z" id="Shape" fill="#E4E9EC"></path>
                        <path d="M96.7638013,154.256614 L96.6337914,154.256614 C96.1727698,154.180812 95.8534902,153.757173 95.9094505,153.295517 L111.083463,41.5124811 C111.136392,41.1069959 111.471873,40.7964355 111.882095,40.7731753 L240.889061,33.2322563 C241.149039,33.2129551 241.403178,33.3154839 241.576256,33.5094959 C241.74487,33.702299 241.819603,33.9592136 241.780557,34.2118364 L234.202838,82.5439526 C234.117854,83.0033703 233.682988,83.3136467 233.218477,83.2462931 C232.99409,83.2100547 232.793467,83.0863201 232.661009,82.9024731 C232.528551,82.7186262 232.475181,82.4898275 232.512709,82.2667129 L239.941846,34.9881075 L112.6993,42.3811654 L97.5624335,153.554274 C97.4935781,153.945187 97.1621086,154.236691 96.7638013,154.256614 Z" id="Path" fill="#E4E9EC"></path>
                        <path d="M426.097449,131.855649 L426.097449,131.855649 C425.870524,131.836872 425.660521,131.728724 425.514062,131.555214 C425.367602,131.381704 425.296806,131.157191 425.317389,130.931517 L436.368231,4.990775 L245.235106,1.7747948 L236.227277,73.5059393 C236.151216,73.9670163 235.728825,74.2903541 235.26149,74.2452451 C235.034063,74.2176807 234.82729,74.1003711 234.687601,73.9196569 C234.547912,73.7389427 234.487012,73.5099683 234.518576,73.2841475 L243.637842,0.850662562 C243.652114,0.639687989 243.750283,0.443071168 243.910625,0.30432078 C244.070966,0.165570393 244.28026,0.0961267374 244.492192,0.11135677 L437.241154,3.32733697 C437.478371,3.34087795 437.702661,3.43934872 437.872631,3.60457664 C438.01901,3.78752232 438.091826,4.01808417 438.078838,4.25146921 L426.933227,131.116343 C426.870634,131.531315 426.518908,131.842442 426.097449,131.855649 L426.097449,131.855649 Z" id="Path" fill="#E4E9EC"></path>
                        <path d="M22.2495562,130.755586 L22.045255,130.755586 C21.7974573,130.712218 21.5824768,130.560068 21.459983,130.341367 C21.3374892,130.122666 21.3205174,129.860687 21.4137783,129.628144 L33.263252,78.9856976 C33.3405172,78.6520318 33.6113808,78.3970537 33.9504471,78.338805 L98.7882411,67.2492181 C99.2527527,67.1818645 99.6876185,67.4921409 99.7726018,67.9515587 C99.8157174,68.1725769 99.7669507,68.4015476 99.6374439,68.5861565 C99.507937,68.7707655 99.3087552,68.8952393 99.0854066,68.9311388 L34.8047979,80.0207257 L23.0667613,130.127176 C22.9614481,130.491735 22.6306132,130.746138 22.2495562,130.755586 L22.2495562,130.755586 Z" id="Path" fill="#E4E9EC"></path>
                        <ellipse id="Oval" fill="#E4E9EC" cx="59.530693" cy="229.287395" rx="21.2287592" ry="6.09927278"></ellipse>
                        <path d="M60.6079178,218.327187 L51.3214965,199.567302 C41.4221713,179.661494 31.6342832,159.700238 21.6049481,139.94229 C17.7462261,132.842462 15.6929654,124.910439 15.6244927,116.838984 C15.9642546,94.3577367 32.9824477,75.6028383 55.4217544,72.980415 C77.8610612,70.3579917 98.7825669,84.6789765 104.346962,106.47022 C107.105024,116.895364 105.894556,127.967055 100.948132,137.558029 L76.0419501,187.46117 C71.1758654,197.220006 66.3159715,206.991165 61.4622686,216.774645 C61.2208216,217.218228 60.9793747,217.661812 60.6079178,218.327187 Z M60.6079178,139.942413 C69.7342028,139.972214 77.9785875,134.524402 81.4919213,126.142335 C85.0052551,117.760268 83.0945734,108.097213 76.6519382,101.664671 C70.2093029,95.2321298 60.5054496,93.2988464 52.0709277,96.7674354 C43.6364059,100.236024 38.1347781,108.422346 38.1347781,117.504359 C38.1651673,129.855125 48.1970463,139.871287 60.6079178,139.942413 Z" id="Shape" fill="#F0AA3B"></path>
                    </g>
                </g>
            </g>
        </g>
    </g>
</svg>