<?xml version="1.0" encoding="UTF-8"?>
<svg width="336px" height="341px" viewBox="0 0 336 341" version="1.1" xmlns="http://www.w3.org/2000/svg" xmlns:xlink="http://www.w3.org/1999/xlink">
    <title>new_message 3</title>
    <defs>
        <path d="M99.1976285,217.864542 C99.1976285,217.864542 63.1264822,106.301833 45.7588933,72.3805578 L239.113597,19.6111554 L251.137312,192.296414 L99.1976285,217.864542 Z" id="path-1"></path>
        <filter x="-17.5%" y="-18.2%" width="135.1%" height="136.3%" filterUnits="objectBoundingBox" id="filter-2">
            <feOffset dx="0" dy="0" in="SourceAlpha" result="shadowOffsetOuter1"></feOffset>
            <feGaussianBlur stdDeviation="12" in="shadowOffsetOuter1" result="shadowBlurOuter1"></feGaussianBlur>
            <feColorMatrix values="0 0 0 0 0.323977461   0 0 0 0 0.381127872   0 0 0 0 0.466853487  0 0 0 0.15 0" type="matrix" in="shadowBlurOuter1"></feColorMatrix>
        </filter>
    </defs>
    <g id="Page-1" stroke="none" stroke-width="1" fill="none" fill-rule="evenodd">
        <g id="ШФ_Стартовая" transform="translate(-951.000000, -9205.000000)">
            <g id="Group-95" transform="translate(72.000000, 9092.000000)">
                <g id="Group-58" transform="translate(0.000000, 118.000000)">
                    <g id="new_message" transform="translate(879.000000, 0.000000)">
                        <polyline id="Path" fill="#FFFFFF" fill-rule="nonzero" points="148.615099 328.396494 186.476443 283.418008 220.329881 291.71761 177.191462 335.933068"></polyline>
                        <path d="M310.961976,67.1062948 C311.30863,66.3570112 312.025343,65.8476857 312.845692,65.7676494 C314.341976,65.5266932 315.103478,67.2803187 315.103478,67.2803187" id="Path" fill="#FFFFFF" fill-rule="nonzero"></path>
                        <path d="M298.924901,65.9684462 C299.271555,65.2191626 299.988268,64.7098371 300.808617,64.6298008 C302.304901,64.3754582 303.066403,66.1424701 303.066403,66.1424701" id="Path" fill="#FFFFFF" fill-rule="nonzero"></path>
                        <polygon id="Path" fill="#D0D6DA" fill-rule="nonzero" points="259.420316 88.9931474 51.81083 123.664064 143.137628 30.6549801"></polygon>
                        <path d="M51.81083,124.333398 C51.541159,124.334974 51.2969863,124.173926 51.1918146,123.925107 C51.0866429,123.676287 51.1411038,123.388506 51.3298814,123.195538 L142.65668,30.1730677 C142.861797,29.9692499 143.174427,29.9206411 143.431542,30.0525896 L259.660791,88.4041434 C259.928317,88.523501 260.077977,88.8123128 260.021502,89.100239 C259.995291,89.3851079 259.79129,89.6217927 259.513834,89.689243 L51.9177075,124.32 L51.81083,124.333398 Z M143.284585,31.4715538 L53.7747036,122.66008 L257.282767,88.6718725 L143.284585,31.4715538 Z" id="Shape" fill="#303337" fill-rule="nonzero"></path>
                        <polygon id="Path" fill="#D0D6DA" fill-rule="nonzero" points="278.591462 228.546932 82.7518577 263.847012 52.0780237 124.895618 259.580632 90.2247012"></polygon>
                        <path d="M82.7652174,264.516481 C82.4500129,264.522969 82.174865,264.303535 82.1105929,263.994263 L51.3833202,125.029482 C51.3467004,124.854193 51.3802862,124.671505 51.4768379,124.520797 C51.5787863,124.361596 51.7443613,124.254244 51.9310672,124.226295 L259.513834,89.5553785 C259.692251,89.5279256 259.874327,89.5711352 260.021502,89.6758566 C260.169052,89.7844682 260.265644,89.9490033 260.288696,90.130996 L279.299526,228.453227 C279.326381,228.625458 279.283712,228.801316 279.18094,228.941968 C279.078168,229.082621 278.923748,229.176498 278.751779,229.202869 L82.8720949,264.502948 L82.7652174,264.516481 Z M52.8796047,125.431076 L83.2728854,263.083984 L277.84332,227.998088 L259.019526,91.0278884 L52.8796047,125.431076 Z" id="Shape" fill="#C8CFD4" fill-rule="nonzero"></path>
                        <g id="Path">
                            <use fill="black" fill-opacity="1" filter="url(#filter-2)" xlink:href="#path-1"></use>
                            <use fill="#FFFFFF" fill-rule="evenodd" xlink:href="#path-1"></use>
                        </g>
                        <path d="M79.6256917,91.8980166 C79.3195174,91.8995764 79.0531568,91.688285 78.9844269,91.3893227 C78.8906315,91.0347294 79.0991653,90.6705565 79.4520158,90.572749 L221.63913,53.6395219 C222.008048,53.5471077 222.381881,53.7718572 222.474111,54.1415139 C222.56634,54.5111707 222.34204,54.8857531 221.973123,54.9781673 L79.7860079,91.8712351 L79.6256917,91.8980166 Z" id="Path" fill="#E4E9EC" fill-rule="nonzero"></path>
                        <path d="M85.6375494,115.257473 C85.3254806,115.262908 85.0547577,115.042505 84.9962846,114.735299 C84.9567265,114.562919 84.9883235,114.381837 85.0839076,114.233133 C85.1794918,114.084428 85.3309606,113.980707 85.5039526,113.945498 L223.175494,82.9960159 C223.544412,82.918388 223.906282,83.1551242 223.983755,83.5247809 C224.061228,83.8944376 223.824965,84.2570334 223.456047,84.3346614 L85.8379447,115.243984 L85.6375494,115.257473 Z" id="Path" fill="#E4E9EC" fill-rule="nonzero"></path>
                        <path d="M97.4341502,137.117546 C97.1147941,137.122886 96.8381453,136.896598 96.7795257,136.581992 C96.7440567,136.408023 96.7790297,136.227062 96.8767474,136.078936 C96.974465,135.930811 97.1269184,135.827662 97.3005534,135.792191 L228.960237,110.170518 C229.132243,110.135209 229.311195,110.170615 229.456898,110.268784 C229.6026,110.366953 229.702839,110.519654 229.735099,110.69259 C229.774393,110.866903 229.741008,111.049735 229.642661,111.198814 C229.544314,111.347893 229.389522,111.450311 229.214071,111.48239 L97.5543874,137.104064 L97.4341502,137.117546 Z" id="Path" fill="#E4E9EC" fill-rule="nonzero"></path>
                        <path d="M103.699842,165.014821 C103.330924,165.044393 103.007932,164.7687 102.978419,164.399044 C102.948906,164.029387 103.224047,163.705748 103.592964,163.676175 L228.479289,143.315378 C228.848206,143.256233 229.195123,143.507953 229.25415,143.87761 C229.313177,144.247266 229.061961,144.594879 228.693043,144.654024 L103.806719,165.001434 L103.699842,165.014821 Z" id="Path" fill="#E4E9EC" fill-rule="nonzero"></path>
                        <polygon id="Path" fill="#FAFAFA" points="169.536364 178.642231 52.0780237 124.895618 82.7518577 263.847012 278.591462 228.546932 259.580632 90.2247012"></polygon>
                        <path d="M82.7652174,264.516481 C82.4500129,264.522969 82.174865,264.303535 82.1105929,263.994263 L51.3833202,125.029482 C51.3289573,124.780767 51.4201324,124.522686 51.6185517,124.363633 C51.8169709,124.204579 52.0882681,124.172102 52.318498,124.279841 L169.362688,177.825657 L259.113043,89.689243 C259.293137,89.508333 259.560315,89.4459512 259.801667,89.52846 C260.043019,89.6109687 260.21643,89.82397 260.248617,90.0774502 L279.259447,228.399681 C279.286302,228.571912 279.243633,228.74777 279.140861,228.888423 C279.038089,229.029075 278.883669,229.122952 278.7117,229.149323 L82.8720949,264.502948 L82.7652174,264.516481 Z M53.0132016,126.060239 L83.2728854,263.083984 L277.84332,227.998088 L259.139763,91.6302789 L170.003953,179.124143 C169.803628,179.315857 169.505998,179.363786 169.25581,179.244622 L53.0132016,126.060239 Z" id="Shape" fill="#303337" fill-rule="nonzero"></path>
                        <polygon id="Path" fill="#FFFFFF" fill-rule="nonzero" points="278.604822 228.546932 82.7652174 263.847012 169.549723 178.642231"></polygon>
                        <path d="M82.7652174,264.516383 C82.5127566,264.519381 82.2801537,264.37954 82.1640316,264.1549 C82.0312085,263.895137 82.0856603,263.578684 82.2976285,263.378486 L169.135573,178.160319 C169.335898,177.968605 169.633528,177.920676 169.883715,178.039841 L278.925455,227.931155 C279.190396,228.055732 279.346345,228.335925 279.312885,228.627251 C279.277827,228.914774 279.062167,229.147074 278.778498,229.202869 L82.8854545,264.516383 L82.7652174,264.516383 Z" id="Shape" fill-rule="nonzero"></path>
                        <polygon id="Path" fill="#FAFAFA" points="278.604822 228.546932 82.7652174 263.847012 169.549723 178.642231"></polygon>
                        <path d="M82.7652174,264.516383 C82.5127566,264.519381 82.2801537,264.37954 82.1640316,264.1549 C82.0312085,263.895137 82.0856603,263.578684 82.2976285,263.378486 L169.135573,178.160319 C169.335898,177.968605 169.633528,177.920676 169.883715,178.039841 L278.925455,227.931155 C279.190396,228.055732 279.346345,228.335925 279.312885,228.627251 C279.277827,228.914774 279.062167,229.147074 278.778498,229.202869 L82.8854545,264.516383 L82.7652174,264.516383 Z M169.68332,179.445418 L84.7825296,262.802869 L276.373755,228.265817 L169.68332,179.445418 Z" id="Shape" fill="#303337" fill-rule="nonzero"></path>
                        <path d="M264.977945,37.0804781 C264.977945,37.0804781 262.132332,47.7896414 253.141265,48.0573705 C253.141265,48.0573705 262.62664,50.7346614 264.617233,59.6500398 C266.409946,54.6315801 270.509229,50.7882788 275.625613,49.3290837 C270.39489,47.0910691 266.472714,42.5791719 264.977945,37.0804781 L264.977945,37.0804781 Z" id="Path" fill="#F0AA3B" fill-rule="nonzero"></path>
                        <path d="M6.78869565,118.456733 C6.78869565,118.456733 13.9628458,128.73753 7.60363636,136.689084 C7.60363636,136.689084 16.8084585,130.424223 25.9464822,135.203187 C22.9305585,130.000645 22.6071499,123.659105 25.0781028,118.175618 C25.0781028,118.175618 17.2626877,122.914422 6.78869565,118.456733 Z" id="Path" fill="#F0AA3B" fill-rule="nonzero"></path>
                        <path d="M71.1422925,34.630757 C71.1422925,34.630757 72.6519368,52.5418327 59.1185771,57.8027092 C59.1185771,57.8027092 75.0032411,56.678247 82.8988142,69.1811952 C82.8988142,69.1811952 82.3377075,55.4734661 94.0407905,47.481753 C93.933913,47.481753 80.8681423,47.7227092 71.1422925,34.630757 Z" id="Path" fill="#F0AA3B" fill-rule="nonzero"></path>
                        <line x1="42.0315415" y1="183.916494" x2="0.656600791" y2="186.178805" id="Path" fill="#F0AA3B" fill-rule="nonzero"></line>
                        <path d="M0.656600791,186.794582 C0.317196765,186.794582 0.0420554825,186.518889 0.0420554825,186.178805 C0.0420554825,185.838721 0.317196765,185.563028 0.656600791,185.563028 L42.0716206,183.300717 C42.2387303,183.281562 42.4060241,183.335053 42.5311728,183.447657 C42.6563216,183.56026 42.727335,183.721188 42.7262451,183.889721 C42.7414979,184.224976 42.4860205,184.510732 42.1517787,184.532271 L0.736758893,186.794582 L0.656600791,186.794582 Z" id="Path" fill="#F0AA3B" fill-rule="nonzero"></path>
                        <line x1="120.26585" y1="281.918725" x2="99.9591304" y2="313.577689" id="Path" fill="#FFFFFF" fill-rule="nonzero"></line>
                        <path d="M99.9591304,314.193466 C99.84103,314.195787 99.7248641,314.163195 99.6251383,314.099761 C99.341705,313.911941 99.2588181,313.53227 99.4381028,313.243028 L119.758182,281.584064 C119.870289,281.383979 120.084126,281.262949 120.31302,281.269737 C120.541913,281.277114 120.74789,281.411133 120.847463,281.617768 C120.947036,281.824403 120.923686,282.069373 120.786877,282.253386 L100.533597,313.912351 C100.409651,314.106338 100.18802,314.214794 99.9591304,314.193466 L99.9591304,314.193466 Z" id="Path" fill="#FEC311" fill-rule="nonzero"></path>
                        <path d="M23.2211067,262.936733 C22.9979776,262.934794 22.7934289,262.811819 22.6867194,262.615458 C22.6063504,262.473962 22.5865628,262.305895 22.6318644,262.149543 C22.677166,261.993192 22.7836988,261.861871 22.9271937,261.785498 L53.7747036,244.436653 C54.0741034,244.275498 54.4471244,244.382289 54.6163636,244.67761 C54.6983698,244.819504 54.72051,244.988311 54.6778776,245.146619 C54.6352451,245.304926 54.5313611,245.439659 54.389249,245.520956 L23.5417391,262.923347 C23.4379313,262.956185 23.3272811,262.960804 23.2211067,262.936733 Z" id="Path" fill="#FEC311" fill-rule="nonzero"></path>
                        <path d="M251.925534,22.4624701 C251.724659,22.4619116 251.536736,22.363019 251.422258,22.1976262 C251.307779,22.0322334 251.281197,21.8212194 251.351067,21.63251 L258.872569,1.33864542 C259.006416,1.04496169 259.343912,0.904728444 259.645896,1.01731976 C259.94788,1.12991107 260.111802,1.45709243 260.021502,1.76701195 L252.5,22.1144223 C252.397008,22.336738 252.169856,22.4743613 251.925534,22.4624701 L251.925534,22.4624701 Z" id="Path" fill="#F0AA3B" fill-rule="nonzero"></path>
                        <path d="M302.874443,136.428048 C302.575754,136.431643 302.319701,136.214987 302.273257,135.919317 C302.246263,135.757722 302.284653,135.592009 302.379932,135.458854 C302.47521,135.325699 302.619521,135.236082 302.780925,135.209835 L335.12472,129.855254 C335.458849,129.806471 335.771653,130.031196 335.832783,130.363939 C335.859777,130.525534 335.821387,130.691247 335.726108,130.824402 C335.63083,130.957557 335.486519,131.047174 335.325115,131.073421 L302.967961,136.36107 L302.874443,136.428048 Z" id="Path" fill="#F0AA3B" fill-rule="nonzero"></path>
                        <path d="M317.84941,275.857942 C317.659679,275.86007 317.480571,275.770337 317.368462,275.616947 L297.048383,249.995274 C296.843286,249.724005 296.890638,249.338495 297.15526,249.125154 C297.280304,249.022126 297.441531,248.973984 297.60246,248.991621 C297.76339,249.009258 297.91042,249.091183 298.01028,249.218859 L318.330359,274.853919 C318.432421,274.983089 318.478568,275.147852 318.458483,275.31137 C318.438398,275.474888 318.353756,275.623522 318.223482,275.724039 C318.116074,275.807206 317.985098,275.854077 317.84941,275.857942 Z" id="Path" fill="#FEC311" fill-rule="nonzero"></path>
                        <line x1="48.5377075" y1="61.2698008" x2="34.0157312" y2="48.7668526" id="Path" fill="#FFFFFF" fill-rule="nonzero"></line>
                        <path d="M48.5377075,61.8855777 C48.3906318,61.8872734 48.2480385,61.8348844 48.136917,61.7383267 L33.6149407,49.2353785 C33.3825209,48.9920871 33.3825209,48.6085503 33.6149407,48.365259 C33.7189395,48.2374246 33.8706984,48.1579066 34.0348102,48.1452573 C34.1989221,48.132608 34.3610329,48.1879339 34.4833202,48.2983267 L49.0052964,60.8012749 C49.1328751,60.9054821 49.2122342,61.0575451 49.2248582,61.2219858 C49.2374822,61.3864265 49.1822669,61.5488621 49.0720949,61.6713944 C48.9434163,61.8312618 48.7409214,61.9124221 48.5377075,61.8855777 L48.5377075,61.8855777 Z" id="Path" fill="#F0AA3B" fill-rule="nonzero"></path>
                    </g>
                </g>
            </g>
        </g>
    </g>
</svg>