<?xml version="1.0" encoding="UTF-8"?>
<svg width="24px" height="24px" viewBox="0 0 24 24" version="1.1" xmlns="http://www.w3.org/2000/svg" xmlns:xlink="http://www.w3.org/1999/xlink">
    <title>bx-plus-circle copy 2@1x</title>
    <g id="Page-1" stroke="none" stroke-width="1" fill="none" fill-rule="evenodd">
        <g id="ШФ_Страница-клуба" transform="translate(-1264.000000, -6108.000000)" fill="#FEC311" fill-rule="nonzero">
            <g id="Group-28" transform="translate(0.000000, 3316.000000)">
                <g id="Group-24" transform="translate(73.000000, 2418.000000)">
                    <g id="bx-plus-circle-copy-2" transform="translate(1191.000000, 374.000000)">
                        <path d="M12,-4.54747351e-13 C18.6168,-4.54747351e-13 24,5.3832 24,12 C24,18.6168 18.6168,24 12,24 C5.3832,24 0,18.6168 0,12 C0,5.3832 5.3832,-4.54747351e-13 12,-4.54747351e-13 Z M12,2.4 C6.7068,2.4 2.4,6.7068 2.4,12 C2.4,17.2932 6.7068,21.6 12,21.6 C17.2932,21.6 21.6,17.2932 21.6,12 C21.6,6.7068 17.2932,2.4 12,2.4 Z M18,10.8 L18,13.2 L6,13.2 L6,10.8 L18,10.8 Z" id="Combined-Shape"></path>
                    </g>
                </g>
            </g>
        </g>
    </g>
</svg>