<?xml version="1.0" encoding="UTF-8"?>
<svg width="369px" height="256px" viewBox="0 0 369 256" version="1.1" xmlns="http://www.w3.org/2000/svg" xmlns:xlink="http://www.w3.org/1999/xlink">
    <title>fast_working_flatline 2@1x</title>
    <g id="Page-1" stroke="none" stroke-width="1" fill="none" fill-rule="evenodd">
        <g id="ШФ_Новости" transform="translate(-496.000000, -360.000000)" fill-rule="nonzero">
            <g id="Group-4" transform="translate(72.000000, 250.000000)">
                <g id="fast_working_flatline" transform="translate(424.000000, 110.000000)">
                    <path d="M129.567246,42.459798 L227.622682,42.459798 C240.850615,42.4625777 253.461907,48.0478037 262.347089,57.8383707 C271.232272,67.6289377 275.564529,80.7137785 274.27569,93.8666667 L265.061559,187.914343 L92.1283684,187.914343 L82.9012962,93.8666667 C81.6163726,80.7124567 85.9517627,67.6278589 94.8389263,57.8378246 C103.72609,48.0477903 116.338377,42.462951 129.567246,42.459798 Z" id="Path" fill="#FFFFFF"></path>
                    <path d="M265.061559,188.560816 L92.1283684,188.560816 C91.7948233,188.562478 91.5146594,188.310562 91.4813086,187.97899 L82.2542365,93.9313131 C80.9468374,80.5938372 85.3407798,67.3253355 94.3522191,57.3987208 C103.363659,47.4721061 116.153625,41.8115513 129.567246,41.8133283 L227.622682,41.8133283 C241.036687,41.8071471 253.828144,47.4668902 262.83849,57.3950159 C271.848836,67.3231416 276.238209,80.5942409 274.92275,93.9313131 L265.708619,187.97899 C265.669669,188.307696 265.392839,188.556613 265.061559,188.560816 Z M92.7107222,187.267879 L264.479206,187.267879 L273.641572,93.8020202 C274.912288,80.8292387 270.638316,67.9238479 261.873658,58.268444 C253.109,48.6130401 240.669435,43.1062605 227.622682,43.1062605 L129.567246,43.1062605 C116.519174,43.1022835 104.077128,48.6078184 95.311584,58.2641983 C86.5460401,67.9205783 82.2735018,80.8283199 83.548356,93.8020202 L92.7107222,187.267879 Z" id="Shape" fill="#E4E9EC"></path>
                    <path d="M302.603967,113.687273 C295.072191,117.824646 253.427425,121.729293 247.086239,124.664242 C245.955984,125.206078 244.866122,125.828283 243.825058,126.526061 C233.705044,133.197576 227.001504,149.333333 244.640353,150.794343 C250.036832,151.246869 297.505136,133.714747 316.386339,125.80202 C320.553404,124.069495 334.36166,116.932525 333.300482,114.165657 C332.239304,111.398788 327.826356,104.210101 326.118118,104.727273 C324.40988,105.244444 311.533391,111.334141 311.533391,111.334141 C311.533391,111.334141 315.118102,100.602828 311.533391,100.990707 C307.94868,101.378586 302.603967,113.687273 302.603967,113.687273 Z" id="Path" fill="#FFFFFF"></path>
                    <path d="M244.834471,151.466667 L244.588589,151.466667 C236.603871,150.794343 234.067397,147.251717 233.329749,144.394343 C231.725041,138.097778 237.212107,130.081616 243.449764,125.970101 C244.519944,125.257064 245.640093,124.621889 246.801533,124.069495 C249.726243,122.69899 259.380375,121.23798 270.561567,119.531313 C283.334527,117.591919 297.738077,115.393939 302.086319,113.208889 C302.96632,111.166061 307.702798,100.615758 311.429862,100.279596 C312.07458,100.185212 312.720748,100.44147 313.125158,100.951919 C314.496925,102.671515 313.371041,107.416566 312.620452,110.002424 C315.998104,108.399192 324.487528,104.40404 325.924,104.016162 C328.512239,103.31798 333.132246,111.773737 333.921659,113.894141 C335.474602,117.966869 316.839281,126.332121 316.645163,126.409697 C299.446315,133.624242 251.53801,151.466667 244.834471,151.466667 Z M311.675744,101.572525 L311.559274,101.572525 C309.216917,101.805253 305.205147,109.330101 303.225144,113.945859 C303.165815,114.08442 303.060769,114.198496 302.927497,114.269091 C298.669843,116.609293 284.486293,118.768485 270.755685,120.850101 C260.143905,122.466263 250.049773,123.991919 247.370946,125.271919 C246.266767,125.79646 245.202717,126.40146 244.187412,127.08202 C237.626226,131.413333 233.329749,139.028687 234.623868,144.058182 C235.516811,147.56202 238.997992,149.656566 244.705059,150.134949 L244.912119,150.134949 C250.955657,150.134949 297.142782,133.145859 316.088692,125.194343 C322.636937,122.453333 333.274599,116.066263 332.627539,114.372525 C331.33342,111.010909 327.334591,105.32202 326.260471,105.32202 L326.260471,105.32202 C324.888705,105.68404 315.363985,110.183434 311.805156,111.877172 C311.560852,111.994192 311.270131,111.953426 311.067508,111.773737 C310.86849,111.595264 310.796943,111.314444 310.886332,111.062626 C311.934568,107.894949 313.008688,102.917172 312.076921,101.753535 C311.983506,101.62797 311.831798,101.559519 311.675744,101.572525 L311.675744,101.572525 Z" id="Shape" fill="#303337"></path>
                    <path d="M208.133242,48.9244444 C218.841812,39.4913941 227.972654,28.4091531 235.18034,16.0969697 L245.986238,22.7814141 C245.986238,22.7814141 236.073282,49.1313131 208.133242,48.9244444 Z" id="Path" fill="#FFFFFF"></path>
                    <path d="M208.482654,49.5838552 L208.120301,49.5838552 C207.838474,49.5858428 207.58647,49.4088348 207.492976,49.1432054 C207.399482,48.8775761 207.485129,48.5819423 207.706182,48.4072727 C218.34222,39.0148616 227.419029,27.995677 234.597986,15.7608081 C234.68556,15.6032293 234.836169,15.4903766 235.012104,15.4505051 C235.18798,15.4039758 235.375281,15.432045 235.529752,15.5280808 L246.33565,22.2125253 C246.605145,22.3814281 246.723016,22.713305 246.620356,23.0141414 C246.516827,23.2727273 236.293283,49.5838552 208.482654,49.5838552 Z M235.413281,17.0278788 C228.499329,28.6212304 219.913394,39.1335759 209.932068,48.2262626 C233.66622,47.4117172 243.579175,26.5826263 245.158001,23.04 L235.413281,17.0278788 Z" id="Shape" fill="#303337"></path>
                    <path d="M208.133242,48.9244444 C220.268985,50.1766369 232.441086,46.9177718 242.32388,39.7705051 L244.588589,54.729697 C244.588589,54.729697 228.90386,62.9139394 205.583826,53.8375758 L208.133242,48.9244444 Z" id="Path" fill="#FFFFFF"></path>
                    <path d="M227.156799,58.7507071 C219.671062,58.6927926 212.262165,57.2369327 205.312061,54.4581818 C205.135935,54.3859665 204.996107,54.2462672 204.923825,54.070303 C204.845761,53.8976943 204.845761,53.6998815 204.923825,53.5272727 L207.512065,48.6141414 C207.640464,48.3545468 207.925982,48.2119192 208.210889,48.2650505 C220.154532,49.4306361 232.114548,46.2135932 241.857997,39.2145455 C242.04898,39.0743917 242.299671,39.0449258 242.517997,39.1369697 C242.730587,39.2276953 242.878582,39.4248401 242.906233,39.6541414 L245.14506,54.6133333 C245.181848,54.8954487 245.043621,55.1716496 244.795648,55.3115152 C244.769765,55.3761616 238.117991,58.7507071 227.156799,58.7507071 Z M206.450887,53.4755556 C226.768563,61.129697 241.172113,55.5054545 243.786235,54.3418182 L241.793291,40.9212121 C232.028024,47.5888794 220.253144,50.6726597 208.469713,49.6484848 L206.450887,53.4755556 Z" id="Shape" fill="#303337"></path>
                    <path d="M255.821546,121.910303 C255.821546,121.910303 251.939188,112.368485 233.44622,90.88 C224.56856,80.5365657 200.743819,76.6577778 194.350869,76.3216162 C195.748518,76.4638384 199.747347,74.2658586 172.519073,76.3216162 C158.5167,77.3818182 149.561393,78.08 141.317851,86.8460606 C125.788417,103.382626 92.1413096,138.563232 92.1413096,138.563232 L127.66489,148.686869 C127.66489,148.686869 133.423722,144.652929 135.533137,141.860202 L130.434306,179.717172 L226.367386,185.302626 L225.565032,141.89899 L235.40034,149.915152 L255.821546,121.910303 Z" id="Path" fill="#F0AA3B"></path>
                    <path d="M192.707337,76.2828283 C192.707337,76.2828283 193.302632,76.2828283 194.350869,76.2828283 C193.781456,76.2052525 192.707337,76.2828283 192.707337,76.2828283 Z" id="Path" fill="#68E1FD"></path>
                    <polygon id="Path" fill="#FFFFFF" points="167.653183 80.3684848 168.520243 177.441616 195.399106 177.441616 195.399106 75.0545455"></polygon>
                    <path d="M195.412047,178.036364 L168.520243,178.036364 C168.196459,178.036364 167.931987,177.777955 167.924949,177.454545 L167.057888,80.3684848 C167.058572,80.0854138 167.258856,79.8420495 167.536713,79.7866667 L195.282635,74.4727273 C195.455675,74.4333233 195.637256,74.4749059 195.775843,74.5856735 C195.91443,74.6964411 195.994895,74.8643022 195.994403,75.0416162 L195.994403,177.441616 C195.994403,177.765102 195.735755,178.029331 195.412047,178.036364 Z M169.115538,176.859798 L194.816752,176.859798 L194.816752,75.7656566 L168.235537,80.8468687 L169.115538,176.859798 Z" id="Shape" fill="#303337"></path>
                    <path d="M162.411999,142.44202 C162.184614,142.442795 161.977416,142.311795 161.88141,142.105859 L150.234335,117.708283 C150.130595,117.52358 150.130595,117.298238 150.234335,117.113535 L157.791993,106.007273 L150.376688,100.551111 C150.124935,100.363306 150.062614,100.012363 150.234335,99.7494949 L161.88141,82.5535354 C161.968136,82.4239591 162.103277,82.3345694 162.256541,82.305403 C162.409806,82.2762367 162.568375,82.309733 162.696706,82.3983838 C162.827252,82.4874421 162.916984,82.6247187 162.946116,82.7799453 C162.975247,82.9351719 162.941387,83.0956008 162.852,83.2258586 L151.476689,99.9434343 L158.879053,105.386667 C159.138557,105.57543 159.201529,105.935759 159.021406,106.201212 L151.411983,117.501414 L162.968471,141.601616 C163.106712,141.898005 162.979538,142.2503 162.683764,142.390303 C162.598649,142.429101 162.505431,142.446841 162.411999,142.44202 L162.411999,142.44202 Z" id="Path" fill="#303337"></path>
                    <path d="M199.708524,142.44202 C199.623341,142.461417 199.534882,142.461417 199.4497,142.44202 C199.153926,142.302018 199.026752,141.949722 199.164994,141.653333 L210.721481,117.553131 L203.047352,106.252929 C202.867229,105.987477 202.930202,105.627147 203.189705,105.438384 L210.592069,99.9951515 L199.216758,83.2775758 C199.127372,83.147318 199.093511,82.9868891 199.122643,82.8316625 C199.151775,82.6764359 199.241506,82.5391592 199.372053,82.450101 C199.500384,82.3614501 199.658953,82.3279538 199.812217,82.3571202 C199.965482,82.3862866 200.100623,82.4756762 200.187348,82.6052525 L211.89913,99.8012121 C212.07085,100.064081 212.008529,100.415023 211.756777,100.602828 L204.341472,106.020202 L211.89913,117.126465 C212.00287,117.311167 212.00287,117.536509 211.89913,117.721212 L200.252054,142.118788 C200.150338,142.324013 199.937583,142.450536 199.708524,142.44202 L199.708524,142.44202 Z" id="Path" fill="#303337"></path>
                    <path d="M205.765003,69.7018182 C205.596768,69.7018182 208.702654,53.1135354 208.97442,51.7171717 C210.799128,42.3434343 212.209718,33.8359596 211.355599,26.2593939 C209.116773,27.3454545 208.573243,30.6682828 206.70971,32.2973737 C206.0199,25.2382571 205.717486,18.1466996 205.803827,11.0545455 C193.639103,15.36 180.82732,20.1050505 172.81672,30.2286869 L171.859072,15.1143434 C166.242593,24.1648485 160.535526,33.4222222 157.520228,43.7010101 C154.504929,53.979798 156.588462,63.560404 159.086112,73.6969697 L205.765003,69.7018182 Z" id="Path" fill="#FFFFFF"></path>
                    <path d="M159.086112,74.3175758 C158.777168,74.3140303 158.510332,74.100758 158.439052,73.800404 C155.850813,63.2242424 153.97434,53.6436364 156.937874,43.52 C160.030819,32.9309091 165.99671,23.2856566 171.354365,14.7652525 C171.507327,14.5213742 171.798696,14.4018149 172.079072,14.4678788 C172.363526,14.5362819 172.568955,14.7836222 172.583779,15.0755556 L173.412015,28.5090909 C181.862616,18.8379798 194.984988,14.1834343 205.609709,10.4080808 C205.815095,10.3370956 206.042152,10.3695786 206.219346,10.4952962 C206.396539,10.6210139 206.502055,10.8244882 206.502651,11.0416162 C206.427258,17.5838873 206.682091,24.1257955 207.266182,30.6424242 C207.550888,30.189899 207.822653,29.6985859 208.094418,29.1943434 C208.701756,27.7266659 209.751014,26.4840776 211.096776,25.6387879 C211.292455,25.5417931 211.522274,25.5417931 211.717953,25.6387879 C211.903003,25.7510784 212.026835,25.9414139 212.054424,26.1559596 C212.947366,33.9135354 211.433247,42.7571717 209.660303,51.8206061 C209.323832,53.5789899 206.567357,68.4088889 206.463828,69.6113131 C206.489765,69.7043574 206.489765,69.8027133 206.463828,69.8957576 C206.38368,70.1461164 206.157118,70.3210255 205.894415,70.3353535 L159.176701,74.3175758 L159.086112,74.3175758 Z M171.380248,17.2347475 C166.410829,25.2379798 161.027291,34.2109091 158.219052,43.8949495 C155.410813,53.5789899 157.144933,62.7587879 159.60376,72.9341414 L205.273238,69.0553535 C205.428532,67.4133333 206.114415,63.1078788 208.366183,51.5620202 C210.022656,43.0545455 211.459129,34.7539394 210.850893,27.4488889 C210.225085,28.163846 209.698399,28.959671 209.285008,29.8149495 C208.770069,30.9165568 208.064763,31.9188336 207.201476,32.7757576 C207.016453,32.9475677 206.747011,32.9932799 206.515592,32.8921212 C206.278293,32.8039729 206.112375,32.587976 206.088533,32.3361616 C205.439617,25.5680444 205.132952,18.7715237 205.169708,11.9725253 C194.402634,15.8513131 181.306144,20.6351515 173.386133,30.6165657 C173.21062,30.8285187 172.925255,30.9150675 172.661426,30.8363636 C172.402949,30.746379 172.220851,30.513913 172.195543,30.2416162 L171.380248,17.2347475 Z" id="Shape" fill="#303337"></path>
                    <path d="M198.893229,68.9389899 C200.187348,61.000404 213.361485,59.0480808 212.714425,68.4088889 C212.611662,71.6617367 211.365414,74.7744917 209.19442,77.2008081 C206.936281,79.6191817 203.440176,80.4362321 200.342642,79.2694949" id="Path" fill="#FFFFFF"></path>
                    <path d="M203.099117,80.4977778 C202.056931,80.5092945 201.024362,80.2976803 200.070877,79.8771717 C199.853575,79.7801687 199.704578,79.5747117 199.680012,79.3381943 C199.655445,79.1016769 199.759042,78.8700319 199.951777,78.7305175 C200.144512,78.5910032 200.397106,78.5648151 200.614408,78.6618182 C203.455555,79.72703 206.659444,78.9651444 208.715596,76.7353535 C210.774665,74.4195268 211.952102,71.4534681 212.041483,68.3571717 C212.261483,65.1894949 210.747363,63.1854545 207.977948,62.8622222 C204.000634,62.4810134 200.372325,65.1482356 199.553229,69.0553535 C199.524736,69.2288605 199.428063,69.3838124 199.284692,69.4857798 C199.14132,69.5877473 198.963124,69.6282843 198.789699,69.5983838 C198.426693,69.5388111 198.178842,69.1990494 198.233228,68.8355556 C199.144992,64.2085838 203.438679,61.0403455 208.133242,61.5305051 C210.876775,61.8537374 213.697956,63.8319192 213.30972,68.4476768 C213.194692,71.8587724 211.884818,75.1212956 209.608538,77.6662626 C207.893721,79.425519 205.55639,80.4422283 203.099117,80.4977778 Z" id="Path" fill="#303337"></path>
                    <path d="M166.009652,68.9389899 C164.715532,61.000404 151.541395,59.0480808 152.188455,68.4088889 C152.296689,71.660592 153.542218,74.7715512 155.70846,77.2008081 C157.966599,79.6191817 161.462705,80.4362321 164.560238,79.2694949" id="Path" fill="#FFFFFF"></path>
                    <path d="M161.76494,80.4977778 C159.280604,80.4625436 156.911691,79.4442434 155.177871,77.6662626 C152.936206,75.1348772 151.645971,71.9031142 151.528454,68.5252525 C151.204924,63.8965657 154.026105,61.9183838 156.704932,61.5951515 C161.397772,61.1113007 165.687654,64.2767307 166.604947,68.900202 C166.638515,69.075893 166.597725,69.2576271 166.49228,69.4021742 C166.386835,69.5467214 166.22616,69.6411617 166.048475,69.6630303 C165.87505,69.6929308 165.696854,69.6523937 165.553483,69.5504263 C165.410111,69.4484589 165.313438,69.2935069 165.284945,69.12 C164.460552,65.2162879 160.835861,62.5517257 156.860227,62.9268687 C154.051987,63.250101 152.576691,65.2541414 152.796691,68.4218182 C152.886073,71.5181146 154.063509,74.4841733 156.122579,76.8 C158.1806,79.0266002 161.382388,79.7879863 164.223767,78.7264646 C164.559686,78.576511 164.953676,78.7270157 165.103768,79.0626263 C165.25386,79.3982369 165.103216,79.7918645 164.767297,79.9418182 C163.817163,80.3373077 162.793827,80.5268033 161.76494,80.4977778 L161.76494,80.4977778 Z" id="Path" fill="#303337"></path>
                    <polygon id="Path" fill="#FFFFFF" points="167.912007 105.528889 181.15085 116.402424 195.360282 108.502626 196.30499 75.5975758 167.912007 74.7054545"></polygon>
                    <path d="M181.176732,117.074747 C181.024529,117.074747 180.877543,117.019291 180.762614,116.919596 L167.484948,106.020202 C167.330093,105.894097 167.243776,105.702456 167.252006,105.50303 L167.252006,74.7054545 C167.251824,74.5268095 167.321477,74.3551558 167.446124,74.2270707 C167.580337,74.1052839 167.756672,74.0403782 167.93789,74.0457166 L196.330872,74.9252525 C196.697457,74.9392763 196.985255,75.2440619 196.978068,75.6105051 L196.020283,108.515556 C196.02093,108.752455 195.891829,108.970733 195.683812,109.084444 L181.448497,116.984242 C181.367367,117.037589 181.273674,117.068791 181.176732,117.074747 Z M168.610832,105.218586 L181.25438,115.56202 L194.726164,108.06303 L195.644989,76.1923232 L168.610832,75.3648485 L168.610832,105.218586 Z" id="Shape" fill="#303337"></path>
                    <path d="M168.80495,87.9191919 C169.063774,89.4189899 177.139079,99.4262626 195.774401,100.56404 L195.774401,87.9191919 C191.322629,88.5527273 185.421444,90.7248485 180.620261,90.2852525 C176.587012,90.1379452 172.601105,89.3659226 168.80495,87.9967677 C168.235537,87.6993939 169.400245,88.3070707 168.80495,87.9191919 Z" id="Path" fill="#303337"></path>
                    <path d="M195.774401,101.262222 L195.774401,101.262222 C178.135551,100.189091 169.439068,91.0480808 168.326126,88.4363636 C168.031048,88.2815533 167.915631,87.9183228 168.067302,87.6218182 C168.196714,87.3632323 168.48142,87.1046465 169.102597,87.3890909 L169.102597,87.3890909 C172.848773,88.7211415 176.776164,89.4753792 180.749673,89.6258586 C184.143495,89.7082581 187.530005,89.2722536 190.79204,88.3329293 C192.552043,87.9191919 194.221457,87.5313131 195.748518,87.3115152 C195.935593,87.2835047 196.125417,87.3403994 196.266166,87.4666667 C196.401539,87.5896202 196.48097,87.7623409 196.486173,87.9450505 L196.486173,100.667475 C196.48699,100.84508 196.411611,101.014527 196.279107,101.132929 C196.137967,101.247843 195.953472,101.295106 195.774401,101.262222 L195.774401,101.262222 Z M170.31907,89.2121212 C172.764955,92.1858586 180.400261,98.8315152 195.127341,99.9175758 L195.127341,88.6432323 C193.833221,88.8630303 192.474396,89.1862626 191.012041,89.5224242 C187.621128,90.5084129 184.099248,90.9705888 180.568496,90.8929293 C177.100858,90.7080806 173.663902,90.1444527 170.31907,89.2121212 L170.31907,89.2121212 Z" id="Shape" fill="#303337"></path>
                    <path d="M180.788497,93.2073152 L182.910853,93.2073152 C187.745659,93.2073152 192.382256,91.2875365 195.799766,87.870744 C199.217277,84.4539515 201.135489,79.8202576 201.13206,74.989899 L201.13206,53.5789899 C201.13206,49.1054545 194.868517,46.3644444 191.2191,45.8214141 C187.257742,45.397492 183.254557,45.5893984 179.352024,46.390303 C169.723775,47.8771717 162.463764,51.3939394 162.52847,62.2157576 C162.52847,66.4953535 162.52847,70.7878788 162.52847,75.0674747 C162.564148,85.1114126 170.735272,93.2287365 180.788497,93.2073152 L180.788497,93.2073152 Z" id="Path" fill="#FFFFFF"></path>
                    <path d="M182.910853,93.879596 L180.788497,93.879596 C170.354413,93.8653378 161.901479,85.414393 161.894352,74.989899 C161.894352,73.5676768 161.894352,72.1325253 161.894352,70.710303 C161.894352,67.8486195 161.894352,64.9912458 161.894352,62.1381818 C161.790822,49.92 171.108483,46.9074747 179.248494,45.6533333 C183.222455,44.8294376 187.301684,44.6374451 191.335571,45.0844444 C195.670871,45.8084848 201.792056,48.9632323 201.792056,53.5660606 L201.792056,74.989899 C201.792056,85.4123005 193.342839,93.8653285 182.910853,93.879596 Z M187.64733,46.1575189 C184.908271,46.2256419 182.178393,46.5022687 179.481436,46.9850505 C168.028478,48.7563636 163.17553,53.2816162 163.253177,62.1381818 C163.253177,65.0084848 163.253177,67.8701684 163.253177,70.7232323 C163.253177,72.1583838 163.253177,73.5806061 163.253177,75.0028283 C163.267431,84.6867871 171.121505,92.5336376 180.814379,92.5478788 L182.936735,92.5478788 C192.622445,92.5193756 200.459113,84.6667425 200.459113,74.989899 L200.459113,53.5789899 C200.459113,49.700202 194.881458,47.0367677 191.11557,46.4161616 C189.967816,46.2414274 188.80833,46.1549782 187.64733,46.1575189 L187.64733,46.1575189 Z" id="Shape" fill="#303337"></path>
                    <ellipse id="Oval" fill="#303337" transform="translate(187.902576, 67.419377) rotate(-3.780000) translate(-187.902576, -67.419377) " cx="187.902576" cy="67.419377" rx="1.09999719" ry="2.52122221"></ellipse>
                    <ellipse id="Oval" fill="#303337" transform="translate(173.096638, 66.640291) rotate(-4.004173) translate(-173.096638, -66.640291) " cx="173.096638" cy="66.6402909" rx="1.10268835" ry="2.52739289"></ellipse>
                    <path d="M177.372021,86.8848485 C176.750844,86.8848485 176.38849,86.8848485 176.323784,86.8848485 C176.038348,86.7775457 175.860824,86.4918783 175.89117,86.1886975 C175.921516,85.8855168 176.152145,85.6406272 176.453196,85.5919192 C182.27157,85.7077815 187.919331,83.6252958 192.267337,79.7608081 C192.552344,79.5301373 192.96856,79.5643154 193.212044,79.8383838 C193.449961,80.120924 193.415296,80.5422853 193.134397,80.7822222 C188.757962,84.5982589 183.179433,86.7580651 177.372021,86.8848485 L177.372021,86.8848485 Z" id="Path" fill="#303337"></path>
                    <path d="M179.067318,81.9587879 C178.626061,81.957821 178.210199,81.7524691 177.941434,81.4028283 C176.233196,79.2953535 178.032022,70.0379798 178.420258,68.2020202 C178.544467,67.9037675 178.863432,67.7359312 179.179867,67.8023213 C179.496301,67.8687114 179.720746,68.1505589 179.714377,68.4735354 C178.821435,72.7789899 178.00614,79.3729293 178.963788,80.5494949 C181.357909,80.5494949 183.169676,77.7179798 183.182618,77.6921212 C183.275899,77.5416789 183.425793,77.435012 183.598592,77.3961071 C183.771391,77.3572023 183.95259,77.3893253 184.101442,77.4852525 C184.413591,77.6797321 184.511579,78.0885979 184.321443,78.4032323 C184.243796,78.5454545 182.095557,81.9587879 179.067318,81.9587879 Z" id="Path" fill="#303337"></path>
                    <polygon id="Path" fill="#FFFFFF" points="366.934648 236.61899 0.996472028 236.61899 41.6965308 160.530101 326.234589 160.530101"></polygon>
                    <path d="M366.934648,237.265455 L0.996472028,237.265455 C0.773258334,237.265455 0.566825905,237.146952 0.452941831,236.955152 C0.336928444,236.759877 0.336928444,236.516891 0.452941831,236.321616 L41.1530006,160.232727 C41.2633519,160.019898 41.4825102,159.885538 41.7224132,159.883636 L326.234589,159.883636 C326.474492,159.885538 326.69365,160.019898 326.804002,160.232727 L367.529943,236.321616 C367.633451,236.521213 367.625746,236.7602 367.509595,236.952728 C367.393444,237.145256 367.185526,237.263678 366.96053,237.265455 L366.934648,237.265455 Z M2.08353242,235.972525 L365.847587,235.972525 L325.846353,161.176566 L42.0847667,161.176566 L2.08353242,235.972525 Z" id="Shape" fill="#303337"></path>
                    <path d="M279.529816,171.170909 L226.470915,157.892525 C226.470915,157.892525 199.876759,199.809293 186.586152,208.316768 L250.101538,226.611717 C250.101538,226.611717 276.33334,184.746667 279.529816,171.170909 Z" id="Path" fill="#FFFFFF"></path>
                    <path d="M250.036832,227.309995 L249.855655,227.309995 L186.35321,208.989091 C186.111361,208.912666 185.93475,208.704526 185.898877,208.453647 C185.863004,208.202769 185.974218,207.953549 186.184975,207.812525 C199.203817,199.434343 225.603855,157.970101 225.87562,157.543434 C226.021457,157.306837 226.306931,157.195921 226.574445,157.271919 L279.749816,170.550303 C279.915457,170.589958 280.058166,170.694523 280.145801,170.840446 C280.233435,170.986369 280.258626,171.16138 280.215699,171.326061 C276.9804,184.850101 251.667422,225.292929 250.593303,226.999596 C250.477085,227.195403 250.264652,227.313862 250.036832,227.309995 Z M188.009683,208.161616 L249.765067,225.900606 C252.456835,221.582222 275.207456,184.824242 278.805109,171.597576 L226.716798,158.577778 C223.882676,163.038384 200.989702,198.555152 188.009683,208.161616 Z" id="Shape" fill="#303337"></path>
                    <path d="M255.821546,215.414949 L255.601546,215.414949 C238.855639,209.454545 213.361485,200.40404 211.769718,200.22303 C211.412357,200.173046 211.163216,199.843093 211.213246,199.486061 C211.263277,199.129028 211.593533,198.880117 211.950894,198.930101 C214.17678,199.227475 251.758011,212.622222 256.041546,214.147879 C256.398908,214.208574 256.639357,214.54721 256.578606,214.904242 C256.517854,215.261275 256.178907,215.501504 255.821546,215.440808 L255.821546,215.414949 Z" id="Path" fill="#E4E9EC"></path>
                    <path d="M260.998024,206.868687 C260.925207,206.880984 260.850841,206.880984 260.778024,206.868687 C244.032117,200.895354 218.537963,191.922424 216.946196,191.715556 C216.596445,191.662233 216.350989,191.342864 216.389724,190.991515 C216.443105,190.636463 216.770997,190.389333 217.127373,190.435556 C219.353258,190.732929 256.934489,204.127677 261.218024,205.653333 C261.575386,205.714029 261.815835,206.052664 261.755084,206.409697 C261.694333,206.76673 261.355385,207.006958 260.998024,206.946263 L260.998024,206.868687 Z" id="Path" fill="#E4E9EC"></path>
                    <path d="M267.947446,196.150303 C267.874629,196.1626 267.800263,196.1626 267.727446,196.150303 C250.981539,190.138182 225.487385,181.165253 223.882676,181.010101 C223.529178,180.963186 223.280307,180.639373 223.326205,180.286061 C223.379576,179.936632 223.699239,179.691402 224.050912,179.730101 C226.289739,180.027475 263.870969,193.422222 268.154505,194.947879 C268.511866,195.008574 268.752316,195.34721 268.691565,195.704242 C268.630813,196.061275 268.291866,196.301504 267.934505,196.240808 L267.947446,196.150303 Z" id="Path" fill="#E4E9EC"></path>
                    <path d="M272.6451,184.68202 L272.425099,184.68202 C255.679193,178.708687 230.185038,169.748687 228.606213,169.528889 C228.434912,169.509726 228.278802,169.421718 228.173824,169.285128 C228.068845,169.148538 228.024046,168.975137 228.049741,168.804848 C228.0967,168.451676 228.420811,168.203033 228.774448,168.248889 C231.000334,168.546263 268.581565,181.94101 272.8651,183.466667 C273.028584,183.522039 273.162407,183.641607 273.235674,183.797767 C273.308941,183.953926 273.315319,184.133178 273.253336,184.294141 C273.154245,184.53989 272.909931,184.695692 272.6451,184.68202 Z" id="Path" fill="#E4E9EC"></path>
                    <path d="M240.214465,185.302626 C240.214465,185.302626 247.30624,222.487273 252.625071,230.904242 C252.625071,230.904242 304.247498,228.460606 317.538106,218.724848 C317.538106,218.724848 296.042781,189.724444 292.496893,176.446061 L240.214465,185.302626 Z" id="Path" fill="#FFFFFF"></path>
                    <path d="M252.625071,231.550707 C252.399209,231.54714 252.190205,231.430594 252.068599,231.240404 C246.749768,222.823434 239.865052,186.944646 239.580346,185.41899 C239.542358,185.247966 239.580095,185.068882 239.683876,184.927677 C239.783756,184.785593 239.938644,184.691808 240.110935,184.669091 L292.393364,175.812525 C292.722711,175.753832 293.042537,175.955642 293.131012,176.27798 C296.599252,189.284848 317.848695,218.052525 318.055754,218.33697 C318.157543,218.474222 318.199542,218.646726 318.172224,218.815354 C318.148474,218.983958 318.060365,219.136848 317.926342,219.24202 C304.622793,228.990707 254.773309,231.447273 252.650953,231.550707 L252.625071,231.550707 Z M240.977995,185.832727 C241.935644,190.745859 248.186241,222.034747 252.974483,230.231919 C257.659196,229.986263 303.445144,227.348687 316.619281,218.595556 C313.642806,214.535758 295.745133,189.814949 292.03101,177.221818 L240.977995,185.832727 Z" id="Shape" fill="#303337"></path>
                    <polygon id="Path" fill="#FFFFFF" points="145.549622 168.158384 128.85548 215.065859 211.860306 218.194747 196.30499 168.158384"></polygon>
                    <path d="M211.860306,218.841212 L211.860306,218.841212 L128.85548,215.712323 C128.652351,215.700309 128.466125,215.595355 128.350774,215.427879 C128.228928,215.259197 128.199774,215.040745 128.273127,214.846061 L144.941386,167.938586 C145.034013,167.68262 145.27719,167.511907 145.549622,167.511907 L196.30499,167.511907 C196.589018,167.510201 196.840962,167.693741 196.926167,167.964444 L212.455601,218.000808 C212.521656,218.19977 212.482717,218.418601 212.352072,218.582626 C212.236695,218.739814 212.055316,218.835189 211.860306,218.841212 L211.860306,218.841212 Z M129.761364,214.458182 L210.941481,217.509495 L195.800283,168.804848 L145.976682,168.804848 L129.761364,214.458182 Z" id="Shape" fill="#303337"></path>
                    <rect id="Rectangle" fill="#FFFFFF" x="0.996472028" y="236.61899" width="365.925235" height="17.9587879"></rect>
                    <path d="M366.934648,255.224242 L0.996472028,255.224242 C0.639110791,255.224242 0.34941227,254.93481 0.34941227,254.577778 L0.34941227,236.606061 C0.356297122,236.251916 0.642001754,235.966474 0.996472028,235.959596 L366.934648,235.959596 C367.289118,235.966474 367.574823,236.251916 367.581708,236.606061 L367.581708,254.577778 C367.581708,254.93481 367.292009,255.224242 366.934648,255.224242 Z M1.64353179,253.931313 L366.235823,253.931313 L366.235823,237.265455 L1.64353179,237.265455 L1.64353179,253.931313 Z" id="Shape" fill="#303337"></path>
                    <polygon id="Path" fill="#303337" points="166.863771 152.811313 179.947319 176.717576 180.089672 177.868283 180.788497 183.518384 176.401431 179.885253 175.508489 179.148283 162.424941 155.229091"></polygon>
                    <path d="M180.788497,184.164848 C180.635861,184.166882 180.48804,184.1115 180.374378,184.009697 L175.094371,179.639596 C175.032417,179.588788 174.979857,179.527525 174.939076,179.458586 L161.855528,155.539394 C161.773292,155.390551 161.754386,155.214931 161.803061,155.05202 C161.851736,154.88911 161.963906,154.752581 162.114352,154.673131 L166.553182,152.242424 C166.710716,152.177766 166.887413,152.177766 167.044947,152.242424 C167.206409,152.29181 167.341487,152.403496 167.420242,152.552727 L180.516731,176.45899 C180.533986,176.535608 180.533986,176.615099 180.516731,176.691717 L181.357909,183.492525 C181.397942,183.751287 181.267574,184.006573 181.034379,184.126061 C180.956285,184.15695 180.872318,184.170195 180.788497,184.164848 L180.788497,184.164848 Z M176.000254,178.721616 L179.882613,181.979798 L179.261435,176.911515 L166.540241,153.638788 L163.227295,155.448889 L176.000254,178.721616 Z" id="Shape" fill="#303337"></path>
                    <path d="M162.958754,147.22798 L166.672091,147.229417 C167.386662,147.229694 167.96616,147.808905 167.966437,148.523122 L167.971447,161.455154 L161.760989,161.452749 L161.755978,148.520717 C161.755702,147.8065 162.334752,147.227738 163.049323,147.22798 L162.958754,147.22798 Z" id="Path" fill="#303337" transform="translate(164.863713, 154.341567) rotate(-28.670000) translate(-164.863713, -154.341567) "></path>
                    <path d="M165.504945,162.715152 L165.323768,162.715152 C165.156761,162.670226 165.016062,162.557771 164.935532,162.404848 L158.710818,151.04 C158.473507,150.600216 158.417772,150.085143 158.555523,149.604848 C158.695072,149.116993 159.026585,148.706482 159.474348,148.467071 L162.722588,146.682828 C163.649369,146.191132 164.79956,146.530126 165.310827,147.445657 L171.522601,158.810505 C171.605838,158.957768 171.626687,159.132168 171.580504,159.294873 C171.534321,159.457579 171.424941,159.595083 171.276718,159.676768 L165.802592,162.663434 C165.709479,162.705958 165.606961,162.723771 165.504945,162.715152 L165.504945,162.715152 Z M163.641413,147.71716 C163.537108,147.716531 163.434465,147.743283 163.343765,147.794747 L160.095525,149.566061 L160.095525,149.566061 C159.943564,149.638272 159.83365,149.776733 159.797878,149.94101 C159.733054,150.089403 159.733054,150.258072 159.797878,150.406465 L165.699063,161.202424 L170.034363,158.836364 L164.133178,148.040404 C164.034003,147.856976 163.849271,147.735554 163.641413,147.71716 Z" id="Shape" fill="#303337"></path>
                    <path d="M162.541411,162.676364 C162.299673,162.681821 162.07506,162.552164 161.959058,162.340202 C161.816704,162.094545 158.684935,156.431515 158.30964,155.591111 C157.934346,154.750707 158.387288,151.712323 158.620229,150.587475 C158.691887,150.223425 159.045178,149.986186 159.409642,150.057374 C159.583618,150.088707 159.737741,150.188461 159.837479,150.334284 C159.937217,150.480108 159.974232,150.659811 159.940231,150.833131 C159.604361,152.211646 159.464946,153.630629 159.526113,155.048081 C159.82376,155.707475 162.217881,160.064646 163.123765,161.693737 C163.211276,161.847678 163.233152,162.030308 163.184472,162.200532 C163.135792,162.370756 163.020644,162.514273 162.864941,162.598788 C162.764419,162.648925 162.653761,162.675459 162.541411,162.676364 L162.541411,162.676364 Z" id="Path" fill="#303337"></path>
                    <path d="M116.470757,143.864242 C105.716623,138.834747 89.0095404,132.861414 84.6612988,148.686869 C82.3453244,156.795457 86.7611689,165.301466 94.7295486,168.080808 C113.960165,175.230707 167.200242,182.587475 167.200242,182.587475 C167.200242,182.587475 172.37672,181.695354 174.227311,178.346667 C176.077901,174.99798 180.697908,178.566465 183.286147,176.329697 C185.874386,174.092929 184.049678,169.800404 181.590851,166.387071 C179.132024,162.973737 171.121424,162.598788 169.089656,162.986667 C167.057888,163.374545 161.933175,166.387071 161.920234,166.4 C157.093168,169.218586 145.497857,159.27596 141.537852,157.000404 C133.971566,152.69064 126.258614,148.617912 118.398995,144.782222 L116.470757,143.864242 Z" id="Path" fill="#FFFFFF"></path>
                    <path d="M167.29083,183.208081 L167.213183,183.208081 C166.682594,183.130505 113.649576,175.760808 94.5742543,168.675556 C86.2908877,165.796739 81.701037,156.954647 84.1177686,148.531717 C85.4118881,143.90303 87.8189504,140.774141 91.3130731,139.132121 C98.7413191,135.705859 109.430746,139.88202 116.755463,143.321212 L116.755463,143.321212 C117.441346,143.631515 118.114288,143.954747 118.748407,144.265051 C126.513124,148.053333 134.368429,152.177778 141.926087,156.509091 C142.831971,157.026263 144.113149,157.931313 145.601387,158.978586 C150.350805,162.314343 158.283758,167.899798 161.713175,165.895758 C161.713175,165.895758 166.889653,162.844444 169.063774,162.417778 C170.953188,162.055758 179.41673,162.314343 182.160263,166.063838 C185.576739,170.78303 186.159092,174.700606 183.764971,176.795152 C182.470852,177.984646 180.555555,177.764848 178.924964,177.570909 C176.867314,177.325253 175.573195,177.247677 174.822606,178.631111 C172.92025,182.199596 167.601419,183.143434 167.381418,183.182222 L167.29083,183.208081 Z M97.7577883,139.028687 C95.7158069,138.985804 93.6889327,139.387277 91.8177797,140.205253 C88.6471869,141.666263 86.4471837,144.575354 85.3471821,148.84202 C83.1019283,156.663281 87.3620111,164.874842 95.0530785,167.550707 C113.610752,174.454949 164.780238,181.656566 167.342595,182.018586 C168.002596,181.876364 172.350837,180.919596 173.813192,178.139798 C174.964959,175.967677 177.152021,176.226263 179.0932,176.45899 C180.60732,176.64 182.043792,176.808081 182.975558,175.967677 C185.719092,173.562828 182.302616,168.352323 181.189674,166.813737 C178.98967,163.762424 171.315542,163.258182 169.283774,163.646061 C166.84226,164.506547 164.49959,165.624794 162.295529,166.981818 C158.219052,169.360808 150.519041,163.956364 144.902562,160.012929 C143.440207,158.978586 142.184911,158.086465 141.317851,157.595152 C133.786076,153.276768 126.021359,149.165253 118.217818,145.389899 L116.237815,144.446061 L116.237815,144.446061 C110.957807,141.911919 103.891915,139.028687 97.7577883,139.028687 L97.7577883,139.028687 Z" id="Shape" fill="#303337"></path>
                    <path d="M155.38493,55.5054545 C155.38493,55.5054545 188.773214,69.559596 209.634421,57.0569697 L211.860306,42.9640404 C211.860306,42.9640404 179.507318,50.1527273 158.620229,38.089697 C157.219628,40.9307192 156.168071,43.9305454 155.48846,47.0238384 C155.023714,49.8294463 154.988805,52.6893579 155.38493,55.5054545 L155.38493,55.5054545 Z" id="Path" fill="#FFFFFF"></path>
                    <path d="M188.203801,62.7846465 C171.380248,62.7846465 155.38493,56.1519192 155.151989,56.0484848 C154.964273,55.973004 154.827789,55.8074252 154.789635,55.6088889 C154.384888,52.7237306 154.424166,49.7936979 154.906106,46.920404 C155.59739,43.7861457 156.666363,40.7471505 158.08964,37.869899 C158.163068,37.7214643 158.29394,37.6093912 158.451994,37.559596 C158.600839,37.4963635 158.769031,37.4963635 158.917877,37.559596 C179.339083,49.3511111 211.407364,42.4339394 211.730894,42.3692929 C211.920486,42.3173437 212.12338,42.3717284 212.261483,42.5115152 C212.408615,42.6401392 212.477394,42.8364684 212.44266,43.0286869 L210.216774,57.1216162 C210.189381,57.2954477 210.084712,57.4475531 209.932068,57.5353535 C203.46147,61.44 195.761459,62.7846465 188.203801,62.7846465 Z M155.850813,55.0270707 C159.254348,56.32 189.70498,67.9563636 209.026184,56.6173737 L211.083834,43.6880808 C205.907356,44.6965657 177.747316,49.4286869 158.814347,38.8913131 C157.563428,41.5102246 156.621041,44.2653657 156.006108,47.1014141 C155.595724,49.746991 155.56522,52.4375321 155.915519,55.0917172 L155.850813,55.0270707 Z" id="Shape" fill="#303337"></path>
                    <path d="M176.38849,112.368485 L179.403789,117.372121 C179.403789,117.372121 177.35908,134.968889 184.580267,145.092525 C191.801454,155.216162 232.760336,130.314343 232.760336,130.314343 L234.054456,116.402424 L219.456788,116.402424 C219.456788,116.402424 199.708524,141.847273 190.46851,135.796364 C182.34144,130.456566 183.092029,116.402424 183.092029,116.402424 L188.397919,112.368485 L181.849675,106.537374 L176.38849,112.368485 Z" id="Path" fill="#303337"></path>
                    <path d="M190.701452,148.105051 C187.712036,148.105051 185.343797,147.342222 184.023795,145.519192 C177.126138,135.809293 178.523787,119.738182 178.743788,117.566061 L175.84496,112.756364 C175.694303,112.509523 175.726009,112.192753 175.922607,111.980606 L181.37085,106.149495 C181.622455,105.9031 182.025129,105.9031 182.276734,106.149495 L188.824979,111.980606 C188.966927,112.109654 189.046971,112.293115 189.044979,112.484848 C189.035283,112.678695 188.940599,112.858428 188.786155,112.976162 L183.726148,116.854949 C183.726148,118.871919 183.726148,130.728081 190.830864,135.382626 C199.4497,141.045657 218.757963,116.389495 218.93914,116.143838 C219.059961,115.979413 219.252633,115.883166 219.456788,115.885253 L234.054456,115.885253 C234.23659,115.888258 234.409382,115.966337 234.531916,116.101 C234.654449,116.235663 234.715827,116.414935 234.701516,116.596364 L233.407396,130.508283 C233.389825,130.709386 233.273442,130.888645 233.096807,130.986667 C231.647394,131.710707 204.470884,148.105051 190.701452,148.105051 Z M177.190844,112.484848 L179.96026,117.061818 C180.035134,117.181268 180.067082,117.322623 180.050848,117.462626 C180.050848,117.643636 178.109669,134.94303 185.072032,144.743434 C190.649687,152.591515 220.634436,136.882424 232.100335,129.952323 L233.394455,117.02303 L219.767376,117.02303 C217.554432,119.828687 199.34617,142.364444 190.119098,136.300606 C181.772027,130.818586 182.419087,116.906667 182.457911,116.337778 C182.458791,116.151799 182.550607,115.977992 182.703793,115.872323 L187.388506,112.303838 L181.888498,107.403636 L177.190844,112.484848 Z" id="Shape" fill="#303337"></path>
                    <path d="M186.275563,104.727273 C174.628488,104.727273 168.507302,99.9175758 168.15789,99.6589899 C167.872001,99.430489 167.825649,99.0137069 168.054361,98.7280808 C168.283072,98.4424548 168.700238,98.3961457 168.986127,98.6246465 C169.089656,98.6892929 178.264963,105.826263 195.179106,102.503434 C195.352621,102.465316 195.534191,102.498697 195.682759,102.596029 C195.831327,102.693361 195.934345,102.846423 195.968518,103.020606 C196.04042,103.380606 195.809998,103.731675 195.450871,103.809293 C192.429894,104.414675 189.356705,104.722144 186.275563,104.727273 L186.275563,104.727273 Z" id="Path" fill="#303337"></path>
                    <path d="M135.533137,142.519596 C135.255975,142.524998 135.00616,142.353409 134.91196,142.092929 L128.234303,125.026263 C128.146457,124.795303 128.188614,124.535066 128.344892,124.343579 C128.50117,124.152093 128.747828,124.058449 128.991952,124.097923 C129.236076,124.137396 129.440577,124.30399 129.528422,124.534949 L136.206079,141.614545 C136.337598,141.960847 136.163999,142.348194 135.817843,142.480808 C135.726404,142.512258 135.629666,142.525437 135.533137,142.519596 Z" id="Path" fill="#303337"></path>
                    <path d="M311.416921,171.093333 L263.262733,176.109899 C263.262733,176.109899 269.17686,217.134545 272.722747,225.693737 C272.722747,225.693737 316.438104,228.93899 338.891078,215.95798 C338.891078,215.919192 311.714568,178.773333 311.416921,171.093333 Z" id="Path" fill="#FFFFFF"></path>
                    <path d="M284.589823,226.689293 C277.52393,226.689293 272.813335,226.353131 272.670982,226.340202 C272.42657,226.325308 272.213721,226.168349 272.127452,225.939394 C268.581565,217.406061 262.861556,177.881212 262.628615,176.200404 C262.604951,176.030002 262.651667,175.857313 262.758027,175.72202 C262.862234,175.580416 263.022704,175.490824 263.198027,175.476364 L311.352215,170.446869 C311.530097,170.432704 311.706501,170.48836 311.84398,170.60202 C311.975069,170.722713 312.053976,170.889655 312.06398,171.067475 C312.296922,176.989091 330.052242,202.770101 339.408726,215.570101 C339.522996,215.716421 339.565726,215.906155 339.525196,216.087273 C339.485606,216.266479 339.373055,216.421095 339.214608,216.513939 C324.112233,225.254141 299.278079,226.689293 284.589823,226.689293 Z M273.175689,225.073131 C277.575695,225.357576 316.903987,227.439192 337.946371,215.751111 C334.452248,210.941414 312.361628,180.273131 310.847508,171.791515 L264.000381,176.691717 C264.776853,181.94101 269.927449,216.591515 273.175689,225.073131 L273.175689,225.073131 Z" id="Shape" fill="#303337"></path>
                    <path d="M309.799271,46.6230303 L302.31926,73.2961616 C302.31926,73.2961616 334.814601,73.6840404 346.125206,59.720404 L350.369918,32.1163636 C350.369918,32.1163636 319.181638,47.9030303 309.799271,46.6230303 Z" id="Path" fill="#FFFFFF"></path>
                    <path d="M302.513378,73.9557094 L302.306319,73.9557094 C302.105153,73.9601205 301.915293,73.8628461 301.801613,73.6969697 C301.675201,73.541316 301.631822,73.3342473 301.685142,73.1410101 L309.178094,46.4549495 C309.274659,46.1506521 309.572088,45.9561504 309.88986,45.9894949 C318.948696,47.2824242 349.761682,31.7672727 350.072271,31.560404 C350.278084,31.4316821 350.539399,31.4316821 350.745213,31.560404 C350.943301,31.7007024 351.043807,31.9416948 351.004037,32.1810101 L346.824031,59.8238384 C346.806265,59.9346006 346.75683,60.0378705 346.681677,60.1212121 C341.893435,66.0428283 332.976952,70.1672727 320.152227,72.3781818 C314.323882,73.3712382 308.425598,73.8986988 302.513378,73.9557094 Z M310.278095,47.3212121 L303.173379,72.649697 C308.349857,72.649697 335.44872,71.6282828 345.504029,59.4488889 L349.541682,33.2541414 C343.89932,36.0468687 319.349873,47.9159596 310.278095,47.3212121 Z" id="Shape" fill="#303337"></path>
                    <polygon id="Path" fill="#303337" points="103.542503 218.130101 134.368429 189.284848 51.4930156 182.613333 21.6247371 209.027879"></polygon>
                    <path d="M103.529561,218.763636 L103.529561,218.763636 L21.6117959,209.713131 C21.3601417,209.685453 21.1477613,209.513684 21.0682657,209.273535 C20.9919899,209.030816 21.0684339,208.766054 21.2623837,208.601212 L51.1306621,182.186667 C51.2614675,182.069118 51.4338348,182.008613 51.6094863,182.018586 L134.433135,188.690101 C134.682895,188.719636 134.896443,188.883371 134.989607,189.116768 C135.067637,189.358595 135.002548,189.623713 134.821371,189.80202 L103.995444,218.647273 C103.858331,218.738809 103.693659,218.77994 103.529561,218.763636 Z M23.1259158,208.549495 L103.361326,217.444848 L132.919016,189.80202 L51.7647807,183.272727 L23.1259158,208.549495 Z" id="Shape" fill="#303337"></path>
                    <polygon id="Path" fill="#FFFFFF" points="103.542503 218.130101 88.1036567 153.380202 7.70001113 147.096566 21.6247371 209.027879"></polygon>
                    <path d="M103.529561,218.763636 L103.529561,218.763636 L21.6117959,209.713131 C21.3393109,209.677207 21.1176322,209.476334 21.0553245,209.208889 L7.13059854,147.277576 C7.09217924,147.076263 7.1442298,146.868253 7.27295168,146.708687 C7.41097419,146.556265 7.61120112,146.475296 7.81648188,146.488889 L88.2201275,152.772525 C88.4992454,152.799573 88.7291558,153.00317 88.7895401,153.276768 L104.228386,218.013737 C104.279146,218.219265 104.225971,218.4366 104.086033,218.595556 C103.93656,218.734578 103.73109,218.79664 103.529561,218.763636 Z M22.1423849,208.420202 L102.688384,217.367273 L87.5601265,154.013737 L8.50236523,147.833535 L22.1423849,208.420202 Z" id="Shape" fill="#303337"></path>
                    <path d="M57.420083,192.517172 C54.7178663,192.407062 52.1302576,191.396638 50.0694841,189.646869 C48.2540515,187.666208 46.6533819,185.499274 45.2941831,183.182222 C45.1500463,182.938399 45.1815156,182.629236 45.3718303,182.419394 L47.1706564,180.441212 C47.3041539,180.299255 47.4936419,180.223529 47.6883042,180.234343 C47.8840111,180.248879 48.0636163,180.348043 48.1800696,180.505859 C50.1649955,183.00684 53.5491783,183.924185 56.5271405,182.768485 L56.5271405,182.768485 C58.6603298,181.882228 60.3892402,180.237819 61.3800887,178.152727 C61.4984924,177.67255 61.5806838,177.184177 61.6259714,176.691717 C61.6114293,176.111831 61.7450459,175.537808 62.0142072,175.023838 C62.195384,174.81697 62.596561,174.325657 65.4048004,174.894545 C65.7065394,174.94962 65.9281143,175.208787 65.9353894,175.515152 L65.9353894,178.980202 C66.1553897,179.911111 67.3977444,185.612929 65.9353894,187.591111 C64.2110505,190.232021 61.4355164,192.006917 58.3130254,192.465455 C58.0412603,192.491313 57.7306716,192.517172 57.420083,192.517172 Z M46.6530086,182.923636 C47.8728401,184.984347 49.3040858,186.912585 50.923603,188.677172 C52.947224,190.420485 55.5671284,191.314603 58.2353783,191.172525 C60.9938828,190.744016 63.4377797,189.15859 64.9518586,186.815354 C65.844801,185.638788 65.2883296,181.527273 64.7447994,179.2 C64.7375592,179.157206 64.7375592,179.113501 64.7447994,179.070707 L64.7447994,176.071111 C64.2032021,175.968131 63.6525219,175.920478 63.1012676,175.928889 C63.1012676,176.109899 63.1012676,176.536566 62.9977381,176.846869 C62.9637371,177.48659 62.8373311,178.118039 62.6224434,178.721616 C61.4697027,181.135342 59.437384,183.017786 56.9412587,183.983838 L56.9412587,183.983838 C53.6752071,185.24446 49.9705818,184.412324 47.5588922,181.876364 L46.6530086,182.923636 Z" id="Shape" fill="#F0AA3B"></path>
                    <path d="M197.249697,207.825455 L197.249697,207.825455 L138.1602,206.338586 C137.988541,206.331863 137.826604,206.257217 137.710082,206.131101 C137.59356,206.004985 137.532019,205.837752 137.538484,205.666263 C137.54242,205.498227 137.612509,205.338427 137.733864,205.222033 C137.855219,205.105639 138.017893,205.042192 138.186082,205.045657 L138.186082,205.045657 L197.262638,206.532525 C197.435399,206.532381 197.600739,206.602667 197.720432,206.727131 C197.840125,206.851595 197.903808,207.019461 197.897286,207.191919 C197.883106,207.541005 197.599309,207.818871 197.249697,207.825455 L197.249697,207.825455 Z" id="Path" fill="#E4E9EC"></path>
                    <path d="M157.468463,196.150303 C148.953156,196.150303 142.430794,196.150303 142.133147,196.072727 C141.775785,196.008461 141.538233,195.666932 141.602558,195.309899 C141.666883,194.952866 142.008727,194.715532 142.366088,194.779798 C143.660208,194.896162 177.592021,194.779798 195.424988,194.779798 L195.424988,194.779798 C195.782349,194.779798 196.072048,195.06923 196.072048,195.426263 C196.072048,195.783295 195.782349,196.072727 195.424988,196.072727 C187.983801,196.111515 170.409658,196.150303 157.468463,196.150303 Z" id="Path" fill="#E4E9EC"></path>
                    <path d="M190.546158,185.04404 L190.481452,185.04404 L180.723791,184.164848 C180.551832,184.148536 180.393539,184.064209 180.284159,183.930644 C180.174778,183.79708 180.12339,183.625366 180.141437,183.453737 C180.154479,183.28303 180.236119,183.124863 180.367763,183.015261 C180.499407,182.905659 180.669846,182.853953 180.840261,182.871919 L190.597922,183.751111 C190.955284,183.751111 191.244982,184.040543 191.244982,184.397576 C191.244982,184.754608 190.955284,185.04404 190.597922,185.04404 L190.546158,185.04404 Z" id="Path" fill="#E4E9EC"></path>
                    <path d="M306.486325,135.757576 C306.486325,135.757576 307.560444,105.050505 324.099292,89.2121212 L368.25465,102.012121 C368.25465,102.012121 344.235791,128.064646 344.54638,149.695354 L306.486325,135.757576 Z" id="Path" fill="#FFFFFF"></path>
                    <path d="M344.54638,150.367677 C344.473656,150.381037 344.399104,150.381037 344.32638,150.367677 L306.253384,136.429899 C305.983504,136.330503 305.806692,136.070725 305.8132,135.783434 C305.8132,135.473131 307.107503,104.623838 323.633409,88.7854545 C323.809026,88.6278761 324.052397,88.5695208 324.280469,88.630303 L368.448768,101.430303 C368.668396,101.49963 368.838531,101.674466 368.901709,101.895758 C368.971089,102.119382 368.911371,102.363004 368.746415,102.529293 C368.513474,102.787879 344.960498,128.620606 345.219322,149.721212 C345.219371,149.941477 345.113438,150.148338 344.934616,150.277172 C344.816745,150.344362 344.681843,150.37581 344.54638,150.367677 L344.54638,150.367677 Z M307.172209,135.305051 L343.886379,148.686869 C344.10638,137.619394 350.356977,125.582222 355.740514,117.346263 C359.161534,112.089289 362.940666,107.0738 367.051119,102.335354 L324.280469,89.9361616 C309.501624,104.442828 307.40515,131.374545 307.172209,135.305051 Z" id="Shape" fill="#303337"></path>
                    <path d="M354.304041,106.317576 L354.122865,106.317576 L323.775762,97.5256566 C323.437398,97.4198928 323.243119,97.0659449 323.335761,96.7240404 C323.380692,96.5574256 323.491704,96.41633 323.643142,96.3333595 C323.794581,96.2503889 323.973342,96.2327231 324.138115,96.2844444 L354.485218,105.076364 C354.71639,105.108698 354.912736,105.261792 355.000294,105.477976 C355.087852,105.69416 355.05332,105.940591 354.909706,106.12444 C354.766091,106.30829 354.535214,106.401627 354.304041,106.369293 L354.304041,106.317576 Z" id="Path" fill="#E4E9EC"></path>
                    <path d="M349.929917,115.174141 L349.748741,115.174141 L319.401638,106.382222 C319.063274,106.276458 318.868995,105.922511 318.961637,105.580606 C319.006568,105.413991 319.11758,105.272896 319.269018,105.189925 C319.420457,105.106955 319.599218,105.089289 319.763991,105.14101 L350.111094,113.932929 C350.468455,113.982914 350.717596,114.312866 350.667565,114.669899 C350.617535,115.026932 350.287279,115.275843 349.929917,115.225859 L349.929917,115.174141 Z" id="Path" fill="#E4E9EC"></path>
                    <path d="M346.189912,124.509091 L346.008735,124.509091 L315.661633,115.717172 C315.496886,115.669165 315.357975,115.557739 315.275459,115.407407 C315.192943,115.257075 315.173581,115.080151 315.221632,114.915556 C315.266563,114.748941 315.377574,114.607845 315.529013,114.524875 C315.680451,114.441904 315.859212,114.424238 316.023986,114.47596 L346.371089,123.267879 C346.714155,123.367848 346.91115,123.726744 346.811089,124.069495 C346.724881,124.337707 346.471766,124.516832 346.189912,124.509091 L346.189912,124.509091 Z" id="Path" fill="#E4E9EC"></path>
                    <path d="M333.235776,132.861414 C333.175965,132.873259 333.114409,132.873259 333.054599,132.861414 L311.481627,126.603636 C311.314858,126.558747 311.173633,126.447838 311.090586,126.296538 C311.007539,126.145239 310.989857,125.966642 311.041626,125.80202 C311.141687,125.459269 311.500913,125.262455 311.84398,125.362424 L333.416952,131.620202 C333.760019,131.720171 333.957014,132.079067 333.856953,132.421818 C333.770745,132.69003 333.51763,132.869155 333.235776,132.861414 L333.235776,132.861414 Z" id="Path" fill="#E4E9EC"></path>
                    <path d="M338.865195,62.2286869 L338.735784,62.2286869 C338.554607,62.2286869 338.114606,62.0864646 338.140489,61.3753535 C338.141261,61.2247709 338.20176,61.0806371 338.308724,60.9745455 C338.813431,58.6731313 340.741669,46.7523232 341.996965,38.6585859 C342.033952,38.4276262 342.191459,38.2339252 342.410154,38.1504481 C342.628849,38.066971 342.875506,38.1063999 343.057214,38.2538825 C343.238921,38.401365 343.328072,38.6344949 343.291084,38.8654545 C339.809903,61.000404 339.576961,62.2286869 338.865195,62.2286869 Z" id="Path" fill="#E4E9EC"></path>
                    <path d="M332.394598,65.5256566 L332.265186,65.5256566 C332.071068,65.5256566 331.644009,65.3963636 331.669891,64.6723232 C331.670664,64.5217406 331.731162,64.3776068 331.838127,64.2715152 C332.342833,61.970101 334.271071,50.0492929 335.526367,41.9555556 C335.551685,41.786485 335.644318,41.6348125 335.783225,41.5349884 C335.922133,41.4351644 336.095524,41.3956623 336.264015,41.4254545 C336.434011,41.450962 336.586861,41.5430035 336.688833,41.6812673 C336.790806,41.8195311 336.833518,41.9926516 336.807545,42.1624242 C333.339305,64.2973737 333.106364,65.5256566 332.394598,65.5256566 Z" id="Path" fill="#E4E9EC"></path>
                    <path d="M325.432235,66.9090909 L325.302823,66.9090909 C325.121646,66.9090909 324.681646,66.779798 324.707528,66.0686869 C324.711483,65.9149448 324.77128,65.7678894 324.875764,65.6549495 C325.38047,63.3535354 327.308708,51.4327273 328.564004,43.3389899 C328.629681,42.9886575 328.962116,42.7538761 329.314593,42.8088889 C329.48382,42.8341835 329.635632,42.9267311 329.735548,43.0655109 C329.835464,43.2042907 329.875002,43.3775224 329.845182,43.5458586 C326.376942,65.6808081 326.118118,66.9090909 325.432235,66.9090909 Z" id="Path" fill="#E4E9EC"></path>
                    <path d="M318.845167,70.3353535 L318.715755,70.3353535 C318.521637,70.3353535 318.094577,70.1931313 318.12046,69.4820202 C318.121232,69.3314376 318.181731,69.1873038 318.288695,69.0812121 C318.780461,66.7668687 320.72164,54.8589899 321.976936,46.7652525 C322.036515,46.4154305 322.362506,46.1754471 322.714584,46.2222222 C323.064728,46.2817465 323.304932,46.6074382 323.258114,46.9591919 C319.776933,69.0941414 319.556932,70.3353535 318.845167,70.3353535 Z" id="Path" fill="#E4E9EC"></path>
                    <path d="M311.882804,71.2533333 L311.753392,71.2533333 C311.559274,71.2533333 311.132214,71.1111111 311.158097,70.4 C311.160847,70.246009 311.220811,70.0985411 311.326332,69.9862626 C311.818098,67.6848485 313.759277,55.7640404 315.014573,47.6832323 C315.040104,47.5133927 315.13223,47.3606836 315.270621,47.2588051 C315.409012,47.1569265 315.582292,47.1142531 315.752221,47.140202 C316.102365,47.1997262 316.342569,47.525418 316.295751,47.8771717 C312.853393,70.0250505 312.633393,71.2533333 311.882804,71.2533333 Z" id="Path" fill="#E4E9EC"></path>
                    <path d="M284.098058,25.3414141 C284.098058,25.3414141 283.735704,32.219798 289.779242,41.4254545 C289.779242,41.4254545 302.64279,21.6177778 310.485154,18.5793939 C318.327519,15.5410101 289.792183,12.6319192 284.098058,25.3414141 Z" id="Path" fill="#FFFFFF"></path>
                    <path d="M289.779242,42.0719192 C289.560444,42.0669939 289.357709,41.9560746 289.235712,41.7745455 C283.15335,32.5042424 283.412174,25.6 283.412174,25.3026263 C283.421654,25.2221914 283.443479,25.1436953 283.47688,25.069899 C287.475709,16.1357576 302.138084,14.4937374 309.100447,15.6056566 C311.274567,15.9418182 312.38751,16.5365657 312.478099,17.4028283 C312.568687,18.2690909 311.183979,18.9931313 310.705155,19.1741414 C303.121614,22.1090909 290.413361,41.5806061 290.283949,41.7745455 C290.165152,41.9595379 289.960414,42.071553 289.740419,42.0719192 L289.779242,42.0719192 Z M284.706294,25.4836364 C284.706294,26.3757576 284.848647,32.3878788 289.75336,40.2359596 C292.341599,36.3571717 303.121614,20.7256566 310.239272,17.9717172 C310.556401,17.87239 310.854073,17.7193177 311.119273,17.5191919 C310.394566,16.9761616 306.75809,16.2909091 301.581612,16.7692929 C297.569842,17.1313131 287.876887,18.7345455 284.706294,25.4836364 Z" id="Shape" fill="#303337"></path>
                    <path d="M313.03457,34.5987879 C313.03457,34.5987879 303.082791,18.0105051 284.098058,25.3414141 C287.915529,16.9627333 292.544662,8.97746155 297.919254,1.49979798 C297.919254,1.49979798 308.388681,-2.14626263 322.391054,9.56767677 C322.391054,9.56767677 317.848695,27.0610101 313.03457,34.5987879 Z" id="Path" fill="#FFFFFF"></path>
                    <path d="M313.03457,35.2452525 L313.03457,35.2452525 C312.810841,35.234594 312.607084,35.1134216 312.49104,34.9220202 C312.089863,34.2626263 302.578084,18.9026263 284.34394,25.8715152 C284.101591,25.9725823 283.821811,25.9104661 283.645116,25.7163636 C283.463229,25.5319227 283.411986,25.2554639 283.515704,25.0181818 C287.360883,16.6012086 292.01571,8.57750217 297.414547,1.06020202 C297.489825,0.947889841 297.598447,0.861976982 297.725136,0.814545455 C298.165137,0.672323232 308.69927,-2.80565657 322.818113,9.01171717 C323.006125,9.17488291 323.0862,9.42988733 323.025173,9.67111111 C322.843996,10.3822222 318.405166,27.3454545 313.591041,34.8832323 C313.48221,35.0933052 313.270888,35.2307834 313.03457,35.2452525 L313.03457,35.2452525 Z M293.454542,22.8331313 C304.415734,22.8331313 311.067508,30.7458586 312.995746,33.3963636 C317.111046,26.3240404 320.980464,12.3345455 321.653406,9.80040404 C309.255741,-0.413737374 299.743962,1.65494949 298.359255,2.04282828 C293.401714,9.03523163 289.0712,16.4509064 285.418059,24.2036364 C288.007598,23.3255081 290.720068,22.8629358 293.454542,22.8331313 L293.454542,22.8331313 Z" id="Shape" fill="#303337"></path>
                    <path d="M311.30045,25.5094949 C311.23201,25.5221378 311.16183,25.5221378 311.093391,25.5094949 C310.929753,25.4537471 310.795252,25.3348917 310.719884,25.1794376 C310.644517,25.0239835 310.634553,24.8448609 310.692214,24.6820202 L315.933398,9.47717172 C316.049766,9.1433337 316.412951,8.96478774 316.748693,9.07636364 C317.084584,9.19820202 317.262411,9.56499085 317.14987,9.90383838 L311.882804,25.0828283 C311.793565,25.330113 311.56334,25.4987897 311.30045,25.5094949 Z" id="Path" fill="#E4E9EC"></path>
                    <path d="M305.179264,21.6694949 C305.110799,21.6818523 305.040671,21.6818523 304.972205,21.6694949 C304.63806,21.5532339 304.45935,21.1903825 304.571028,20.8549495 L309.747506,5.83111111 C309.79941,5.58724323 309.987054,5.39493093 310.229745,5.33687553 C310.472435,5.27882012 310.72691,5.36537033 310.883737,5.5593064 C311.040564,5.75324247 311.071787,6.01999415 310.963979,6.24484848 L305.787501,21.2686869 C305.689488,21.5169436 305.44627,21.6772167 305.179264,21.6694949 Z" id="Path" fill="#E4E9EC"></path>
                    <path d="M297.647489,19.6783838 C297.562171,19.6965404 297.473983,19.6965404 297.388665,19.6783838 C297.066369,19.5363046 296.912569,19.1663865 297.039253,18.8379798 C303.005144,4.55111111 303.432203,4.49939394 303.872204,4.43474747 C304.221979,4.40271205 304.537585,4.64482977 304.596911,4.99070707 C304.632258,5.21924086 304.537495,5.44845575 304.351028,5.58545455 C303.703968,6.50343434 300.274551,14.4549495 298.242784,19.3292929 C298.13068,19.5528165 297.897483,19.6895673 297.647489,19.6783838 Z" id="Path" fill="#E4E9EC"></path>
                    <path d="M60.5259698,99.0513131 C60.5259698,99.0513131 35.471816,95.9094949 29.0141596,85.5660606 C24.8470947,78.8686869 35.1353449,56.1777778 35.1353449,56.1777778 C35.1353449,56.1777778 38.5777028,69.2622222 47.7530102,71.2274747 C56.9283175,73.1927273 62.8165613,74.0072727 62.8165613,74.0072727 C62.8165613,74.0072727 55.7765512,92.5090909 60.5259698,99.0513131 Z" id="Path" fill="#FFFFFF"></path>
                    <path d="M60.5259698,99.6977778 L60.4483226,99.6977778 C59.413027,99.5684848 35.0059329,96.4008081 28.4576882,85.9022222 C24.1612114,78.9979798 34.1129905,56.850101 34.5400499,55.9062626 C34.6477973,55.6510008 34.9118347,55.4979999 35.1871097,55.5313131 C35.4604399,55.5510937 35.690125,55.7440603 35.7565223,56.009697 C35.7565223,56.1389899 39.2118214,68.7450505 47.8824221,70.5939394 C56.9412587,72.5333333 62.8553849,73.3608081 62.9071497,73.3737374 C63.1197361,73.3878769 63.3102371,73.5098806 63.4118563,73.6969697 C63.4956903,73.8728259 63.4956903,74.0770731 63.4118563,74.2529293 C63.3471503,74.4339394 56.5530229,92.4961616 61.0436176,98.6892929 C61.1793566,98.906933 61.1793566,99.182764 61.0436176,99.400404 C60.929899,99.5779009 60.7367202,99.6888766 60.5259698,99.6977778 Z M35.0318153,58.0266667 C32.8318121,63.1983838 26.2447438,79.890101 29.5576898,85.1781818 C34.941227,93.8149495 54.1459606,97.3705051 59.3224387,98.1850505 C56.229493,91.5135354 60.7459701,77.8860606 61.9106777,74.4985859 C60.008322,74.2012121 54.767138,73.3608081 47.5847746,71.8222222 C40.117705,70.2448485 36.3259348,61.7115152 35.0318153,58.0266667 Z" id="Shape" fill="#303337"></path>
                    <path d="M32.9741653,84.7515152 C32.6432094,84.7526186 32.3670618,84.4992469 32.3400467,84.169697 C31.6671046,77.9765657 35.6012279,67.2581818 35.7694634,66.8056566 C35.8963013,66.4752696 36.2654369,66.3081588 36.5976999,66.4307071 C36.9335152,66.5522122 37.1072841,66.9225783 36.9859358,67.2581818 C36.9859358,67.3616162 32.9871065,78.1446465 33.621225,84.0662626 C33.6590936,84.4193061 33.4048748,84.7367874 33.0518125,84.7773737 L32.9741653,84.7515152 Z" id="Path" fill="#E4E9EC"></path>
                    <path d="M32.3529879,89.2121212 C32.3529879,89.2121212 31.8871049,83.2905051 34.6694619,79.36 L29.1176891,73.399596 C29.1176891,73.399596 24.8729771,83.9369697 32.3529879,89.2121212 Z" id="Path" fill="#FFFFFF"></path>
                    <path d="M32.3529879,89.9104149 C32.2190881,89.9096825 32.0884178,89.8691669 31.9776933,89.7939394 C24.2129762,84.2343434 28.4706294,73.3220202 28.509453,73.2185859 C28.5935656,73.0145815 28.7725111,72.864792 28.9882772,72.8177778 C29.2067274,72.7782856 29.4304154,72.8511603 29.5835722,73.0117172 L35.1353449,78.9721212 C35.3477026,79.1938713 35.3747398,79.5342268 35.2000509,79.7866667 C32.6118118,83.4715152 33.0000477,89.160404 33.0000477,89.2121212 C33.0248123,89.4613454 32.8972106,89.7010161 32.6765178,89.819798 C32.579916,89.8810661 32.4673889,89.9125447 32.3529879,89.9104149 L32.3529879,89.9104149 Z M29.376513,74.6925253 C28.6518061,77.1749495 27.2929806,83.7430303 31.6800458,87.8674747 C31.6618384,84.9307592 32.4064856,82.0395522 33.8412254,79.4763636 L29.376513,74.6925253 Z" id="Shape" fill="#303337"></path>
                    <path d="M38.8235855,89.9104455 L38.8235855,89.9104455 C38.6496509,89.9069673 38.4843876,89.8337982 38.3650811,89.7073037 C38.2457746,89.5808091 38.1824762,89.4116461 38.1894669,89.2379798 C38.1894669,88.7854545 38.590644,78.08 41.1918242,71.6670707 C41.2548375,71.5075417 41.3798949,71.3803518 41.5384221,71.3145626 C41.6969493,71.2487734 41.8754006,71.2500064 42.0330019,71.3179798 C42.1927012,71.3812914 42.3206408,71.5054597 42.388614,71.6631095 C42.4565872,71.8207594 42.4590126,71.9989456 42.3953554,72.1583838 C39.8847635,78.3515152 39.4835865,89.1733333 39.4835865,89.289697 C39.4695599,89.641663 39.1760785,89.9176268 38.8235855,89.9104455 Z" id="Path" fill="#E4E9EC"></path>
                    <path d="M45.5400658,91.9014141 C45.1904537,91.8948304 44.9066567,91.6169651 44.893006,91.2678788 C44.7506529,84.1179798 47.804775,75.1321212 47.9341869,74.7571717 C48.0521161,74.4179908 48.4229302,74.238543 48.7624234,74.3563637 C49.1019165,74.4741844 49.2815296,74.8446575 49.1636004,75.1838384 C49.1636004,75.2614141 46.0447724,84.3248485 46.1871256,91.2420202 C46.1905923,91.4134831 46.1257232,91.5792958 46.0067956,91.7029638 C45.887868,91.8266317 45.7246291,91.8980192 45.553007,91.9014141 L45.5400658,91.9014141 Z" id="Path" fill="#E4E9EC"></path>
                    <path d="M52.2565461,93.5564958 C52.0861365,93.5598389 51.9215013,93.494629 51.7997672,93.3754393 C51.6780331,93.2562496 51.6094508,93.0931166 51.6094863,92.9228283 C51.5878797,88.8750532 51.9300377,84.8335123 52.6318408,80.8468687 C52.7094214,80.5011413 53.0465987,80.2784664 53.3953713,80.3426263 C53.5653258,80.3736097 53.7152697,80.4725307 53.8105357,80.6165185 C53.9058017,80.7605062 53.9381414,80.9370941 53.9000779,81.1054545 C53.2148596,85.0025288 52.8813626,88.9532142 52.9036058,92.909899 C52.9036058,93.2669316 52.6139073,93.5564958 52.2565461,93.5564958 L52.2565461,93.5564958 Z" id="Path" fill="#E4E9EC"></path>
                </g>
            </g>
        </g>
    </g>
</svg>