<svg width="12" height="12" viewBox="0 0 12 12" fill="none" xmlns="http://www.w3.org/2000/svg">
<path d="M11.6484 2.83594H8.97656V0.75C8.97656 0.555844 8.81916 0.398438 8.625 0.398438H0.351562C0.157406 0.398438 0 0.555844 0 0.75V9.84375C0 10.813 0.788555 11.6016 1.75781 11.6016H10.2422C11.2114 11.6016 12 10.813 12 9.84375V3.1875C12 2.99334 11.8426 2.83594 11.6484 2.83594ZM1.75781 10.8984C1.17626 10.8984 0.703125 10.4253 0.703125 9.84375V1.10156H8.27344C8.27344 10.3937 8.26901 9.87712 8.2815 10.0096C8.31206 10.3355 8.43361 10.6429 8.62582 10.8984H1.75781ZM11.2969 9.84375C11.2969 10.4253 10.8237 10.8984 10.2422 10.8984C10.1633 10.8984 10.1087 10.8984 10.0312 10.8984C9.4497 10.8984 8.97656 10.4253 8.97656 9.84375V3.53906H11.2969V9.84375Z" fill="white"/>
<path d="M7.125 2.08594H1.875C1.68084 2.08594 1.52344 2.24334 1.52344 2.4375C1.52344 2.63166 1.68084 2.78906 1.875 2.78906H7.125C7.31916 2.78906 7.47656 2.63166 7.47656 2.4375C7.47656 2.24334 7.31916 2.08594 7.125 2.08594Z" fill="white"/>
<path d="M7.125 3.58594H1.875C1.68084 3.58594 1.52344 3.74334 1.52344 3.9375C1.52344 4.13166 1.68084 4.28906 1.875 4.28906H7.125C7.31916 4.28906 7.47656 4.13166 7.47656 3.9375C7.47656 3.74334 7.31916 3.58594 7.125 3.58594Z" fill="white"/>
<path d="M7.125 9.21094H1.875C1.68084 9.21094 1.52344 9.36834 1.52344 9.5625C1.52344 9.75666 1.68084 9.91406 1.875 9.91406H7.125C7.31916 9.91406 7.47656 9.75666 7.47656 9.5625C7.47656 9.36834 7.31916 9.21094 7.125 9.21094Z" fill="white"/>
<path d="M7.125 5.08594H4.5C4.30584 5.08594 4.14844 5.24334 4.14844 5.4375V8.0625C4.14844 8.25666 4.30584 8.41406 4.5 8.41406H7.125C7.31916 8.41406 7.47656 8.25666 7.47656 8.0625V5.4375C7.47656 5.24334 7.31916 5.08594 7.125 5.08594ZM6.77344 7.71094H4.85156V5.78906H6.77344V7.71094Z" fill="white"/>
<path d="M1.875 6.35156H3C3.19416 6.35156 3.35156 6.19416 3.35156 6C3.35156 5.80584 3.19416 5.64844 3 5.64844H1.875C1.68084 5.64844 1.52344 5.80584 1.52344 6C1.52344 6.19416 1.68084 6.35156 1.875 6.35156Z" fill="white"/>
<path d="M1.875 7.85156H3C3.19416 7.85156 3.35156 7.69416 3.35156 7.5C3.35156 7.30584 3.19416 7.14844 3 7.14844H1.875C1.68084 7.14844 1.52344 7.30584 1.52344 7.5C1.52344 7.69416 1.68084 7.85156 1.875 7.85156Z" fill="white"/>
</svg>
