<?xml version="1.0" encoding="UTF-8"?>
<svg width="32px" height="32px" viewBox="0 0 32 32" version="1.1" xmlns="http://www.w3.org/2000/svg" xmlns:xlink="http://www.w3.org/1999/xlink">
    <title>interface (1)@1x</title>
    <g id="Page-1" stroke="none" stroke-width="1" fill="none" fill-rule="evenodd">
        <g id="ШФ_Стартовая" transform="translate(-88.000000, -9778.000000)" fill-rule="nonzero">
            <g id="Group-95" transform="translate(72.000000, 9092.000000)">
                <g id="Group-58" transform="translate(0.000000, 118.000000)">
                    <g id="Group-9-Copy" transform="translate(0.000000, 552.000000)">
                        <g id="interface-(1)" transform="translate(16.000000, 16.000000)">
                            <polygon id="Path-12" fill="#F0AA3B" points="21.5 30.9139886 15.2062836 16.7523415 0.923489639 11.1334925 31.3576711 0.574993959"></polygon>
                            <path d="M31.3319529,0.000875165203 L31.3928357,0.00626764092 C31.4276259,0.0104424608 31.4610245,0.015313084 31.4951189,0.0243585272 C31.5354755,0.0361871836 31.5730489,0.0521906599 31.6113182,0.0709773495 C31.6314965,0.0807185959 31.6530664,0.0835018092 31.6725489,0.0953304656 C31.6843776,0.102288499 31.6920314,0.114117155 31.7038601,0.122466795 C31.7365629,0.145428304 31.7650908,0.171868831 31.7936188,0.200396767 C31.8221468,0.228924703 31.8492831,0.256756835 31.8722447,0.288763788 C31.8812901,0.300592444 31.8938146,0.308942084 31.9014684,0.321466544 C31.9132971,0.340949037 31.9167761,0.36251894 31.9265174,0.382697236 C31.9446083,0.419574812 31.9606118,0.455756584 31.9724404,0.495417373 C31.9835733,0.531599146 31.9891397,0.567085115 31.9940103,0.603962691 C31.998881,0.642231873 32.0009684,0.679109449 31.9995768,0.718074435 C31.9981852,0.757735224 31.9919229,0.795308603 31.9835733,0.834273589 C31.9793985,0.856539295 31.9814859,0.878805002 31.9745278,0.900374904 L31.9745278,0.900374904 L22.2332723,31.5157209 C22.1449051,31.7919548 21.8951115,31.9846923 21.6049613,31.9993042 C21.5931326,32 21.5819997,32 21.5701711,32 C21.2939369,32 21.0420559,31.8357904 20.931423,31.5804306 L20.931423,31.5804306 L14.7505964,17.2719312 L0.446954146,11.7757808 C0.172807382,11.6707145 -0.0053184345,11.4056134 0.00012118083,11.1126802 C0.00581442902,10.819747 0.194377305,10.561604 0.471307285,10.4683663 L0.471307285,10.4683663 L31.086682,0.0313165604 C31.1103393,0.0229669205 31.1346924,0.0250543305 31.1583498,0.019487904 C31.1959232,0.0104424608 31.2328008,0.00278862433 31.27107,0.000701214373 C31.3121225,-0.00138619558 31.3517833,0.00139701769 31.3928357,0.00626764092 Z M12.72859,25.9416405 C13.0006494,25.6695814 13.4403975,25.6695814 13.7124568,25.9416405 C13.9845162,26.2136996 13.9845162,26.6534473 13.7124568,26.9255064 L13.7124568,26.9255064 L8.84182905,31.7961296 C8.70614727,31.9318113 8.52802145,32 8.34989564,32 C8.17176982,32 7.99364401,31.9318113 7.85796223,31.7961296 C7.58590288,31.5240705 7.58590288,31.0843228 7.85796223,30.8122637 L7.85796223,30.8122637 Z M9.94537414,21.0710173 C10.2174335,20.7989582 10.6571816,20.7989582 10.929241,21.0710173 C11.2013003,21.3430764 11.2013003,21.7828241 10.929241,22.0548832 L10.929241,22.0548832 L1.18798537,31.7961296 C1.0523036,31.9318113 0.874177784,32 0.696051967,32 C0.517926151,32 0.339800335,31.9318113 0.20411856,31.7961296 C-0.0679407918,31.5240705 -0.0679407918,31.0843228 0.20411856,30.8122637 L0.20411856,30.8122637 Z M29.7806579,3.20278808 L16.0990645,16.8850645 L21.4706711,29.3204614 L29.7806579,3.20278808 Z M5.07474635,18.287804 C5.3468057,18.0157449 5.78655381,18.0157449 6.05861316,18.287804 C6.33067252,18.5598631 6.33067252,18.9996108 6.05861316,19.2716699 L6.05861316,19.2716699 L1.18798537,24.1422931 C1.0523036,24.2779748 0.874177784,24.3461635 0.696051967,24.3461635 C0.517926151,24.3461635 0.339800335,24.2779748 0.20411856,24.1422931 C-0.0679407918,23.870234 -0.0679407918,23.4304863 0.20411856,23.1584272 L0.20411856,23.1584272 Z M28.7028576,2.31285564 L2.73754082,11.1648654 L15.1005858,15.9151147 L28.7028576,2.31285564 Z" id="Combined-Shape" fill="#303337"></path>
                        </g>
                    </g>
                </g>
            </g>
        </g>
    </g>
</svg>