<svg width="12" height="9" viewBox="0 0 12 9" fill="none" xmlns="http://www.w3.org/2000/svg">
<path d="M11.7656 0H0.234375C0.104953 0 0 0.107471 0 0.239997V8.76C0 8.89253 0.104953 9 0.234375 9H11.7656C11.895 9 12 8.89253 12 8.76V0.239997C12 0.107471 11.895 0 11.7656 0V0ZM5.76562 6.06531C5.02376 5.94932 4.45362 5.29156 4.45362 4.5C4.45362 3.70844 5.02376 3.05068 5.76562 2.93469V6.06531ZM6.23438 2.93469C6.97624 3.05068 7.54638 3.70844 7.54638 4.5C7.54638 5.29156 6.97624 5.94932 6.23438 6.06531V2.93469ZM0.46875 2.82309H1.86354V6.17691H0.46875V2.82309ZM0.46875 6.6569H2.09791C2.22734 6.6569 2.33229 6.54943 2.33229 6.41691V2.58309C2.33229 2.45057 2.22734 2.34309 2.09791 2.34309H0.46875V0.479995H5.76562V2.45042C4.76449 2.5697 3.98487 3.44336 3.98487 4.5C3.98487 5.55664 4.76447 6.4303 5.76562 6.54958V8.52H0.46875V6.6569ZM6.23438 8.52V6.54958C7.23551 6.4303 8.01513 5.55664 8.01513 4.5C8.01513 3.44336 7.23551 2.5697 6.23438 2.45042V0.479995H11.5312V2.34309H9.90209C9.77266 2.34309 9.66771 2.45057 9.66771 2.58309V6.41691C9.66771 6.54943 9.77266 6.6569 9.90209 6.6569H11.5312V8.52H6.23438ZM11.5312 6.17691H10.1365V2.82309H11.5312V6.17691Z" fill="white"/>
</svg>
