<svg width="12" height="10" viewBox="0 0 12 10" fill="none" xmlns="http://www.w3.org/2000/svg">
<path d="M6.26012 3.90135C7.33573 3.90135 8.21079 3.02628 8.21079 1.95067C8.21079 0.875067 7.33573 0 6.26012 0C5.18452 0 4.30945 0.875067 4.30945 1.95067C4.30945 3.02628 5.18452 3.90135 6.26012 3.90135ZM6.26012 0.672646C6.96483 0.672646 7.53815 1.24596 7.53815 1.95067C7.53815 2.65538 6.96483 3.2287 6.26012 3.2287C5.55541 3.2287 4.98209 2.65538 4.98209 1.95067C4.98209 1.24596 5.55541 0.672646 6.26012 0.672646Z" fill="white"/>
<path d="M10.2063 3.90136C10.8863 3.90136 11.4395 3.34816 11.4395 2.66818C11.4395 1.9882 10.8863 1.435 10.2063 1.435C9.52635 1.435 8.97314 1.9882 8.97314 2.66818C8.97314 3.34816 9.52635 3.90136 10.2063 3.90136ZM10.2063 2.10764C10.5154 2.10764 10.7669 2.3591 10.7669 2.66818C10.7669 2.97726 10.5154 3.22872 10.2063 3.22872C9.89725 3.22872 9.64579 2.97726 9.64579 2.66818C9.64579 2.3591 9.89725 2.10764 10.2063 2.10764Z" fill="white"/>
<path d="M10.4775 4.6637H9.95736C9.34438 4.6637 8.81523 5.02585 8.57411 5.54603C8.07767 5.0041 7.3646 4.6637 6.57348 4.6637H5.94664C5.15552 4.6637 4.44245 5.0041 3.94602 5.54603C3.70487 5.02585 3.17572 4.6637 2.56274 4.6637H2.04256C1.2031 4.6637 0.520142 5.34253 0.520142 6.17692V8.62558C0.520142 8.98782 0.815971 9.28253 1.1796 9.28253H3.23626C3.27075 9.68388 3.60824 10 4.01839 10H8.50173C8.91187 10 9.24936 9.68388 9.28386 9.28253H11.317C11.6936 9.28253 12 8.97737 12 8.60226V6.17692C12 5.34253 11.317 4.6637 10.4775 4.6637V4.6637ZM1.19279 6.17692C1.19279 5.71343 1.574 5.33634 2.04256 5.33634H2.56274C3.03131 5.33634 3.41252 5.71343 3.41252 6.17692V6.40722C3.18635 6.9961 3.23315 7.34901 3.23315 8.60988H1.19279V6.17692ZM8.61431 9.21479C8.61431 9.27688 8.56382 9.32737 8.50173 9.32737H4.01837C3.95628 9.32737 3.90579 9.27686 3.90579 9.21479V7.37719C3.90579 6.25186 4.82131 5.33634 5.94662 5.33634H6.57346C7.6988 5.33634 8.61431 6.25186 8.61431 7.37717V9.21479ZM11.3273 8.60226C11.3273 8.61385 11.4527 8.60988 9.28696 8.60988C9.28696 7.33968 9.33339 6.99513 9.10759 6.40722V6.17692C9.10759 5.71343 9.4888 5.33634 9.95736 5.33634H10.4775C10.9461 5.33634 11.3273 5.71343 11.3273 6.17692V8.60226Z" fill="white"/>
<path d="M2.31387 3.90136C2.99385 3.90136 3.54706 3.34816 3.54706 2.66818C3.54706 1.9882 2.99385 1.435 2.31387 1.435C1.63389 1.435 1.08069 1.9882 1.08069 2.66818C1.08069 3.34816 1.63389 3.90136 2.31387 3.90136ZM2.31387 2.10764C2.62295 2.10764 2.87441 2.3591 2.87441 2.66818C2.87441 2.97726 2.62295 3.22872 2.31387 3.22872C2.00479 3.22872 1.75333 2.97726 1.75333 2.66818C1.75333 2.3591 2.00479 2.10764 2.31387 2.10764Z" fill="white"/>
</svg>
