<svg width="10" height="12" viewBox="0 0 10 12" fill="none" xmlns="http://www.w3.org/2000/svg">
<path d="M10 10.463C10 10.7187 9.79273 10.9259 9.53704 10.9259H9.07407V11.3889C9.07407 11.6446 8.86681 11.8519 8.61111 11.8519C8.35542 11.8519 8.14815 11.6446 8.14815 11.3889V10.9259H7.68518C7.42949 10.9259 7.22222 10.7187 7.22222 10.463C7.22222 10.2073 7.42949 10 7.68518 10H8.14815V9.53704C8.14815 9.28134 8.35542 9.07407 8.61111 9.07407C8.86681 9.07407 9.07407 9.28134 9.07407 9.53704V10H9.53704C9.79273 10 10 10.2073 10 10.463ZM10 3.24074V7.68518C10 7.94088 9.79273 8.14815 9.53704 8.14815C9.28134 8.14815 9.07407 7.94088 9.07407 7.68518V3.7037H8.14815V5.09259C8.14815 5.34829 7.94088 5.55556 7.68518 5.55556C7.42949 5.55556 7.22222 5.34829 7.22222 5.09259V3.7037H2.77778V5.09259C2.77778 5.34829 2.57051 5.55556 2.31481 5.55556C2.05912 5.55556 1.85185 5.34829 1.85185 5.09259V3.7037H0.925926V10.9259H5.83333C6.08903 10.9259 6.2963 11.1332 6.2963 11.3889C6.2963 11.6446 6.08903 11.8519 5.83333 11.8519H0.462963C0.207269 11.8519 0 11.6446 0 11.3889V3.24074C0 2.98505 0.207269 2.77778 0.462963 2.77778H1.87375C2.05766 1.21581 3.38942 0 5 0C6.61058 0 7.94234 1.21581 8.12625 2.77778H9.53704C9.79273 2.77778 10 2.98505 10 3.24074ZM7.19118 2.77778C7.01433 1.72812 6.09914 0.925926 5 0.925926C3.90086 0.925926 2.98567 1.72812 2.80882 2.77778H7.19118Z" fill="white"/>
</svg>
