<?xml version="1.0" encoding="UTF-8"?>
<svg width="544px" height="467px" viewBox="0 0 544 467" version="1.1" xmlns="http://www.w3.org/2000/svg" xmlns:xlink="http://www.w3.org/1999/xlink">
    <title>Group 29 Copy@1x</title>
    <g id="Page-1" stroke="none" stroke-width="1" fill="none" fill-rule="evenodd">
        <g id="Group-29-Copy">
            <path d="M523.41153,463.581781 C519.100838,460.166729 519.009671,456.87778 522.380255,450.99324 C525.75084,445.108701 529.809448,442.500095 534.124027,443.078718 C539.207051,443.760396 544.246771,450.378147 543.990633,456.527489 C543.734496,462.67683 538.943375,465.519059 536.233961,466.436481 C532.653636,467.648797 527.722222,466.996833 523.41153,463.581781 Z" id="Path-14-Copy-3" fill="#2A5DDE" transform="translate(532.000000, 455.000000) scale(1, -1) translate(-532.000000, -455.000000) "></path>
            <path d="M20.9726695,332.941328 C28.6993711,335.816801 31.3506683,332.950692 31.925539,322.918233 C32.5004098,312.885774 29.7299256,304.879199 24.1923927,299.417442 C17.6686041,292.982924 6.6048133,292.009787 2.15095069,297.960617 C-2.30291192,303.911448 1.15104688,313.147261 3.63785409,317.742455 C6.92401679,323.814721 13.245968,330.065856 20.9726695,332.941328 Z" id="Path-14" fill="#FEC311"></path>
            <path d="M104.486335,15.5765313 C108.349686,16.7267202 109.675334,15.5802769 109.96277,11.5672932 C110.250205,7.55430941 108.864963,4.35167973 106.096196,2.16697669 C102.834302,-0.406830303 97.3024066,-0.796085117 95.0754753,1.58424697 C92.848544,3.96457905 94.5755234,7.65890436 95.818927,9.49698194 C97.4620084,11.9258884 100.622984,14.4263424 104.486335,15.5765313 Z" id="Path-14-Copy" fill="#2A5DDE" transform="translate(102.000000, 8.000000) scale(-1, 1) translate(-102.000000, -8.000000) "></path>
            <path d="M488.41153,54.5817812 C484.100838,51.1667294 484.009671,47.8777802 487.380255,41.9932403 C490.75084,36.1087005 494.809448,33.5000951 499.124027,34.078718 C504.207051,34.7603958 509.246771,41.378147 508.990633,47.5274887 C508.734496,53.6768304 503.943375,56.5190591 501.233961,57.4364808 C497.653636,58.6487971 492.722222,57.996833 488.41153,54.5817812 Z" id="Path-14-Copy-2" fill="#FEC311"></path>
        </g>
    </g>
</svg>