<?xml version="1.0" encoding="UTF-8"?>
<svg width="12px" height="12px" viewBox="0 0 12 12" version="1.1" xmlns="http://www.w3.org/2000/svg" xmlns:xlink="http://www.w3.org/1999/xlink">
    <title>bxs-star copy 4</title>
    <defs>
        <path d="M11.9682855,4.3074 C11.8908829,4.0806 11.6862762,3.9204 11.4474684,3.9018 L8.02675665,3.63 L6.54650828,0.3534 C6.44990512,0.138 6.23569812,0 5.99989041,0 C5.76408271,0 5.54987571,0.138 5.45327255,0.3528 L3.97302417,3.63 L0.552312385,3.9018 C0.317704718,3.9204 0.115498109,4.0746 0.0356955014,4.296 C-0.0441071065,4.5174 0.0122947367,4.7652 0.180900247,4.9296 L2.70878286,7.3938 L1.81475364,11.265 C1.75955184,11.5044 1.85615499,11.7534 2.0583616,11.8932 C2.16156498,11.964 2.28036886,12 2.39977276,12 C2.51557654,12 2.63198035,11.9664 2.73278364,11.8992 L5.99989041,9.7212 L9.26699718,11.8992 C9.47580401,12.0384 9.75001297,12.033 9.95401963,11.8848 C10.1568263,11.7366 10.2462292,11.4768 10.1772269,11.2356 L9.07979106,7.3956 L11.80148,4.9464 C11.9796858,4.7856 12.045088,4.5348 11.9682855,4.3074 Z" id="path-1"></path>
    </defs>
    <g id="Symbols" stroke="none" stroke-width="1" fill="none" fill-rule="evenodd">
        <g id="Menu" transform="translate(-438.000000, -4.000000)">
            <g id="Group-2" transform="translate(343.000000, 0.000000)">
                <g id="Group-22" transform="translate(31.000000, 4.000000)">
                    <g id="Path-2" transform="translate(64.000000, 0.000000)">
                        <mask id="mask-2" fill="white">
                            <use xlink:href="#path-1"></use>
                        </mask>
                        <use id="Mask" fill="#FEC311" fill-rule="nonzero" xlink:href="#path-1"></use>
                        <polygon fill="#E4E9EC" mask="url(#mask-2)" points="6 0 12 0 12 12 6 12"></polygon>
                    </g>
                </g>
            </g>
        </g>
    </g>
</svg>