<svg width="16" height="16" viewBox="0 0 16 16" fill="none" xmlns="http://www.w3.org/2000/svg">
<g clip-path="url(#clip0)">
<path d="M9.79166 9.58331H0.20834C0.0933398 9.58331 0 9.67663 0 9.79163C0 9.90663 0.0933398 9.99997 0.20834 9.99997H9.79168C9.90668 9.99997 10 9.90663 10 9.79163C10 9.67663 9.90666 9.58331 9.79166 9.58331Z" fill="white"/>
<path d="M1.87497 7.08331H0.624966C0.509966 7.08331 0.416626 7.17665 0.416626 7.29165V9.79166C0.416626 9.90664 0.509966 9.99998 0.624966 9.99998H1.87497C1.98997 9.99998 2.08331 9.90664 2.08331 9.79164V7.29163C2.08331 7.17663 1.98997 7.08331 1.87497 7.08331ZM1.66663 9.58332H0.833306V7.49997H1.66665V9.58332H1.66663Z" fill="white"/>
<path d="M4.37497 5H3.12497C3.00997 5 2.91663 5.09334 2.91663 5.20834V9.79168C2.91663 9.90668 3.00997 10 3.12497 10H4.37497C4.48997 10 4.58331 9.90668 4.58331 9.79168V5.20834C4.58331 5.09334 4.48997 5 4.37497 5ZM4.16663 9.58334H3.33329V5.41666H4.16663V9.58334Z" fill="white"/>
<path d="M6.87496 5.83337H5.62497C5.50997 5.83337 5.41663 5.92671 5.41663 6.04171V9.79172C5.41663 9.90672 5.50997 10.0001 5.62497 10.0001H6.87496C6.98996 10.0001 7.0833 9.90672 7.0833 9.79172V6.04171C7.0833 5.92669 6.98996 5.83337 6.87496 5.83337ZM6.66662 9.58338H5.83329V6.25003H6.66662V9.58338V9.58338Z" fill="white"/>
<path d="M9.37496 3.33331H8.12497C8.00997 3.33331 7.91663 3.42665 7.91663 3.54165V9.79165C7.91663 9.90665 8.00997 9.99999 8.12497 9.99999H9.37496C9.48996 9.99999 9.5833 9.90665 9.5833 9.79165V3.54165C9.5833 3.42663 9.48996 3.33331 9.37496 3.33331ZM9.16662 9.58331H8.33329V3.74997H9.16662V9.58331V9.58331Z" fill="white"/>
<path d="M1.24997 3.75C0.790376 3.75 0.416626 4.12375 0.416626 4.58334C0.416626 5.04293 0.790376 5.41668 1.24997 5.41668C1.70956 5.41668 2.08331 5.04293 2.08331 4.58334C2.08331 4.12375 1.70956 3.75 1.24997 3.75ZM1.24997 5C1.01997 5 0.833306 4.81291 0.833306 4.58334C0.833306 4.35375 1.01997 4.16668 1.24997 4.16668C1.47997 4.16668 1.66663 4.35377 1.66663 4.58334C1.66663 4.81291 1.47997 5 1.24997 5Z" fill="white"/>
<path d="M3.74997 1.66669C3.29038 1.66669 2.91663 2.04044 2.91663 2.50003C2.91663 2.95962 3.29038 3.33337 3.74997 3.33337C4.20956 3.33337 4.58331 2.95962 4.58331 2.50003C4.58331 2.04044 4.20956 1.66669 3.74997 1.66669ZM3.74997 2.91669C3.51997 2.91669 3.33331 2.7296 3.33331 2.50003C3.33331 2.27044 3.51997 2.08337 3.74997 2.08337C3.97997 2.08337 4.16663 2.27046 4.16663 2.50003C4.16663 2.72962 3.97997 2.91669 3.74997 2.91669Z" fill="white"/>
<path d="M6.24996 2.5C5.79038 2.5 5.41663 2.87375 5.41663 3.33334C5.41663 3.79293 5.79038 4.16668 6.24996 4.16668C6.70955 4.16668 7.0833 3.79293 7.0833 3.33334C7.0833 2.87375 6.70955 2.5 6.24996 2.5ZM6.24996 3.75C6.01997 3.75 5.83331 3.56291 5.83331 3.33334C5.83331 3.10375 6.01997 2.91668 6.24996 2.91668C6.47996 2.91668 6.66662 3.10377 6.66662 3.33334C6.66662 3.56291 6.47996 3.75 6.24996 3.75Z" fill="white"/>
<path d="M8.74996 0C8.29038 0 7.91663 0.37375 7.91663 0.83334C7.91663 1.29293 8.29038 1.66668 8.74996 1.66668C9.20955 1.66668 9.5833 1.29293 9.5833 0.83334C9.5833 0.37375 9.20955 0 8.74996 0ZM8.74996 1.25C8.51996 1.25 8.3333 1.06291 8.3333 0.83334C8.3333 0.60375 8.51996 0.41668 8.74996 0.41668C8.97996 0.41668 9.16662 0.60377 9.16662 0.83334C9.16662 1.06291 8.97996 1.25 8.74996 1.25Z" fill="white"/>
<path d="M8.45583 1.12747C8.37458 1.04622 8.24249 1.04622 8.16124 1.12747L6.54458 2.74413C6.46333 2.82538 6.46333 2.95747 6.54458 3.03872C6.58542 3.07913 6.63874 3.09956 6.69208 3.09956C6.74499 3.09956 6.79833 3.07956 6.83917 3.03872L8.45583 1.42206C8.53708 1.34081 8.53708 1.20872 8.45583 1.12747Z" fill="white"/>
<path d="M5.74621 2.85251L4.40787 2.47084C4.29578 2.43834 4.18204 2.50334 4.15079 2.61418C4.11912 2.72502 4.18329 2.84002 4.2937 2.87168L5.63203 3.25334C5.65119 3.25875 5.67037 3.26125 5.68912 3.26125C5.77996 3.26125 5.86328 3.20166 5.88953 3.11C5.92121 2.99959 5.85705 2.88417 5.74621 2.85251Z" fill="white"/>
<path d="M3.42505 2.75962C3.35339 2.66962 3.22255 2.65503 3.13255 2.72628L1.56172 3.97878C1.47172 4.05087 1.45672 4.18169 1.52881 4.27169C1.57006 4.32335 1.6309 4.35003 1.69172 4.35003C1.73713 4.35003 1.78297 4.33503 1.82131 4.30503L3.39214 3.05253C3.48214 2.98044 3.49714 2.84962 3.42505 2.75962Z" fill="white"/>
</g>
<defs>
<clipPath id="clip0">
<rect width="16" height="16" fill="white"/>
</clipPath>
</defs>
</svg>
