<?xml version="1.0" encoding="UTF-8"?>
<svg width="50px" height="50px" viewBox="0 0 50 50" version="1.1" xmlns="http://www.w3.org/2000/svg" xmlns:xlink="http://www.w3.org/1999/xlink">
    <title>Group 3@1x</title>
    <g id="Symbols" stroke="none" stroke-width="1" fill="none" fill-rule="evenodd">
        <g id="Menu" transform="translate(-863.000000, -59.000000)">
            <g id="Group-45" transform="translate(0.000000, 48.000000)">
                <g id="Group-3" transform="translate(864.000000, 12.000000)">
                    <rect id="Rectangle-Copy" stroke="#039BE5" fill-opacity="0.8" fill="#FFFFFF" x="-0.5" y="-0.5" width="49" height="49" rx="8"></rect>
                    <g id="telegram-(4)" transform="translate(12.000000, 8.000000)" fill="#039BE5" fill-rule="nonzero">
                        <path d="M8.63262034,11.8632038 L8.26869494,16.888778 C8.78937411,16.888778 9.01487952,16.6691791 9.28530268,16.4054805 L11.7264446,14.1149922 L16.7847328,17.7518735 C17.7124217,18.2594709 18.3660208,17.9921723 18.6162768,16.9139778 L21.9365232,1.6392565 L21.9374399,1.6383565 C22.2316969,0.291963439 21.4415113,-0.234533849 20.5376562,0.0957644495 L1.02135423,7.43162667 C-0.310594423,7.93922405 -0.290427272,8.6682203 0.794932126,8.9985186 L5.78446861,10.5222108 L17.3741636,3.40234742 C17.9195934,3.04774925 18.4155219,3.24394824 18.0075955,3.59854641 L8.63262034,11.8632038 Z" id="Path"></path>
                    </g>
                    <path d="M48.5,31.5 L48.5,41 C48.5,43.0710678 47.6605339,44.9460678 46.3033009,46.3033009 C44.9460678,47.6605339 43.0710678,48.5 41,48.5 L41,48.5 L7,48.5 C4.92893219,48.5 3.05393219,47.6605339 1.69669914,46.3033009 C0.339466094,44.9460678 -0.5,43.0710678 -0.5,41 L-0.5,41 L-0.5,31.5 L48.5,31.5 Z" id="Rectangle" stroke="#039BE5" fill="#039BE5"></path>
                    <path d="M19.026,44.144 C19.826,44.144 20.43,43.862 20.838,43.298 C21.246,42.734 21.45,41.916 21.45,40.844 C21.45,39.772 21.246,38.956 20.838,38.396 C20.43,37.836 19.826,37.556 19.026,37.556 C18.618,37.556 18.256,37.668 17.94,37.892 C17.624,38.116 17.422,38.404 17.334,38.756 L17.334,38.756 L17.274,38.756 L17.274,35.12 L15.498,35.12 L15.498,44 L17.274,44 L17.274,42.944 L17.334,42.944 C17.382,43.112 17.458,43.27 17.562,43.418 C17.666,43.566 17.792,43.694 17.94,43.802 C18.088,43.91 18.254,43.994 18.438,44.054 C18.622,44.114 18.818,44.144 19.026,44.144 Z M18.438,42.704 C18.102,42.704 17.824,42.622 17.604,42.458 C17.384,42.294 17.274,42.068 17.274,41.78 L17.274,41.78 L17.274,39.92 C17.274,39.632 17.384,39.406 17.604,39.242 C17.824,39.078 18.102,38.996 18.438,38.996 C18.774,38.996 19.052,39.114 19.272,39.35 C19.492,39.586 19.602,39.904 19.602,40.304 L19.602,40.304 L19.602,41.396 C19.602,41.796 19.492,42.114 19.272,42.35 C19.052,42.586 18.774,42.704 18.438,42.704 Z M25.35,44.144 C25.814,44.144 26.228,44.068 26.592,43.916 C26.956,43.764 27.264,43.544 27.516,43.256 C27.768,42.968 27.962,42.62 28.098,42.212 C28.234,41.804 28.302,41.348 28.302,40.844 C28.302,40.34 28.234,39.884 28.098,39.476 C27.962,39.068 27.768,38.722 27.516,38.438 C27.264,38.154 26.956,37.936 26.592,37.784 C26.228,37.632 25.814,37.556 25.35,37.556 C24.886,37.556 24.472,37.632 24.108,37.784 C23.744,37.936 23.436,38.154 23.184,38.438 C22.932,38.722 22.738,39.068 22.602,39.476 C22.466,39.884 22.398,40.34 22.398,40.844 C22.398,41.348 22.466,41.804 22.602,42.212 C22.738,42.62 22.932,42.968 23.184,43.256 C23.436,43.544 23.744,43.764 24.108,43.916 C24.472,44.068 24.886,44.144 25.35,44.144 Z M25.35,42.74 C24.998,42.74 24.726,42.632 24.534,42.416 C24.342,42.2 24.246,41.892 24.246,41.492 L24.246,41.492 L24.246,40.208 C24.246,39.808 24.342,39.5 24.534,39.284 C24.726,39.068 24.998,38.96 25.35,38.96 C25.702,38.96 25.974,39.068 26.166,39.284 C26.358,39.5 26.454,39.808 26.454,40.208 L26.454,40.208 L26.454,41.492 C26.454,41.892 26.358,42.2 26.166,42.416 C25.974,42.632 25.702,42.74 25.35,42.74 Z M32.826,44 L32.826,42.62 L31.674,42.62 L31.674,39.08 L32.922,39.08 L32.922,37.7 L31.674,37.7 L31.674,35.996 L30.078,35.996 L30.078,37.028 C30.078,37.244 30.034,37.41 29.946,37.526 C29.858,37.642 29.694,37.7 29.454,37.7 L29.454,37.7 L29.01,37.7 L29.01,39.08 L29.898,39.08 L29.898,42.164 C29.898,42.764 30.056,43.22 30.372,43.532 C30.688,43.844 31.154,44 31.77,44 L31.77,44 L32.826,44 Z" id="bot" fill="#FFFFFF" fill-rule="nonzero"></path>
                </g>
            </g>
        </g>
    </g>
</svg>