<?xml version="1.0" encoding="UTF-8"?>
<svg width="18px" height="16px" viewBox="0 0 18 16" version="1.1" xmlns="http://www.w3.org/2000/svg" xmlns:xlink="http://www.w3.org/1999/xlink">
    <title>telegram@1x</title>
    <g id="Page-1" stroke="none" stroke-width="1" fill="none" fill-rule="evenodd">
        <g id="ШФ_Новости-2" transform="translate(-761.000000, -1396.000000)" fill="#039BE5" fill-rule="nonzero">
            <g id="Group-11" transform="translate(570.000000, 1384.000000)">
                <g id="Group-7" transform="translate(180.000000, 0.000000)">
                    <g id="telegram" transform="translate(11.000000, 12.000000)">
                        <path d="M7.06305301,10.5450701 L6.76529586,15.0122471 C7.19130609,15.0122471 7.37581052,14.8170481 7.59706583,14.5826493 L9.5943638,12.5466598 L13.7329632,15.7794431 C14.4919814,16.2306408 15.0267443,15.993042 15.2314992,15.034647 L17.9480644,1.45711689 L17.9488144,1.45631689 C18.1895702,0.259523057 17.5430547,-0.208474533 16.8035369,0.0851239551 L0.835653461,6.60589037 C-0.254122709,7.05708805 -0.237622313,7.70508471 0.650399012,7.9986832 L4.73274705,9.35307622 L14.2152248,3.02430882 C14.6614855,2.70911044 15.0672452,2.88350954 14.7334872,3.19870792 L7.06305301,10.5450701 Z" id="Path"></path>
                    </g>
                </g>
            </g>
        </g>
    </g>
</svg>