<?xml version="1.0" encoding="UTF-8"?>
<svg width="20px" height="16px" viewBox="0 0 20 16" version="1.1" xmlns="http://www.w3.org/2000/svg" xmlns:xlink="http://www.w3.org/1999/xlink">
    <title>twitter@1x</title>
    <g id="Page-1" stroke="none" stroke-width="1" fill="none" fill-rule="evenodd">
        <g id="ШФ_Новости-2" transform="translate(-700.000000, -1396.000000)" fill="#03A9F4" fill-rule="nonzero">
            <g id="Group-11" transform="translate(570.000000, 1384.000000)">
                <g id="Group-8" transform="translate(120.000000, 0.000000)">
                    <g id="twitter" transform="translate(10.000000, 12.000000)">
                        <path d="M20,1.89415385 C19.25625,2.21538462 18.46375,2.42830769 17.6375,2.53169231 C18.4875,2.032 19.13625,1.24676923 19.44125,0.300307692 C18.64875,0.765538462 17.77375,1.09415385 16.84125,1.27753846 C16.08875,0.488615385 15.01625,0 13.84625,0 C11.57625,0 9.74875,1.81415385 9.74875,4.03815385 C9.74875,4.35815385 9.77625,4.66584615 9.84375,4.95876923 C6.435,4.79507692 3.41875,3.18646154 1.3925,0.736 C1.03875,1.34030769 0.83125,2.032 0.83125,2.77661538 C0.83125,4.17476923 1.5625,5.41415385 2.6525,6.13169231 C1.99375,6.11938462 1.3475,5.93107692 0.8,5.63446154 C0.8,5.64676923 0.8,5.66276923 0.8,5.67876923 C0.8,7.64061538 2.22125,9.27015385 4.085,9.64553846 C3.75125,9.73538462 3.3875,9.77846154 3.01,9.77846154 C2.7475,9.77846154 2.4825,9.76369231 2.23375,9.70953846 C2.765,11.3083077 4.2725,12.4836923 6.065,12.5218462 C4.67,13.5963077 2.89875,14.2436923 0.98125,14.2436923 C0.645,14.2436923 0.3225,14.2289231 0,14.1883077 C1.81625,15.3415385 3.96875,16 6.29,16 C13.835,16 17.96,9.84615385 17.96,4.512 C17.96,4.33353846 17.95375,4.16123077 17.945,3.99015385 C18.75875,3.42153846 19.4425,2.71138462 20,1.89415385 Z" id="Path"></path>
                    </g>
                </g>
            </g>
        </g>
    </g>
</svg>