<?xml version="1.0" encoding="UTF-8"?>
<svg width="64px" height="12px" viewBox="0 0 64 12" version="1.1" xmlns="http://www.w3.org/2000/svg" xmlns:xlink="http://www.w3.org/1999/xlink">
    <title>Group 19</title>
    <g id="Symbols" stroke="none" stroke-width="1" fill="none" fill-rule="evenodd">
        <g id="Footer" transform="translate(-72.000000, -389.000000)">
            <g id="Group-19" transform="translate(72.000000, 389.000000)">
                <g id="Group-27">
                    <ellipse id="Oval-Copy-3" fill="#E2574C" cx="6.15384615" cy="6" rx="6.15384615" ry="6"></ellipse>
                    <ellipse id="Oval-Copy-4" fill="#F4B459" cx="13.8461538" cy="6" rx="6.15384615" ry="6"></ellipse>
                    <path d="M12.3076923,5.99931908 C12.3076923,7.89410751 11.4068654,9.58344603 10,10.6830368 C8.59313464,9.58344603 7.69230769,7.89410751 7.69230769,5.99931908 C7.69230769,4.10453064 8.59313464,2.41519212 10,1.31560135 C11.4068654,2.41519212 12.3076923,4.10453064 12.3076923,5.99931908 Z" id="Path" fill="#FF5F00"></path>
                </g>
                <g id="visa-pay-logo" transform="translate(27.000000, 0.000000)">
                    <path d="M24.0708125,0.4155 C25.2316875,0.4155 26.1620833,0.648 26.755625,0.86475 L26.755625,0.86475 L26.3501667,3.18375 L26.0796042,3.06 C25.5276875,2.844 24.8169792,2.6355 23.8364792,2.6505 C22.6632708,2.6505 22.1190625,3.126 22.1190625,3.57075 C22.1128958,4.07175 22.7542292,4.40175 23.8025625,4.89825 C25.534625,5.6595 26.3339792,6.58725 26.320875,7.803 C26.2992917,10.02525 24.2519583,11.45925 21.1015625,11.45925 C19.758,11.44575 18.4637708,11.1885 17.7623125,10.88925 L17.7623125,10.88925 L18.1839583,8.4945 L18.5701458,8.6655 C19.5545,9.0645 20.1919792,9.22575 21.3921667,9.22575 C22.2531875,9.22575 23.1751042,8.89725 23.1843542,8.181 C23.18975,7.71225 22.7981667,7.3785 21.6303542,6.8535 C20.4926042,6.34125 18.9863958,5.48325 19.0056667,3.9465 C19.0218542,1.86675 21.1092708,0.4155 24.0708125,0.4155 Z M34.447,0.61125 L36.8720417,11.30475 L34.0916458,11.30475 C34.0916458,11.30475 34.013151,10.9550967 33.9263244,10.5720922 L33.8607384,10.2835278 C33.8066088,10.0460833 33.7560764,9.8265 33.7262708,9.702 L33.7262708,9.702 L33.2607141,9.70160781 C33.2055903,9.70154696 33.1470527,9.70148018 33.0856025,9.70140834 L32.4674392,9.70064763 C32.3930231,9.70055297 32.3171976,9.70045577 32.240464,9.70035687 L31.7731719,9.69975 C31.6948097,9.69964773 31.6165414,9.69954545 31.5388682,9.69944403 L30.869406,9.69857682 C30.7998131,9.69848807 30.7323185,9.6984027 30.6674235,9.69832156 L29.8882917,9.6975 C29.8446432,9.80578125 29.7451696,10.0588711 29.6378777,10.332936 L29.5297578,10.6094063 C29.3868646,10.975125 29.2585208,11.30475 29.2585208,11.30475 L29.2585208,11.30475 L26.1112083,11.30475 L30.5612292,1.49925 C30.8772708,0.80175 31.4122292,0.61125 32.1314167,0.61125 L32.1314167,0.61125 L34.447,0.61125 Z M17.7623125,0.59925 L15.886875,11.29875 L12.889875,11.29875 L14.7637708,0.59925 L17.7623125,0.59925 Z M13.5520208,0.609 L8.83220833,11.28825 L5.661,11.2935 L2.97695833,2.37075 C4.90635417,3.57225 6.54977083,5.47875 7.12866667,6.80625 L7.12866667,6.80625 L7.441625,7.908 L10.3769583,0.61125 L13.5520208,0.609 Z M32.3441667,3.49575 C32.1892292,3.8985 31.9286875,4.5465 31.944875,4.51725 C31.944875,4.51725 31.8642841,4.719375 31.7439934,5.02095947 L31.6321184,5.30142334 C31.3328936,6.05150391 30.9050208,7.12359375 30.7508542,7.5075 L30.7508542,7.5075 L33.2406458,7.5075 C33.1203958,6.97275 32.546125,4.41825 32.546125,4.41825 L32.546125,4.41825 Z" id="Combined-Shape" fill="#2394BC"></path>
                    <path d="M5.99091667,1.377 C5.81670833,0.72525 5.3118125,0.531 4.685125,0.50775 L0.0385416667,0.50775 L0,0.72075 C3.61597917,1.57425 6.00864583,3.63075 7.00147917,6.1035 L5.99091667,1.377 Z" id="Path" fill="#F4B459"></path>
                </g>
            </g>
        </g>
    </g>
</svg>