<?xml version="1.0" encoding="UTF-8"?>
<svg width="28px" height="16px" viewBox="0 0 28 16" version="1.1" xmlns="http://www.w3.org/2000/svg" xmlns:xlink="http://www.w3.org/1999/xlink">
    <title>vk@1x</title>
    <g id="Page-1" stroke="none" stroke-width="1" fill="none" fill-rule="evenodd">
        <g id="ШФ_Новости-2" transform="translate(-576.000000, -1396.000000)" fill="#4A76A8" fill-rule="nonzero">
            <g id="Group-11" transform="translate(570.000000, 1384.000000)">
                <g id="vk" transform="translate(6.000000, 12.000000)">
                    <path d="M27.7504276,14.2709925 C27.6751721,14.1447949 27.2096379,13.1317087 24.9694735,11.0494485 C22.6243013,8.86903458 22.9393245,9.22308892 25.7640318,5.45293596 C27.4844081,3.15684094 28.1722086,1.75464551 27.9569428,1.15520696 C27.7521777,0.583812327 26.4868349,0.734548336 26.4868349,0.734548336 L22.279526,0.759086756 C22.279526,0.759086756 21.9680032,0.717020893 21.7352361,0.855487692 C21.5094695,0.992201746 21.3642089,1.30769572 21.3642089,1.30769572 C21.3642089,1.30769572 20.6974099,3.08497843 19.8083447,4.595844 C17.9339571,7.78408586 17.183152,7.95234931 16.8768795,7.75428921 C16.1645772,7.29331746 16.3430903,5.89988575 16.3430903,4.91133797 C16.3430903,1.82124979 16.8103746,0.532982743 15.4312734,0.199961328 C14.9727397,0.0895384376 14.636715,0.0159231775 13.4658791,0.00365396751 C11.9642689,-0.0121207311 10.6919255,0.00891220038 9.97262269,0.361213802 C9.4930875,0.596081537 9.12381039,1.12015208 9.34957696,1.14994873 C9.62784739,1.18675636 10.2578936,1.31996493 10.5921682,1.77567844 C11.0244499,2.36284778 11.0086987,3.68441697 11.0086987,3.68441697 C11.0086987,3.68441697 11.257217,7.32136137 10.4294062,7.7735694 C9.86061447,8.08380514 9.08180731,7.45106445 7.41043463,4.55728363 C6.55462181,3.0762147 5.90707428,1.4373988 5.90707428,1.4373988 C5.90707428,1.4373988 5.78281516,1.13242129 5.56054884,0.96941607 C5.29102906,0.771355966 4.91300131,0.708257171 4.91300131,0.708257171 L0.912207646,0.732795591 C0.912207646,0.732795591 0.311913584,0.750323034 0.0913973974,1.01148193 C-0.10461699,1.24459692 0.0756462412,1.72484886 0.0756462412,1.72484886 C0.0756462412,1.72484886 3.20837619,9.06358919 6.75413645,12.7636324 C10.0076253,16.1551926 13.7003963,15.9325941 13.7003963,15.9325941 L15.3735191,15.9325941 C15.3735191,15.9325941 15.8793063,15.8765062 16.1365751,15.5978199 C16.3745926,15.3419192 16.365842,14.8616673 16.365842,14.8616673 C16.365842,14.8616673 16.3325895,12.6128964 17.3756661,12.2816277 C18.4029915,11.9556173 19.7225884,14.4550306 21.120941,15.4172872 C22.1780186,16.1446761 22.9813276,15.9851764 22.9813276,15.9851764 L26.7213521,15.9325941 C26.7213521,15.9325941 28.6779957,15.8116547 27.7504276,14.2709925 Z" id="Path"></path>
                </g>
            </g>
        </g>
    </g>
</svg>