<?xml version="1.0" encoding="UTF-8"?>
<svg width="32px" height="32px" viewBox="0 0 32 32" version="1.1" xmlns="http://www.w3.org/2000/svg" xmlns:xlink="http://www.w3.org/1999/xlink">
    <title>vk 2</title>
    <g id="Symbols" stroke="none" stroke-width="1" fill="none" fill-rule="evenodd">
        <g id="Footer" transform="translate(-72.000000, -328.000000)" fill="#4B76A8" fill-rule="nonzero">
            <g id="vk" transform="translate(72.000000, 328.000000)">
                <path d="M16,0 C24.836556,0 32,7.163444 32,16 C32,24.836556 24.836556,32 16,32 C7.163444,32 0,24.836556 0,16 C0,7.163444 7.163444,0 16,0 Z M13.1222061,11.2711552 C12.7800987,11.4473465 12.5161873,11.8399935 12.6769235,11.8625528 C12.8756716,11.8905378 13.3258415,11.9901987 13.5645021,12.3320157 C13.8315812,12.714135 13.8590343,13.5089297 13.8616071,13.7140818 L13.8618098,13.7632494 L13.8618098,13.7632494 C13.8618098,13.7632494 14.0388368,16.491503 13.4482942,16.8304644 C13.0429241,17.0629113 12.4868638,16.5883083 11.2930175,14.4186128 C10.6812969,13.3072079 10.2194518,12.0787228 10.2194518,12.0787228 C10.2194518,12.0787228 10.1303953,11.8491314 9.97155972,11.72634 C9.77878491,11.5775625 9.50944319,11.5301593 9.50944319,11.5301593 L6.6517602,11.5498631 C6.6517602,11.5498631 6.22276836,11.5624278 6.06529034,11.7586085 C5.92518921,11.9330865 6.05415828,12.2940361 6.05415828,12.2940361 C6.05415828,12.2940361 8.29143218,17.7990886 10.8246562,20.5733175 C12.790103,22.7255059 14.9810508,22.9370055 15.6086692,22.9511429 L15.7397336,22.9514151 C15.7696057,22.9507479 15.7852137,22.9497594 15.7852137,22.9497594 L16.9806891,22.9497594 C16.9806891,22.9497594 17.3418025,22.9080675 17.5261603,22.6990365 C17.6770014,22.5284612 17.6894709,22.2247649 17.6903797,22.1593827 L17.6905728,22.0943258 C17.6940183,21.8075234 17.7454435,20.4335127 18.4115669,20.2112257 C19.1454688,19.9664996 20.0878933,21.8417812 21.0867926,22.5628238 C21.8421441,23.1085316 22.4161243,22.9888813 22.4161243,22.9888813 L25.0870058,22.9497594 C25.0870058,22.9497594 26.4842159,22.8592365 25.8217222,21.7038551 C25.7674194,21.6093343 25.4359011,20.8491698 23.8358701,19.287149 C22.1611728,17.65231 22.3854432,17.9167399 24.402791,15.0888254 C25.631391,13.3666047 26.1225595,12.3151676 25.9691542,11.8648373 C25.8228083,11.4359241 24.9192102,11.549292 24.9192102,11.549292 L21.9119231,11.5689957 C21.9119231,11.5689957 21.6890103,11.5370128 21.5236584,11.6409572 C21.3621076,11.7429026 21.2581179,11.9804897 21.2581179,11.9804897 C21.2581179,11.9804897 20.7821541,13.3132047 20.1473548,14.4465978 C18.8082486,16.8381745 18.2728234,16.9643926 18.0539832,16.8159007 C17.5448948,16.4698003 17.6719633,15.4255023 17.6719633,14.6836138 C17.6719633,12.3659975 18.0061968,11.3996578 17.0211446,11.149506 C16.694242,11.0664076 16.4536807,11.0115799 15.6176897,11.0027275 C14.5446671,10.9910194 13.6364533,11.0061542 13.1222061,11.2711552 Z" id="Combined-Shape"></path>
            </g>
        </g>
    </g>
</svg>