<?xml version="1.0" encoding="UTF-8"?>
<svg width="32px" height="32px" viewBox="0 0 32 32" version="1.1" xmlns="http://www.w3.org/2000/svg" xmlns:xlink="http://www.w3.org/1999/xlink">
    <title>youtube</title>
    <g id="Symbols" stroke="none" stroke-width="1" fill="none" fill-rule="evenodd">
        <g id="Footer" transform="translate(-204.000000, -328.000000)" fill="#FF0300" fill-rule="nonzero">
            <g id="youtube" transform="translate(204.000000, 328.000000)">
                <path d="M16,0 C24.8352051,0 32,7.16479494 32,16 C32,24.8352051 24.8352051,32 16,32 C7.16479494,32 0,24.8352051 0,16 C0,7.16479494 7.16479494,0 16,0 Z M16.2476255,9.00072249 L15.7523745,9.00069489 C14.5763384,9.00583709 9.55493746,9.04903158 8.17651369,9.41186525 C7.33642575,9.642334 6.64453125,10.3342285 6.4140625,11.1906738 C6.04338378,12.5989014 6.0063159,15.3678735 6.00260912,15.9075857 L6.00260912,16.0928625 C6.0063159,16.6351148 6.04338378,19.4160401 6.4140625,20.8093262 C6.64477538,21.6657715 7.32006838,22.3413086 8.17651369,22.5717774 C9.56934758,22.9490211 14.5797694,22.9939311 15.7529872,22.9992775 L15.9895308,22.9999942 L15.9895308,22.9999942 L16,23 C16,23 16.0035481,23 16.0104964,22.9999944 L16.2476255,22.9993051 C17.4236616,22.9941629 22.4450625,22.9509684 23.8234863,22.5881348 C24.6799316,22.357666 25.3552246,21.6823731 25.5859375,20.8259278 C25.9564739,19.4177002 25.9935275,16.6485303 25.9972329,16.1087786 L25.9974321,15.8541887 C25.9941423,15.1769173 25.9570638,12.5467448 25.5859375,11.1906738 C25.3552246,10.3342285 24.6799316,9.65869138 23.8234863,9.42822263 C23.2274112,9.2650902 21.9501073,9.16410345 20.5971113,9.10158785 L20.0873724,9.0799016 L20.0873724,9.0799016 L19.5776336,9.06154458 C18.1400754,9.0139874 16.7879664,9.00317896 16.2476255,9.00072249 Z M14.0070801,13.0024414 L19.2116699,16 L14.0070801,18.9975586 L14.0070801,13.0024414 Z" id="Combined-Shape"></path>
            </g>
        </g>
    </g>
</svg>