<svg width="8" height="10" viewBox="0 0 8 10" fill="none" xmlns="http://www.w3.org/2000/svg">
<path d="M6.98651 0.769501H5.99994V0.390625C5.99994 0.174866 5.81846 0 5.59454 0H2.4053C2.18138 0 1.9999 0.174866 1.9999 0.390625V0.769501H1.01349C0.454645 0.769501 0 1.20758 0 1.74606V9.02344C0 9.56192 0.454645 10 1.01349 10H6.98651C7.54535 10 8 9.56192 8 9.02344V1.74606C8 1.20758 7.54528 0.769501 6.98651 0.769501V0.769501ZM5.18915 0.78125V1.53908H2.81061C2.81061 1.27945 2.81061 1.06499 2.81061 0.78125H5.18915ZM7.18921 9.02344C7.18921 9.13116 7.09823 9.21875 6.98651 9.21875H1.01349C0.901689 9.21875 0.810792 9.13116 0.810792 9.02344V1.74606C0.810792 1.63841 0.901689 1.55075 1.01349 1.55075H1.99982V1.9297C1.99982 2.14546 2.18138 2.32033 2.40522 2.32033H5.59454C5.81838 2.32033 5.99994 2.14546 5.99994 1.9297V1.55075H6.98651C7.09823 1.55075 7.18921 1.63841 7.18921 1.74606V9.02344ZM5.88109 4.56093C6.03945 4.71352 6.03945 4.96086 5.88109 5.11337L3.75071 7.16614C3.59243 7.31873 3.33573 7.31873 3.17737 7.16614L2.11867 6.14601C1.96039 5.9935 1.96039 5.74615 2.11867 5.59357C2.27703 5.44106 2.53365 5.44106 2.692 5.59357L3.46408 6.33751L5.30776 4.561C5.46612 4.40842 5.72274 4.40842 5.88109 4.56093V4.56093Z" fill="white"/>
</svg>
